<svg width="32" height="33" viewBox="0 0 32 33" fill="none" xmlns="http://www.w3.org/2000/svg">
  <path d="M11.4508 21.0686C11.392 21.0688 11.3349 21.0495 11.2882 21.0138C11.2416 20.9781 11.208 20.928 11.1927 20.8713C11.1775 20.8145 11.1814 20.7543 11.2038 20.7001C11.2263 20.6458 11.266 20.6004 11.3169 20.571L27.9153 10.9886C27.9753 10.9556 28.0458 10.9469 28.112 10.9644C28.1783 10.9819 28.2353 11.0242 28.2711 11.0826C28.307 11.141 28.3191 11.2109 28.3047 11.278C28.2904 11.345 28.2509 11.4039 28.1943 11.4425L21.7537 15.6393L29.8071 10.9913C29.8676 10.9564 29.9394 10.9467 30.0071 10.9642C30.0747 10.9817 30.1328 11.0251 30.1688 11.085C30.2048 11.1449 30.2159 11.2165 30.1996 11.2845C30.1833 11.3525 30.141 11.4113 30.0817 11.4484L26.9324 13.427L30.6513 11.2798C30.7116 11.2462 30.7826 11.2372 30.8493 11.2547C30.9161 11.2723 30.9735 11.3151 31.0093 11.3741C31.0452 11.4331 31.0567 11.5037 31.0416 11.5711C31.0265 11.6385 30.9858 11.6973 30.9281 11.7353L24.5911 15.8953L31.23 12.0628C31.2904 12.0289 31.3616 12.0199 31.4286 12.0376C31.4955 12.0554 31.553 12.0984 31.5887 12.1577C31.6245 12.2171 31.6357 12.288 31.6202 12.3554C31.6046 12.4229 31.5633 12.4817 31.5052 12.5193L29.4967 13.787L31.3175 12.7358C31.3777 12.7016 31.4489 12.6921 31.516 12.7094C31.5831 12.7267 31.6408 12.7695 31.6769 12.8286C31.7131 12.8877 31.7247 12.9586 31.7095 13.0262C31.6943 13.0938 31.6533 13.1529 31.5953 13.1908L28.279 15.3374L31.319 13.5838C31.3792 13.5508 31.4498 13.5422 31.5162 13.5598C31.5825 13.5775 31.6395 13.6201 31.6753 13.6787C31.711 13.7373 31.7227 13.8075 31.708 13.8746C31.6934 13.9416 31.6534 14.0005 31.5964 14.0388L29.9201 15.1145L31.318 14.3076C31.3783 14.2722 31.4502 14.262 31.518 14.2791C31.5858 14.2962 31.6442 14.3392 31.6806 14.399C31.717 14.4587 31.7284 14.5304 31.7125 14.5985C31.6965 14.6666 31.6544 14.7257 31.5953 14.763L31.3516 14.9193C31.4128 14.8946 31.4811 14.8935 31.5431 14.9162C31.6051 14.9389 31.6565 14.9838 31.6873 15.0422C31.7181 15.1006 31.7261 15.1684 31.7098 15.2324C31.6935 15.2964 31.654 15.3521 31.5991 15.3886L30.0497 16.4217L31.318 15.6894C31.3776 15.6558 31.4478 15.6464 31.5141 15.663C31.5805 15.6797 31.6379 15.7213 31.6744 15.7791C31.711 15.8369 31.724 15.9065 31.7106 15.9736C31.6973 16.0407 31.6587 16.1002 31.6028 16.1396L29.9548 17.2788L31.318 16.4921C31.3772 16.4582 31.4471 16.4482 31.5134 16.4642C31.5798 16.4803 31.6374 16.5211 31.6745 16.5784C31.7116 16.6357 31.7254 16.705 31.7129 16.7721C31.7005 16.8391 31.6628 16.8989 31.6076 16.939L30.1751 17.9753L31.3175 17.3166C31.3767 17.2823 31.4469 17.2721 31.5135 17.2881C31.5801 17.3041 31.638 17.3451 31.6752 17.4026C31.7124 17.4602 31.726 17.5298 31.7132 17.5971C31.7004 17.6644 31.6622 17.7242 31.6065 17.7641L31.3761 17.9289C31.4293 17.9141 31.4858 17.916 31.5379 17.9342C31.5901 17.9524 31.6354 17.9861 31.6679 18.0308C31.7064 18.0848 31.7234 18.1512 31.7156 18.2171C31.7079 18.2829 31.6758 18.3435 31.6257 18.387L30.7287 19.1652L31.3153 18.8254C31.3693 18.7947 31.4324 18.7838 31.4935 18.7946C31.5547 18.8054 31.6102 18.8373 31.6504 18.8846C31.6906 18.932 31.7131 18.9919 31.7138 19.054C31.7146 19.1162 31.6936 19.1766 31.6545 19.2249L31.1212 19.8756C31.1704 19.872 31.2196 19.8826 31.263 19.9061C31.3064 19.9297 31.3421 19.9652 31.366 20.0084C31.4012 20.0695 31.4108 20.1421 31.3926 20.2103C31.3744 20.2785 31.3299 20.3367 31.2689 20.3721L30.1767 21.003C30.1226 21.0341 30.0595 21.0452 29.9981 21.0345C29.9367 21.0239 29.881 20.992 29.8407 20.9446C29.8003 20.8971 29.7779 20.8371 29.7772 20.7748C29.7765 20.7125 29.7976 20.6519 29.8369 20.6036L30.3169 20.0169L28.5868 21.0153C28.5294 21.0487 28.4616 21.0596 28.3966 21.0456C28.3317 21.0317 28.2743 20.994 28.2356 20.94C28.197 20.8859 28.1799 20.8194 28.1878 20.7534C28.1956 20.6875 28.2278 20.6268 28.278 20.5833L29.175 19.8052L27.0775 21.018C27.0182 21.0523 26.948 21.0626 26.8814 21.0466C26.8148 21.0306 26.7569 20.9895 26.7197 20.932C26.6825 20.8744 26.6689 20.8048 26.6817 20.7375C26.6945 20.6702 26.7327 20.6104 26.7884 20.5705L26.9585 20.4484L25.9703 21.0185C25.9111 21.0525 25.8411 21.0625 25.7748 21.0464C25.7085 21.0304 25.6508 20.9895 25.6137 20.9322C25.5766 20.875 25.5629 20.8057 25.5753 20.7386C25.5878 20.6715 25.6255 20.6117 25.6807 20.5716L27.1095 19.5374L24.5409 21.0201C24.4813 21.0548 24.4106 21.065 24.3436 21.0487C24.2766 21.0323 24.2185 20.9907 24.1816 20.9324C24.1446 20.8741 24.1317 20.8038 24.1455 20.7363C24.1593 20.6687 24.1988 20.6091 24.2556 20.57L25.9046 19.4302L23.1468 21.0212C23.087 21.0538 23.017 21.0624 22.9511 21.045C22.8852 21.0277 22.8285 20.9857 22.7925 20.9279C22.7565 20.87 22.7441 20.8006 22.7577 20.7338C22.7713 20.6671 22.81 20.6081 22.8657 20.5689L24.4183 19.5332L21.8391 21.0222C21.7789 21.0553 21.7083 21.0639 21.6419 21.0463C21.5756 21.0286 21.5186 20.986 21.4829 20.9274C21.4471 20.8688 21.4354 20.7986 21.4501 20.7315C21.4647 20.6645 21.5047 20.6056 21.5617 20.5673L21.7516 20.4452L20.75 21.0233C20.69 21.0551 20.6201 21.0628 20.5546 21.0448C20.4891 21.0269 20.4329 20.9846 20.3975 20.9266C20.3622 20.8686 20.3502 20.7993 20.3642 20.7329C20.3781 20.6664 20.4169 20.6078 20.4727 20.5689L22.1521 19.4857L19.4854 21.0244C19.4252 21.0587 19.354 21.0682 19.2869 21.0508C19.2198 21.0335 19.1621 20.9908 19.126 20.9316C19.0898 20.8725 19.0782 20.8016 19.0934 20.734C19.1086 20.6664 19.1496 20.6074 19.2076 20.5694L22.5254 18.4212L18.0145 21.0254C17.9541 21.0593 17.8829 21.0683 17.8159 21.0506C17.749 21.0329 17.6915 20.9898 17.6558 20.9305C17.62 20.8712 17.6088 20.8003 17.6243 20.7328C17.6399 20.6653 17.6812 20.6065 17.7393 20.5689L19.7462 19.3022L16.7596 21.0265C16.6994 21.0625 16.6275 21.0734 16.5594 21.0568C16.4913 21.0402 16.4324 20.9974 16.3956 20.9377C16.3588 20.8781 16.347 20.8063 16.3627 20.738C16.3784 20.6696 16.4204 20.6102 16.4796 20.5726L22.8118 16.4185L14.8305 21.0286C14.7699 21.0651 14.6973 21.0761 14.6286 21.059C14.56 21.042 14.5009 20.9983 14.4644 20.9377C14.4279 20.8771 14.417 20.8045 14.434 20.7358C14.4511 20.6672 14.4947 20.6081 14.5553 20.5716L17.7068 18.5913L13.4844 21.0297C13.4242 21.0647 13.3527 21.0748 13.2852 21.0578C13.2177 21.0408 13.1595 20.998 13.1231 20.9387C13.0866 20.8794 13.0749 20.8081 13.0903 20.7402C13.1057 20.6723 13.147 20.6131 13.2054 20.5753L19.6481 16.3753L11.5836 21.0313C11.5435 21.0555 11.4976 21.0684 11.4508 21.0686Z" fill="#9FB29D"/>
  <path d="M9.30082 24.2327C9.24764 24.2329 9.1956 24.2172 9.15141 24.1876C9.10721 24.158 9.07288 24.1159 9.05281 24.0667C9.03274 24.0174 9.02786 23.9633 9.03879 23.9112C9.04972 23.8592 9.07597 23.8116 9.11415 23.7746L9.46989 23.4284L8.69282 23.877C8.63567 23.91 8.5683 23.9206 8.50376 23.9068C8.43922 23.893 8.38208 23.8558 8.3434 23.8023C8.30472 23.7488 8.28724 23.6829 8.29435 23.6173C8.30146 23.5517 8.33265 23.4911 8.38189 23.4471L9.08749 22.8156L8.10669 23.381C8.04619 23.4138 7.97534 23.4219 7.90897 23.4037C7.8426 23.3855 7.78585 23.3423 7.75058 23.2832C7.71531 23.2241 7.70426 23.1536 7.71974 23.0866C7.73521 23.0195 7.77602 22.961 7.83362 22.9234L10.2096 21.4652L7.61869 22.9612C7.55846 22.9955 7.48725 23.005 7.42015 22.9877C7.35305 22.9704 7.29532 22.9276 7.25919 22.8685C7.22307 22.8093 7.21139 22.7385 7.22663 22.6709C7.24186 22.6032 7.28282 22.5442 7.34082 22.5063L16.1787 16.7996L6.77335 22.2306C6.71281 22.2655 6.64098 22.2752 6.57332 22.2577C6.50566 22.2402 6.44758 22.1968 6.41158 22.1369C6.37558 22.077 6.36454 22.0054 6.38083 21.9374C6.39712 21.8694 6.43944 21.8106 6.49869 21.7735L10.7856 19.0951L6.20162 21.7404C6.14154 21.7746 6.07055 21.7841 6.0036 21.7669C5.93666 21.7498 5.87899 21.7073 5.84276 21.6484C5.80652 21.5896 5.79455 21.519 5.80936 21.4515C5.82417 21.384 5.86461 21.3248 5.92215 21.2866L13.6448 16.2348L5.36162 21.0151C5.30104 21.0492 5.22953 21.0583 5.16232 21.0405C5.09512 21.0227 5.03754 20.9793 5.00186 20.9196C4.96617 20.8599 4.95521 20.7887 4.97131 20.721C4.9874 20.6534 5.02928 20.5947 5.08802 20.5575L5.34829 20.3975L4.92642 20.6412C4.86596 20.6745 4.79494 20.6831 4.7283 20.6651C4.66166 20.6471 4.60459 20.604 4.56908 20.5448C4.53358 20.4856 4.52241 20.415 4.53793 20.3477C4.55345 20.2804 4.59444 20.2218 4.65229 20.1842L5.73015 19.5138L4.46455 20.2444C4.40439 20.2775 4.33378 20.2861 4.26743 20.2685C4.20107 20.2508 4.1441 20.2082 4.10835 20.1496C4.07261 20.0909 4.06086 20.0208 4.07556 19.9537C4.09025 19.8866 4.13024 19.8278 4.18722 19.7895L8.02402 17.3362L3.87095 19.7351C3.81096 19.7707 3.73938 19.7814 3.67158 19.7649C3.60379 19.7484 3.54517 19.7059 3.50832 19.6467C3.47147 19.5874 3.45931 19.5161 3.47446 19.4479C3.48961 19.3798 3.53086 19.3204 3.58935 19.2823L9.17762 15.5527L3.09335 19.0636C3.0331 19.0958 2.96279 19.1037 2.89692 19.0856C2.83105 19.0674 2.77465 19.0247 2.73935 18.9662C2.70405 18.9077 2.69254 18.8379 2.70721 18.7712C2.72187 18.7045 2.76158 18.6459 2.81815 18.6076L2.93229 18.5356L2.66135 18.6919C2.60165 18.7255 2.53131 18.7348 2.46493 18.7179C2.39854 18.701 2.34119 18.6592 2.30478 18.6012C2.26836 18.5432 2.25567 18.4734 2.26933 18.4063C2.28299 18.3392 2.32196 18.2799 2.37815 18.2407L7.07682 15.0407L1.89495 18.0327C1.83448 18.0694 1.76191 18.0806 1.6932 18.0638C1.62448 18.047 1.56526 18.0036 1.52855 17.9431C1.49185 17.8826 1.48067 17.8101 1.49747 17.7413C1.51427 17.6726 1.55768 17.6134 1.61815 17.5767L1.86722 17.4167L1.45602 17.6551C1.39641 17.6898 1.32567 17.7 1.25866 17.6837C1.19166 17.6673 1.1336 17.6256 1.09667 17.5674C1.05974 17.5091 1.04682 17.4388 1.06062 17.3713C1.07443 17.3037 1.11388 17.2441 1.17069 17.205L5.75735 14.0247L0.815488 16.877C0.755442 16.9144 0.682994 16.9264 0.614081 16.9104C0.545168 16.8944 0.485434 16.8517 0.448021 16.7916C0.410608 16.7316 0.39858 16.6591 0.414583 16.5902C0.430586 16.5213 0.473309 16.4616 0.533354 16.4242L3.95415 14.1516L0.693354 16.0343C0.633462 16.069 0.562418 16.0791 0.495242 16.0624C0.428066 16.0456 0.370023 16.0035 0.333384 15.9447C0.296744 15.886 0.284381 15.8153 0.298906 15.7476C0.313432 15.6799 0.353708 15.6206 0.411221 15.582L4.36162 12.9244L2.18669 14.1799C2.12673 14.2146 2.05563 14.2246 1.98844 14.2077C1.92125 14.1909 1.86324 14.1486 1.82669 14.0898C1.79005 14.0308 1.77785 13.9599 1.79269 13.892C1.80753 13.8242 1.84823 13.7648 1.90615 13.7266L4.55255 11.9698C4.50815 11.9532 4.46895 11.9251 4.439 11.8884C4.40904 11.8517 4.38942 11.8077 4.38214 11.7608C4.37486 11.714 4.38019 11.6661 4.39758 11.622C4.41497 11.5779 4.4438 11.5393 4.48109 11.51L7.81655 8.90203C7.78734 8.84145 7.78209 8.77206 7.80187 8.70777C7.82165 8.64348 7.865 8.58905 7.92322 8.55537L9.23149 7.79963C9.28986 7.76665 9.35851 7.75687 9.42377 7.77223C9.48903 7.78759 9.54611 7.82697 9.58364 7.88253C9.62117 7.93808 9.63639 8.00574 9.62628 8.07201C9.61617 8.13829 9.58147 8.19833 9.52909 8.24017L7.80642 9.58737L10.3744 8.1047C10.4345 8.06743 10.507 8.05556 10.5759 8.07172C10.6447 8.08787 10.7043 8.13072 10.7416 8.19083C10.7789 8.25095 10.7908 8.32341 10.7746 8.39227C10.7585 8.46113 10.7156 8.52076 10.6555 8.55803L9.30402 9.45563L10.8176 8.5815C10.8775 8.54679 10.9486 8.53673 11.0157 8.55344C11.0829 8.57016 11.141 8.61234 11.1776 8.67108C11.2142 8.72981 11.2266 8.80049 11.2121 8.86817C11.1975 8.93586 11.1573 8.99524 11.0998 9.03377L7.14669 11.6924L11.0502 9.44177C11.1101 9.40767 11.1809 9.39812 11.2477 9.41512C11.3146 9.43211 11.3722 9.47434 11.4086 9.53292C11.4449 9.59151 11.4572 9.6619 11.4428 9.72933C11.4283 9.79676 11.3884 9.85598 11.3312 9.89457L7.90935 12.1655L11.0592 10.3468C11.1188 10.3121 11.1896 10.3019 11.2566 10.3183C11.3236 10.3346 11.3816 10.3763 11.4186 10.4345C11.4555 10.4928 11.4684 10.5631 11.4546 10.6307C11.4408 10.6983 11.4014 10.7579 11.3446 10.797L6.75789 13.9778L11.9403 10.9884C12.0006 10.9547 12.0715 10.9457 12.1383 10.9633C12.2051 10.9809 12.2624 11.0237 12.2983 11.0827C12.3341 11.1417 12.3457 11.2123 12.3306 11.2797C12.3154 11.3471 12.2747 11.4059 12.2171 11.4439L11.9707 11.6007L13.0326 10.9884C13.0921 10.9561 13.1618 10.9476 13.2274 10.9648C13.293 10.982 13.3496 11.0235 13.3856 11.0809C13.4217 11.1383 13.4346 11.2073 13.4216 11.2738C13.4086 11.3404 13.3708 11.3995 13.3158 11.4391L8.61655 14.6391L14.9403 10.9884C15.0005 10.9562 15.0709 10.9484 15.1367 10.9665C15.2026 10.9846 15.259 11.0273 15.2943 11.0858C15.3296 11.1443 15.3411 11.2141 15.3264 11.2809C15.3118 11.3476 15.2721 11.4061 15.2155 11.4444L15.0934 11.5218L16.0166 10.9884C16.0763 10.9558 16.1464 10.9473 16.2123 10.9646C16.2781 10.982 16.3349 11.0239 16.3708 11.0817C16.4068 11.1396 16.4192 11.209 16.4056 11.2758C16.392 11.3425 16.3534 11.4015 16.2976 11.4407L10.7115 15.1687L17.9552 10.9884C18.0154 10.9553 18.086 10.9467 18.1523 10.9644C18.2187 10.9821 18.2757 11.0247 18.3114 11.0833C18.3472 11.1419 18.3589 11.2121 18.3442 11.2791C18.3295 11.3462 18.2895 11.405 18.2326 11.4434L14.4 13.894L19.4336 10.9884C19.4941 10.9551 19.5651 10.9466 19.6317 10.9646C19.6984 10.9825 19.7555 11.0257 19.791 11.0849C19.8265 11.144 19.8376 11.2147 19.8221 11.282C19.8066 11.3492 19.7656 11.4078 19.7078 11.4455L18.6214 12.1218L20.5867 10.9884C20.6472 10.9556 20.718 10.9475 20.7844 10.9657C20.8508 10.9839 20.9075 11.0271 20.9428 11.0862C20.9781 11.1453 20.9891 11.2158 20.9736 11.2828C20.9582 11.3499 20.9174 11.4084 20.8598 11.446L20.6112 11.5996L21.6683 10.9884C21.7282 10.9566 21.7979 10.9488 21.8634 10.9666C21.9288 10.9844 21.985 11.0264 22.0206 11.0842C22.0561 11.1419 22.0683 11.211 22.0547 11.2775C22.041 11.3439 22.0026 11.4027 21.9472 11.4418L14.2235 16.4935L23.7622 10.9884C23.8225 10.9566 23.8926 10.9491 23.9583 10.9675C24.0239 10.9858 24.0801 11.0286 24.1152 11.087C24.1503 11.1455 24.1616 11.2151 24.147 11.2817C24.1323 11.3483 24.0927 11.4067 24.0363 11.445L19.7456 14.1244L25.1814 10.9884C25.2414 10.9558 25.3117 10.9475 25.3777 10.9653C25.4437 10.983 25.5004 11.0254 25.5361 11.0837C25.5717 11.142 25.5836 11.2118 25.5693 11.2786C25.555 11.3454 25.5156 11.4042 25.4592 11.4428L16.6235 17.1495L27.295 10.9884C27.3554 10.9566 27.4258 10.9491 27.4915 10.9676C27.5573 10.9862 27.6134 11.0292 27.6484 11.0879C27.6834 11.1466 27.6945 11.2165 27.6794 11.2831C27.6643 11.3497 27.6243 11.4081 27.5675 11.446L11.4475 21.3351C11.4393 21.3984 11.4086 21.4567 11.3611 21.4994L10.6555 22.1298L11.0496 21.9031C11.1059 21.8702 11.1723 21.8591 11.2362 21.8718C11.3002 21.8845 11.3573 21.9202 11.3967 21.9722C11.4361 22.0241 11.4551 22.0887 11.4501 22.1537C11.4451 22.2187 11.4165 22.2796 11.3696 22.325L10.992 22.6924C11.0545 22.6741 11.1216 22.6793 11.1805 22.7071C11.2395 22.7348 11.2862 22.7832 11.312 22.843C11.3377 22.9029 11.3406 22.9701 11.3202 23.032C11.2998 23.0938 11.2574 23.1461 11.2011 23.1788L9.43415 24.1986C9.39357 24.2217 9.34752 24.2335 9.30082 24.2327Z" fill="#9FB29D"/>
  <path d="M28.529 21.0381C28.9221 21.0381 29.3168 21.0466 29.7098 21.0381C29.9801 21.0503 30.25 21.0091 30.5043 20.9166C30.7585 20.8242 30.992 20.6825 31.1912 20.4995C31.3905 20.3166 31.5517 20.0961 31.6655 19.8507C31.7793 19.6053 31.8435 19.3399 31.8544 19.0696C31.92 16.9704 31.8544 14.8594 31.8544 12.7586C31.8544 12.7464 31.8469 12.7394 31.8453 12.7288C31.8437 12.7181 31.8538 12.709 31.8528 12.6978C31.8281 12.2239 31.6202 11.778 31.273 11.4544C30.9258 11.1308 30.4665 10.9548 29.992 10.9634C29.7392 10.9538 29.4842 10.9634 29.2314 10.9634H11.5888C11.6069 9.8141 11.7408 8.4717 10.4773 7.93037C9.45117 7.49037 8.5541 7.9885 7.79143 8.64397L1.95037 13.668C1.38023 14.1586 0.548233 14.6877 0.266633 15.4152C-0.163767 16.5378 0.574367 17.2658 1.33703 17.9218L7.28797 23.0445C8.06343 23.7122 8.76637 24.428 9.9013 24.1842C10.3122 24.111 10.6913 23.915 10.9887 23.6221C11.286 23.3291 11.4876 22.953 11.5669 22.5432C11.6181 22.0424 11.6263 21.5381 11.5914 21.036H28.529V21.0381ZM11.3445 20.5629C11.209 20.5629 10.8112 20.6338 10.8112 20.8434C10.8112 21.7858 11.0864 23.8061 9.60903 23.7624C8.94343 23.7426 8.3013 22.9885 7.83197 22.5842L2.54717 18.0349C2.08423 17.636 1.36317 17.1816 1.0821 16.6168C0.572234 15.5896 1.31783 14.9101 2.01063 14.3138L7.19997 9.84877C7.72104 9.34278 8.27322 8.86986 8.8533 8.43277C9.7861 7.81943 10.7621 8.78423 10.8101 9.7165C10.8362 10.2226 10.8101 10.7368 10.8101 11.244C10.8101 11.3768 10.9274 11.4392 11.0528 11.4392H28.1232C29.3226 11.4392 30.9786 11.1922 31.0789 12.892V18.5256C31.0789 19.3613 31.0986 20.4642 29.9808 20.5629C29.577 20.5981 29.1541 20.5629 28.7493 20.5629H11.3445Z" fill="#79907A"/>
  <path d="M8.11101 11.522C8.01474 11.5049 7.91592 11.5092 7.82147 11.5344C7.72703 11.5597 7.63926 11.6053 7.56434 11.6681L3.94674 14.7828L3.42407 15.2324C3.29821 15.339 3.34727 15.4718 3.49821 15.5097C3.59442 15.5263 3.6931 15.5217 3.78734 15.4961C3.88158 15.4706 3.96911 15.4248 4.04381 15.362L7.66247 12.2489L8.18514 11.7993C8.31154 11.6921 8.26194 11.5609 8.11101 11.522Z" fill="#79907A"/>
  </svg>
  