<svg width="32" height="33" viewBox="0 0 32 33" fill="none" xmlns="http://www.w3.org/2000/svg">
  <path d="M20.5492 21.0686C20.608 21.0688 20.6651 21.0495 20.7118 21.0138C20.7584 20.9781 20.792 20.928 20.8073 20.8713C20.8225 20.8145 20.8186 20.7543 20.7962 20.7001C20.7737 20.6458 20.734 20.6004 20.6831 20.571L4.08468 10.9886C4.02466 10.9556 3.95421 10.9469 3.88796 10.9644C3.8217 10.9819 3.76473 11.0242 3.72885 11.0826C3.69297 11.141 3.68094 11.2109 3.69526 11.278C3.70958 11.345 3.74915 11.4039 3.80575 11.4425L10.2463 15.6393L2.19295 10.9913C2.1324 10.9564 2.06057 10.9467 1.99291 10.9642C1.92525 10.9817 1.86717 11.0251 1.83117 11.085C1.79517 11.1449 1.78413 11.2165 1.80042 11.2845C1.81671 11.3525 1.85904 11.4113 1.91828 11.4484L5.06762 13.427L1.34868 11.2798C1.28841 11.2462 1.21743 11.2372 1.15066 11.2547C1.08389 11.2723 1.02654 11.3151 0.990686 11.3741C0.954828 11.4331 0.943254 11.5037 0.958397 11.5711C0.973541 11.6385 1.01422 11.6973 1.07188 11.7353L7.40895 15.8953L0.770016 12.0628C0.709597 12.0289 0.638374 12.0199 0.571423 12.0376C0.504471 12.0554 0.447042 12.0984 0.411287 12.1577C0.37553 12.2171 0.364256 12.288 0.379845 12.3554C0.395435 12.4229 0.436666 12.4817 0.494818 12.5193L2.50335 13.787L0.682549 12.7358C0.622322 12.7016 0.551113 12.6921 0.484011 12.7094C0.416906 12.7267 0.359179 12.7695 0.323055 12.8286C0.286932 12.8877 0.275253 12.9586 0.290489 13.0262C0.305727 13.0938 0.346682 13.1529 0.404682 13.1908L3.72095 15.3374L0.68095 13.5838C0.620785 13.5508 0.550173 13.5422 0.48382 13.5598C0.417469 13.5775 0.360489 13.6201 0.324749 13.6787C0.289007 13.7373 0.27726 13.8075 0.29195 13.8746C0.306641 13.9416 0.34664 14.0005 0.403616 14.0388L2.07988 15.1145L0.682016 14.3076C0.62167 14.2722 0.549843 14.262 0.482018 14.2791C0.414192 14.2962 0.355799 14.3392 0.319422 14.399C0.283045 14.4587 0.271597 14.5304 0.287546 14.5985C0.303493 14.6666 0.345562 14.7257 0.404682 14.763L0.648417 14.9193C0.587175 14.8946 0.518946 14.8935 0.456934 14.9162C0.394924 14.9389 0.343544 14.9838 0.312742 15.0422C0.281942 15.1006 0.273912 15.1684 0.290207 15.2324C0.306501 15.2964 0.345963 15.3521 0.400949 15.3886L1.95028 16.4217L0.682016 15.6894C0.622444 15.6558 0.552223 15.6464 0.485876 15.663C0.419529 15.6797 0.362131 15.7213 0.325552 15.7791C0.288975 15.8369 0.276014 15.9065 0.289352 15.9736C0.302691 16.0407 0.341307 16.1002 0.397215 16.1396L2.04522 17.2788L0.682016 16.4921C0.622833 16.4582 0.552885 16.4482 0.486563 16.4642C0.420242 16.4803 0.362595 16.5211 0.325489 16.5784C0.288383 16.6357 0.274643 16.705 0.287092 16.7721C0.299541 16.8391 0.337236 16.8989 0.392416 16.939L1.82495 17.9753L0.682549 17.3166C0.623287 17.2823 0.553074 17.2721 0.486467 17.2881C0.419861 17.3041 0.361973 17.3451 0.324802 17.4026C0.28763 17.4602 0.274027 17.5298 0.286814 17.5971C0.299601 17.6644 0.337797 17.7242 0.393482 17.7641L0.623882 17.9289C0.570669 17.9141 0.51421 17.916 0.46207 17.9342C0.409929 17.9524 0.364599 17.9861 0.33215 18.0308C0.293604 18.0848 0.276562 18.1512 0.284351 18.2171C0.292143 18.2829 0.324205 18.3435 0.374283 18.387L1.27135 19.1652L0.684683 18.8254C0.630678 18.7947 0.56764 18.7838 0.506456 18.7946C0.445272 18.8054 0.389784 18.8373 0.349569 18.8846C0.309355 18.932 0.28694 18.9919 0.286192 19.054C0.285446 19.1162 0.306417 19.1766 0.345482 19.2249L0.878817 19.8756C0.829584 19.872 0.780357 19.8826 0.736971 19.9061C0.693583 19.9297 0.657852 19.9652 0.634016 20.0084C0.59878 20.0695 0.589211 20.1421 0.607405 20.2103C0.625599 20.2785 0.670071 20.3367 0.731083 20.3721L1.82335 21.003C1.87736 21.0341 1.94053 21.0452 2.0019 21.0345C2.06327 21.0239 2.11897 20.992 2.15932 20.9446C2.19968 20.8971 2.22215 20.8371 2.22284 20.7748C2.22352 20.7125 2.20238 20.6519 2.16308 20.6036L1.68308 20.0169L3.41322 21.0153C3.47062 21.0487 3.53843 21.0596 3.60338 21.0456C3.66833 21.0317 3.72574 20.994 3.76437 20.94C3.803 20.8859 3.82007 20.8194 3.81223 20.7534C3.8044 20.6875 3.77223 20.6268 3.72202 20.5833L2.82495 19.8052L4.92255 21.018C4.98181 21.0523 5.05202 21.0626 5.11863 21.0466C5.18524 21.0306 5.24313 20.9895 5.2803 20.932C5.31747 20.8744 5.33107 20.8048 5.31828 20.7375C5.3055 20.6702 5.2673 20.6104 5.21162 20.5705L5.04148 20.4484L6.02975 21.0185C6.08893 21.0525 6.15888 21.0625 6.2252 21.0464C6.29152 21.0304 6.34917 20.9895 6.38628 20.9322C6.42338 20.875 6.43712 20.8057 6.42467 20.7386C6.41222 20.6715 6.37453 20.6117 6.31935 20.5716L4.89055 19.5374L7.45908 21.0201C7.5187 21.0548 7.58943 21.065 7.65644 21.0487C7.72345 21.0323 7.78151 20.9907 7.81843 20.9324C7.85536 20.8741 7.86828 20.8038 7.85448 20.7363C7.84068 20.6687 7.80123 20.6091 7.74442 20.57L6.09535 19.4302L8.85322 21.0212C8.91301 21.0538 8.98304 21.0624 9.04891 21.045C9.1148 21.0277 9.17154 20.9857 9.2075 20.9279C9.24346 20.87 9.25591 20.8006 9.24229 20.7338C9.22868 20.6671 9.19003 20.6081 9.13428 20.5689L7.58175 19.5332L10.1609 21.0222C10.2211 21.0553 10.2917 21.0639 10.3581 21.0463C10.4244 21.0286 10.4814 20.986 10.5171 20.9274C10.5529 20.8688 10.5646 20.7986 10.5499 20.7315C10.5353 20.6645 10.4953 20.6056 10.4383 20.5673L10.2484 20.4452L11.25 21.0233C11.31 21.0551 11.3799 21.0628 11.4454 21.0448C11.5109 21.0269 11.5671 20.9846 11.6025 20.9266C11.6378 20.8686 11.6498 20.7993 11.6358 20.7329C11.6219 20.6664 11.5831 20.6078 11.5273 20.5689L9.84788 19.4857L12.5146 21.0244C12.5748 21.0587 12.646 21.0682 12.7131 21.0508C12.7802 21.0335 12.8379 20.9908 12.874 20.9316C12.9102 20.8725 12.9218 20.8016 12.9066 20.734C12.8914 20.6664 12.8504 20.6074 12.7924 20.5694L9.47455 18.4212L13.9855 21.0254C14.0459 21.0593 14.1171 21.0683 14.1841 21.0506C14.251 21.0329 14.3085 20.9898 14.3442 20.9305C14.38 20.8712 14.3912 20.8003 14.3757 20.7328C14.3601 20.6653 14.3188 20.6065 14.2607 20.5689L12.2538 19.3022L15.2404 21.0265C15.3006 21.0625 15.3725 21.0734 15.4406 21.0568C15.5087 21.0402 15.5676 20.9974 15.6044 20.9377C15.6412 20.8781 15.653 20.8063 15.6373 20.738C15.6216 20.6696 15.5796 20.6102 15.5204 20.5726L9.18815 16.4185L17.1695 21.0286C17.2301 21.0651 17.3027 21.0761 17.3714 21.059C17.44 21.042 17.4991 20.9983 17.5356 20.9377C17.5721 20.8771 17.583 20.8045 17.566 20.7358C17.5489 20.6672 17.5053 20.6081 17.4447 20.5716L14.2932 18.5913L18.5156 21.0297C18.5758 21.0647 18.6473 21.0748 18.7148 21.0578C18.7823 21.0408 18.8405 20.998 18.8769 20.9387C18.9134 20.8794 18.9251 20.8081 18.9097 20.7402C18.8943 20.6723 18.853 20.6131 18.7946 20.5753L12.3519 16.3753L20.4164 21.0313C20.4565 21.0555 20.5024 21.0684 20.5492 21.0686Z" fill="#9FB29D"/>
  <path d="M22.6992 24.2327C22.7524 24.2329 22.8044 24.2172 22.8486 24.1876C22.8928 24.158 22.9271 24.1159 22.9472 24.0667C22.9673 24.0174 22.9721 23.9633 22.9612 23.9112C22.9503 23.8592 22.924 23.8116 22.8858 23.7746L22.5301 23.4284L23.3072 23.877C23.3643 23.91 23.4317 23.9206 23.4962 23.9068C23.5608 23.893 23.6179 23.8558 23.6566 23.8023C23.6953 23.7488 23.7128 23.6829 23.7056 23.6173C23.6985 23.5517 23.6673 23.4911 23.6181 23.4471L22.9125 22.8156L23.8933 23.381C23.9538 23.4138 24.0247 23.4219 24.091 23.4037C24.1574 23.3855 24.2142 23.3423 24.2494 23.2832C24.2847 23.2241 24.2957 23.1536 24.2803 23.0866C24.2648 23.0195 24.224 22.961 24.1664 22.9234L21.7904 21.4652L24.3813 22.9612C24.4415 22.9955 24.5127 23.005 24.5799 22.9877C24.647 22.9704 24.7047 22.9276 24.7408 22.8685C24.7769 22.8093 24.7886 22.7385 24.7734 22.6709C24.7581 22.6032 24.7172 22.5442 24.6592 22.5063L15.8213 16.7996L25.2266 22.2306C25.2872 22.2655 25.359 22.2752 25.4267 22.2577C25.4943 22.2402 25.5524 22.1968 25.5884 22.1369C25.6244 22.077 25.6355 22.0054 25.6192 21.9374C25.6029 21.8694 25.5606 21.8106 25.5013 21.7735L21.2144 19.0951L25.7984 21.7404C25.8585 21.7746 25.9295 21.7841 25.9964 21.7669C26.0633 21.7498 26.121 21.7073 26.1572 21.6484C26.1935 21.5896 26.2055 21.519 26.1906 21.4515C26.1758 21.384 26.1354 21.3248 26.0778 21.2866L18.3552 16.2348L26.6384 21.0151C26.699 21.0492 26.7705 21.0583 26.8377 21.0405C26.9049 21.0227 26.9625 20.9793 26.9981 20.9196C27.0338 20.8599 27.0448 20.7887 27.0287 20.721C27.0126 20.6534 26.9707 20.5947 26.912 20.5575L26.6517 20.3975L27.0736 20.6412C27.134 20.6745 27.2051 20.6831 27.2717 20.6651C27.3383 20.6471 27.3954 20.604 27.4309 20.5448C27.4664 20.4856 27.4776 20.415 27.4621 20.3477C27.4466 20.2804 27.4056 20.2218 27.3477 20.1842L26.2698 19.5138L27.5354 20.2444C27.5956 20.2775 27.6662 20.2861 27.7326 20.2685C27.7989 20.2508 27.8559 20.2082 27.8916 20.1496C27.9274 20.0909 27.9391 20.0208 27.9244 19.9537C27.9098 19.8866 27.8698 19.8278 27.8128 19.7895L23.976 17.3362L28.129 19.7351C28.189 19.7707 28.2606 19.7814 28.3284 19.7649C28.3962 19.7484 28.4548 19.7059 28.4917 19.6467C28.5285 19.5874 28.5407 19.5161 28.5255 19.4479C28.5104 19.3798 28.4691 19.3204 28.4106 19.2823L22.8224 15.5527L28.9066 19.0636C28.9669 19.0958 29.0372 19.1037 29.1031 19.0856C29.1689 19.0674 29.2254 19.0247 29.2607 18.9662C29.296 18.9077 29.3075 18.8379 29.2928 18.7712C29.2781 18.7045 29.2384 18.6459 29.1818 18.6076L29.0677 18.5356L29.3386 18.6919C29.3984 18.7255 29.4687 18.7348 29.5351 18.7179C29.6015 18.701 29.6588 18.6592 29.6952 18.6012C29.7316 18.5432 29.7443 18.4734 29.7307 18.4063C29.717 18.3392 29.678 18.2799 29.6218 18.2407L24.9232 15.0407L30.105 18.0327C30.1655 18.0694 30.2381 18.0806 30.3068 18.0638C30.3755 18.047 30.4347 18.0036 30.4714 17.9431C30.5082 17.8826 30.5193 17.8101 30.5025 17.7413C30.4857 17.6726 30.4423 17.6134 30.3818 17.5767L30.1328 17.4167L30.544 17.6551C30.6036 17.6898 30.6743 17.7 30.7413 17.6837C30.8083 17.6673 30.8664 17.6256 30.9033 17.5674C30.9403 17.5091 30.9532 17.4388 30.9394 17.3713C30.9256 17.3037 30.8861 17.2441 30.8293 17.205L26.2426 14.0247L31.1845 16.877C31.2446 16.9144 31.317 16.9264 31.3859 16.9104C31.4548 16.8944 31.5146 16.8517 31.552 16.7916C31.5894 16.7316 31.6014 16.6591 31.5854 16.5902C31.5694 16.5213 31.5267 16.4616 31.4666 16.4242L28.0458 14.1516L31.3066 16.0343C31.3665 16.069 31.4376 16.0791 31.5048 16.0624C31.5719 16.0456 31.63 16.0035 31.6666 15.9447C31.7033 15.886 31.7156 15.8153 31.7011 15.7476C31.6866 15.6799 31.6463 15.6206 31.5888 15.582L27.6384 12.9244L29.8133 14.1799C29.8733 14.2146 29.9444 14.2246 30.0116 14.2077C30.0788 14.1909 30.1368 14.1486 30.1733 14.0898C30.21 14.0308 30.2222 13.9599 30.2073 13.892C30.1925 13.8242 30.1518 13.7648 30.0938 13.7266L27.4474 11.9698C27.4919 11.9532 27.5311 11.9251 27.561 11.8884C27.591 11.8517 27.6106 11.8077 27.6179 11.7608C27.6251 11.714 27.6198 11.6661 27.6024 11.622C27.585 11.5779 27.5562 11.5393 27.5189 11.51L24.1834 8.90203C24.2127 8.84145 24.2179 8.77206 24.1981 8.70777C24.1783 8.64348 24.135 8.58905 24.0768 8.55537L22.7685 7.79963C22.7101 7.76665 22.6415 7.75687 22.5762 7.77223C22.511 7.78759 22.4539 7.82697 22.4164 7.88253C22.3788 7.93808 22.3636 8.00574 22.3737 8.07201C22.3838 8.13829 22.4185 8.19833 22.4709 8.24017L24.1936 9.58737L21.6256 8.1047C21.5655 8.06743 21.493 8.05556 21.4241 8.07172C21.3553 8.08787 21.2957 8.13072 21.2584 8.19083C21.2211 8.25095 21.2092 8.32341 21.2254 8.39227C21.2415 8.46113 21.2844 8.52076 21.3445 8.55803L22.696 9.45563L21.1824 8.5815C21.1225 8.54679 21.0514 8.53673 20.9843 8.55344C20.9171 8.57016 20.859 8.61234 20.8224 8.67108C20.7858 8.72981 20.7734 8.80049 20.7879 8.86817C20.8025 8.93586 20.8427 8.99524 20.9002 9.03377L24.8533 11.6924L20.9498 9.44177C20.8899 9.40767 20.8191 9.39812 20.7523 9.41512C20.6854 9.43211 20.6278 9.47434 20.5914 9.53292C20.5551 9.59151 20.5428 9.6619 20.5572 9.72933C20.5717 9.79676 20.6116 9.85598 20.6688 9.89457L24.0906 12.1655L20.9408 10.3468C20.8812 10.3121 20.8104 10.3019 20.7434 10.3183C20.6764 10.3346 20.6184 10.3763 20.5814 10.4345C20.5445 10.4928 20.5316 10.5631 20.5454 10.6307C20.5592 10.6983 20.5986 10.7579 20.6554 10.797L25.2421 13.9778L20.0597 10.9884C19.9994 10.9547 19.9285 10.9457 19.8617 10.9633C19.7949 10.9809 19.7376 11.0237 19.7017 11.0827C19.6659 11.1417 19.6543 11.2123 19.6694 11.2797C19.6846 11.3471 19.7253 11.4059 19.7829 11.4439L20.0293 11.6007L18.9674 10.9884C18.9079 10.9561 18.8382 10.9476 18.7726 10.9648C18.707 10.982 18.6504 11.0235 18.6144 11.0809C18.5783 11.1383 18.5654 11.2073 18.5784 11.2738C18.5914 11.3404 18.6292 11.3995 18.6842 11.4391L23.3834 14.6391L17.0597 10.9884C16.9995 10.9562 16.9291 10.9484 16.8633 10.9665C16.7974 10.9846 16.741 11.0273 16.7057 11.0858C16.6704 11.1443 16.6589 11.2141 16.6736 11.2809C16.6882 11.3476 16.7279 11.4061 16.7845 11.4444L16.9066 11.5218L15.9834 10.9884C15.9237 10.9558 15.8536 10.9473 15.7877 10.9646C15.7219 10.982 15.6651 11.0239 15.6292 11.0817C15.5932 11.1396 15.5808 11.209 15.5944 11.2758C15.608 11.3425 15.6466 11.4015 15.7024 11.4407L21.2885 15.1687L14.0448 10.9884C13.9846 10.9553 13.914 10.9467 13.8477 10.9644C13.7813 10.9821 13.7243 11.0247 13.6886 11.0833C13.6528 11.1419 13.6411 11.2121 13.6558 11.2791C13.6705 11.3462 13.7105 11.405 13.7674 11.4434L17.6 13.894L12.5664 10.9884C12.5059 10.9551 12.4349 10.9466 12.3683 10.9646C12.3016 10.9825 12.2445 11.0257 12.209 11.0849C12.1735 11.144 12.1624 11.2147 12.1779 11.282C12.1934 11.3492 12.2344 11.4078 12.2922 11.4455L13.3786 12.1218L11.4133 10.9884C11.3528 10.9556 11.282 10.9475 11.2156 10.9657C11.1492 10.9839 11.0925 11.0271 11.0572 11.0862C11.0219 11.1453 11.0109 11.2158 11.0264 11.2828C11.0418 11.3499 11.0826 11.4084 11.1402 11.446L11.3888 11.5996L10.3317 10.9884C10.2718 10.9566 10.2021 10.9488 10.1366 10.9666C10.0712 10.9844 10.015 11.0264 9.97944 11.0842C9.9439 11.1419 9.9317 11.211 9.94533 11.2775C9.95895 11.3439 9.99737 11.4027 10.0528 11.4418L17.7765 16.4935L8.23784 10.9884C8.17755 10.9566 8.10736 10.9491 8.04171 10.9675C7.97606 10.9858 7.91992 11.0286 7.88482 11.087C7.84973 11.1455 7.83835 11.2151 7.85302 11.2817C7.86769 11.3483 7.9073 11.4067 7.96371 11.445L12.2544 14.1244L6.81865 10.9884C6.75858 10.9558 6.68828 10.9475 6.62228 10.9653C6.55627 10.983 6.49959 11.0254 6.46393 11.0837C6.42828 11.142 6.41637 11.2118 6.43067 11.2786C6.44497 11.3454 6.48438 11.4042 6.54078 11.4428L15.3765 17.1495L4.70504 10.9884C4.64461 10.9566 4.57425 10.9491 4.50848 10.9676C4.44272 10.9862 4.38656 11.0292 4.35161 11.0879C4.31665 11.1466 4.30555 11.2165 4.3206 11.2831C4.33566 11.3497 4.37572 11.4081 4.43251 11.446L20.5525 21.3351C20.5607 21.3984 20.5914 21.4567 20.6389 21.4994L21.3445 22.1298L20.9504 21.9031C20.8941 21.8702 20.8277 21.8591 20.7638 21.8718C20.6998 21.8845 20.6427 21.9202 20.6033 21.9722C20.5639 22.0241 20.5449 22.0887 20.5499 22.1537C20.5549 22.2187 20.5835 22.2796 20.6304 22.325L21.008 22.6924C20.9455 22.6741 20.8784 22.6793 20.8195 22.7071C20.7605 22.7348 20.7138 22.7832 20.688 22.843C20.6623 22.9029 20.6594 22.9701 20.6798 23.032C20.7002 23.0938 20.7426 23.1461 20.7989 23.1788L22.5658 24.1986C22.6064 24.2217 22.6525 24.2335 22.6992 24.2327Z" fill="#9FB29D"/>
  <path d="M3.47072 21.0381C3.07765 21.0381 2.68299 21.0466 2.28992 21.0381C2.01969 21.0503 1.74971 21.0091 1.49549 20.9166C1.24126 20.8242 1.0078 20.6825 0.808527 20.4995C0.609249 20.3166 0.44808 20.0961 0.334278 19.8507C0.220474 19.6053 0.156281 19.3399 0.145386 19.0696C0.0797863 16.9704 0.145386 14.8594 0.145386 12.7586C0.145386 12.7464 0.152853 12.7394 0.154453 12.7288C0.156054 12.7181 0.14592 12.709 0.146988 12.6978C0.171669 12.2239 0.379541 11.778 0.726728 11.4544C1.07392 11.1308 1.53325 10.9548 2.00779 10.9634C2.26059 10.9538 2.51552 10.9634 2.76832 10.9634H20.411C20.3929 9.8141 20.259 8.4717 21.5225 7.93037C22.5486 7.49037 23.4457 7.9885 24.2083 8.64397L30.0494 13.668C30.6195 14.1586 31.4515 14.6877 31.7331 15.4152C32.1635 16.5378 31.4254 17.2658 30.6627 17.9218L24.7118 23.0445C23.9363 23.7122 23.2334 24.428 22.0985 24.1842C21.6875 24.111 21.3084 23.915 21.0111 23.6221C20.7138 23.3291 20.5122 22.953 20.4329 22.5432C20.3817 22.0424 20.3735 21.5381 20.4083 21.036H3.47072V21.0381ZM20.6553 20.5629C20.7907 20.5629 21.1886 20.6338 21.1886 20.8434C21.1886 21.7858 20.9134 23.8061 22.3907 23.7624C23.0563 23.7426 23.6985 22.9885 24.1678 22.5842L29.4526 18.0349C29.9155 17.636 30.6366 17.1816 30.9177 16.6168C31.4275 15.5896 30.6819 14.9101 29.9891 14.3138L24.7998 9.84877C24.2787 9.34278 23.7265 8.86986 23.1465 8.43277C22.2137 7.81943 21.2377 8.78423 21.1897 9.7165C21.1635 10.2226 21.1897 10.7368 21.1897 11.244C21.1897 11.3768 21.0723 11.4392 20.947 11.4392H3.87659C2.67712 11.4392 1.02112 11.1922 0.920855 12.892V18.5256C0.920855 19.3613 0.901119 20.4642 2.01899 20.5629C2.42272 20.5981 2.84565 20.5629 3.25045 20.5629H20.6553Z" fill="#79907A"/>
  <path d="M23.8887 11.522C23.985 11.5049 24.0838 11.5092 24.1783 11.5344C24.2727 11.5597 24.3605 11.6053 24.4354 11.6681L28.053 14.7828L28.5757 15.2324C28.7015 15.339 28.6525 15.4718 28.5016 15.5097C28.4053 15.5263 28.3067 15.5217 28.2124 15.4961C28.1182 15.4706 28.0306 15.4248 27.956 15.362L24.3373 12.2489L23.8146 11.7993C23.6882 11.6921 23.7378 11.5609 23.8887 11.522Z" fill="#79907A"/>
  </svg>
  