<svg width="8" height="8" viewBox="0 0 8 8" fill="none" xmlns="http://www.w3.org/2000/svg">
  <path d="M3.93755 7.99998C3.90829 7.99993 3.8798 7.9906 3.85617 7.97332C3.83254 7.95605 3.815 7.93172 3.80605 7.90384C3.7971 7.87595 3.79721 7.84595 3.80637 7.81813C3.81553 7.79032 3.83327 7.76612 3.85702 7.74903L5.31889 6.69981L3.24992 7.89528C3.21889 7.91298 3.18224 7.91798 3.14761 7.90925C3.11298 7.90051 3.08307 7.87872 3.06413 7.84842C3.04519 7.81812 3.03868 7.78166 3.04598 7.74667C3.05327 7.71167 3.0738 7.68086 3.10326 7.66067L4.48875 6.72363L2.72749 7.74183C2.6966 7.75886 2.66039 7.76344 2.62624 7.75464C2.59209 7.74583 2.56259 7.72431 2.54376 7.69447C2.52493 7.66462 2.5182 7.62871 2.52493 7.59406C2.53167 7.55941 2.55137 7.52865 2.58 7.50805L4.83879 5.95693L2.18541 7.49032C2.15434 7.50835 2.11748 7.51358 2.08263 7.5049C2.04777 7.49621 2.01766 7.47431 1.99865 7.4438C1.97964 7.4133 1.97322 7.37659 1.98076 7.34144C1.9883 7.30629 2.00919 7.27545 2.03903 7.25544L4.38056 5.68105L1.746 7.20447C1.7147 7.22365 1.67707 7.22959 1.64139 7.22099C1.60572 7.2124 1.57491 7.18996 1.55576 7.15863C1.5366 7.1273 1.53067 7.08964 1.53926 7.05393C1.54784 7.01821 1.57025 6.98738 1.60155 6.96821L3.10797 5.99266L1.4477 6.95297C1.41655 6.97105 1.37959 6.97626 1.34466 6.9675C1.30974 6.95873 1.2796 6.93669 1.26065 6.90604C1.24171 6.87539 1.23544 6.83855 1.24319 6.80336C1.25094 6.76816 1.27209 6.73737 1.30215 6.71753L3.7718 5.08332L1.12257 6.61422C1.09137 6.63166 1.05465 6.63635 1.02008 6.6273C0.985506 6.61825 0.955775 6.59617 0.937108 6.56567C0.91844 6.53517 0.912285 6.49862 0.91993 6.46368C0.927576 6.42874 0.948429 6.39812 0.978123 6.37823L2.79639 5.20159L0.887086 6.30566C0.855816 6.32315 0.818986 6.32783 0.784345 6.31869C0.749703 6.30956 0.71995 6.28734 0.701346 6.25669C0.682742 6.22605 0.676736 6.18938 0.684593 6.15439C0.69245 6.11941 0.713557 6.08883 0.743473 6.06911L2.22222 5.12071L0.700306 6.00069C0.669305 6.01788 0.632898 6.02251 0.598591 6.01362C0.564284 6.00472 0.534694 5.98299 0.515921 5.95291C0.497149 5.92282 0.490625 5.88667 0.497696 5.85191C0.504767 5.81715 0.524894 5.78643 0.553926 5.76609L3.52663 3.77179L0.478384 5.53342C0.447083 5.55259 0.409457 5.55853 0.37378 5.54994C0.338103 5.54134 0.307299 5.51891 0.288145 5.48758C0.26899 5.45625 0.263055 5.41858 0.271643 5.38287C0.280231 5.34716 0.302641 5.31632 0.333941 5.29715L2.03571 4.19281L0.35082 5.16614C0.319582 5.18308 0.283028 5.18735 0.248733 5.17805C0.214437 5.16875 0.18503 5.14661 0.166604 5.1162C0.148177 5.08579 0.142144 5.04945 0.149755 5.01471C0.157365 4.97997 0.178036 4.94949 0.207484 4.92959L0.819568 4.54181L0.275832 4.85286C0.244638 4.87031 0.207911 4.875 0.173341 4.86595C0.138771 4.8569 0.10904 4.83481 0.0903725 4.80432C0.0717052 4.77382 0.0655496 4.73727 0.073195 4.70233C0.0808404 4.66739 0.101694 4.63677 0.131388 4.61687L1.6533 3.63025L0.222426 4.45705C0.191116 4.47542 0.153851 4.48074 0.118661 4.47186C0.0834708 4.46298 0.0531741 4.44062 0.0343005 4.40959C0.0154268 4.37856 0.00948725 4.34136 0.0177618 4.30599C0.0260364 4.27062 0.0478626 4.23992 0.0785364 4.22051L0.752051 3.78924L0.204163 4.105C0.173186 4.12177 0.136986 4.12608 0.102943 4.11706C0.0688998 4.10804 0.0395749 4.08636 0.0209452 4.05644C0.00231543 4.02653 -0.0042171 3.99063 0.00267909 3.95606C0.00957527 3.92149 0.0293812 3.89085 0.05806 3.8704L1.96736 2.58878L0.240135 3.58593C0.209112 3.60289 0.172782 3.60731 0.138601 3.5983C0.104421 3.58929 0.0749809 3.56753 0.0563238 3.53748C0.0376668 3.50743 0.0312072 3.47137 0.0382707 3.4367C0.0453343 3.40203 0.0653853 3.37138 0.094309 3.35105L1.27974 2.56191L0.336431 3.10785C0.305572 3.1259 0.268934 3.13129 0.234193 3.1229C0.199451 3.1145 0.169302 3.09298 0.15006 3.06284C0.130817 3.03269 0.123974 2.99626 0.130965 2.96118C0.137955 2.92609 0.158237 2.89508 0.187561 2.87463L1.70394 1.80685L0.576063 2.45888C0.545179 2.47662 0.50865 2.48176 0.474077 2.47322C0.439504 2.46469 0.409549 2.44314 0.390443 2.41307C0.371337 2.38299 0.364553 2.34669 0.3715 2.31173C0.378448 2.27678 0.398594 2.24585 0.427746 2.22538L0.922228 1.87998L0.909499 1.88745C0.878951 1.90555 0.842626 1.91119 0.808035 1.90323C0.773444 1.89527 0.743234 1.8743 0.723652 1.84467C0.70407 1.81503 0.696615 1.779 0.702827 1.74402C0.70904 1.70904 0.728446 1.67779 0.757031 1.65672L1.39651 1.17366C1.38113 1.16245 1.36831 1.1481 1.35888 1.13156C1.34053 1.09975 1.33556 1.06195 1.34506 1.02647C1.35455 0.990993 1.37774 0.960744 1.40952 0.942378L2.66495 0.216675C2.69545 0.199185 2.73145 0.193969 2.76565 0.202084C2.79985 0.2102 2.82968 0.23104 2.84909 0.260373C2.86849 0.289705 2.87602 0.325331 2.87014 0.360016C2.86426 0.394702 2.84541 0.425847 2.81742 0.447127L2.71808 0.52219L3.58529 0.0219539C3.61618 0.00421237 3.65271 -0.00092684 3.68728 0.00760553C3.72185 0.0161379 3.75181 0.037685 3.77091 0.0677635C3.79002 0.0978421 3.7968 0.134136 3.78986 0.169095C3.78291 0.204053 3.76276 0.234985 3.73361 0.255453L3.23553 0.603347L4.24719 0.0189071C4.27804 0.00086356 4.31468 -0.00452711 4.34942 0.00386457C4.38416 0.0122563 4.41431 0.0337792 4.43356 0.0639248C4.4528 0.0940704 4.45964 0.1305 4.45265 0.165583C4.44566 0.200666 4.42538 0.23168 4.39606 0.252129L2.87913 1.31991L4.92872 0.135518C4.95982 0.117812 4.99656 0.112852 5.03123 0.121679C5.0659 0.130506 5.09581 0.152433 5.11468 0.182859C5.13355 0.213285 5.13991 0.249845 5.13243 0.284864C5.12494 0.319883 5.1042 0.35064 5.07455 0.370679L3.88967 1.1587L5.39 0.291461C5.421 0.274273 5.45741 0.269648 5.49172 0.27854C5.52602 0.287431 5.55561 0.309161 5.57439 0.339248C5.59316 0.369335 5.59968 0.405486 5.59261 0.440246C5.58554 0.475006 5.56541 0.505725 5.53638 0.526068L3.62957 1.80602L5.85709 0.518589C5.88836 0.501093 5.92519 0.49642 5.95983 0.505552C5.99447 0.514684 6.02422 0.53691 6.04283 0.567553C6.06143 0.598196 6.06744 0.634868 6.05958 0.669854C6.05172 0.704839 6.03062 0.73541 6.0007 0.755135L5.32304 1.19L6.15317 0.710263C6.1844 0.692086 6.22149 0.686855 6.25652 0.695687C6.29155 0.70452 6.32174 0.726716 6.34063 0.757533C6.35953 0.788349 6.36564 0.825342 6.35765 0.860607C6.34967 0.895871 6.32822 0.926611 6.29789 0.946256L4.77598 1.93371L6.46779 0.95595C6.49908 0.938725 6.53581 0.934279 6.57031 0.94354C6.6048 0.952802 6.63437 0.975054 6.65285 1.00564C6.67133 1.03623 6.67728 1.07279 6.66945 1.10766C6.66162 1.14254 6.64062 1.17304 6.61085 1.19277L6.0043 1.57778L6.6994 1.17615C6.73065 1.15835 6.76759 1.15342 6.8024 1.16241C6.83722 1.1714 6.86717 1.19361 6.88591 1.22432C6.90466 1.25504 6.91072 1.29185 6.90281 1.32696C6.89491 1.36207 6.87366 1.39272 6.84356 1.41242L5.13736 2.51538L6.95425 1.4656C6.98529 1.44818 7.02186 1.44341 7.05633 1.45227C7.0908 1.46114 7.12054 1.48296 7.13935 1.51321C7.15816 1.54345 7.16461 1.57979 7.15735 1.61467C7.15008 1.64955 7.12967 1.68029 7.10035 1.70049L4.12765 3.69479L7.2495 1.89078C7.28081 1.87241 7.31807 1.86709 7.35326 1.87597C7.38845 1.88485 7.41875 1.90721 7.43762 1.93824C7.4565 1.96926 7.46244 2.00647 7.45416 2.04184C7.44589 2.07721 7.42406 2.10791 7.39339 2.12732L5.9152 3.07572L7.41802 2.2071C7.44921 2.18965 7.48593 2.18496 7.5205 2.19401C7.55507 2.20306 7.58481 2.22515 7.60347 2.25564C7.62214 2.28614 7.6283 2.32269 7.62065 2.35763C7.61301 2.39257 7.59215 2.42319 7.56246 2.44309L5.74364 3.62083L7.56993 2.56662C7.601 2.54945 7.63747 2.54489 7.67181 2.55388C7.70615 2.56287 7.73572 2.58473 7.75441 2.61493C7.7731 2.64513 7.77948 2.68136 7.77224 2.71614C7.76499 2.75092 7.74467 2.78158 7.71548 2.80178L5.24556 4.43739L7.70026 3.01894C7.73145 3.00149 7.76818 2.99681 7.80275 3.00585C7.83732 3.0149 7.86705 3.03699 7.88572 3.06749C7.90439 3.09799 7.91054 3.13453 7.9029 3.16947C7.89525 3.20441 7.8744 3.23504 7.8447 3.25493L6.33663 4.23131L7.76722 3.40478C7.79834 3.38531 7.83591 3.37902 7.87166 3.38728C7.90742 3.39554 7.93843 3.41768 7.95788 3.44882C7.97732 3.47997 7.98362 3.51758 7.97536 3.55337C7.96711 3.58916 7.945 3.6202 7.91388 3.63967L5.57346 5.21295L7.7949 3.92939C7.82578 3.91236 7.862 3.90778 7.89615 3.91659C7.9303 3.92539 7.9598 3.94691 7.97863 3.97675C7.99745 4.0066 8.00419 4.04251 7.99745 4.07716C7.99072 4.11181 7.97102 4.14257 7.94238 4.16317L5.68331 5.71429L7.74038 4.52574C7.77141 4.50805 7.80807 4.50304 7.84269 4.51177C7.87732 4.52051 7.90723 4.5423 7.92617 4.5726C7.94512 4.60291 7.95162 4.63937 7.94433 4.67436C7.93703 4.70935 7.91651 4.74016 7.88704 4.76035L6.5021 5.69739L7.61171 5.0559C7.64244 5.03851 7.67865 5.03354 7.71292 5.042C7.74719 5.05046 7.77693 5.07172 7.79606 5.10141C7.81519 5.13111 7.82226 5.167 7.81582 5.20174C7.80938 5.23648 7.78991 5.26744 7.76141 5.28829L6.299 6.33806L7.30927 5.75445C7.34013 5.73719 7.37643 5.73241 7.4107 5.74109C7.44497 5.74977 7.47463 5.77126 7.49357 5.80114C7.51252 5.83102 7.51931 5.86703 7.51257 5.90177C7.50583 5.93651 7.48605 5.96735 7.45731 5.98795L7.05082 6.2702C7.07822 6.27595 7.10323 6.28989 7.12255 6.31017C7.14187 6.33045 7.15459 6.35613 7.15903 6.38379C7.16346 6.41146 7.15941 6.43983 7.1474 6.46515C7.13539 6.49046 7.116 6.51153 7.09177 6.52558L4.6426 7.94098C4.61168 7.959 4.57497 7.96432 4.54021 7.95582C4.50545 7.94733 4.47532 7.92568 4.45616 7.89543C4.437 7.86517 4.4303 7.82866 4.43746 7.79357C4.44462 7.75847 4.46509 7.72752 4.49456 7.7072L4.55378 7.66593L4.00672 7.98281C3.98556 7.99448 3.96171 8.0004 3.93755 7.99998Z" fill="#728F6F"/>
  <path d="M5.27434 0.497601C-1.33678 -1.05738 -2.0084 8.97688 4.83048 7.92231C8.76591 7.24936 9.17593 1.54572 5.27434 0.497601ZM5.2147 7.67694C-0.870717 9.23783 -1.4139 -0.532242 4.85655 0.629557C8.31983 1.44601 8.6211 6.56728 5.2147 7.67748V7.67694Z" fill="#1C372B"/>
  </svg>
  