<svg width="16" height="16" viewBox="0 0 16 16" fill="none" xmlns="http://www.w3.org/2000/svg">
  <path d="M7.87509 16C7.81658 15.9999 7.75959 15.9812 7.71234 15.9466C7.66509 15.9121 7.62999 15.8634 7.6121 15.8077C7.5942 15.7519 7.59443 15.6919 7.61275 15.6363C7.63106 15.5806 7.66653 15.5322 7.71405 15.4981L10.6378 13.3996L6.49984 15.7906C6.43779 15.826 6.36447 15.836 6.29522 15.8185C6.22596 15.801 6.16614 15.7574 6.12826 15.6968C6.09037 15.6362 6.07736 15.5633 6.09195 15.4933C6.10654 15.4233 6.14759 15.3617 6.20652 15.3213L8.97751 13.4473L5.45498 15.4837C5.3932 15.5177 5.32077 15.5269 5.25247 15.5093C5.18418 15.4917 5.12517 15.4486 5.08752 15.3889C5.04986 15.3292 5.03639 15.2574 5.04987 15.1881C5.06334 15.1188 5.10273 15.0573 5.16001 15.0161L9.67759 11.9139L4.37083 14.9806C4.30868 15.0167 4.23496 15.0272 4.16525 15.0098C4.09555 14.9924 4.03532 14.9486 3.9973 14.8876C3.95928 14.8266 3.94645 14.7532 3.96152 14.6829C3.97659 14.6126 4.01839 14.5509 4.07807 14.5109L8.76112 11.3621L3.49199 14.4089C3.42939 14.4473 3.35414 14.4592 3.28278 14.442C3.21143 14.4248 3.14982 14.3799 3.11151 14.3173C3.07321 14.2546 3.06133 14.1793 3.07851 14.1079C3.09569 14.0364 3.14051 13.9748 3.20311 13.9364L6.21593 11.9853L2.8954 13.9059C2.8331 13.9421 2.75918 13.9525 2.68933 13.935C2.61948 13.9175 2.5592 13.8734 2.52131 13.8121C2.48341 13.7508 2.47088 13.6771 2.48638 13.6067C2.50188 13.5363 2.54418 13.4747 2.6043 13.4351L7.54359 10.1666L2.24513 13.2284C2.18275 13.2633 2.10929 13.2727 2.04015 13.2546C1.97101 13.2365 1.91155 13.1923 1.87422 13.1313C1.83688 13.0703 1.82457 12.9972 1.83986 12.9274C1.85515 12.8575 1.89686 12.7962 1.95625 12.7565L5.59278 10.4032L1.77417 12.6113C1.71163 12.6463 1.63797 12.6557 1.56869 12.6374C1.49941 12.6191 1.4399 12.5747 1.40269 12.5134C1.36548 12.4521 1.35347 12.3788 1.36919 12.3088C1.3849 12.2388 1.42711 12.1777 1.48695 12.1382L4.44443 10.2414L1.40061 12.0014C1.33861 12.0358 1.2658 12.045 1.19718 12.0272C1.12857 12.0094 1.06939 11.966 1.03184 11.9058C0.994297 11.8456 0.98125 11.7733 0.995392 11.7038C1.00953 11.6343 1.04979 11.5729 1.10785 11.5322L7.05326 7.54358L0.956767 11.0668C0.894167 11.1052 0.818913 11.1171 0.74756 11.0999C0.676206 11.0827 0.614598 11.0378 0.57629 10.9752C0.537981 10.9125 0.52611 10.8372 0.543286 10.7657C0.560463 10.6943 0.605281 10.6326 0.667881 10.5943L4.07142 8.38561L0.70164 10.3323C0.639164 10.3662 0.566055 10.3747 0.497465 10.3561C0.428875 10.3375 0.37006 10.2932 0.333207 10.2324C0.296354 10.1716 0.284288 10.0989 0.299509 10.0294C0.31473 9.95994 0.356071 9.89898 0.414967 9.85918L1.63914 9.08362L0.551663 9.70573C0.489276 9.74062 0.415822 9.75 0.346682 9.7319C0.277543 9.7138 0.21808 9.66963 0.180745 9.60863C0.14341 9.54763 0.131099 9.47454 0.14639 9.40466C0.161681 9.33478 0.203387 9.27354 0.262776 9.23375L3.3066 7.2605L0.444852 8.9141C0.382232 8.95084 0.307701 8.96147 0.237321 8.94372C0.166942 8.92596 0.106348 8.88124 0.0686009 8.81918C0.0308537 8.75713 0.0189745 8.68271 0.0355237 8.61197C0.0520728 8.54124 0.0957251 8.47984 0.157073 8.44101L1.5041 7.57848L0.408327 8.21C0.346371 8.24354 0.273973 8.25216 0.205886 8.23412C0.1378 8.21607 0.0791498 8.17272 0.0418903 8.11289C0.00463085 8.05305 -0.0084342 7.98126 0.00535817 7.91212C0.0191505 7.84298 0.0587624 7.78171 0.11612 7.74079L3.93473 5.17756L0.480271 7.17186C0.418224 7.20577 0.345565 7.21463 0.277203 7.1966C0.208841 7.17858 0.149962 7.13506 0.112648 7.07495C0.0753336 7.01485 0.0624143 6.94273 0.0765415 6.8734C0.0906686 6.80406 0.130771 6.74277 0.188618 6.70209L2.55948 5.12383L0.672863 6.21571C0.611144 6.25179 0.537868 6.26258 0.468385 6.24579C0.398903 6.22901 0.338604 6.18596 0.300119 6.12567C0.261634 6.06538 0.247949 5.99252 0.26193 5.92235C0.275911 5.85219 0.316474 5.79016 0.375122 5.74926L3.40787 3.6137L1.15213 4.91775C1.09036 4.95323 1.0173 4.96351 0.948155 4.94645C0.879009 4.92938 0.819098 4.88629 0.780886 4.82613C0.742675 4.76597 0.729105 4.69339 0.743001 4.62347C0.756896 4.55355 0.797188 4.49169 0.855492 4.45075L1.84446 3.75995L1.819 3.77491C1.7579 3.81109 1.68525 3.82239 1.61607 3.80646C1.54689 3.79053 1.48647 3.7486 1.4473 3.68933C1.40814 3.63007 1.39323 3.558 1.40565 3.48804C1.41808 3.41808 1.45689 3.35557 1.51406 3.31345L2.79302 2.34732C2.76226 2.3249 2.73661 2.2962 2.71776 2.26312C2.68106 2.1995 2.67112 2.1239 2.69011 2.05294C2.70911 1.98199 2.75548 1.92149 2.81903 1.88476L5.32991 0.433349C5.3909 0.39837 5.4629 0.387937 5.5313 0.404169C5.5997 0.420401 5.65936 0.462081 5.69817 0.520745C5.73698 0.57941 5.75204 0.650662 5.74028 0.720033C5.72851 0.789404 5.69082 0.851694 5.63484 0.894254L5.43616 1.04438L7.17059 0.0439077C7.23235 0.00842473 7.30541 -0.00185368 7.37456 0.0152111C7.4437 0.0322758 7.50361 0.0753699 7.54182 0.135527C7.58004 0.195684 7.59361 0.268272 7.57971 0.338189C7.56581 0.408107 7.52552 0.469969 7.46722 0.510906L6.47106 1.20669L8.49437 0.0378142C8.55609 0.00172712 8.62936 -0.00905422 8.69885 0.00772914C8.76833 0.0245125 8.82863 0.0675584 8.86711 0.12785C8.9056 0.188141 8.91928 0.261 8.9053 0.331166C8.89132 0.401332 8.85076 0.46336 8.79211 0.504258L5.75825 2.63982L9.85745 0.271036C9.91964 0.235624 9.99312 0.225704 10.0625 0.243358C10.1318 0.261012 10.1916 0.304866 10.2294 0.365718C10.2671 0.426571 10.2798 0.499689 10.2649 0.569728C10.2499 0.639767 10.2084 0.701279 10.1491 0.741358L7.77935 2.31741L10.78 0.582922C10.842 0.548547 10.9148 0.539297 10.9834 0.557079C11.052 0.574862 11.1112 0.618322 11.1488 0.678496C11.1863 0.738671 11.1994 0.810972 11.1852 0.880492C11.1711 0.950012 11.1308 1.01145 11.0728 1.05214L7.25913 3.61204L11.7142 1.03718C11.7767 1.00219 11.8504 0.992839 11.9197 1.0111C11.9889 1.02937 12.0484 1.07382 12.0857 1.13511C12.1229 1.19639 12.1349 1.26974 12.1192 1.33971C12.1034 1.40968 12.0612 1.47082 12.0014 1.51027L10.6461 2.38001L12.3063 1.42053C12.3688 1.38417 12.443 1.37371 12.513 1.39137C12.5831 1.40904 12.6435 1.45343 12.6813 1.51507C12.7191 1.5767 12.7313 1.65068 12.7153 1.72121C12.6993 1.79174 12.6564 1.85322 12.5958 1.89251L9.55196 3.86742L12.9356 1.9119C12.9982 1.87745 13.0716 1.86856 13.1406 1.88708C13.2096 1.9056 13.2687 1.95011 13.3057 2.01129C13.3427 2.07246 13.3546 2.14557 13.3389 2.21533C13.3232 2.28508 13.2812 2.34607 13.2217 2.38555L12.0086 3.15557L13.3988 2.35231C13.4613 2.3167 13.5352 2.30684 13.6048 2.32482C13.6744 2.34281 13.7343 2.38722 13.7718 2.44865C13.8093 2.51008 13.8214 2.5837 13.8056 2.65393C13.7898 2.72415 13.7473 2.78545 13.6871 2.82485L10.2747 5.03076L13.9085 2.93121C13.9706 2.89636 14.0437 2.88682 14.1127 2.90455C14.1816 2.92228 14.2411 2.96593 14.2787 3.02642C14.3163 3.08691 14.3292 3.15959 14.3147 3.22934C14.3002 3.2991 14.2593 3.36057 14.2007 3.40098L8.25529 7.38957L14.499 3.78156C14.5616 3.74482 14.6361 3.73419 14.7065 3.75194C14.7769 3.7697 14.8375 3.81442 14.8752 3.87648C14.913 3.93853 14.9249 4.01295 14.9083 4.08368C14.8918 4.15442 14.8481 4.21582 14.7868 4.25465L11.8304 6.15145L14.836 4.41419C14.8984 4.3793 14.9719 4.36992 15.041 4.38802C15.1101 4.40612 15.1696 4.45029 15.2069 4.51129C15.2443 4.57229 15.2566 4.64538 15.2413 4.71526C15.226 4.78514 15.1843 4.84638 15.1249 4.88617L11.4873 7.24166L15.1399 5.13325C15.202 5.09891 15.2749 5.08978 15.3436 5.10777C15.4123 5.12575 15.4714 5.16946 15.5088 5.22986C15.5462 5.29026 15.559 5.36273 15.5445 5.43228C15.53 5.50184 15.4893 5.56316 15.431 5.60357L10.4911 8.87477L15.4005 6.03788C15.4629 6.00299 15.5364 5.99361 15.6055 6.01171C15.6746 6.02981 15.7341 6.07398 15.7714 6.13498C15.8088 6.19598 15.8211 6.26907 15.8058 6.33895C15.7905 6.40883 15.7488 6.47008 15.6894 6.50987L12.6733 8.46262L15.5344 6.80956C15.5967 6.77063 15.6718 6.75804 15.7433 6.77456C15.8148 6.79107 15.8769 6.83535 15.9158 6.89765C15.9546 6.95994 15.9672 7.03515 15.9507 7.10673C15.9342 7.17831 15.89 7.2404 15.8278 7.27933L11.1469 10.4259L15.5898 7.85879C15.6516 7.82473 15.724 7.81557 15.7923 7.83317C15.8606 7.85078 15.9196 7.89382 15.9573 7.95351C15.9949 8.0132 16.0084 8.08502 15.9949 8.15432C15.9814 8.22361 15.942 8.28514 15.8848 8.32634L11.3666 11.4286L15.4808 9.05149C15.5428 9.01609 15.6161 9.00608 15.6854 9.02355C15.7546 9.04101 15.8145 9.08461 15.8523 9.14521C15.8902 9.20581 15.9032 9.27873 15.8887 9.34871C15.8741 9.41869 15.833 9.48032 15.7741 9.5207L13.0042 11.3948L15.2234 10.1118C15.2849 10.077 15.3573 10.0671 15.4258 10.084C15.4944 10.1009 15.5539 10.1434 15.5921 10.2028C15.6304 10.2622 15.6445 10.334 15.6316 10.4035C15.6188 10.473 15.5798 10.5349 15.5228 10.5766L12.598 12.6761L14.6185 11.5089C14.6803 11.4744 14.7529 11.4648 14.8214 11.4822C14.8899 11.4995 14.9493 11.5425 14.9871 11.6023C15.025 11.662 15.0386 11.7341 15.0251 11.8035C15.0117 11.873 14.9721 11.9347 14.9146 11.9759L14.1016 12.5404C14.1564 12.5519 14.2065 12.5798 14.2451 12.6203C14.2837 12.6609 14.3092 12.7123 14.3181 12.7676C14.3269 12.8229 14.3188 12.8797 14.2948 12.9303C14.2708 12.9809 14.232 13.0231 14.1835 13.0512L9.28521 15.882C9.22335 15.918 9.14995 15.9286 9.08042 15.9116C9.01089 15.8947 8.95064 15.8514 8.91232 15.7909C8.874 15.7303 8.8606 15.6573 8.87492 15.5871C8.88924 15.5169 8.93018 15.455 8.98913 15.4144L9.10756 15.3319L8.01345 15.9656C7.97112 15.989 7.92342 16.0008 7.87509 16Z" fill="#E8B425"/>
  <path d="M10.5487 0.994714C-2.67355 -2.11524 -4.01681 17.9533 9.66095 15.8441C17.5318 14.4982 18.3519 3.09095 10.5487 0.994714ZM10.4294 15.3534C-1.74143 18.4752 -2.8278 -1.06497 9.71311 1.25863C16.6397 2.89154 17.2422 13.1341 10.4294 15.3545V15.3534Z" fill="#AA8652"/>
  </svg>
  