<svg width="25" height="25" viewBox="0 0 25 25" fill="none" xmlns="http://www.w3.org/2000/svg">
  <g clip-path="url(#clip0_280_478)">
  <path d="M11.8151 24.0014C11.7273 24.0013 11.6418 23.9733 11.571 23.9214C11.5001 23.8696 11.4474 23.7966 11.4206 23.713C11.3937 23.6293 11.3941 23.5393 11.4216 23.4559C11.449 23.3724 11.5022 23.2998 11.5735 23.2486L15.9591 20.1009L9.7522 23.6873C9.65913 23.7404 9.54915 23.7554 9.44527 23.7292C9.34139 23.703 9.25165 23.6376 9.19482 23.5467C9.138 23.4558 9.11849 23.3464 9.14037 23.2415C9.16225 23.1365 9.22383 23.044 9.31223 22.9835L13.4687 20.1723L8.18491 23.2269C8.09225 23.278 7.9836 23.2918 7.88115 23.2654C7.77871 23.239 7.6902 23.1744 7.63372 23.0849C7.57723 22.9953 7.55703 22.8876 7.57724 22.7836C7.59745 22.6797 7.65654 22.5874 7.74245 22.5256L14.5188 17.8723L6.55868 22.4724C6.46546 22.5265 6.35488 22.5422 6.25032 22.5162C6.14576 22.4901 6.05542 22.4244 5.99839 22.3329C5.94136 22.2414 5.92211 22.1312 5.94472 22.0258C5.96733 21.9203 6.03002 21.8278 6.11954 21.7678L13.1441 17.0446L5.24043 21.6149C5.14653 21.6724 5.03365 21.6902 4.92662 21.6644C4.81959 21.6387 4.72718 21.5714 4.66971 21.4774C4.61225 21.3834 4.59444 21.2704 4.62021 21.1632C4.64597 21.0561 4.7132 20.9636 4.8071 20.9061L9.32634 17.9795L4.34555 20.8604C4.2521 20.9146 4.14121 20.9302 4.03643 20.904C3.93165 20.8777 3.84124 20.8115 3.7844 20.7196C3.72756 20.6276 3.70877 20.5171 3.73201 20.4115C3.75526 20.3059 3.81871 20.2136 3.9089 20.1541L11.3178 15.2514L3.37014 19.8441C3.27656 19.8965 3.16638 19.9105 3.06267 19.8834C2.95896 19.8562 2.86977 19.79 2.81376 19.6985C2.75776 19.607 2.7393 19.4973 2.76223 19.3925C2.78517 19.2877 2.84773 19.1958 2.93681 19.1361L8.39161 15.6062L2.6637 18.9184C2.56989 18.9709 2.4594 18.9849 2.35548 18.9575C2.25155 18.9301 2.16229 18.8635 2.10648 18.7715C2.05067 18.6796 2.03265 18.5696 2.05622 18.4646C2.07979 18.3597 2.14311 18.268 2.23286 18.2088L6.66909 15.3636L2.10336 18.0035C2.01036 18.0551 1.90114 18.069 1.79821 18.0423C1.69529 18.0156 1.60652 17.9504 1.5502 17.8602C1.49389 17.7699 1.47432 17.6615 1.49553 17.5572C1.51674 17.4529 1.57712 17.3608 1.66422 17.2997L10.5823 11.3168L1.43759 16.6017C1.34369 16.6592 1.23081 16.6771 1.12378 16.6513C1.01675 16.6255 0.924339 16.5582 0.866876 16.4642C0.809413 16.3702 0.791606 16.2572 0.817371 16.1501C0.843136 16.0429 0.910363 15.9504 1.00426 15.8929L6.10958 12.5799L1.0549 15.4999C0.961187 15.5507 0.851524 15.5635 0.748639 15.5356C0.645753 15.5077 0.557532 15.4413 0.502252 15.3501C0.446972 15.2588 0.428873 15.1498 0.451705 15.0456C0.474537 14.9414 0.536548 14.8499 0.624892 14.7902L2.46115 13.6269L0.829936 14.5601C0.736356 14.6124 0.626174 14.6265 0.522465 14.5993C0.418756 14.5722 0.329561 14.5059 0.273559 14.4144C0.217557 14.3229 0.19909 14.2133 0.222026 14.1085C0.244963 14.0036 0.307523 13.9118 0.396606 13.8521L4.96233 10.8922L0.66972 13.3726C0.57579 13.4277 0.463993 13.4437 0.358423 13.417C0.252854 13.3904 0.161964 13.3233 0.105343 13.2302C0.0487219 13.1372 0.0309032 13.0255 0.0557269 12.9194C0.0805507 12.8133 0.146029 12.7212 0.238051 12.663L2.25859 11.3692L0.614931 12.3165C0.521998 12.3668 0.4134 12.3797 0.31127 12.3526C0.209141 12.3256 0.121166 12.2605 0.0652769 12.1708C0.00938768 12.081 -0.0102099 11.9733 0.0104787 11.8696C0.0311672 11.7659 0.090585 11.674 0.176621 11.6127L5.90453 7.76781L0.722848 10.7593C0.629777 10.8101 0.520788 10.8234 0.418246 10.7964C0.315703 10.7693 0.227384 10.704 0.171413 10.6139C0.115442 10.5237 0.0960629 10.4156 0.117254 10.3116C0.138444 10.2076 0.198597 10.1156 0.285368 10.0546L3.84166 7.68721L1.01174 9.32502C0.919157 9.37916 0.809243 9.39533 0.705019 9.37015C0.600796 9.34498 0.510348 9.28041 0.45262 9.18997C0.394893 9.09953 0.374365 8.99025 0.395336 8.885C0.416308 8.77975 0.477152 8.68671 0.565124 8.62536L5.11425 5.42202L1.73063 7.37809C1.63798 7.43132 1.52839 7.44673 1.42467 7.42114C1.32095 7.39554 1.23109 7.3309 1.17377 7.24066C1.11645 7.15043 1.0961 7.04155 1.11694 6.93667C1.13779 6.83179 1.19822 6.739 1.28568 6.67759L2.76912 5.64139L2.73094 5.66383C2.6393 5.7181 2.53032 5.73505 2.42655 5.71116C2.32277 5.68726 2.23214 5.62436 2.1734 5.53547C2.11465 5.44657 2.09228 5.33847 2.11092 5.23352C2.12956 5.12858 2.18778 5.03482 2.27354 4.97164L4.19197 3.52245C4.14584 3.48881 4.10736 3.44576 4.07907 3.39614C4.02404 3.30072 4.00912 3.18731 4.03761 3.08088C4.0661 2.97444 4.13566 2.8837 4.23099 2.8286L7.9973 0.651489C8.08879 0.59902 8.19679 0.58337 8.29939 0.607718C8.40199 0.632066 8.49148 0.694586 8.5497 0.782583C8.60792 0.87058 8.6305 0.977458 8.61285 1.08151C8.59521 1.18557 8.53867 1.27901 8.4547 1.34285L8.15668 1.56804L10.7583 0.0673264C10.851 0.0141019 10.9606 -0.00131568 11.0643 0.0242814C11.168 0.0498785 11.2579 0.11452 11.3152 0.204755C11.3725 0.294991 11.3928 0.403873 11.372 0.508749C11.3512 0.613625 11.2907 0.706418 11.2033 0.767824L9.70903 1.81151L12.744 0.0581862C12.8366 0.00405552 12.9465 -0.0121165 13.0507 0.0130586C13.1549 0.0382336 13.2454 0.102802 13.3031 0.193239C13.3608 0.283676 13.3814 0.392965 13.3604 0.498214C13.3394 0.603462 13.2786 0.696504 13.1906 0.757852L8.63982 3.96119L14.7886 0.408019C14.8819 0.354901 14.9921 0.340021 15.0961 0.366502C15.2002 0.392982 15.2899 0.458764 15.3465 0.550043C15.4031 0.641321 15.4222 0.750999 15.3997 0.856057C15.3773 0.961115 15.315 1.05338 15.2261 1.1135L11.6715 3.47758L16.1724 0.875848C16.2654 0.824285 16.3747 0.81041 16.4776 0.837084C16.5805 0.863758 16.6693 0.928947 16.7256 1.01921C16.7819 1.10947 16.8015 1.21792 16.7803 1.3222C16.7591 1.42648 16.6987 1.51864 16.6116 1.57967L10.8911 5.41952L17.5737 1.55723C17.6675 1.50475 17.778 1.49072 17.8819 1.51812C17.9859 1.54552 18.0751 1.61219 18.1309 1.70412C18.1867 1.79605 18.2048 1.90607 18.1812 2.01103C18.1576 2.11598 18.0943 2.2077 18.0045 2.26687L15.9716 3.57147L18.4619 2.13226C18.5556 2.07772 18.6669 2.06203 18.772 2.08853C18.8771 2.11502 18.9676 2.18161 19.0243 2.27406C19.081 2.36651 19.0994 2.47749 19.0754 2.58329C19.0514 2.68908 18.9871 2.7813 18.8961 2.84023L14.3304 5.8026L19.4058 2.86932C19.4997 2.81764 19.6099 2.8043 19.7134 2.83209C19.8168 2.85987 19.9056 2.92663 19.961 3.01839C20.0164 3.11016 20.0343 3.21983 20.0108 3.32446C19.9873 3.42909 19.9243 3.52057 19.835 3.57978L18.0153 4.73481L20.1006 3.52993C20.1944 3.47651 20.3052 3.46173 20.4097 3.4887C20.5141 3.51568 20.604 3.58229 20.6602 3.67444C20.7164 3.76658 20.7346 3.87702 20.7109 3.98235C20.6872 4.08769 20.6234 4.17964 20.5331 4.23873L15.4145 7.54761L20.8652 4.39828C20.9583 4.34601 21.068 4.33169 21.1714 4.35829C21.2749 4.38488 21.3641 4.45036 21.4205 4.54109C21.4769 4.63183 21.4963 4.74084 21.4745 4.84548C21.4527 4.95012 21.3914 5.04232 21.3035 5.10293L12.3854 11.0858L21.7509 5.6738C21.8449 5.6187 21.9567 5.60274 22.0622 5.62938C22.1678 5.65601 22.2587 5.7231 22.3153 5.81618C22.3719 5.90926 22.3898 6.02088 22.3649 6.12699C22.3401 6.2331 22.2746 6.3252 22.1826 6.38344L17.748 9.22863L22.2565 6.62275C22.3501 6.57041 22.4602 6.55634 22.564 6.58349C22.6677 6.61064 22.7569 6.6769 22.8129 6.7684C22.8689 6.85989 22.8873 6.96953 22.8644 7.07435C22.8415 7.17917 22.7789 7.27104 22.6898 7.33073L17.2334 10.864L22.7122 7.70133C22.8054 7.64983 22.9149 7.63614 23.0179 7.66311C23.1209 7.69008 23.2096 7.75565 23.2657 7.84625C23.3217 7.93685 23.3409 8.04556 23.3192 8.14989C23.2974 8.25422 23.2365 8.34621 23.1489 8.40682L15.7391 13.3136L23.1032 9.05829C23.1968 9.00595 23.307 8.99188 23.4107 9.01903C23.5144 9.04618 23.6036 9.11244 23.6596 9.20394C23.7156 9.29543 23.7341 9.40507 23.7111 9.50989C23.6882 9.61471 23.6256 9.70658 23.5366 9.76626L19.0123 12.6954L23.3041 10.2158C23.3975 10.1574 23.5102 10.1385 23.6174 10.1633C23.7247 10.1881 23.8177 10.2545 23.8761 10.3479C23.9344 10.4414 23.9533 10.5542 23.9285 10.6616C23.9038 10.7689 23.8374 10.8621 23.7441 10.9205L16.7228 15.6403L23.3871 11.7896C23.4798 11.7386 23.5884 11.7248 23.6909 11.7512C23.7933 11.7776 23.8818 11.8422 23.9383 11.9317C23.9948 12.0213 24.015 12.129 23.9948 12.2329C23.9746 12.3369 23.9155 12.4292 23.8296 12.491L17.0524 17.1443L23.2236 13.5787C23.3167 13.5256 23.4266 13.5106 23.5305 13.5368C23.6344 13.563 23.7241 13.6284 23.781 13.7193C23.8378 13.8102 23.8573 13.9196 23.8354 14.0245C23.8135 14.1295 23.752 14.2219 23.6636 14.2825L19.5087 17.0936L22.8376 15.1692C22.9298 15.117 23.0384 15.1021 23.1412 15.1275C23.244 15.1529 23.3332 15.2166 23.3906 15.3057C23.448 15.3948 23.4692 15.5025 23.4499 15.6067C23.4306 15.7109 23.3722 15.8038 23.2867 15.8663L18.8994 19.0157L21.9302 17.2648C22.0228 17.213 22.1317 17.1987 22.2345 17.2247C22.3374 17.2508 22.4263 17.3153 22.4832 17.4049C22.54 17.4945 22.5604 17.6026 22.5402 17.7068C22.5199 17.811 22.4606 17.9035 22.3744 17.9653L21.1549 18.8121C21.2371 18.8293 21.3121 18.8711 21.3701 18.932C21.4281 18.9928 21.4662 19.0698 21.4795 19.1528C21.4928 19.2359 21.4807 19.321 21.4446 19.3969C21.4086 19.4728 21.3504 19.5361 21.2778 19.5782L13.9303 23.8244C13.8375 23.8785 13.7274 23.8944 13.6231 23.8689C13.5188 23.8435 13.4284 23.7785 13.3709 23.6877C13.3134 23.597 13.2933 23.4875 13.3148 23.3822C13.3363 23.2769 13.3977 23.184 13.4861 23.1231L13.6638 22.9993L12.0226 23.9499C11.9591 23.9849 11.8876 24.0027 11.8151 24.0014Z" fill="#209982"/>
  <path d="M15.8255 1.49378C-4.00789 -3.17115 -6.02277 26.9316 14.4939 23.7679C26.3002 21.7491 27.5302 4.63813 15.8255 1.49378ZM15.6465 23.0318C-2.60971 27.7145 -4.23926 -1.59575 14.5721 1.88965C24.9619 4.33902 25.8657 19.7028 15.6465 23.0334V23.0318Z" fill="#262626"/>
  <path d="M17.6008 7.00146C14.2175 9.32049 12.1865 13.829 9.30885 16.9027C8.52119 16.2767 6.63258 13.6115 6.00244 15.3624C7.18663 16.0583 8.38245 18.8953 9.89334 17.7194L17.949 7.3589C18.1352 7.11629 17.7897 7.00751 17.6008 7.00146Z" fill="#262626"/>
  </g>
  <defs>
  <clipPath id="clip0_280_478">
  <rect width="24" height="24" fill="white" transform="translate(0.00244141 0.00146484)"/>
  </clipPath>
  </defs>
  </svg>
  