<svg width="304" height="304" viewBox="0 0 304 304" fill="none" xmlns="http://www.w3.org/2000/svg">
  <g filter="url(#filter0_b_0_1)">
  <circle cx="152" cy="152" r="152" fill="white" fill-opacity="0.5"/>
  </g>
  <path d="M280 152C280 169.032 276.672 185.29 270.627 200.154C261.558 222.489 246.359 241.678 227.128 255.643C226.005 256.458 224.866 257.258 223.717 258.041C203.257 271.902 178.577 280 152 280C128.699 280 106.85 273.772 88.0261 262.895C84.5414 260.878 81.1559 258.7 77.8854 256.375C61.9977 245.074 48.8006 230.231 39.4488 213.001C37.1866 208.837 35.1491 204.532 33.3518 200.107C27.3228 185.254 24 169.016 24 152C24 81.3074 81.3074 24 152 24C222.693 24 280 81.3074 280 152Z" fill="#78B0D9"/>
  <path d="M279.473 105.073V100.218C279.483 98.7886 278.755 97.354 277.297 96.5834L234.419 73.9441C232.814 73.0951 231.048 72.6709 229.282 72.6709C227.515 72.6709 225.749 73.0951 224.144 73.9441L181.266 96.5834C179.808 97.3545 179.081 98.7886 179.09 100.218V105.073H183.667L224.144 126.443C225.749 127.292 227.516 127.717 229.282 127.717C231.049 127.717 232.814 127.292 234.42 126.443L274.897 105.073H279.473Z" fill="#593375"/>
  <path d="M279.473 105.073V100.217C279.484 98.7892 278.757 97.353 277.298 96.5829L256.565 85.6365L253.287 83.9052L234.419 73.9447C232.815 73.0946 231.049 72.6704 229.283 72.6704V127.717C231.049 127.717 232.814 127.292 234.419 126.442L274.897 105.073H279.473Z" fill="#8D71B3"/>
  <path d="M277.298 108.684L234.421 131.321C231.205 133.019 227.358 133.019 224.143 131.321L181.266 108.684C178.363 107.151 178.363 102.994 181.266 101.461L224.143 78.8243C227.358 77.1263 231.205 77.1263 234.421 78.8243L277.298 101.461C280.2 102.994 280.2 107.151 277.298 108.684Z" fill="#704F85"/>
  <path d="M264.726 141.32V202.622H193.836V140.88C193.836 121.214 209.846 105.434 229.546 105.434C270.76 105.434 261.482 117.035 263.09 130.55C264.153 133.958 264.726 137.578 264.726 141.32Z" fill="#D66D22"/>
  <path d="M216.894 195.167C217.547 197.864 218.001 200.347 218.267 202.622H193.836V140.88C193.836 137.275 194.374 133.797 195.374 130.52C197.095 115.997 213.309 105.433 229.284 105.433C213.72 105.433 204.505 144.054 216.894 195.167Z" fill="#BB5A18"/>
  <path d="M270.627 200.154C261.557 222.489 246.359 241.678 227.128 255.644C226.005 256.459 224.866 257.258 223.716 258.042C211.763 251.574 200.535 226.956 190.619 221.413C186.34 219.025 182.307 216.251 178.566 213.137L195.593 189.533C197.448 186.968 200.415 185.447 203.571 185.447H254.985C258.146 185.447 261.113 186.968 262.963 189.533L270.627 200.154Z" fill="#704F85"/>
  <path d="M239.993 181.224V185.449L237.15 193.139L229.28 212.082L221.408 193.139L218.567 185.449V181.224H239.993Z" fill="#DBA290"/>
  <path d="M257.17 152.315V160.228C257.17 174.642 246.239 186.496 232.215 187.962C231.254 188.064 230.272 188.114 229.283 188.114C213.88 188.114 201.394 175.631 201.394 160.228V152.315C201.394 136.916 213.881 124.429 229.283 124.429C230.272 124.429 231.254 124.479 232.215 124.581C238.748 125.261 244.605 128.198 249.003 132.596C254.046 137.642 257.17 144.617 257.17 152.315Z" fill="#DBA290"/>
  <path d="M257.17 152.315V160.228C257.17 174.643 246.239 186.496 232.216 187.962C218.188 186.496 207.258 174.643 207.258 160.228V152.315C207.258 137.905 218.188 126.048 232.216 124.582C238.748 125.262 244.605 128.198 249.003 132.596C254.046 137.643 257.17 144.617 257.17 152.315Z" fill="#EDBBA7"/>
  <path d="M222.473 150.809C222.473 147.969 220.17 145.667 217.33 145.667C214.49 145.667 212.188 147.969 212.188 150.809H222.473Z" fill="#DBA290"/>
  <path d="M246.371 150.809C246.371 147.969 244.068 145.667 241.228 145.667C238.388 145.667 236.086 147.969 236.086 150.809H246.371Z" fill="#DBA290"/>
  <path d="M217.33 147.773C218.986 147.773 220.328 149.116 220.328 150.771V155.469C220.328 157.125 218.985 158.466 217.33 158.466C215.675 158.466 214.333 157.124 214.333 155.469V150.771C214.332 149.116 215.675 147.773 217.33 147.773Z" fill="#444562"/>
  <path d="M241.228 147.773C242.884 147.773 244.226 149.116 244.226 150.771V155.469C244.226 157.125 242.883 158.466 241.228 158.466C239.573 158.466 238.231 157.124 238.231 155.469V150.771C238.231 149.116 239.573 147.773 241.228 147.773Z" fill="#444562"/>
  <path d="M229.282 137.678L224.981 164.493H229.282" fill="#DBA290"/>
  <path d="M260.845 151.017C233.737 151.017 216.535 135.379 216.535 135.379C216.535 138.147 214.283 141.474 211.269 144.191C207.183 147.877 201.702 150.434 198.551 148.933L197.769 140.594L204.286 126.778L214.064 124.311L232.172 119.741L254.589 128.604L260.845 151.017Z" fill="#D66D22"/>
  <path d="M214.064 124.311C212.583 129.91 211.609 136.607 211.269 144.191C207.184 147.878 201.703 150.434 198.552 148.933L197.77 140.595L204.729 121.176L214.064 124.311Z" fill="#BB5A18"/>
  <path d="M240.329 167.614C240.329 168.914 240.102 170.164 239.688 171.321C239.27 172.504 238.654 173.59 237.882 174.545C237.542 174.969 237.169 175.368 236.771 175.731C234.801 177.555 232.17 178.664 229.279 178.664C226.389 178.664 223.758 177.555 221.787 175.731C221.389 175.368 221.016 174.969 220.676 174.545C219.905 173.589 219.289 172.504 218.871 171.321C218.456 170.164 218.229 168.914 218.229 167.614H240.329Z" fill="#444562"/>
  <path d="M236.771 175.732C234.801 177.556 232.17 178.664 229.28 178.664C226.389 178.664 223.758 177.556 221.788 175.732C223.755 173.911 226.389 172.799 229.28 172.799C232.17 172.799 234.804 173.911 236.771 175.732Z" fill="#D54980"/>
  <path d="M245.457 165.296C248.318 165.296 250.637 164.159 250.637 162.755C250.637 161.352 248.318 160.214 245.457 160.214C242.596 160.214 240.277 161.352 240.277 162.755C240.277 164.159 242.596 165.296 245.457 165.296Z" fill="#DBA290"/>
  <path d="M213.106 165.296C215.967 165.296 218.286 164.159 218.286 162.755C218.286 161.352 215.967 160.214 213.106 160.214C210.245 160.214 207.926 161.352 207.926 162.755C207.926 164.159 210.245 165.296 213.106 165.296Z" fill="#DBA290"/>
  <path d="M240.329 167.614C240.329 167.715 240.329 167.815 240.323 167.916C237.167 169.588 233.366 170.563 229.279 170.563C225.19 170.563 221.392 169.588 218.236 167.916C218.229 167.815 218.229 167.715 218.229 167.614H240.329Z" fill="white"/>
  <path d="M262.889 110.631V130.612C262.889 125.281 257.714 120.544 249.697 117.53C244.039 115.411 236.962 114.148 229.282 114.148C224.564 114.148 220.073 114.624 215.996 115.486C204.046 118.007 195.676 123.83 195.676 130.612V110.631C195.676 103.85 204.046 98.0263 215.996 95.5055C220.073 94.6435 224.564 94.167 229.282 94.167C236.962 94.167 244.039 95.4308 249.697 97.5499C257.714 100.564 262.889 105.301 262.889 110.631Z" fill="#593375"/>
  <path d="M262.888 110.631V130.612C262.888 125.281 257.714 120.544 249.697 117.53C244.039 115.411 236.962 114.148 229.282 114.148C224.564 114.148 220.073 114.624 215.996 115.486V95.5055C220.073 94.6435 224.564 94.167 229.282 94.167C236.961 94.167 244.039 95.4308 249.697 97.5499C257.714 100.564 262.888 105.301 262.888 110.631Z" fill="#8D71B3"/>
  <path d="M237.15 193.139L229.279 212.082L221.408 193.139H237.15Z" fill="#F6E06E"/>
  <path d="M218.567 185.449L207.866 189.801C204.569 191.142 201.951 193.753 200.602 197.047L190.622 221.415C186.341 219.023 182.307 216.249 178.564 213.135L195.595 189.532C197.446 186.969 200.414 185.449 203.573 185.449H218.567Z" fill="#593375"/>
  <path d="M124.769 105.073V100.218C124.779 98.7886 124.051 97.354 122.593 96.5834L79.7152 73.9441C78.1098 73.0951 76.3439 72.6709 74.5775 72.6709C72.8111 72.6709 71.0452 73.0951 69.4397 73.9441L26.5623 96.5834C25.1037 97.3545 24.3764 98.7886 24.3863 100.218V105.073H28.963L69.4402 126.443C71.0452 127.292 72.8116 127.717 74.578 127.717C76.3444 127.717 78.1103 127.292 79.7158 126.443L120.192 105.073H124.769Z" fill="#593375"/>
  <path d="M119.52 127.608C118.755 127.608 118.136 126.989 118.136 126.224V110.515L95.9908 98.3454C95.321 97.9771 95.0765 97.136 95.4443 96.4662C95.8127 95.7964 96.6538 95.5519 97.3236 95.9197L120.186 108.484C120.628 108.726 120.903 109.191 120.903 109.696V126.224C120.903 126.989 120.284 127.608 119.52 127.608Z" fill="#F6E06E"/>
  <path d="M119.52 130.022C121.617 130.022 123.317 128.322 123.317 126.225C123.317 124.128 121.617 122.428 119.52 122.428C117.423 122.428 115.723 124.128 115.723 126.225C115.723 128.322 117.423 130.022 119.52 130.022Z" fill="white"/>
  <path d="M120.903 129.76C120.474 129.93 120.007 130.022 119.519 130.022C117.421 130.022 115.723 128.321 115.723 126.225C115.723 124.128 117.421 122.428 119.519 122.428C120.007 122.428 120.474 122.52 120.903 122.689C119.49 123.241 118.491 124.616 118.491 126.225C118.491 127.833 119.49 129.209 120.903 129.76Z" fill="#F1F1F1"/>
  <path d="M124.769 105.073V100.217C124.78 98.7892 124.053 97.353 122.594 96.5829L101.861 85.6365L98.5833 83.9052L79.7151 73.9447C78.1111 73.0946 76.3447 72.6704 74.5789 72.6704V127.717C76.3447 127.717 78.1106 127.292 79.7151 126.442L120.193 105.073H124.769Z" fill="#8D71B3"/>
  <path d="M122.594 108.684L79.7171 131.321C76.5014 133.019 72.6546 133.019 69.4389 131.321L26.5621 108.684C23.6593 107.151 23.6593 102.994 26.5621 101.461L69.4389 78.8243C72.6546 77.1263 76.5014 77.1263 79.7171 78.8243L122.594 101.461C125.497 102.994 125.497 107.151 122.594 108.684Z" fill="#704F85"/>
  <path d="M125.386 213.137C114.88 221.872 102.08 250.069 88.0261 262.895C84.5414 260.878 81.1559 258.7 77.8854 256.375C58.1577 242.342 42.5783 222.849 33.3518 200.107L40.9796 189.533C42.8343 186.968 45.8018 185.447 48.9574 185.447H100.372C103.532 185.447 106.5 186.968 108.349 189.533L125.386 213.137Z" fill="#704F85"/>
  <path d="M85.3788 181.224V185.449L82.5366 193.139L74.6659 212.082L66.7947 193.139L63.9531 185.449V181.224H85.3788Z" fill="#895B3D"/>
  <path d="M47.1553 163.085C52.2588 163.085 56.3959 158.947 56.3959 153.844C56.3959 148.741 52.2588 144.604 47.1553 144.604C42.0519 144.604 37.9148 148.741 37.9148 153.844C37.9148 158.947 42.0519 163.085 47.1553 163.085Z" fill="#895B3D"/>
  <path d="M102.021 163.085C107.125 163.085 111.262 158.947 111.262 153.844C111.262 148.741 107.125 144.604 102.021 144.604C96.9179 144.604 92.7808 148.741 92.7808 153.844C92.7808 158.947 96.9179 163.085 102.021 163.085Z" fill="#895B3D"/>
  <path d="M74.6661 187.355C59.4727 187.355 47.156 175.038 47.156 159.845V124.53H102.177V159.845C102.176 175.038 89.8594 187.355 74.6661 187.355Z" fill="#A37754"/>
  <path d="M78.6017 187.074C77.316 187.259 76.0046 187.354 74.6672 187.354C59.4728 187.354 47.1555 175.04 47.1555 159.845V124.531H55.0267V159.845C55.0273 173.702 65.273 185.165 78.6017 187.074Z" fill="#895B3D"/>
  <path d="M52.9678 130.5L44.4529 134.786V154.285C49.1554 154.285 52.9678 150.473 52.9678 145.77V130.5Z" fill="#232441"/>
  <path d="M96.3638 115.5H104.879V154.284C100.176 154.284 96.3638 150.472 96.3638 145.77V115.5Z" fill="#444562"/>
  <path d="M104.852 134.785H44.4529C44.4529 119.574 56.7842 107.242 71.9959 107.242H86.2258C96.5128 107.242 104.852 115.582 104.852 125.869V134.785H104.852Z" fill="#444562"/>
  <path d="M84.9129 107.242L44.4529 115.207V134.785H57.3699C57.3699 119.574 69.7013 107.242 84.9129 107.242Z" fill="#232441"/>
  <path d="M85.7158 165.508C85.7158 165.608 85.7158 165.709 85.7095 165.809C85.6803 167.001 85.4567 168.149 85.0742 169.215C84.6563 170.398 84.0403 171.484 83.2692 172.439C82.9291 172.863 82.5566 173.262 82.1579 173.625C80.1878 175.449 77.5567 176.558 74.666 176.558C71.7758 176.558 69.1442 175.449 67.1741 173.625C66.7755 173.262 66.403 172.863 66.0628 172.439C65.2917 171.483 64.6757 170.398 64.2578 169.215C63.8753 168.149 63.6517 167.002 63.6225 165.809C63.6162 165.709 63.6162 165.608 63.6162 165.508H85.7158Z" fill="#444562"/>
  <path d="M82.1574 173.625C80.1873 175.449 77.5562 176.557 74.6655 176.557C71.7753 176.557 69.1437 175.449 67.1736 173.625C69.1406 171.804 71.7748 170.692 74.6655 170.692C77.5562 170.692 80.1909 171.804 82.1574 173.625Z" fill="#D54980"/>
  <path d="M85.7158 165.508C85.7158 165.608 85.7158 165.709 85.7095 165.809C82.5534 167.481 78.7526 168.457 74.666 168.457C70.5768 168.457 66.7791 167.481 63.6225 165.809C63.6162 165.709 63.6162 165.608 63.6162 165.508H85.7158Z" fill="white"/>
  <path d="M74.6671 136.406L69.4844 160.681H74.6671V136.406Z" fill="#895B3D"/>
  <path d="M67.8596 149.189C67.8596 146.349 65.5572 144.046 62.7172 144.046C59.8771 144.046 57.5747 146.349 57.5747 149.189H67.8596Z" fill="#895B3D"/>
  <path d="M91.7576 149.189C91.7576 146.349 89.4552 144.046 86.6151 144.046C83.7751 144.046 81.4727 146.349 81.4727 149.189H91.7576Z" fill="#895B3D"/>
  <path d="M62.7168 146.153C64.3724 146.153 65.7141 147.495 65.7141 149.15V153.849C65.7141 155.504 64.3719 156.846 62.7168 156.846C61.0611 156.846 59.7195 155.504 59.7195 153.849V149.15C59.7195 147.494 61.0617 146.153 62.7168 146.153Z" fill="#444562"/>
  <path d="M86.6152 146.153C88.2708 146.153 89.6125 147.495 89.6125 149.15V153.849C89.6125 155.504 88.2703 156.846 86.6152 156.846C84.9596 156.846 83.6179 155.504 83.6179 153.849V149.15C83.6179 147.494 84.9596 146.153 86.6152 146.153Z" fill="#444562"/>
  <path d="M104.85 110.631V130.612C104.85 125.281 100.193 120.544 92.9673 117.53C87.8734 115.411 81.4964 114.148 74.5781 114.148C69.8474 114.148 65.3689 114.737 61.3832 115.791C51.2764 118.458 44.3064 124.092 44.3064 130.612V110.631C44.3064 104.112 51.2764 98.4767 61.3832 95.8101C65.3689 94.7568 69.8468 94.167 74.5781 94.167C81.4964 94.167 87.8734 95.4308 92.9673 97.5499C100.194 100.564 104.85 105.301 104.85 110.631Z" fill="#593375"/>
  <path d="M104.85 110.631V130.612C104.85 125.281 100.193 120.544 92.9674 117.53C87.8736 115.411 81.4965 114.148 74.5783 114.148C69.8475 114.148 65.3691 114.737 61.3833 115.791V95.8101C65.3691 94.7568 69.847 94.167 74.5783 94.167C81.4965 94.167 87.8736 95.4308 92.9674 97.5499C100.194 100.564 104.85 105.301 104.85 110.631Z" fill="#8D71B3"/>
  <path d="M82.5368 193.139L74.6661 212.082L66.7949 193.139H82.5368Z" fill="#74BAA7"/>
  <path d="M63.9516 185.447L53.2519 189.799C49.9552 191.142 47.3378 193.754 45.9898 197.046L39.4488 213.001C37.1866 208.837 35.149 204.532 33.3518 200.107L40.9796 189.533C42.8343 186.968 45.8018 185.447 48.9574 185.447H63.9516Z" fill="#593375"/>
  <path d="M213.298 104.486V98.5466C213.31 96.7975 212.421 95.0425 210.636 94.099L158.173 66.3988C156.209 65.3601 154.048 64.8408 151.887 64.8408C149.726 64.8408 147.565 65.3601 145.601 66.3988L93.1381 94.099C91.3529 95.042 90.4637 96.7975 90.4757 98.5466V104.486H96.0753L145.601 130.634C147.565 131.673 149.726 132.192 151.887 132.192C154.048 132.192 156.209 131.673 158.173 130.634L207.699 104.486H213.298Z" fill="#593375"/>
  <path d="M206.875 132.06C205.94 132.06 205.182 131.302 205.182 130.366V111.146L178.086 96.2552C177.267 95.8049 176.968 94.7757 177.418 93.9559C177.869 93.1367 178.898 92.8374 179.717 93.2877L207.691 108.661C208.232 108.958 208.569 109.527 208.569 110.145V130.367C208.568 131.302 207.811 132.06 206.875 132.06Z" fill="#F6E06E"/>
  <path d="M213.272 146.193C213.272 142.66 210.408 133.953 206.874 133.953C203.341 133.953 200.477 142.66 200.477 146.193C200.477 149.726 203.341 146.748 206.874 146.748C210.408 146.748 213.272 149.726 213.272 146.193Z" fill="#F6E06E"/>
  <path d="M204.758 146.193C204.758 146.536 204.767 146.819 204.784 147.048C202.278 147.704 200.478 148.995 200.478 146.193C200.478 142.661 203.343 133.954 206.875 133.954C205.707 133.954 204.758 142.661 204.758 146.193Z" fill="#DCBE34"/>
  <path d="M206.876 135.012C209.441 135.012 211.521 132.932 211.521 130.366C211.521 127.801 209.441 125.721 206.876 125.721C204.31 125.721 202.23 127.801 202.23 130.366C202.23 132.932 204.31 135.012 206.876 135.012Z" fill="white"/>
  <path d="M208.568 134.692C208.043 134.9 207.472 135.012 206.875 135.012C204.308 135.012 202.229 132.932 202.229 130.366C202.229 127.801 204.308 125.721 206.875 125.721C207.472 125.721 208.043 125.833 208.568 126.04C206.839 126.715 205.616 128.398 205.616 130.366C205.616 132.334 206.839 134.017 208.568 134.692Z" fill="#F1F1F1"/>
  <path d="M213.298 104.486V98.5456C213.311 96.7985 212.421 95.041 210.637 94.0985L185.269 80.7055L181.258 78.5875L158.172 66.3998C156.209 65.3596 154.048 64.8408 151.888 64.8408V132.193C154.049 132.193 156.209 131.674 158.172 130.634L207.699 104.487H213.298V104.486Z" fill="#8D71B3"/>
  <path d="M210.636 108.905L158.174 136.602C154.24 138.68 149.533 138.68 145.598 136.602L93.1361 108.905C89.5845 107.03 89.5845 101.943 93.1361 100.068L145.598 72.3704C149.533 70.2932 154.24 70.2932 158.174 72.3704L210.636 100.068C214.188 101.943 214.188 107.03 210.636 108.905Z" fill="#704F85"/>
  <path d="M227.128 255.643C206.026 270.967 180.071 280 152 280C132.251 280 113.548 275.528 96.8502 267.54C90.1889 264.358 83.8464 260.617 77.8853 256.375C82.7649 248.303 87.9058 240.242 89.9434 236.705L110.779 207.829C113.046 204.689 116.677 202.829 120.543 202.829H183.451C187.312 202.829 190.948 204.689 193.205 207.829L214.051 236.71C215.822 239.124 221.684 247.373 227.128 255.643Z" fill="#704F85"/>
  <path d="M165.102 197.661V202.831L161.625 212.24L151.994 235.418L142.364 212.24L138.887 202.831V197.661H165.102Z" fill="#DBA290"/>
  <path d="M118.334 175.467C124.579 175.467 129.641 170.405 129.641 164.161C129.641 157.917 124.579 152.854 118.334 152.854C112.09 152.854 107.028 157.917 107.028 164.161C107.028 170.405 112.09 175.467 118.334 175.467Z" fill="#DBA290"/>
  <path d="M185.465 175.467C191.71 175.467 196.772 170.405 196.772 164.161C196.772 157.917 191.71 152.854 185.465 152.854C179.221 152.854 174.159 157.917 174.159 164.161C174.159 170.405 179.221 175.467 185.465 175.467Z" fill="#DBA290"/>
  <path d="M151.994 205.162C133.405 205.162 118.334 190.092 118.334 171.502V128.293H185.654V171.502C185.655 190.092 170.585 205.162 151.994 205.162Z" fill="#EDBBA7"/>
  <path d="M156.81 204.819C155.237 205.046 153.632 205.161 151.996 205.161C133.405 205.161 118.334 190.094 118.334 171.503V128.294H127.965V171.503C127.965 188.458 140.501 202.483 156.81 204.819Z" fill="#DBA290"/>
  <path d="M125.446 135.598L115.027 140.841V164.699C120.781 164.699 125.446 160.035 125.446 154.281V135.598Z" fill="#DCBE34"/>
  <path d="M178.543 117.245H188.961V164.699C183.207 164.699 178.543 160.035 178.543 154.281V117.245Z" fill="#F6E06E"/>
  <path d="M188.928 140.841H115.027C115.027 122.229 130.115 107.141 148.727 107.141H166.139C178.725 107.141 188.929 117.345 188.929 129.931V140.841H188.928Z" fill="#F6E06E"/>
  <path d="M164.532 107.141L115.027 116.886V140.841H130.832C130.832 122.229 145.92 107.141 164.532 107.141Z" fill="#DCBE34"/>
  <path d="M165.514 178.432C165.514 178.555 165.514 178.678 165.507 178.801C165.471 180.26 165.197 181.663 164.73 182.968C164.218 184.415 163.465 185.743 162.521 186.913C162.105 187.432 161.649 187.92 161.161 188.364C158.751 190.596 155.531 191.952 151.995 191.952C148.459 191.952 145.239 190.596 142.829 188.364C142.341 187.92 141.885 187.432 141.469 186.913C140.525 185.743 139.772 184.415 139.26 182.968C138.792 181.663 138.519 180.26 138.483 178.801C138.476 178.678 138.476 178.555 138.476 178.432H165.514Z" fill="#444562"/>
  <path d="M161.161 188.364C158.75 190.596 155.531 191.952 151.994 191.952C148.458 191.952 145.239 190.596 142.828 188.364C145.235 186.135 148.458 184.775 151.994 184.775C155.531 184.775 158.754 186.135 161.161 188.364Z" fill="#D54980"/>
  <path d="M165.514 178.432C165.514 178.555 165.514 178.678 165.507 178.801C161.645 180.847 156.994 182.04 151.995 182.04C146.991 182.04 142.344 180.847 138.482 178.801C138.475 178.678 138.475 178.555 138.475 178.432H165.514Z" fill="white"/>
  <path d="M151.996 142.824L145.655 172.525H151.996V142.824Z" fill="#DBA290"/>
  <path d="M143.666 158.465C143.666 154.989 140.849 152.172 137.374 152.172C133.899 152.172 131.082 154.989 131.082 158.465H143.666Z" fill="#DBA290"/>
  <path d="M172.907 158.465C172.907 154.989 170.089 152.172 166.614 152.172C163.139 152.172 160.322 154.989 160.322 158.465H172.907Z" fill="#DBA290"/>
  <path d="M137.374 154.75C139.4 154.75 141.042 156.392 141.042 158.418V164.167C141.042 166.192 139.4 167.834 137.374 167.834C135.349 167.834 133.707 166.192 133.707 164.167V158.418C133.707 156.392 135.349 154.75 137.374 154.75Z" fill="#444562"/>
  <path d="M166.614 154.75C168.64 154.75 170.282 156.392 170.282 158.418V164.167C170.282 166.192 168.64 167.834 166.614 167.834C164.589 167.834 162.947 166.192 162.947 164.167V158.418C162.947 156.392 164.589 154.75 166.614 154.75Z" fill="#444562"/>
  <path d="M188.927 111.288V135.735C188.927 129.212 183.229 123.416 174.388 119.729C168.155 117.136 160.352 115.59 151.888 115.59C146.099 115.59 140.619 116.311 135.743 117.6C123.377 120.863 114.849 127.758 114.849 135.735V111.288C114.849 103.31 123.377 96.4157 135.743 93.153C140.619 91.8646 146.099 91.1426 151.888 91.1426C160.352 91.1426 168.155 92.689 174.388 95.2819C183.229 98.9694 188.927 104.766 188.927 111.288Z" fill="#593375"/>
  <path d="M188.926 111.288V135.735C188.926 129.212 183.229 123.416 174.388 119.729C168.155 117.136 160.352 115.59 151.887 115.59C146.099 115.59 140.619 116.311 135.743 117.6V93.153C140.619 91.8646 146.099 91.1426 151.887 91.1426C160.352 91.1426 168.155 92.689 174.388 95.2819C183.229 98.9694 188.926 104.766 188.926 111.288Z" fill="#8D71B3"/>
  <path d="M161.625 212.239L151.994 235.418L142.364 212.239H161.625Z" fill="#D54980"/>
  <path d="M138.886 202.829L125.794 208.158C121.761 209.799 118.558 212.991 116.907 217.019L99.546 262.132C98.7937 264.149 97.8846 265.946 96.8502 267.54C90.1889 264.358 83.8464 260.617 77.8853 256.375C82.7649 248.303 87.9058 240.242 89.9434 236.705L110.779 207.829C113.046 204.689 116.677 202.829 120.543 202.829H138.886Z" fill="#593375"/>
  <defs>
  <filter id="filter0_b_0_1" x="-25" y="-25" width="354" height="354" filterUnits="userSpaceOnUse" color-interpolation-filters="sRGB">
  <feFlood flood-opacity="0" result="BackgroundImageFix"/>
  <feGaussianBlur in="BackgroundImage" stdDeviation="12.5"/>
  <feComposite in2="SourceAlpha" operator="in" result="effect1_backgroundBlur_0_1"/>
  <feBlend mode="normal" in="SourceGraphic" in2="effect1_backgroundBlur_0_1" result="shape"/>
  </filter>
  </defs>
  </svg>
  