<svg width="111" height="111" viewBox="0 0 111 111" fill="none" xmlns="http://www.w3.org/2000/svg">
  <path d="M41.0564 87.1659C40.859 87.1662 40.6668 87.1027 40.5084 86.9849C40.3499 86.8671 40.2337 86.7014 40.1771 86.5123C40.1205 86.3232 40.1264 86.1209 40.194 85.9354C40.2615 85.7499 40.3872 85.5912 40.5522 85.4829L63.6192 70.3524L38.156 85.0521C37.9487 85.179 37.6994 85.2183 37.463 85.1614C37.2266 85.1045 37.0225 84.956 36.8956 84.7486C36.7687 84.5413 36.7294 84.292 36.7863 84.0556C36.8432 83.8192 36.9917 83.6151 37.199 83.4882L61.0196 68.0992L35.5802 82.7934C35.3736 82.904 35.1324 82.9313 34.9063 82.8696C34.6802 82.8079 34.4863 82.662 34.3645 82.4617C34.2426 82.2615 34.2021 82.0222 34.2513 81.793C34.3004 81.5639 34.4355 81.3622 34.6287 81.2296L58.7737 65.7819L35.23 79.3742C35.0254 79.469 34.793 79.485 34.5773 79.4192C34.3616 79.3534 34.1777 79.2103 34.0608 79.0174C33.944 78.8246 33.9023 78.5954 33.9438 78.3737C33.9853 78.152 34.1071 77.9534 34.2859 77.8159L57.5692 62.9842L34.6049 76.2264C34.3972 76.3428 34.1524 76.3738 33.9222 76.3129C33.6921 76.2519 33.4947 76.1038 33.3717 75.8999C33.2488 75.6961 33.2101 75.4523 33.2637 75.2204C33.3173 74.9884 33.459 74.7864 33.6589 74.6571L49.3907 64.8102L33.657 73.8926C33.4494 74.0089 33.2045 74.0399 32.9744 73.979C32.7442 73.9181 32.5468 73.77 32.4239 73.5661C32.301 73.3622 32.2622 73.1185 32.3158 72.8865C32.3694 72.6546 32.5112 72.4526 32.711 72.3232L52.3754 59.9336L32.1739 71.5991C31.9658 71.7191 31.7188 71.7526 31.4862 71.6924C31.2537 71.6322 31.054 71.483 30.9303 71.2771C30.8065 71.0712 30.7686 70.8249 30.8246 70.5913C30.8806 70.3577 31.0261 70.1553 31.2297 70.0279L47.9937 59.5486L30.3937 69.7034C30.1863 69.825 29.9394 69.8602 29.7062 69.8014C29.4731 69.7426 29.2723 69.5946 29.1473 69.3893C29.0223 69.1839 28.9829 68.9376 29.0377 68.7035C29.0925 68.4694 29.2372 68.2662 29.4404 68.1377L58.4272 49.5422L27.8105 67.2174C27.6031 67.3298 27.3603 67.3578 27.1326 67.2957C26.905 67.2336 26.7101 67.0861 26.5885 66.884C26.4668 66.6818 26.4278 66.4405 26.4796 66.2103C26.5314 65.9801 26.6699 65.7787 26.8664 65.6481L45.1355 54.2447L26.0359 65.2741C25.8287 65.3899 25.5847 65.4208 25.3552 65.3604C25.1257 65.2999 24.9285 65.1528 24.8053 64.95C24.682 64.7472 24.6422 64.5044 24.6943 64.2729C24.7463 64.0413 24.8862 63.839 25.0844 63.7084L54.6964 44.7884L23.8964 62.5717C23.688 62.6869 23.443 62.7165 23.2132 62.6543C22.9833 62.592 22.7868 62.4428 22.665 62.2382C22.5433 62.0335 22.506 61.7896 22.5609 61.5579C22.6159 61.3262 22.7589 61.125 22.9595 60.9969L25.6839 59.3322L22.8147 60.9822C22.6059 61.1012 22.3587 61.1335 22.1263 61.0719C21.8939 61.0104 21.695 60.8601 21.5724 60.6534C21.4498 60.4466 21.4133 60.2 21.4708 59.9666C21.5283 59.7332 21.6751 59.5317 21.8797 59.4056L22.9595 58.7492L21.8595 59.3854C21.6519 59.5121 21.4025 59.5511 21.1661 59.4938C20.9297 59.4366 20.7258 59.2878 20.5991 59.0802C20.4725 58.8725 20.4335 58.6231 20.4907 58.3867C20.548 58.1503 20.6968 57.9464 20.9044 57.8197L52.6082 37.4569L20.2114 56.1569C20.0042 56.2727 19.7602 56.3036 19.5307 56.2432C19.3012 56.1827 19.104 56.0356 18.9808 55.8328C18.8575 55.63 18.8177 55.3873 18.8698 55.1557C18.9218 54.9241 19.0617 54.7218 19.2599 54.5912L49.2715 35.3797L18.9262 52.9027C18.7184 53.0172 18.4743 53.0466 18.2452 52.9848C18.0161 52.923 17.8199 52.7748 17.6979 52.5713C17.5758 52.3678 17.5374 52.1249 17.5908 51.8937C17.6441 51.6625 17.785 51.461 17.9839 51.3316L35.5839 40.3554L18.1837 50.3966C17.9759 50.511 17.7318 50.5405 17.5027 50.4786C17.2736 50.4168 17.0774 50.2686 16.9554 50.0651C16.8333 49.8616 16.7949 49.6188 16.8483 49.3876C16.9016 49.1564 17.0425 48.9548 17.2414 48.8254L29.3744 41.3087L17.663 48.0682C17.4547 48.1937 17.205 48.2312 16.969 48.1726C16.733 48.114 16.5299 47.964 16.4045 47.7556C16.279 47.5473 16.2415 47.2977 16.3001 47.0616C16.3587 46.8256 16.5087 46.6225 16.717 46.4971L35.615 34.6244L17.2359 45.2339C17.0289 45.3517 16.7841 45.3844 16.5534 45.3249C16.3227 45.2653 16.1243 45.1184 16.0001 44.9151C15.8759 44.7118 15.8358 44.4681 15.8882 44.2357C15.9405 44.0033 16.0813 43.8004 16.2807 43.6701L43.5607 26.0151L17.0195 41.3326C16.8129 41.448 16.5695 41.4791 16.3405 41.4192C16.1115 41.3593 15.9145 41.2131 15.7908 41.0112C15.6671 40.8094 15.6263 40.5675 15.677 40.3362C15.7276 40.1049 15.8658 39.9023 16.0625 39.7706L41.1407 23.4649L17.2359 37.2754C17.0287 37.3912 16.7847 37.4221 16.5552 37.3617C16.3257 37.3012 16.1285 37.1541 16.0053 36.9513C15.882 36.7485 15.8422 36.5058 15.8943 36.2742C15.9463 36.0426 16.0862 35.8403 16.2844 35.7097L31.0225 26.3377L17.6997 34.0249C17.494 34.1402 17.2518 34.1718 17.0234 34.1131C16.795 34.0544 16.598 33.91 16.4733 33.7098C16.3487 33.5096 16.306 33.2691 16.3541 33.0382C16.4022 32.8074 16.5375 32.6039 16.7317 32.4702L39.3642 17.3159L18.9922 29.0694C18.7852 29.1872 18.5404 29.2199 18.3097 29.1604C18.0791 29.1008 17.8806 28.9539 17.7565 28.7506C17.6323 28.5473 17.5921 28.3036 17.6445 28.0712C17.6969 27.8388 17.8377 27.6359 18.037 27.5056L28.3697 20.8121L20.435 25.3954C20.2289 25.5242 19.98 25.5659 19.7431 25.5113C19.5062 25.4566 19.3007 25.3101 19.1719 25.1039C19.043 24.8977 19.0014 24.6488 19.056 24.4119C19.1107 24.1751 19.2572 23.9696 19.4634 23.8407L30.973 16.0876L22.9375 20.7277C22.7313 20.8502 22.4853 20.887 22.2522 20.8302C22.0192 20.7733 21.8177 20.6274 21.691 20.4237C21.5643 20.22 21.5225 19.9748 21.5746 19.7406C21.6267 19.5065 21.7685 19.302 21.9695 19.1712L25.4859 16.8282C25.2876 16.8438 25.0896 16.7944 24.9218 16.6875C24.754 16.5806 24.6256 16.4221 24.5558 16.2358C24.4861 16.0495 24.4788 15.8456 24.5351 15.6548C24.5915 15.464 24.7083 15.2968 24.868 15.1782L30.368 11.2036C30.2674 11.1298 30.1836 11.0354 30.1224 10.9267C30.0013 10.7166 29.9684 10.467 30.0309 10.2326C30.0934 9.99827 30.2463 9.79825 30.456 9.67639L40.6439 3.79506C40.8469 3.68208 41.0853 3.65043 41.3108 3.70652C41.5363 3.76261 41.7321 3.90224 41.8586 4.09719C41.9851 4.29213 42.0328 4.52783 41.9921 4.75661C41.9514 4.9854 41.8253 5.19019 41.6394 5.32956L40.5522 6.11423L48.166 1.71423C48.3718 1.59891 48.614 1.56731 48.8424 1.626C49.0708 1.68468 49.2678 1.82913 49.3924 2.02932C49.5171 2.2295 49.5598 2.47003 49.5117 2.70089C49.4635 2.93175 49.3283 3.13518 49.134 3.26889L46.725 4.87489L53.0574 1.22106C53.1595 1.15726 53.2731 1.11419 53.3918 1.09431C53.5106 1.07443 53.632 1.07813 53.7493 1.1052C53.8666 1.13227 53.9775 1.18218 54.0755 1.25207C54.1735 1.32197 54.2567 1.41048 54.3205 1.51256C54.3843 1.61464 54.4274 1.72829 54.4473 1.84702C54.4672 1.96574 54.4635 2.08722 54.4364 2.20452C54.4093 2.32181 54.3594 2.43263 54.2895 2.53064C54.2196 2.62865 54.1311 2.71193 54.029 2.77573L42.5175 10.5326L58.3612 1.37873C58.5686 1.25182 58.8179 1.21249 59.0543 1.2694C59.2906 1.3263 59.4947 1.47477 59.6216 1.68214C59.7485 1.88952 59.7879 2.13882 59.731 2.37519C59.6741 2.61157 59.5256 2.81566 59.3182 2.94256L48.9892 9.63423L62.2625 1.97089C62.4683 1.85558 62.7105 1.82398 62.9389 1.88266C63.1673 1.94134 63.3643 2.08579 63.4889 2.28598C63.6136 2.48617 63.6563 2.7267 63.6082 2.95756C63.56 3.18842 63.4248 3.39185 63.2305 3.52556L40.6035 18.6836L67.2071 3.32573C67.4142 3.20992 67.6582 3.17899 67.8878 3.23943C68.1173 3.29988 68.3144 3.44699 68.4377 3.64981C68.5609 3.85264 68.6007 4.09536 68.5486 4.32693C68.4966 4.55849 68.3568 4.76084 68.1585 4.89139L53.4094 14.2689L70.2522 4.55223C70.4585 4.43859 70.7007 4.40875 70.9285 4.46889C71.1562 4.52903 71.3521 4.67453 71.4754 4.87522C71.5987 5.0759 71.6401 5.31636 71.5909 5.54672C71.5416 5.77707 71.4056 5.97964 71.211 6.11239L46.131 22.4126L73.862 6.40206C73.9647 6.33922 74.0788 6.29723 74.1977 6.27847C74.3166 6.25971 74.4381 6.26455 74.5551 6.29273C74.6721 6.3209 74.7825 6.37186 74.8798 6.44268C74.9772 6.51349 75.0596 6.6028 75.1225 6.70548C75.1853 6.80816 75.2273 6.92221 75.2461 7.04113C75.2648 7.16004 75.26 7.28149 75.2318 7.39853C75.2036 7.51557 75.1527 7.62591 75.0819 7.72326C75.011 7.82061 74.9217 7.90306 74.819 7.9659L47.5445 25.6191L77.1345 8.53423C77.3429 8.40878 77.5925 8.37124 77.8286 8.42986C78.0646 8.48848 78.2677 8.63846 78.3931 8.84681C78.5186 9.05516 78.5561 9.30481 78.4975 9.54084C78.4389 9.77687 78.2889 9.97995 78.0806 10.1054L59.1606 21.9927L79.3859 10.3162C79.5935 10.2053 79.8358 10.1786 80.0626 10.2414C80.2894 10.3043 80.4834 10.452 80.6043 10.654C80.7252 10.8559 80.7637 11.0966 80.712 11.3263C80.6603 11.5559 80.5222 11.7568 80.3264 11.8874L68.2044 19.4041L81.1624 11.9241C81.3697 11.8147 81.6109 11.789 81.8366 11.852C82.0623 11.915 82.2553 12.0621 82.3759 12.263C82.4965 12.4639 82.5356 12.7033 82.4852 12.9322C82.4348 13.161 82.2986 13.3618 82.1047 13.4934L64.4937 24.4824L82.9976 13.7959C83.2047 13.6801 83.4487 13.6492 83.6783 13.7096C83.9078 13.77 84.1049 13.9172 84.2282 14.12C84.3514 14.3228 84.3912 14.5655 84.3392 14.7971C84.2871 15.0287 84.1473 15.231 83.9491 15.3616L53.9447 34.5694L85.2324 16.5056C85.44 16.3789 85.6894 16.3399 85.9258 16.3971C86.1622 16.4544 86.3661 16.6032 86.4928 16.8108C86.6195 17.0184 86.6585 17.2679 86.6012 17.5042C86.544 17.7406 86.3952 17.9446 86.1875 18.0712L54.4966 38.4212L87.2802 19.4957C87.4886 19.3805 87.7336 19.3509 87.9634 19.4132C88.1933 19.4754 88.3898 19.6247 88.5116 19.8293C88.6333 20.0339 88.6706 20.2779 88.6157 20.5096C88.5607 20.7412 88.4177 20.9424 88.217 21.0706L87.0749 21.7672L88.2244 21.1054C88.4328 20.9902 88.6778 20.9606 88.9076 21.0228C89.1374 21.0851 89.334 21.2343 89.4557 21.439C89.5775 21.6436 89.6148 21.8876 89.5598 22.1192C89.5049 22.3509 89.3619 22.5521 89.1612 22.6802L86.4864 24.3156L89.1099 22.8012C89.3167 22.6875 89.5594 22.6579 89.7875 22.7186C90.0156 22.7794 90.2115 22.9258 90.3343 23.1273C90.4572 23.3288 90.4976 23.57 90.4471 23.8006C90.3966 24.0311 90.2591 24.2333 90.0632 24.3651L60.4512 43.2851L90.4684 25.9546C90.6762 25.8401 90.9203 25.8107 91.1494 25.8725C91.3785 25.9343 91.5747 26.0825 91.6967 26.286C91.8188 26.4895 91.8572 26.7324 91.8038 26.9636C91.7505 27.1948 91.6096 27.3963 91.4107 27.5257L73.1085 38.9492L91.3245 28.4332C91.5314 28.3195 91.7741 28.2899 92.0022 28.3506C92.2303 28.4114 92.4261 28.5578 92.549 28.7593C92.6718 28.9608 92.7122 29.202 92.6617 29.4326C92.6112 29.6631 92.4737 29.8653 92.2779 29.9971L63.3002 48.5926L92.1972 31.9092C92.4053 31.7892 92.6523 31.7557 92.8848 31.8159C93.1174 31.8761 93.3171 32.0253 93.4408 32.2312C93.5646 32.4371 93.6025 32.6834 93.5465 32.917C93.4905 33.1506 93.345 33.353 93.1414 33.4804L76.3975 43.9506L92.6464 34.5694C92.8537 34.4554 93.0971 34.426 93.3256 34.4873C93.5541 34.5486 93.7501 34.6958 93.8725 34.8983C93.9949 35.1008 94.0343 35.3427 93.9825 35.5736C93.9306 35.8044 93.7915 36.0063 93.5942 36.1369L73.9134 48.5357L92.9287 37.5559C93.1371 37.4305 93.3867 37.3929 93.6227 37.4515C93.7396 37.4806 93.8496 37.5323 93.9465 37.6039C94.0434 37.6754 94.1252 37.7653 94.1873 37.8685C94.2494 37.9716 94.2906 38.086 94.3085 38.2051C94.3264 38.3242 94.3207 38.4456 94.2917 38.5625C94.2626 38.6794 94.2109 38.7894 94.1393 38.8863C94.0678 38.9831 93.9779 39.065 93.8747 39.1271L78.1502 48.9702L92.9672 40.4159C93.1744 40.3001 93.4184 40.2692 93.6479 40.3296C93.8774 40.39 94.0746 40.5372 94.1978 40.74C94.3211 40.9428 94.3609 41.1855 94.3088 41.4171C94.2568 41.6487 94.1169 41.851 93.9187 41.9816L70.6519 56.8059L92.7215 44.0642C92.929 43.9427 93.1759 43.9075 93.409 43.9662C93.6422 44.025 93.8429 44.173 93.968 44.3784C94.093 44.5837 94.1324 44.83 94.0775 45.0641C94.0227 45.2982 93.8781 45.5014 93.6749 45.6299L69.5225 61.0812L92.0084 48.0994C92.2154 47.9816 92.4602 47.9489 92.6909 48.0084C92.9215 48.068 93.12 48.2149 93.2441 48.4182C93.3683 48.6215 93.4085 48.8652 93.3561 49.0976C93.3037 49.33 93.1629 49.5329 92.9636 49.6632L69.1485 65.0412L90.5985 52.6607C90.8046 52.5486 91.0457 52.5198 91.2723 52.5801C91.499 52.6404 91.6939 52.7852 91.817 52.9849C91.9401 53.1845 91.9819 53.4237 91.934 53.6533C91.886 53.8829 91.7519 54.0854 91.5592 54.2191L68.4867 69.3496L87.9641 58.1039C88.1705 57.9753 88.4195 57.9339 88.6564 57.989C88.8933 58.044 89.0986 58.1908 89.2272 58.3972C89.3558 58.6036 89.3972 58.8527 89.3422 59.0896C89.2872 59.3265 89.1403 59.5318 88.9339 59.6604L71.2477 71.4817L83.1772 64.5939C83.3817 64.4796 83.6222 64.448 83.8493 64.5055C84.0763 64.5629 84.2728 64.7052 84.3983 64.9029C84.5238 65.1007 84.5689 65.339 84.5242 65.569C84.4795 65.7989 84.3485 66.003 84.1581 66.1394L72.0746 74.5452L76.5204 71.9786C76.7217 71.8653 76.9583 71.8322 77.183 71.8858C77.4076 71.9395 77.6038 72.076 77.7321 72.2681C77.8604 72.4601 77.9116 72.6936 77.8752 72.9217C77.8389 73.1498 77.7177 73.3558 77.536 73.4984L71.1487 78.3971L75.0116 76.1659C75.2107 76.0526 75.4451 76.0179 75.6685 76.0688C75.8919 76.1197 76.0882 76.2524 76.2186 76.4408C76.3491 76.6292 76.4042 76.8596 76.3732 77.0867C76.3422 77.3137 76.2272 77.5209 76.051 77.6674L73.4496 79.7996L74.6816 79.0901C74.8744 78.9817 75.0998 78.9466 75.3165 78.9914C75.5331 79.0362 75.7262 79.1578 75.8602 79.3337C75.9942 79.5097 76.06 79.7282 76.0456 79.949C76.0311 80.1697 75.9374 80.3777 75.7815 80.5347L74.236 82.0619C74.4437 82.0423 74.6519 82.0942 74.8261 82.2089C75.0003 82.3236 75.1302 82.4943 75.1943 82.6928C75.2584 82.8913 75.2529 83.1058 75.1787 83.3007C75.1045 83.4957 74.966 83.6595 74.786 83.7651L69.2017 86.9899C69.0089 87.0983 68.7834 87.1334 68.5668 87.0886C68.3502 87.0438 68.1571 86.9222 68.0231 86.7462C67.8891 86.5702 67.8232 86.3517 67.8377 86.131C67.8521 85.9103 67.9459 85.7022 68.1017 85.5452L69.4235 84.2381L64.6459 86.9881C64.4467 87.1034 64.2113 87.1396 63.9867 87.0895C63.762 87.0393 63.5644 86.9064 63.4332 86.7172C63.302 86.5281 63.2468 86.2965 63.2786 86.0684C63.3103 85.8404 63.4267 85.6327 63.6046 85.4866L66.2042 83.3562L59.8975 86.9972C59.6962 87.1105 59.4596 87.1436 59.2349 87.09C59.0103 87.0363 58.8142 86.8998 58.6858 86.7077C58.5575 86.5157 58.5064 86.2822 58.5427 86.0541C58.5791 85.826 58.7002 85.62 58.8819 85.4774L65.2692 80.5861L54.1317 87.0174C53.9272 87.1317 53.6868 87.1633 53.4597 87.1058C53.2326 87.0484 53.0361 86.9062 52.9106 86.7084C52.7851 86.5106 52.7401 86.2723 52.7847 86.0423C52.8294 85.8124 52.9604 85.6083 53.1509 85.4719L65.2289 77.0697L47.9809 87.0284C47.7746 87.1509 47.5286 87.1877 47.2955 87.1309C47.0625 87.074 46.861 86.9281 46.7343 86.7244C46.6076 86.5207 46.5659 86.2755 46.6179 86.0413C46.67 85.8071 46.8118 85.6027 47.0129 85.4719L64.7045 73.6469L41.5147 87.0394C41.3757 87.1211 41.2176 87.1648 41.0564 87.1659Z" fill="#FCC80A"/>
  <path d="M55.1142 109.109C54.9197 109.109 54.7302 109.047 54.5732 108.932C54.4162 108.818 54.2998 108.656 54.2408 108.47C54.1818 108.285 54.1833 108.086 54.245 107.901C54.3068 107.717 54.4256 107.557 54.5844 107.444L57.8422 105.147L51.6089 108.746C51.4051 108.864 51.1638 108.899 50.9348 108.844C50.7059 108.789 50.5069 108.648 50.3791 108.45C50.2513 108.253 50.2046 108.013 50.2485 107.782C50.2925 107.551 50.4238 107.345 50.6152 107.208L57.657 102.144L47.6874 107.901C47.4807 108.029 47.2316 108.07 46.9949 108.014C46.7582 107.959 46.5532 107.811 46.4251 107.605C46.297 107.398 46.2562 107.149 46.3117 106.912C46.3673 106.676 46.5145 106.471 46.7212 106.343L49.5775 104.452L45.2857 106.924C45.079 107.039 44.8357 107.07 44.6067 107.01C44.3776 106.95 44.1806 106.804 44.0569 106.602C43.9333 106.401 43.8925 106.159 43.9431 105.927C43.9938 105.696 44.132 105.493 44.3287 105.362L44.7577 105.083L43.4505 105.838C43.2453 105.954 43.0035 105.986 42.7753 105.928C42.5471 105.87 42.35 105.726 42.2248 105.527C42.0996 105.327 42.056 105.087 42.1029 104.857C42.1499 104.626 42.2839 104.422 42.477 104.287L52.0764 97.7405L41.311 103.954C41.1084 104.067 40.8702 104.1 40.6446 104.044C40.419 103.989 40.2228 103.85 40.0957 103.656C39.9686 103.461 39.92 103.226 39.9598 102.997C39.9996 102.768 40.1248 102.563 40.31 102.423L52.3899 93.5349L39.419 101.03C39.2138 101.145 38.972 101.177 38.7438 101.119C38.5156 101.061 38.3185 100.917 38.1933 100.718C38.0681 100.518 38.0245 100.278 38.0714 100.048C38.1184 99.817 38.2524 99.6132 38.4455 99.4785L41.212 97.5939L37.7379 99.5977C37.5335 99.7093 37.2944 99.739 37.0689 99.6806C36.8435 99.6223 36.6487 99.4804 36.5241 99.2837C36.3995 99.087 36.3545 98.8503 36.3981 98.6216C36.4417 98.3928 36.5707 98.1893 36.7589 98.0522L38.8195 96.6277L35.9999 98.2557C35.8004 98.3717 35.5646 98.4082 35.3394 98.358C35.1142 98.3077 34.9163 98.1744 34.7851 97.9846C34.6539 97.7949 34.599 97.5626 34.6315 97.3342C34.664 97.1058 34.7814 96.898 34.9604 96.7524L42.1232 90.8857L35.7524 94.5652C35.551 94.6808 35.3132 94.7157 35.0872 94.6628C34.8611 94.6098 34.6635 94.4731 34.5343 94.2802C34.4051 94.0872 34.354 93.8524 34.3912 93.6232C34.4284 93.394 34.5513 93.1875 34.7349 93.0454L36.3464 91.806C36.1894 91.8194 36.0315 91.7928 35.8876 91.7287C35.7436 91.6645 35.6183 91.565 35.5232 91.4394C35.3894 91.257 35.3278 91.0317 35.3501 90.8066C35.3724 90.5816 35.4772 90.3727 35.6442 90.2202L36.4765 89.4594L35.5379 90.0002C35.3565 90.1053 35.1445 90.1451 34.9374 90.1128C34.7302 90.0806 34.5403 89.9783 34.3995 89.8231C34.2586 89.6678 34.1752 89.469 34.1631 89.2597C34.1511 89.0504 34.2112 88.8432 34.3334 88.6729L35.4242 87.1475C35.223 87.1468 35.0276 87.08 34.8682 86.9572C34.7088 86.8345 34.5941 86.6627 34.542 86.4684C34.4899 86.274 34.5032 86.068 34.5797 85.8819C34.6563 85.6959 34.792 85.5402 34.9659 85.4389L38.0019 83.6862C38.1831 83.5819 38.3945 83.5426 38.6011 83.575C38.8077 83.6074 38.997 83.7094 39.1376 83.8642C39.2782 84.0189 39.3617 84.2171 39.3742 84.4258C39.3867 84.6346 39.3275 84.8413 39.2064 85.0117L38.2897 86.295L42.8107 83.6825C43.0058 83.5738 43.234 83.54 43.4522 83.5876C43.6705 83.6352 43.8639 83.7608 43.996 83.941C44.1282 84.1211 44.19 84.3432 44.1699 84.5657C44.1498 84.7882 44.0492 84.9957 43.8869 85.1492L43.0527 85.9119L46.9229 83.6825C47.1242 83.5693 47.3608 83.5361 47.5855 83.5898C47.8101 83.6435 48.0062 83.78 48.1346 83.9721C48.2629 84.1641 48.314 84.3975 48.2777 84.6257C48.2413 84.8538 48.1202 85.0597 47.9385 85.2024L46.8385 86.0475L50.936 83.6825C51.1352 83.5692 51.3696 83.5346 51.593 83.5855C51.8164 83.6363 52.0127 83.7691 52.1431 83.9575C52.2735 84.1459 52.3287 84.3763 52.2977 84.6033C52.2666 84.8304 52.1517 85.0375 51.9755 85.184L44.8109 91.0507L57.58 83.6807C57.7844 83.5691 58.0235 83.5395 58.249 83.5978C58.4744 83.6561 58.6692 83.798 58.7937 83.9947C58.9183 84.1914 58.9634 84.4281 58.9198 84.6569C58.8762 84.8856 58.7472 85.0891 58.559 85.2262L56.5057 86.6452L61.639 83.6807C61.8438 83.5695 62.0833 83.5404 62.3088 83.5994C62.5342 83.6584 62.7287 83.8011 62.8527 83.9985C62.9768 84.1958 63.0209 84.433 62.9763 84.6617C62.9317 84.8905 62.8016 85.0936 62.6125 85.2299L59.846 87.1164L65.8044 83.6825C66.0069 83.5713 66.244 83.5406 66.4682 83.5967C66.6923 83.6528 66.8871 83.7914 67.0134 83.9849C67.1397 84.1784 67.1882 84.4125 67.1493 84.6403C67.1104 84.8681 66.9869 85.0728 66.8035 85.2134L54.7219 94.1032L72.342 83.9319C72.5473 83.8165 72.7891 83.7844 73.0173 83.8425C73.2455 83.9005 73.4426 84.0441 73.5678 84.2435C73.6929 84.443 73.7366 84.6829 73.6896 84.9137C73.6427 85.1444 73.5087 85.3482 73.3155 85.4829L63.7199 92.0279L74.3532 85.8862C74.5599 85.7707 74.8032 85.7397 75.0322 85.7996C75.2613 85.8595 75.4583 86.0057 75.5819 86.2076C75.7056 86.4094 75.7464 86.6513 75.6958 86.8826C75.6451 87.1138 75.5069 87.3165 75.3102 87.4482L74.7254 87.8277C74.9362 87.7459 75.1698 87.7448 75.3813 87.8248C75.5928 87.9048 75.7673 88.0601 75.8712 88.2609C75.9752 88.4617 76.0012 88.6939 75.9443 88.9127C75.8875 89.1316 75.7517 89.3217 75.5632 89.4465L72.683 91.3514C72.8902 91.2491 73.1284 91.2289 73.3499 91.2947C73.5714 91.3605 73.7598 91.5075 73.8775 91.7063C73.9953 91.9052 74.0336 92.1411 73.9848 92.367C73.936 92.5928 73.8037 92.7919 73.6144 92.9244L66.5744 97.9825L74.4577 93.434C74.6617 93.3194 74.9019 93.2872 75.1289 93.3439C75.356 93.4007 75.5527 93.5421 75.6789 93.7393C75.805 93.9364 75.8509 94.1743 75.8072 94.4042C75.7636 94.6342 75.6336 94.8387 75.444 94.9759L72.1862 97.273L74.3642 96.0172C74.5625 95.9039 74.796 95.8687 75.0189 95.9185C75.2418 95.9683 75.4381 96.0996 75.5693 96.2865C75.7005 96.4735 75.7572 96.7027 75.7283 96.9292C75.6993 97.1558 75.5869 97.3634 75.4129 97.5114L69.1942 102.749C69.3482 102.83 69.4756 102.953 69.5609 103.105C69.6826 103.315 69.7158 103.565 69.6532 103.8C69.5907 104.035 69.4374 104.235 69.2272 104.357L62.9425 107.985C62.7442 108.099 62.5107 108.134 62.2878 108.084C62.0649 108.034 61.8686 107.903 61.7374 107.716C61.6062 107.529 61.5495 107.3 61.5785 107.073C61.6074 106.847 61.7199 106.639 61.8939 106.491L66.2719 102.806L55.5725 108.983C55.4335 109.064 55.2754 109.108 55.1142 109.109Z" fill="#D4E6E7"/>
  <path d="M58.5902 99.9443C58.4013 99.9443 58.217 99.8861 58.0625 99.7774C57.908 99.6688 57.7909 99.515 57.7271 99.3373C57.6633 99.1595 57.6559 98.9663 57.7061 98.7842C57.7562 98.6021 57.8614 98.44 58.0072 98.3199L58.2639 98.1073L55.2957 99.8159C55.1077 99.9239 54.8875 99.9617 54.6743 99.9227C54.4611 99.8837 54.2686 99.7703 54.131 99.6029C53.9934 99.4354 53.9196 99.2245 53.9227 99.0078C53.9258 98.791 54.0057 98.5824 54.148 98.4189L56.821 95.3756L49.1357 99.8159C48.9498 99.9236 48.7321 99.9626 48.5204 99.926C48.3087 99.8895 48.1166 99.7798 47.9776 99.6161C47.8385 99.4524 47.7614 99.2451 47.7596 99.0303C47.7578 98.8155 47.8315 98.6069 47.9679 98.4409L50.6995 95.1079L42.5357 99.8159C42.3372 99.9279 42.1042 99.9618 41.882 99.9113C41.6598 99.8607 41.4644 99.7292 41.334 99.5424C41.2035 99.3556 41.1472 99.1269 41.1762 98.9009C41.2052 98.6749 41.3173 98.4678 41.4907 98.3199L41.9362 97.9533L38.7297 99.8049C38.532 99.9188 38.2989 99.9549 38.076 99.9061C37.8532 99.8572 37.6565 99.7271 37.5245 99.541C37.3925 99.3549 37.3346 99.1262 37.3622 98.8998C37.3898 98.6733 37.5009 98.4652 37.6737 98.3163L38.6472 97.4766L36.4142 98.7599C36.2205 98.8748 35.9913 98.9143 35.7703 98.871C35.5493 98.8277 35.352 98.7045 35.216 98.525C35.08 98.3455 35.0148 98.1222 35.0329 97.8977C35.0511 97.6733 35.1512 97.4633 35.3142 97.3079L36.3427 96.3106L35.4059 96.8514C35.22 96.9569 35.0032 96.9942 34.7928 96.9568C34.5825 96.9194 34.3918 96.8097 34.2537 96.6466C34.1156 96.4835 34.0389 96.2773 34.0367 96.0637C34.0345 95.85 34.107 95.6423 34.2417 95.4764L35.107 94.4223C34.9439 94.3629 34.8009 94.2584 34.6948 94.121C34.5887 93.9836 34.5238 93.8189 34.5077 93.646C34.4916 93.4732 34.5249 93.2993 34.6037 93.1446C34.6825 92.9899 34.8037 92.8608 34.953 92.7723L37.989 91.0196C38.1748 90.9141 38.3917 90.8768 38.602 90.9142C38.8124 90.9516 39.0031 91.0614 39.1412 91.2244C39.2792 91.3875 39.356 91.5937 39.3582 91.8074C39.3604 92.021 39.2879 92.2287 39.1532 92.3946L38.8654 92.7466L41.8647 91.0159C42.0582 90.904 42.2859 90.8666 42.505 90.9109C42.7242 90.9551 42.9196 91.0779 43.0545 91.2561C43.1896 91.4347 43.2547 91.6565 43.2375 91.8797C43.2203 92.103 43.1219 92.3122 42.961 92.4679L41.9307 93.4634L46.1785 91.0159C46.376 90.9042 46.6078 90.8697 46.8292 90.919C47.0507 90.9683 47.2459 91.098 47.3773 91.283C47.5086 91.4679 47.5667 91.695 47.5404 91.9203C47.514 92.1456 47.405 92.3531 47.2345 92.5028L46.2592 93.3424L50.2925 91.0159C50.491 90.904 50.724 90.87 50.9462 90.9206C51.1684 90.9712 51.3638 91.1027 51.4943 91.2895C51.6247 91.4763 51.681 91.705 51.652 91.931C51.623 92.157 51.5109 92.3641 51.3375 92.5119L50.8902 92.8786L54.1297 91.0086C54.3156 90.9009 54.5333 90.862 54.745 90.8985C54.9567 90.935 55.1488 91.0447 55.2878 91.2084C55.4269 91.3721 55.504 91.5795 55.5058 91.7942C55.5076 92.009 55.4338 92.2176 55.2975 92.3836L52.5659 95.7166L60.7224 91.0159C60.9103 90.908 61.1305 90.8702 61.3437 90.9092C61.557 90.9482 61.7495 91.0615 61.8871 91.229C62.0247 91.3965 62.0985 91.6073 62.0953 91.8241C62.0922 92.0408 62.0124 92.2495 61.87 92.4129L59.197 95.4563L66.897 91.0159C67.096 90.9011 67.3308 90.8652 67.555 90.9153C67.7793 90.9654 67.9765 91.0979 68.1076 91.2865C68.2388 91.4751 68.2944 91.706 68.2634 91.9337C68.2324 92.1613 68.117 92.369 67.9402 92.5156L67.6817 92.7283L70.6499 91.0159C70.849 90.9026 71.0834 90.868 71.3068 90.9188C71.5302 90.9697 71.7265 91.1024 71.8569 91.2908C71.9874 91.4792 72.0425 91.7097 72.0115 91.9367C71.9805 92.1637 71.8655 92.3709 71.6894 92.5174L71.605 92.5871L73.1505 91.6961C73.3279 91.5968 73.5332 91.5593 73.7342 91.5895C73.9352 91.6197 74.1204 91.7157 74.2609 91.8627C74.4013 92.0096 74.4889 92.199 74.5099 92.4012C74.531 92.6033 74.4842 92.8068 74.377 92.9794L72.2045 96.3326L74.63 94.9319C74.8405 94.8123 75.0897 94.7807 75.3233 94.8442C75.5569 94.9076 75.7559 95.0608 75.8769 95.2705C75.998 95.4801 76.0312 95.7291 75.9693 95.9631C75.9074 96.1971 75.7555 96.3972 75.5467 96.5196L69.8249 99.8196C69.6475 99.9197 69.4418 99.9579 69.2403 99.9281C69.0388 99.8983 68.853 99.8022 68.7122 99.6551C68.5713 99.508 68.4835 99.3181 68.4626 99.1155C68.4416 98.9129 68.4888 98.7091 68.5965 98.5363L70.769 95.1831L62.7299 99.8159C62.5307 99.9293 62.2963 99.9639 62.0729 99.913C61.8495 99.8621 61.6532 99.7294 61.5228 99.541C61.3923 99.3526 61.3372 99.1222 61.3682 98.8952C61.3992 98.6681 61.5142 98.4609 61.6904 98.3144L61.7802 98.2393L59.0485 99.8159C58.91 99.8989 58.7517 99.9432 58.5902 99.9443Z" fill="#AAC7C8"/>
  <path d="M53.6128 57.7574C53.4205 57.7574 53.2329 57.6969 53.0769 57.5844C52.9208 57.4719 52.8041 57.3131 52.7432 57.1306C52.6824 56.9481 52.6805 56.751 52.7379 56.5674C52.7952 56.3838 52.9089 56.2228 53.0628 56.1074L57.5398 52.7047L49.6125 57.2881C49.4073 57.4097 49.1627 57.4465 48.9307 57.3907C48.6988 57.3349 48.4977 57.1908 48.3703 56.9892C48.2428 56.7875 48.199 56.5441 48.2482 56.3106C48.2973 56.0772 48.4356 55.8721 48.6335 55.7389L49.7243 54.9909L46.7067 56.7326C46.5022 56.8468 46.2617 56.8785 46.0346 56.821C45.8076 56.7635 45.6111 56.6213 45.4856 56.4235C45.3601 56.2258 45.315 55.9874 45.3597 55.7575C45.4044 55.5275 45.5354 55.3234 45.7258 55.1871L50.7803 51.6854L43.7752 55.7297C43.5737 55.8479 43.3347 55.8847 43.1071 55.8327C42.8794 55.7806 42.6801 55.6436 42.55 55.4497C42.4199 55.2557 42.3688 55.0194 42.407 54.789C42.4453 54.5585 42.57 54.3514 42.7558 54.2099L53.1142 46.2239L41.0692 53.1741C40.8644 53.2897 40.623 53.3222 40.3949 53.2648C40.1669 53.2075 39.9696 53.0647 39.8438 52.866C39.7181 52.6672 39.6735 52.4278 39.7194 52.1971C39.7652 51.9665 39.898 51.7623 40.0902 51.6267L41.5183 50.6404L40.8547 51.0217C40.6524 51.1385 40.4131 51.1736 40.1858 51.1199C39.9585 51.0662 39.7602 50.9278 39.6315 50.7329C39.5028 50.5379 39.4534 50.3012 39.4933 50.0711C39.5332 49.841 39.6595 49.6347 39.8463 49.4946L43.1958 46.9829L40.8547 48.3322C40.6588 48.4454 40.428 48.4822 40.2067 48.4355C39.9853 48.3888 39.7891 48.2619 39.6557 48.0792C39.522 47.8961 39.461 47.6699 39.4844 47.4444C39.5077 47.2189 39.6138 47.0101 39.7822 46.8582L43.2508 43.7416L40.8547 45.1221C40.6681 45.2283 40.4503 45.2656 40.239 45.2277C40.0277 45.1897 39.8365 45.0788 39.6986 44.9143C39.5607 44.7498 39.4849 44.5421 39.4845 44.3275C39.484 44.1128 39.5589 43.9048 39.696 43.7397L41.1627 42.0109L40.8638 42.1832C40.7031 42.2754 40.5182 42.3167 40.3336 42.3017C40.1489 42.2866 39.9731 42.216 39.8294 42.0991C39.6857 41.9822 39.5807 41.8244 39.5285 41.6467C39.4762 41.4689 39.479 41.2795 39.5365 41.1034L39.927 39.9172C39.7976 39.837 39.69 39.7262 39.6135 39.5946C39.5529 39.4904 39.5134 39.3754 39.4972 39.256C39.4811 39.1366 39.4887 39.0152 39.5195 38.8988C39.5503 38.7823 39.6038 38.6731 39.6769 38.5773C39.7499 38.4815 39.8412 38.4011 39.9453 38.3406L40.862 37.8089C41.0237 37.7171 41.2091 37.6759 41.3944 37.6906C41.5797 37.7053 41.7564 37.7753 41.9015 37.8914C42.0453 38.0086 42.1502 38.1667 42.2022 38.3448C42.2543 38.5228 42.2511 38.7125 42.193 38.8887L42.0262 39.3929L44.7853 37.8016C44.9721 37.6943 45.1906 37.6563 45.4026 37.694C45.6146 37.7318 45.8065 37.843 45.9447 38.0081C46.0829 38.1732 46.1586 38.3817 46.1585 38.597C46.1584 38.8124 46.0824 39.0208 45.944 39.1857L44.4773 40.9164L49.8875 37.7997C50.0825 37.6938 50.3094 37.6622 50.5259 37.7108C50.7425 37.7594 50.934 37.885 51.065 38.0641C51.1961 38.2433 51.2576 38.4639 51.2383 38.685C51.219 38.9061 51.1201 39.1127 50.96 39.2664L47.4932 42.3831L55.4718 37.7796C55.6742 37.6628 55.9134 37.6277 56.1407 37.6814C56.368 37.735 56.5663 37.8735 56.695 38.0684C56.8237 38.2633 56.8731 38.5 56.8332 38.7302C56.7933 38.9603 56.667 39.1665 56.4802 39.3067L53.1325 41.8184L60.1358 37.7704C60.3402 37.6588 60.5794 37.6291 60.8048 37.6875C61.0302 37.7458 61.225 37.8877 61.3496 38.0844C61.4742 38.2811 61.5192 38.5178 61.4756 38.7465C61.4321 38.9753 61.3031 39.1788 61.1148 39.3159L59.694 40.3004L64.094 37.7631C64.2951 37.6483 64.5323 37.6139 64.7577 37.6667C64.9832 37.7196 65.1803 37.8559 65.3094 38.0482C65.4385 38.2404 65.49 38.4744 65.4537 38.7031C65.4173 38.9319 65.2957 39.1383 65.1133 39.2811L54.7532 47.2671L69.1558 38.9492C69.3608 38.83 69.6039 38.7948 69.8343 38.851C70.0646 38.9072 70.2642 39.0505 70.3911 39.2507C70.518 39.451 70.5625 39.6926 70.515 39.9249C70.4676 40.1572 70.332 40.3621 70.1367 40.4966L65.0858 44.0001L69.1595 41.6497C69.3646 41.5325 69.607 41.499 69.8362 41.5561C70.0654 41.6133 70.2637 41.7567 70.3897 41.9565C70.5158 42.1563 70.5598 42.397 70.5126 42.6285C70.4655 42.86 70.3308 43.0643 70.1367 43.1989L69.0458 43.9469L69.1595 43.8827C69.3613 43.7679 69.5992 43.7339 69.8251 43.7876C70.051 43.8413 70.2481 43.9788 70.3765 44.1722C70.505 44.3656 70.5553 44.6005 70.5172 44.8296C70.4792 45.0587 70.3556 45.2647 70.1715 45.4062L65.6963 48.8071L69.1595 46.8087C69.3579 46.6935 69.5923 46.6568 69.8164 46.7059C70.0404 46.755 70.238 46.8864 70.3699 47.0741C70.5019 47.2618 70.5587 47.4921 70.5291 47.7196C70.4994 47.9471 70.3856 48.1552 70.21 48.3029L67.2363 50.8237L69.1595 49.7127C69.3514 49.6034 69.5763 49.567 69.7928 49.6103C70.0094 49.6535 70.2031 49.7735 70.3382 49.9481C70.4734 50.1228 70.541 50.3403 70.5285 50.5608C70.5161 50.7813 70.4245 50.9899 70.2705 51.1482L69.231 52.2097C69.3576 52.2351 69.4773 52.2873 69.582 52.3629C69.6867 52.4385 69.774 52.5357 69.8378 52.6479C69.9588 52.8583 69.9914 53.108 69.9285 53.3424C69.8656 53.5768 69.7124 53.7767 69.5023 53.8982L64.9392 56.5327C64.7473 56.6421 64.5224 56.6784 64.3058 56.6352C64.0893 56.5919 63.8956 56.472 63.7604 56.2973C63.6253 56.1227 63.5577 55.9051 63.5701 55.6846C63.5826 55.4641 63.6742 55.2555 63.8282 55.0972L64.2553 54.6627L59.3347 57.5007C59.1366 57.6136 58.9035 57.6486 58.681 57.5989C58.4585 57.5492 58.2625 57.4184 58.1313 57.2319C58 57.0455 57.943 56.8168 57.9712 56.5906C57.9995 56.3644 58.1111 56.1568 58.2842 56.0084L61.2597 53.4876L54.0748 57.6346C53.9347 57.7164 53.7751 57.7588 53.6128 57.7574Z" fill="#1C372B"/>
  <path d="M79.1657 53.7736C79.0003 53.7734 78.8381 53.7285 78.6962 53.6436C78.5542 53.5586 78.4379 53.4369 78.3595 53.2913C78.2812 53.1456 78.2437 52.9815 78.251 52.8163C78.2583 52.651 78.3103 52.4909 78.4012 52.3528L80.185 49.6431L77.6037 51.1336C77.4189 51.2397 77.2029 51.2782 76.9928 51.2423C76.7828 51.2065 76.5918 51.0985 76.4527 50.9371C76.3136 50.7756 76.2351 50.5707 76.2307 50.3577C76.2263 50.1446 76.2962 49.9367 76.4285 49.7696L77.3452 48.6146C77.1699 48.568 77.0124 48.4705 76.8925 48.3343C76.7727 48.1981 76.696 48.0295 76.672 47.8497C76.6481 47.6699 76.678 47.487 76.758 47.3243C76.838 47.1615 76.9645 47.0261 77.1215 46.9353L80.1594 45.1826C80.3442 45.0764 80.5602 45.038 80.7703 45.0739C80.9803 45.1097 81.1713 45.2177 81.3104 45.3791C81.4495 45.5406 81.528 45.7455 81.5324 45.9585C81.5368 46.1716 81.4669 46.3795 81.3345 46.5466L80.8671 47.1314L82.6252 46.1176C82.804 46.0149 83.0121 45.9755 83.216 46.0057C83.4199 46.0358 83.6077 46.1338 83.749 46.2839C83.8904 46.4339 83.977 46.6272 83.995 46.8325C84.0129 47.0379 83.9612 47.2433 83.8481 47.4156L82.0661 50.1326L83.7949 49.1353C83.8992 49.0689 84.0159 49.0244 84.1379 49.0043C84.2599 48.9843 84.3847 48.9891 84.5047 49.0185C84.6248 49.0479 84.7377 49.1013 84.8366 49.1755C84.9355 49.2497 85.0184 49.3431 85.0803 49.4501C85.1421 49.5571 85.1817 49.6756 85.1966 49.7983C85.2115 49.921 85.2015 50.0455 85.167 50.1643C85.1326 50.283 85.0745 50.3935 84.9962 50.4892C84.9179 50.5849 84.8211 50.6638 84.7116 50.7211L79.624 53.6544C79.4847 53.7345 79.3264 53.7757 79.1657 53.7736Z" fill="white"/>
  <path d="M54.4616 44.8159C54.2671 44.8159 54.0777 44.754 53.9206 44.6392C53.7636 44.5244 53.6472 44.3626 53.5882 44.1773C53.5292 43.9919 53.5307 43.7926 53.5925 43.6082C53.6542 43.4237 53.7731 43.2637 53.9318 43.1513L59.54 39.1858L51.9646 43.5601C51.7638 43.6741 51.5272 43.7081 51.3023 43.6553C51.0775 43.6024 50.8808 43.4666 50.7518 43.275C50.6227 43.0834 50.5708 42.8502 50.6063 42.6219C50.6419 42.3936 50.7623 42.1872 50.9435 42.0439L61.0048 34.2119L47.6691 41.9046C47.4637 42.0184 47.2225 42.049 46.9952 41.9901C46.7679 41.9313 46.5719 41.7874 46.4475 41.5883C46.3231 41.3892 46.2799 41.1499 46.3268 40.9198C46.3736 40.6897 46.507 40.4864 46.6993 40.3518L47.3575 39.9081L45.4013 41.0374C45.1993 41.1532 44.9607 41.1877 44.7341 41.134C44.5076 41.0803 44.3099 40.9423 44.1813 40.7482C44.0528 40.5541 44.0029 40.3182 44.0419 40.0887C44.0808 39.8591 44.2057 39.6529 44.3911 39.5121L53.3305 32.7911L41.5806 39.5744C41.3749 39.6963 41.1297 39.733 40.8973 39.6766C40.6649 39.6203 40.4637 39.4753 40.3367 39.2727C40.2097 39.0701 40.1669 38.8259 40.2174 38.5921C40.2679 38.3584 40.4078 38.1537 40.6071 38.0216L41.8538 37.1783L39.2505 38.6816C39.0483 38.8001 38.8085 38.8367 38.5802 38.7839C38.3519 38.7311 38.1525 38.5929 38.023 38.3976C37.8934 38.2024 37.8436 37.9649 37.8837 37.734C37.9237 37.5032 38.0507 37.2964 38.2385 37.1563L47.3593 30.2684L35.3656 37.1911C35.1631 37.309 34.9231 37.3448 34.6949 37.2911C34.4668 37.2375 34.2678 37.0986 34.139 36.9028C34.0101 36.7071 33.9611 36.4694 34.0021 36.2386C34.043 36.0079 34.1708 35.8016 34.3591 35.6621L42.9025 29.3041L31.6843 35.7813C31.489 35.9021 31.2554 35.9452 31.0298 35.902C30.8042 35.8588 30.603 35.7325 30.4661 35.5481C30.3292 35.3637 30.2665 35.1346 30.2904 34.9062C30.3143 34.6778 30.4231 34.4666 30.5953 34.3146L34.9476 30.1768L27.8196 34.2908C27.6486 34.3895 27.4502 34.4304 27.2541 34.4073C27.0579 34.3841 26.8745 34.2983 26.7311 34.1625C26.5877 34.0267 26.492 33.8482 26.4582 33.6537C26.4244 33.4591 26.4544 33.2588 26.5436 33.0826L26.8351 32.5143L26.1898 32.8809C25.9794 33.0006 25.7302 33.0321 25.4966 32.9687C25.263 32.9053 25.0639 32.752 24.9429 32.5424C24.8219 32.3328 24.7886 32.0838 24.8505 31.8498C24.9124 31.6157 25.0643 31.4157 25.2731 31.2933L28.6208 29.3609C28.7924 29.2576 28.9931 29.2133 29.1923 29.2348C29.3914 29.2563 29.5781 29.3425 29.7236 29.4802C29.8691 29.6178 29.9656 29.7993 29.9982 29.997C30.0308 30.1946 29.9978 30.3975 29.9041 30.5746L29.6108 31.1411L40.7171 24.7244C40.9125 24.6014 41.147 24.5566 41.374 24.599C41.6009 24.6413 41.8035 24.7678 41.9412 24.953C42.079 25.1382 42.1418 25.3686 42.1171 25.5981C42.0924 25.8277 41.982 26.0394 41.808 26.1911L37.4465 30.3326L55.613 19.8441C55.8155 19.7262 56.0556 19.6904 56.2837 19.744C56.5119 19.7977 56.7108 19.9366 56.8397 20.1324C56.9685 20.3281 57.0175 20.5658 56.9766 20.7966C56.9356 21.0273 56.8078 21.2336 56.6195 21.3731L48.078 27.7311L59.2961 21.2558C59.4983 21.1372 59.7381 21.1006 59.9664 21.1534C60.1947 21.2062 60.3941 21.3445 60.5236 21.5397C60.6532 21.735 60.703 21.9724 60.663 22.2033C60.6229 22.4342 60.4959 22.6409 60.3081 22.7811L51.1873 29.6726L63.181 22.7481C63.3865 22.6309 63.6294 22.5978 63.8588 22.6556C64.0882 22.7134 64.2864 22.8577 64.4119 23.0583C64.5374 23.2588 64.5805 23.5001 64.5322 23.7317C64.4839 23.9633 64.3479 24.1673 64.1526 24.3009L62.906 25.1443L65.5093 23.6428C65.7114 23.527 65.9499 23.4925 66.1765 23.5462C66.4031 23.5999 66.6007 23.7378 66.7293 23.932C66.8578 24.1261 66.9077 24.3619 66.8688 24.5915C66.8298 24.8211 66.7049 25.0272 66.5195 25.1681L57.5801 31.8891L69.33 25.1058C69.5361 24.9769 69.785 24.9352 70.0219 24.9899C70.2588 25.0446 70.4643 25.1911 70.5931 25.3973C70.722 25.6034 70.7637 25.8523 70.709 26.0892C70.6543 26.3261 70.5078 26.5316 70.3016 26.6604L69.6416 27.1041L71.5996 25.9748C71.8005 25.8628 72.036 25.8304 72.2596 25.884C72.4831 25.9376 72.6784 26.0732 72.8067 26.264C72.935 26.4548 72.9869 26.6868 72.9521 26.9141C72.9173 27.1413 72.7984 27.3472 72.619 27.4909L62.5576 35.3229L75.8951 27.6229C76.099 27.5066 76.3397 27.473 76.5677 27.5289C76.7957 27.5848 76.9935 27.726 77.1204 27.9235C77.2474 28.1209 77.2937 28.3595 77.2499 28.5901C77.2062 28.8207 77.0756 29.0257 76.8851 29.1629L71.277 33.1284L78.8523 28.7559C79.0472 28.6526 79.2728 28.623 79.4878 28.6726C79.7027 28.7222 79.8926 28.8477 80.0225 29.0259C80.1524 29.2042 80.2137 29.4234 80.1951 29.6432C80.1765 29.863 80.0792 30.0687 79.9211 30.2226L76.2783 33.4804L82.2348 30.0429C82.4071 29.9441 82.6067 29.904 82.8038 29.9284C83.0008 29.9529 83.1846 30.0407 83.3275 30.1786C83.4703 30.3165 83.5646 30.497 83.596 30.6931C83.6274 30.8892 83.5943 31.0901 83.5016 31.2658L83.234 31.7681L83.8152 31.4326C84.0256 31.313 84.2748 31.2814 84.5084 31.3448C84.742 31.4082 84.941 31.5615 85.0621 31.7711C85.1831 31.9808 85.2163 32.2297 85.1544 32.4638C85.0926 32.6978 84.9406 32.8978 84.7318 33.0203L81.3841 34.9599C81.2119 35.0595 81.0119 35.1003 80.8144 35.0762C80.6169 35.0521 80.4326 34.9643 80.2893 34.8263C80.1461 34.6882 80.0516 34.5072 80.0203 34.3108C79.9889 34.1143 80.0223 33.9129 80.1155 33.7371L80.3831 33.2348L69.5188 39.4993C69.3223 39.6127 69.0908 39.6493 68.8689 39.6019C68.647 39.5545 68.4506 39.4265 68.3177 39.2427C68.1847 39.0589 68.1246 38.8323 68.1491 38.6067C68.1735 38.3812 68.2807 38.1727 68.45 38.0216L72.091 34.7656L54.92 44.6784C54.7824 44.7648 54.624 44.8123 54.4616 44.8159Z" fill="#1C372B"/>
  <path d="M67.7807 3.16256C33.6826 -9.01078 -0.180945 32.8571 22.3801 62.5992C26.1109 68.0571 33.0922 71.5404 33.3801 78.8462C33.5909 81.1416 33.4112 83.7357 36.0219 84.6542C32.7219 85.9064 32.6596 91.0709 36.1337 91.8372C35.2909 92.1756 34.5857 92.7866 34.1308 93.5727C33.6759 94.3588 33.4975 95.2746 33.6242 96.174C33.7508 97.0733 34.1751 97.9043 34.8294 98.5342C35.4837 99.1641 36.3302 99.5566 37.2337 99.6491C42.3139 112.693 67.3096 111.888 72.6354 99.3466C76.7072 99.0147 77.9649 92.5632 73.7354 91.5256C77.0189 90.6254 77.3507 85.0099 73.8527 84.2821C74.6302 83.9752 75.2953 83.4378 75.7587 82.7421C76.222 82.0464 76.4615 81.2256 76.4451 80.3899H76.4762C75.9079 71.7586 83.7289 67.4117 88.1839 61.2261C102.896 40.9659 91.5151 10.1971 67.7807 3.16256ZM62.7116 106.783C55.0372 109.137 43.8282 107.851 40.1414 99.7261C50.1202 99.7041 60.1009 99.7701 70.0797 99.7022C69.486 101.374 68.511 102.884 67.2321 104.113C65.9531 105.342 64.4053 106.256 62.7116 106.783ZM69.4949 98.4391C58.9166 97.7974 47.5719 99.7224 37.3456 97.6947C29.6951 87.9469 62.8692 93.9364 67.8046 92.3909C73.8967 90.8527 76.8704 99.0074 69.4857 98.4391H69.4949ZM73.8454 88.4382C72.8279 93.8007 65.1774 90.0516 61.2797 91.1057C56.3847 89.8737 29.8619 95.2271 37.7379 85.0172C44.5524 86.5701 73.2111 81.3267 73.8417 88.4382H73.8454ZM84.1322 63.5287C59.5124 89.3659 92.1806 83.2224 39.2541 83.7926C35.1621 83.2884 36.3207 78.0689 35.4426 75.1502C22.2994 57.9646 10.6431 43.8002 22.7797 21.3089C50.1111 -24.0899 115.414 22.0826 84.1286 63.5287H84.1322Z" fill="#262626"/>
  <path d="M61.4025 21.4867C53.7465 16.7659 46.1546 23.463 38.6544 25.5109C19.3128 31.9275 20.8949 32.879 39.0083 39.1692C39.7416 45.1954 36.0089 55.1907 44.6128 56.3842C52.5291 58.289 62.4456 58.4577 69.5094 53.9679C72.6041 49.8557 70.3381 43.8149 70.9963 38.9547L79.3416 35.7574V45.4905C78.7578 45.6005 78.2031 45.8301 77.7122 46.1648C77.2214 46.4995 76.8051 46.932 76.4894 47.4353C76.1738 47.9386 75.9656 48.5018 75.8781 49.0894C75.7905 49.677 75.8254 50.2763 75.9806 50.8498C76.1358 51.4233 76.4079 51.9584 76.7798 52.4217C77.1518 52.8849 77.6155 53.2663 78.1419 53.5417C78.6683 53.8171 79.2459 53.9807 79.8386 54.0222C80.4312 54.0637 81.026 53.9821 81.5856 53.7827C86.4018 53.1759 87.1773 45.9122 81.9981 45.2797V34.7325C95.2659 30.4517 64.7611 24.0644 61.4025 21.4867ZM79.8733 46.6492L79.8201 46.6675C79.8371 46.6595 79.855 46.6534 79.8733 46.6492ZM83.0083 49.9382C82.0055 56.6335 75.0241 48.4715 80.141 46.6235C80.141 46.6235 80.438 46.6437 80.4508 46.6492C81.1926 46.8153 81.8535 47.2344 82.3201 47.8345C82.7868 48.4346 83.0301 49.1783 83.0083 49.9382ZM54.7438 21.197C55.3708 20.8909 54.9473 21.1787 54.7438 21.197V21.197ZM68.3416 51.425C65.5458 58.8885 53.1249 56.21 46.7871 55.3227C39.0963 54.2832 42.2496 45.5877 41.663 40.1867C52.2046 45.4777 57.833 45.5565 68.3416 40.0144C68.3178 43.8167 68.3856 47.6245 68.3416 51.425ZM82.8689 32.5582C50.3383 45.2669 59.8918 45.0725 27.3593 32.4225C26.4701 31.6214 27.9093 31.482 28.6573 31.196C37.3308 27.8282 46.0739 24.596 54.7291 21.2062C63.8023 25.2175 74.531 27.7659 82.8689 32.5582Z" fill="#262626"/>
  </svg>
  