<svg width="111" height="111" viewBox="0 0 111 111" fill="none" xmlns="http://www.w3.org/2000/svg">
  <g clip-path="url(#clip0_280_461)">
  <path d="M74.8335 82.2246C74.6556 82.2244 74.4816 82.1725 74.3327 82.0752C74.1839 81.9779 74.0665 81.8393 73.995 81.6765C73.9235 81.5136 73.9009 81.3335 73.93 81.158C73.9591 80.9825 74.0386 80.8193 74.1588 80.6883L76.2965 78.3581L73.2751 80.1016C73.0866 80.2094 72.8659 80.2468 72.6524 80.2071C72.4389 80.1673 72.2464 80.0531 72.1093 79.8847C71.9722 79.7163 71.8993 79.5047 71.9036 79.2876C71.9079 79.0704 71.9892 78.8619 72.133 78.6991L74.4191 76.1324L71.1668 78.0079C70.9841 78.1127 70.7709 78.1513 70.563 78.1173C70.3551 78.0833 70.1653 77.9788 70.0255 77.8213C69.8856 77.6638 69.8043 77.463 69.7951 77.2526C69.7859 77.0421 69.8495 76.835 69.9751 76.6659L72.8186 72.8636L68.4938 75.3588C68.3099 75.4635 68.0954 75.5013 67.8868 75.4659C67.6781 75.4305 67.4882 75.324 67.3491 75.1644C67.2101 75.0049 67.1305 74.8021 67.124 74.5906C67.1174 74.3791 67.1843 74.1718 67.3131 74.0039L71.3611 68.7899C71.3348 68.7573 71.3115 68.7223 71.2915 68.6854C71.1698 68.4751 71.1366 68.2251 71.1991 67.9903C71.2617 67.7555 71.4149 67.5551 71.6251 67.4333L73.2165 66.5166C73.4004 66.4119 73.6149 66.374 73.8235 66.4094C74.0322 66.4448 74.2221 66.5514 74.3612 66.7109C74.5002 66.8705 74.5797 67.0732 74.5863 67.2847C74.5929 67.4963 74.526 67.7036 74.3971 67.8714L71.6306 71.4354L75.7666 69.0521C75.9494 68.9463 76.163 68.9069 76.3715 68.9405C76.5799 68.974 76.7704 69.0785 76.9107 69.2363C77.051 69.3941 77.1326 69.5955 77.1416 69.8064C77.1506 70.0173 77.0865 70.2249 76.9601 70.3941L74.1166 74.1964L78.4396 71.7013C78.6284 71.5923 78.8498 71.5541 79.0641 71.5936C79.2784 71.6331 79.4717 71.7476 79.6092 71.9167C79.7467 72.0858 79.8195 72.2983 79.8144 72.5162C79.8094 72.7341 79.727 72.943 79.5818 73.1056L77.2956 75.6723L80.5498 73.7949C80.7392 73.6872 80.9608 73.6505 81.1749 73.6914C81.3889 73.7323 81.5814 73.8481 81.7178 74.018C81.8542 74.188 81.9256 74.4009 81.9191 74.6187C81.9127 74.8366 81.829 75.045 81.6828 75.2066L78.9713 78.1564C79.1486 78.2004 79.3087 78.2964 79.431 78.432C79.5534 78.5676 79.6324 78.7367 79.658 78.9175C79.6836 79.0984 79.6546 79.2828 79.5748 79.447C79.4949 79.6113 79.3677 79.7479 79.2096 79.8394L75.2918 82.1018C75.1528 82.1831 74.9945 82.2256 74.8335 82.2246Z" fill="#B5B8BC"/>
  <path d="M40.7812 83.3832C40.5849 83.3835 40.3938 83.3207 40.2358 83.2042C40.0779 83.0877 39.9615 82.9236 39.9038 82.736C39.8462 82.5484 39.8502 82.3472 39.9154 82.1621C39.9806 81.9769 40.1035 81.8176 40.266 81.7076L58.2217 69.5599L35.5342 82.6591C35.3264 82.7736 35.0822 82.803 34.8532 82.7412C34.6241 82.6793 34.4279 82.5311 34.3058 82.3276C34.1838 82.1241 34.1454 81.8813 34.1988 81.6501C34.2521 81.4189 34.393 81.2174 34.5919 81.0879L35.1529 80.7377L32.8154 82.0853C32.6085 82.199 32.3658 82.2286 32.1377 82.1678C31.9096 82.1071 31.7138 81.9607 31.5909 81.7592C31.4681 81.5576 31.4277 81.3165 31.4782 81.0859C31.5287 80.8553 31.6662 80.6531 31.862 80.5214L48.4335 69.8881L29.1964 80.9907C28.9885 81.1052 28.7444 81.1346 28.5153 81.0728C28.2862 81.011 28.0901 80.8628 27.968 80.6593C27.846 80.4558 27.8076 80.2129 27.8609 79.9817C27.9143 79.7505 28.0552 79.549 28.254 79.4196L34.0144 75.8391L26.7434 80.0356C26.5359 80.148 26.2931 80.176 26.0655 80.1139C25.8378 80.0518 25.6429 79.9043 25.5213 79.7021C25.3996 79.5 25.3606 79.2587 25.4124 79.0285C25.4642 78.7983 25.6027 78.5969 25.7992 78.4662L37.3492 71.2429L24.2042 78.8329C23.9965 78.9493 23.7517 78.9803 23.5215 78.9194C23.2914 78.8584 23.094 78.7104 22.9711 78.5065C22.8481 78.3026 22.8094 78.0589 22.863 77.8269C22.9166 77.5949 23.0583 77.3929 23.2582 77.2636L41.2799 65.9189L21.5349 77.3241C21.3274 77.4456 21.0805 77.4808 20.8474 77.4221C20.6142 77.3633 20.4135 77.2153 20.2884 77.0099C20.1634 76.8046 20.124 76.5583 20.1789 76.3242C20.2337 76.0901 20.3783 75.8869 20.5815 75.7584L48.8424 57.6231L18.409 75.1901C18.2014 75.301 17.9591 75.3278 17.7323 75.2649C17.5055 75.202 17.3115 75.0543 17.1906 74.8523C17.0698 74.6504 17.0312 74.4097 17.0829 74.18C17.1346 73.9504 17.2727 73.7495 17.4685 73.6189L33.1582 63.8711L16.3832 73.5529C16.1744 73.6774 15.9246 73.7138 15.6889 73.6542C15.4533 73.5945 15.2509 73.4437 15.1264 73.2348C15.002 73.026 14.9655 72.7763 15.0252 72.5406C15.0849 72.3049 15.2357 72.1026 15.4445 71.9781L26.1457 65.3781L14.6819 71.9964C14.4747 72.1071 14.233 72.1341 14.0066 72.0718C13.7802 72.0095 13.5863 71.8627 13.465 71.6616C13.3436 71.4605 13.3041 71.2206 13.3545 70.9912C13.4049 70.7618 13.5414 70.5606 13.7359 70.4289L39.089 54.4789L12.5515 69.8037C12.3438 69.9201 12.099 69.9511 11.8689 69.8902C11.6387 69.8293 11.4413 69.6812 11.3184 69.4773C11.1955 69.2734 11.1567 69.0297 11.2103 68.7977C11.2639 68.5658 11.4056 68.3637 11.6055 68.2344L36.7222 52.4677L10.6705 67.5121C10.4629 67.623 10.2206 67.6497 9.99378 67.5869C9.76697 67.524 9.57303 67.3763 9.45214 67.1743C9.33125 66.9724 9.29268 66.7317 9.34441 66.502C9.39614 66.2724 9.53421 66.0715 9.73002 65.9409L27.6362 54.8474L9.21119 65.4808C9.00375 65.6023 8.75685 65.6375 8.5237 65.5788C8.29055 65.52 8.08982 65.372 7.96477 65.1666C7.83973 64.9613 7.80037 64.715 7.8552 64.4809C7.91002 64.2468 8.05463 64.0436 8.25786 63.9151L41.9399 42.3862L7.31002 62.3787C7.10219 62.4932 6.85806 62.5226 6.62898 62.4608C6.39991 62.399 6.20372 62.2508 6.08168 62.0473C5.95964 61.8438 5.92125 61.6009 5.97459 61.3697C6.02793 61.1385 6.16884 60.937 6.36769 60.8076L26.2355 48.4692L6.14219 60.0687C5.93502 60.1846 5.691 60.2155 5.46149 60.155C5.23197 60.0946 5.03484 59.9475 4.91158 59.7447C4.78832 59.5418 4.74853 59.2991 4.80059 59.0676C4.85264 58.836 4.99248 58.6336 5.19069 58.5031L36.5279 38.5711L4.80752 56.8898C4.60035 57.0056 4.35634 57.0365 4.12682 56.976C3.8973 56.9156 3.70018 56.7685 3.57691 56.5657C3.45365 56.3628 3.41386 56.1201 3.46592 55.8885C3.51797 55.657 3.65782 55.4546 3.85602 55.3241L35.2299 35.3078L3.74052 53.4871C3.53144 53.6113 3.28158 53.6474 3.04589 53.5874C2.81021 53.5274 2.60801 53.3762 2.48377 53.1672C2.35954 52.9581 2.32345 52.7082 2.38345 52.4725C2.44345 52.2368 2.59461 52.0346 2.80369 51.9104L4.74702 50.7242L3.28036 51.5749C3.17695 51.6366 3.06242 51.6772 2.9433 51.6946C2.82418 51.712 2.7028 51.7057 2.5861 51.6762C2.4694 51.6466 2.35966 51.5944 2.26315 51.5224C2.16664 51.4505 2.08524 51.3602 2.02361 51.2568C1.96197 51.1534 1.92131 51.0389 1.90394 50.9198C1.88657 50.8007 1.89283 50.6793 1.92237 50.5626C1.9519 50.4459 2.00414 50.3361 2.07608 50.2396C2.14803 50.1431 2.23828 50.0617 2.34169 50.0001L8.66669 46.1189L2.87336 49.4593C2.66672 49.5699 2.42557 49.5971 2.19945 49.5355C1.97333 49.4738 1.77944 49.3278 1.65761 49.1276C1.53578 48.9273 1.49528 48.6881 1.54443 48.4589C1.59357 48.2297 1.72864 48.0281 1.92186 47.8954L30.2524 29.7747L2.45536 45.8201C2.24833 45.9379 2.00355 45.9706 1.77288 45.911C1.54221 45.8515 1.34377 45.7046 1.2196 45.5013C1.09542 45.298 1.05527 45.0543 1.10765 44.8219C1.16002 44.5895 1.30081 44.3866 1.50019 44.2562L29.7189 26.0421L2.38569 41.8252C2.17906 41.9359 1.9379 41.9631 1.71178 41.9015C1.48567 41.8398 1.29177 41.6938 1.16994 41.4936C1.04811 41.2933 1.00761 41.0541 1.05676 40.8249C1.10591 40.5957 1.24097 40.3941 1.43419 40.2614L23.9677 25.8276L2.65519 38.1274C2.44841 38.2512 2.20118 38.2887 1.96703 38.2315C1.73287 38.1744 1.53063 38.0274 1.40408 37.8223C1.27753 37.6171 1.23687 37.3704 1.29088 37.1355C1.3449 36.9007 1.48925 36.6965 1.69269 36.5672L26.3089 20.4064L3.46736 33.6064C3.36467 33.6693 3.25062 33.7112 3.13171 33.73C3.01279 33.7488 2.89135 33.7439 2.77431 33.7157C2.53793 33.6588 2.33385 33.5104 2.20694 33.303C2.08003 33.0956 2.04071 32.8463 2.09761 32.6099C2.15451 32.3736 2.30298 32.1695 2.51036 32.0426L18.9535 21.3964L4.62602 29.6592C4.4187 29.7733 4.17533 29.8027 3.94681 29.7414C3.7183 29.6801 3.52233 29.5328 3.3999 29.3303C3.27748 29.1279 3.23808 28.8859 3.28995 28.6551C3.34181 28.4242 3.48093 28.2224 3.67819 28.0917L6.00286 26.6251L5.78102 26.7516C5.57593 26.864 5.33563 26.8938 5.1093 26.8348C4.88297 26.7759 4.68773 26.6326 4.56356 26.4344C4.43939 26.2362 4.39568 25.9981 4.44138 25.7687C4.48707 25.5393 4.61871 25.3361 4.80936 25.2006L18.6015 15.8982L8.40269 21.7869C8.19681 21.9062 7.9526 21.9408 7.72168 21.8834C7.49076 21.8259 7.29124 21.6809 7.16529 21.479C7.03934 21.2771 6.99684 21.0341 7.04678 20.8015C7.09671 20.5688 7.23516 20.3647 7.43286 20.2322L12.469 16.8461L11.5909 17.3539C11.3889 17.456 11.1562 17.4798 10.9378 17.4207C10.7193 17.3616 10.5304 17.2237 10.4075 17.0337C10.2846 16.8436 10.2363 16.6148 10.272 16.3913C10.3077 16.1678 10.4249 15.9654 10.6009 15.8231L16.5335 11.5184C16.4131 11.4392 16.3127 11.3331 16.2402 11.2086C16.1186 10.998 16.0857 10.7478 16.1486 10.513C16.2115 10.2782 16.3652 10.078 16.5757 9.95641L26.9964 3.94124C27.1999 3.82113 27.442 3.78427 27.672 3.83837C27.9021 3.89247 28.1024 4.03334 28.2311 4.23158C28.3598 4.42982 28.4069 4.6701 28.3627 4.90227C28.3185 5.13444 28.1863 5.34055 27.9937 5.47758L25.9954 6.92408L35.019 1.70641C35.2249 1.58709 35.4691 1.5525 35.7 1.60996C35.931 1.66743 36.1305 1.81243 36.2564 2.01433C36.3824 2.21623 36.4249 2.45919 36.3749 2.69185C36.325 2.92451 36.1866 3.12864 35.9889 3.26108L30.9509 6.65641L40.4127 1.18941C40.6182 1.07227 40.8611 1.03913 41.0905 1.09694C41.32 1.15475 41.5181 1.29902 41.6436 1.49958C41.7691 1.70014 41.8122 1.94145 41.7639 2.17305C41.7156 2.40466 41.5796 2.6086 41.3844 2.74224L27.5959 12.0427L46.052 1.38924C46.2593 1.27523 46.5027 1.2458 46.7312 1.3071C46.9598 1.3684 47.1557 1.51569 47.2781 1.71815C47.4006 1.92061 47.44 2.16257 47.3881 2.39342C47.3362 2.62426 47.1971 2.82611 46.9999 2.95674L44.6715 4.42341L49.1357 1.84758C49.3424 1.7321 49.5857 1.70106 49.8147 1.76096C50.0438 1.82086 50.2408 1.96705 50.3644 2.16892C50.4881 2.37079 50.5289 2.61268 50.4782 2.84394C50.4276 3.0752 50.2894 3.27789 50.0927 3.40958L33.6477 14.0576L53.1379 2.80641C53.3446 2.68258 53.5919 2.64517 53.826 2.70228C54.0602 2.75939 54.2624 2.90642 54.389 3.11155C54.5155 3.31668 54.5562 3.56339 54.5022 3.79828C54.4482 4.03317 54.3038 4.23733 54.1004 4.36658L29.486 20.5201L57.481 4.35924C57.6877 4.24862 57.9288 4.22135 58.1549 4.28304C58.3811 4.34473 58.5749 4.49069 58.6968 4.69092C58.8186 4.89114 58.8591 5.13043 58.81 5.3596C58.7608 5.58877 58.6257 5.79041 58.4325 5.92308L35.91 20.3496L60.8122 5.97441C61.0187 5.86233 61.2603 5.83382 61.4872 5.89475C61.7141 5.95568 61.909 6.1014 62.0315 6.30183C62.1541 6.50227 62.195 6.74211 62.1459 6.97185C62.0967 7.20158 61.9612 7.40368 61.7674 7.53641L33.5524 25.7561L64.2222 8.04241C64.4296 7.92084 64.6765 7.88565 64.9097 7.94441C65.1428 8.00317 65.3436 8.15118 65.4686 8.35654C65.5937 8.56191 65.633 8.80818 65.5782 9.04229C65.5234 9.27639 65.3788 9.47959 65.1755 9.60808L36.8634 27.7196L67.1665 10.2241C67.3743 10.1146 67.6161 10.089 67.8422 10.1526C68.0683 10.2162 68.2613 10.3642 68.3815 10.566C68.5016 10.7677 68.5398 11.0079 68.488 11.237C68.4363 11.4661 68.2986 11.6666 68.1034 11.7971L61.738 15.7039L68.7964 11.6284C69.0054 11.5042 69.2553 11.4681 69.491 11.5281C69.7267 11.5881 69.9289 11.7392 70.0531 11.9483C70.1773 12.1574 70.2134 12.4073 70.1534 12.643C70.0934 12.8786 69.9423 13.0808 69.7332 13.2051L67.7587 14.4096L70.219 12.9869C70.426 12.8747 70.6682 12.8465 70.8954 12.908C71.1226 12.9696 71.3175 13.1162 71.4395 13.3174C71.5616 13.5187 71.6016 13.7592 71.5512 13.9892C71.5007 14.2191 71.3638 14.4209 71.1687 14.5526L39.8132 34.5579L72.6152 15.6196C72.8231 15.4934 73.0725 15.455 73.3087 15.5127C73.5449 15.5705 73.7485 15.7197 73.8747 15.9276C74.0009 16.1354 74.0393 16.3849 73.9815 16.6211C73.9238 16.8573 73.7746 17.0609 73.5667 17.1871L42.2167 37.1283L74.7217 18.3604C74.9303 18.2355 75.18 18.1985 75.4158 18.2576C75.6517 18.3167 75.8544 18.4672 75.9794 18.6757C76.1043 18.8843 76.1413 19.134 76.0822 19.3699C76.023 19.6057 75.8726 19.8085 75.664 19.9334L55.8182 32.2552L76.1315 20.5219C76.339 20.4003 76.5859 20.3651 76.819 20.4239C77.0522 20.4827 77.2529 20.6307 77.3779 20.836C77.503 21.0414 77.5423 21.2877 77.4875 21.5218C77.4327 21.7559 77.2881 21.9591 77.0849 22.0876L43.4047 43.6274L77.8934 23.7064C78.102 23.5814 78.3516 23.5445 78.5875 23.6036C78.8234 23.6627 79.0261 23.8132 79.151 24.0217C79.276 24.2303 79.313 24.48 79.2538 24.7159C79.1947 24.9517 79.0443 25.1545 78.8357 25.2794L60.9369 36.3747L78.9182 25.9926C79.1265 25.8671 79.3762 25.8296 79.6122 25.8882C79.8483 25.9468 80.0513 26.0968 80.1768 26.3052C80.3022 26.5135 80.3398 26.7632 80.2811 26.9992C80.2225 27.2352 80.0725 27.4383 79.8642 27.5637L54.7475 43.3304L79.9522 28.7774C80.1595 28.6634 80.4029 28.634 80.6314 28.6953C80.8599 28.7566 81.0559 28.9039 81.1783 29.1063C81.3007 29.3088 81.3401 29.5507 81.2883 29.7816C81.2364 30.0124 81.0973 30.2143 80.9 30.3449L55.5524 46.2967L80.7974 31.7162C81.0056 31.5989 81.2514 31.5676 81.4824 31.6289C81.7135 31.6902 81.9114 31.8393 82.034 32.0445C82.1567 32.2496 82.1944 32.4946 82.1391 32.7271C82.0837 32.9596 81.9398 33.1613 81.7379 33.2892L71.0037 39.9021L81.2869 33.9731C81.4955 33.8481 81.7451 33.8111 81.981 33.8703C82.2169 33.9294 82.4196 34.0798 82.5445 34.2884C82.6695 34.497 82.7065 34.7467 82.6473 34.9826C82.5882 35.2184 82.4378 35.4211 82.2292 35.5461L66.5652 45.2774L81.6902 36.5452C81.8976 36.4237 82.1445 36.3885 82.3777 36.4472C82.6108 36.506 82.8116 36.654 82.9366 36.8594C83.0617 37.0647 83.101 37.311 83.0462 37.5451C82.9914 37.7792 82.8468 37.9824 82.6435 38.1109L54.3919 56.2444L81.9524 40.3219C82.1597 40.2079 82.403 40.1785 82.6316 40.2398C82.8601 40.3011 83.0561 40.4484 83.1785 40.6508C83.3009 40.8533 83.3403 41.0952 83.2884 41.3261C83.2366 41.5569 83.0975 41.7588 82.9002 41.8894L64.8657 53.2451L81.9395 43.3872C82.147 43.2749 82.3898 43.2468 82.6174 43.3089C82.8451 43.371 83.04 43.5185 83.1616 43.7207C83.2832 43.9229 83.3222 44.1642 83.2705 44.3944C83.2187 44.6246 83.0802 44.8259 82.8837 44.9566L71.319 52.1872L81.7049 46.1922C81.9125 46.0814 82.1548 46.0546 82.3816 46.1175C82.6084 46.1803 82.8024 46.328 82.9232 46.53C83.0441 46.732 83.0827 46.9727 83.031 47.2023C82.9792 47.4319 82.8412 47.6328 82.6454 47.7634L76.8649 51.3586L81.3125 48.7919C81.52 48.6703 81.7669 48.6352 82 48.6939C82.2332 48.7527 82.4339 48.9007 82.5589 49.106C82.684 49.3114 82.7233 49.5577 82.6685 49.7918C82.6137 50.0259 82.4691 50.2291 82.2659 50.3576L65.7219 60.9744L80.449 52.4714C80.6565 52.359 80.8993 52.331 81.1269 52.3931C81.3546 52.4552 81.5495 52.6027 81.6711 52.8049C81.7927 53.007 81.8317 53.2483 81.78 53.4785C81.7282 53.7087 81.5897 53.9101 81.3932 54.0407L79.8569 55.0014C80.0433 54.9586 80.2385 54.9743 80.4156 55.0465C80.5928 55.1187 80.7434 55.2438 80.8469 55.4048C80.9731 55.6062 81.0162 55.8489 80.9669 56.0815C80.9177 56.3141 80.7799 56.5184 80.5829 56.6514L62.64 68.7881L77.27 60.3437C77.4757 60.2284 77.718 60.1968 77.9464 60.2555C78.1748 60.3142 78.3718 60.4586 78.4964 60.6588C78.6211 60.859 78.6638 61.0996 78.6156 61.3304C78.5675 61.5613 78.4323 61.7647 78.238 61.8984L69.669 67.6257L74.487 64.8464C74.6915 64.7322 74.932 64.7005 75.1591 64.758C75.3861 64.8154 75.5826 64.9577 75.7081 65.1554C75.8336 65.3532 75.8787 65.5915 75.834 65.8215C75.7893 66.0514 75.6583 66.2555 75.4679 66.3919L70.4354 69.8936C70.6444 69.8691 70.8555 69.9172 71.0332 70.03C71.2109 70.1427 71.3444 70.3132 71.4113 70.5127C71.4781 70.7123 71.4743 70.9288 71.4004 71.1258C71.3265 71.3229 71.1871 71.4885 71.0055 71.5949L53.1947 81.8781C52.9902 81.9923 52.7497 82.024 52.5227 81.9665C52.2956 81.909 52.0991 81.7668 51.9736 81.5691C51.8481 81.3713 51.803 81.133 51.8477 80.903C51.8924 80.6731 52.0234 80.469 52.2139 80.3326L56.5369 77.3241L46.5507 83.0899C46.3445 83.2124 46.0984 83.2492 45.8654 83.1924C45.6323 83.1355 45.4308 82.9896 45.3041 82.7859C45.1775 82.5822 45.1357 82.337 45.1877 82.1028C45.2398 81.8686 45.3816 81.6642 45.5827 81.5334L54.1242 75.8207L41.2377 83.2604C41.0993 83.3415 40.9416 83.384 40.7812 83.3832Z" fill="#D6D8DB"/>
  <path d="M45.1866 75.9344C44.9918 75.9351 44.8018 75.8738 44.6442 75.7593C44.4866 75.6448 44.3695 75.483 44.3101 75.2975C44.2506 75.1119 44.2518 74.9123 44.3135 74.7275C44.3752 74.5427 44.4941 74.3823 44.6531 74.2697L55.9556 66.2232L39.3823 75.7914C39.1769 75.9106 38.9333 75.9454 38.7027 75.8885C38.4721 75.8317 38.2726 75.6876 38.1462 75.4865C38.0198 75.2855 37.9763 75.0432 38.0249 74.8108C38.0736 74.5783 38.2105 74.3738 38.407 74.2404L53.1818 64.157L34.5148 74.9389C34.3079 75.0592 34.0622 75.0938 33.8301 75.0354C33.598 74.9769 33.398 74.83 33.2728 74.626C33.1476 74.422 33.1071 74.1772 33.16 73.9438C33.2129 73.7104 33.355 73.5069 33.556 73.3769L46.2426 65.092L31.0626 73.8554C30.8567 73.9747 30.6125 74.0093 30.3816 73.9518C30.1507 73.8944 29.9512 73.7494 29.8252 73.5475C29.6993 73.3456 29.6568 73.1026 29.7067 72.8699C29.7566 72.6373 29.8951 72.4331 30.0928 72.3007L52.2523 57.4085L26.9871 71.9945C26.7803 72.1083 26.5376 72.1379 26.3095 72.0771C26.0814 72.0164 25.8855 71.87 25.7627 71.6685C25.6398 71.4669 25.5994 71.2258 25.6499 70.9952C25.7004 70.7646 25.8379 70.5624 26.0338 70.4307L40.6766 61.0605L24.4205 70.4564C24.2119 70.5816 23.9621 70.6188 23.7261 70.5598C23.49 70.5009 23.2871 70.3505 23.1619 70.142C23.0367 69.9334 22.9995 69.6836 23.0584 69.4475C23.1174 69.2115 23.2677 69.0086 23.4763 68.8834L28.3071 65.873L22.6128 69.1584C22.406 69.2721 22.1633 69.3017 21.9352 69.241C21.7071 69.1802 21.5112 69.0338 21.3884 68.8323C21.2655 68.6308 21.2251 68.3896 21.2756 68.159C21.3261 67.9285 21.4636 67.7263 21.6595 67.5945L40.3045 55.6504L20.29 67.2004C20.0833 67.311 19.8422 67.3383 19.6161 67.2766C19.3899 67.2149 19.196 67.0689 19.0742 66.8687C18.9524 66.6685 18.9119 66.4292 18.961 66.2C19.0102 65.9708 19.1452 65.7692 19.3385 65.6365L39.0945 52.9975L18.1835 65.0664C17.976 65.1879 17.7291 65.2231 17.496 65.1644C17.2628 65.1056 17.0621 64.9576 16.937 64.7522C16.812 64.5469 16.7726 64.3006 16.8275 64.0665C16.8823 63.8324 17.0269 63.6292 17.2301 63.5007L39.32 49.3144L16.209 62.6574C16.0004 62.7823 15.7507 62.8193 15.5148 62.7602C15.279 62.701 15.0763 62.5506 14.9513 62.342C14.8263 62.1334 14.7894 61.8838 14.8485 61.6479C14.9076 61.412 15.058 61.2093 15.2666 61.0844L24.6881 55.2177L14.9476 60.8369C14.7407 60.949 14.4985 60.9773 14.2713 60.9157C14.044 60.8542 13.8492 60.7076 13.7271 60.5063C13.605 60.3051 13.5651 60.0645 13.6155 59.8346C13.6659 59.6047 13.8029 59.4029 13.998 59.2712L33.6275 46.7807L13.514 58.393C13.3057 58.5104 13.0599 58.5417 12.8289 58.4804C12.5979 58.4191 12.3999 58.2699 12.2773 58.0648C12.1546 57.8597 12.1169 57.6147 12.1723 57.3822C12.2276 57.1497 12.3716 56.948 12.5735 56.82L15.1915 55.2049L12.6633 56.6715C12.4564 56.7919 12.2107 56.8265 11.9786 56.768C11.7465 56.7096 11.5465 56.5626 11.4213 56.3587C11.2961 56.1547 11.2556 55.9098 11.3085 55.6764C11.3614 55.443 11.5035 55.2396 11.7045 55.1095L37.7378 38.1439L11.369 53.3679C11.1625 53.4799 10.9208 53.5085 10.6939 53.4475C10.467 53.3866 10.2722 53.2409 10.1496 53.0405C10.0271 52.84 9.98614 52.6002 10.0353 52.3704C10.0845 52.1407 10.2199 51.9386 10.4138 51.8059L32.7621 37.3867L10.489 50.242C10.2821 50.3624 10.0363 50.397 9.80424 50.3385C9.57215 50.2801 9.37213 50.1331 9.24693 49.9292C9.12172 49.7252 9.08125 49.4803 9.13417 49.2469C9.18709 49.0135 9.3292 48.8101 9.53013 48.68L32.3441 33.8429L9.9023 46.8064C9.69629 46.9185 9.45515 46.9473 9.22849 46.8871C9.00184 46.8268 8.80692 46.6819 8.68385 46.4822C8.56077 46.2826 8.5189 46.0434 8.56685 45.8138C8.6148 45.5842 8.74893 45.3817 8.94163 45.248L32.027 30.0442L9.68413 42.9325C9.47789 43.055 9.23184 43.0918 8.99879 43.035C8.76574 42.9782 8.56426 42.8322 8.43757 42.6285C8.31089 42.4248 8.2691 42.1796 8.32118 41.9454C8.37326 41.7113 8.51505 41.5068 8.71613 41.376L30.7638 26.6599L9.9793 38.659C9.77344 38.7727 9.53178 38.8029 9.30429 38.7434C9.0768 38.6839 8.88088 38.5392 8.75704 38.3393C8.63319 38.1394 8.5909 37.8996 8.63891 37.6694C8.68692 37.4392 8.82155 37.2363 9.01496 37.1025L26.0356 25.7872L10.7841 34.5872C10.5828 34.6809 10.3544 34.6984 10.1412 34.6364C9.92797 34.5744 9.74451 34.4372 9.62488 34.2501C9.50526 34.063 9.45759 33.8389 9.49074 33.6194C9.52389 33.3998 9.63561 33.1998 9.80513 33.0564L26.9926 21.0957L12.6633 29.3567C12.4571 29.472 12.2144 29.5033 11.9857 29.444C11.757 29.3847 11.5601 29.2394 11.4359 29.0384C11.3118 28.8374 11.27 28.5962 11.3194 28.3652C11.3687 28.1342 11.5054 27.9311 11.7008 27.7984L14.7716 25.7817L14.4691 25.965C14.2704 26.0774 14.037 26.1116 13.8144 26.0609C13.5918 26.0102 13.3962 25.8783 13.2657 25.691C13.1352 25.5037 13.0794 25.2744 13.109 25.0481C13.1386 24.8217 13.2517 24.6146 13.426 24.4672L21.72 17.583C21.5068 17.6896 21.2606 17.709 21.0334 17.6371C20.8062 17.5652 20.616 17.4077 20.503 17.1979C20.39 16.9881 20.3631 16.7425 20.4281 16.5133C20.493 16.284 20.6447 16.089 20.851 15.9697L30.2138 10.5632C30.4127 10.4504 30.6466 10.416 30.8696 10.4668C31.0926 10.5175 31.2886 10.6499 31.419 10.8377C31.5494 11.0256 31.605 11.2554 31.5746 11.4821C31.5443 11.7087 31.4304 11.9159 31.2551 12.0629L22.9666 18.9397L41.025 8.51354C41.2317 8.38971 41.479 8.3523 41.7131 8.40941C41.9473 8.46652 42.1495 8.61355 42.2761 8.81868C42.4026 9.0238 42.4433 9.27052 42.3893 9.50541C42.3353 9.7403 42.1909 9.94446 41.9875 10.0737L38.9221 12.0904L44.8695 8.65837C45.0735 8.54778 45.312 8.51872 45.5366 8.57706C45.7613 8.6354 45.9554 8.7768 46.0799 8.9727C46.2044 9.16861 46.2499 9.40444 46.2073 9.63261C46.1647 9.86077 46.0371 10.0643 45.8503 10.202L28.6665 22.1627L50.3365 9.65204C50.5423 9.53839 50.784 9.5082 51.0115 9.56771C51.239 9.62722 51.4349 9.77187 51.5587 9.97176C51.6826 10.1717 51.7248 10.4115 51.6768 10.6417C51.6288 10.8719 51.4942 11.0748 51.3008 11.2085L34.2673 22.5202L54.269 10.9775C54.4752 10.855 54.7212 10.8182 54.9543 10.8751C55.1873 10.9319 55.3888 11.0778 55.5155 11.2815C55.6422 11.4853 55.684 11.7305 55.6319 11.9647C55.5798 12.1988 55.438 12.4032 55.237 12.534L33.1856 27.2484L58.097 12.8659C58.3038 12.738 58.5531 12.6975 58.7898 12.7534C59.0265 12.8093 59.2313 12.9569 59.3592 13.1638C59.4871 13.3707 59.5275 13.6199 59.4717 13.8566C59.4158 14.0933 59.2682 14.2982 59.0613 14.426L35.976 29.628L61.3291 14.9907C61.4319 14.9277 61.5461 14.8857 61.6652 14.8668C61.7843 14.848 61.9059 14.8528 62.0231 14.881C62.1403 14.9092 62.2508 14.9602 62.3483 15.031C62.4458 15.1019 62.5284 15.1913 62.5914 15.2941C62.6543 15.3969 62.6964 15.5111 62.7153 15.6302C62.7341 15.7493 62.7293 15.8709 62.7011 15.9881C62.6729 16.1053 62.6219 16.2158 62.551 16.3133C62.4802 16.4108 62.3908 16.4934 62.288 16.5564L39.4831 31.3862L64.0186 17.22C64.2257 17.1022 64.4704 17.0696 64.7011 17.1291C64.9318 17.1886 65.1302 17.3356 65.2544 17.5389C65.3786 17.7422 65.4187 17.9858 65.3663 18.2182C65.314 18.4506 65.1732 18.6535 64.9738 18.7839L42.6328 33.1957L66.2975 19.5337C66.4 19.4706 66.514 19.4284 66.6329 19.4093C66.7518 19.3903 66.8733 19.3949 66.9904 19.4228C67.1075 19.4507 67.218 19.5014 67.3155 19.5721C67.4131 19.6427 67.4957 19.7318 67.5588 19.8344C67.6219 19.9369 67.6641 20.0509 67.6832 20.1698C67.7022 20.2887 67.6976 20.4102 67.6697 20.5273C67.6418 20.6444 67.5911 20.7549 67.5204 20.8524C67.4498 20.95 67.3607 21.0326 67.2581 21.0957L41.2083 38.0669L68.503 22.3002C68.7112 22.1829 68.957 22.1515 69.1881 22.2129C69.4191 22.2742 69.617 22.4233 69.7397 22.6284C69.8623 22.8336 69.9 23.0785 69.8447 23.3111C69.7893 23.5436 69.6454 23.7453 69.4435 23.8732L66.8365 25.481L69.5865 23.8989C69.7936 23.7831 70.0377 23.7521 70.2672 23.8126C70.4967 23.873 70.6938 24.0201 70.8171 24.223C70.9403 24.4258 70.9801 24.6685 70.9281 24.9001C70.876 25.1316 70.7362 25.334 70.538 25.4645L50.8938 37.9679L70.9945 26.3647C71.2023 26.2502 71.4464 26.2208 71.6755 26.2826C71.9046 26.3444 72.1008 26.4927 72.2228 26.6962C72.3448 26.8996 72.3832 27.1425 72.3299 27.3737C72.2766 27.6049 72.1356 27.8064 71.9368 27.9359L62.4878 33.8227L71.9441 28.363C72.1518 28.2364 72.4012 28.1974 72.6376 28.2546C72.8739 28.3119 73.0779 28.4607 73.2045 28.6683C73.3312 28.8759 73.3702 29.1253 73.313 29.3617C73.2557 29.5981 73.1069 29.802 72.8993 29.9287L50.8241 44.1059L73.0423 31.2725C73.2495 31.1567 73.4935 31.1258 73.723 31.1862C73.9525 31.2467 74.1496 31.3938 74.2729 31.5966C74.3962 31.7994 74.436 32.0422 74.3839 32.2737C74.3318 32.5053 74.192 32.7076 73.9938 32.8382L54.2525 45.4735L73.8398 34.1564C74.0472 34.0348 74.2941 33.9996 74.5273 34.0584C74.7604 34.1171 74.9612 34.2651 75.0862 34.4705C75.2113 34.6759 75.2506 34.9221 75.1958 35.1562C75.141 35.3904 74.9964 35.5935 74.7931 35.722L56.1225 47.6882L74.3696 37.1539C74.5782 37.0287 74.828 36.9915 75.064 37.0504C75.3001 37.1094 75.503 37.2597 75.6282 37.4683C75.7534 37.6769 75.7906 37.9267 75.7317 38.1627C75.6727 38.3987 75.5224 38.6017 75.3138 38.7269L70.472 41.7427L74.5896 39.3594C74.7968 39.2436 75.0408 39.2126 75.2703 39.2731C75.4998 39.3335 75.697 39.4806 75.8202 39.6835C75.9435 39.8863 75.9833 40.129 75.9312 40.3606C75.8792 40.5921 75.7393 40.7945 75.5411 40.925L60.9185 50.275L74.6281 42.3605C74.834 42.2412 75.0782 42.2066 75.3091 42.2641C75.5401 42.3216 75.7396 42.4666 75.8655 42.6685C75.9915 42.8704 76.034 43.1133 75.984 43.346C75.9341 43.5786 75.7957 43.7828 75.598 43.9152L53.4366 58.822L74.2065 46.832C74.4128 46.7184 74.655 46.6886 74.8827 46.7487C75.1105 46.8088 75.3063 46.9543 75.4296 47.155C75.553 47.3557 75.5943 47.5962 75.5451 47.8265C75.4959 48.0569 75.3599 48.2594 75.1653 48.3922L62.4878 56.6715L73.4145 50.363C73.6199 50.2438 73.8635 50.209 74.0941 50.2659C74.3246 50.3227 74.5242 50.4668 74.6506 50.6679C74.777 50.8689 74.8205 51.1112 74.7718 51.3436C74.7232 51.5761 74.5862 51.7806 74.3898 51.914L59.6168 61.9974L71.7168 55.016C71.9203 54.9036 72.1589 54.8726 72.3843 54.9295C72.6098 54.9863 72.8052 55.1267 72.931 55.3222C73.0568 55.5177 73.1037 55.7537 73.0621 55.9825C73.0204 56.2112 72.8934 56.4156 72.7068 56.5542L61.397 64.6099L68.6038 60.4482C68.8066 60.3291 69.0475 60.2925 69.2766 60.346C69.5056 60.3995 69.7053 60.539 69.8344 60.7357C69.9635 60.9323 70.012 61.1711 69.9699 61.4025C69.9279 61.6339 69.7985 61.8404 69.6085 61.979L64.2606 65.939C64.3835 65.9666 64.4994 66.0194 64.6007 66.0942C64.702 66.169 64.7866 66.2642 64.8491 66.3735C64.9708 66.5839 65.004 66.8339 64.9415 67.0687C64.8789 67.3035 64.7257 67.5038 64.5155 67.6257L52.949 74.2917C52.7462 74.4078 52.5068 74.4422 52.2796 74.3877C52.0524 74.3332 51.8546 74.194 51.7265 73.9986C51.5985 73.8032 51.5499 73.5662 51.5908 73.3362C51.6316 73.1061 51.7587 72.9003 51.9461 72.7609L55.5651 70.0897L45.6523 75.8097C45.5112 75.8926 45.3503 75.9357 45.1866 75.9344Z" fill="#5353A3"/>
  <path d="M101.978 108.984C101.804 108.984 101.633 108.934 101.486 108.84C101.339 108.747 101.222 108.613 101.148 108.455C101.074 108.297 101.047 108.121 101.07 107.948C101.092 107.775 101.164 107.612 101.276 107.479L104.066 104.153L97.5358 107.919C97.3407 108.029 97.1118 108.064 96.8927 108.017C96.6735 107.97 96.4792 107.844 96.3464 107.663C96.2136 107.483 96.1517 107.26 96.1722 107.037C96.1927 106.813 96.2943 106.605 96.4578 106.452L100.607 102.642L95.1177 105.812C94.9224 105.926 94.6922 105.963 94.4711 105.917C94.25 105.871 94.0536 105.745 93.9196 105.564C93.7856 105.382 93.7233 105.157 93.7448 104.932C93.7663 104.708 93.87 104.499 94.036 104.346L98.7623 99.9547L92.7398 103.438C92.5446 103.551 92.3143 103.589 92.0932 103.543C91.8721 103.497 91.6758 103.371 91.5417 103.189C91.4077 103.008 91.3455 102.783 91.367 102.558C91.3885 102.333 91.4921 102.124 91.6582 101.971L96.3827 97.5897L90.3712 101.06C90.1781 101.17 89.9518 101.206 89.7341 101.162C89.5165 101.117 89.3224 100.995 89.188 100.819C89.0535 100.642 88.9878 100.422 89.0031 100.2C89.0184 99.9789 89.1137 99.7704 89.2712 99.6137L94.5292 94.4419L87.6982 98.3854C87.5028 98.5042 87.2702 98.5457 87.0458 98.5018C86.8214 98.4579 86.6216 98.3317 86.4855 98.1481C86.3493 97.9644 86.2867 97.7365 86.3099 97.5091C86.3332 97.2816 86.4405 97.0711 86.611 96.9187L91.4822 92.3354L85.2525 95.9397C85.055 96.0551 84.8214 96.0924 84.5978 96.0444C84.3741 95.9964 84.1765 95.8665 84.0438 95.6802C83.911 95.4939 83.8527 95.2647 83.8803 95.0376C83.9078 94.8106 84.0193 94.602 84.1928 94.4529L88.0025 91.1327L83.2083 93.9011C83.0132 94.0084 82.7858 94.0411 82.5684 93.993C82.351 93.9448 82.1585 93.8193 82.027 93.6396C81.8954 93.46 81.8337 93.2386 81.8534 93.0168C81.8731 92.7951 81.9728 92.588 82.134 92.4344L86.5835 88.4011L80.9497 91.6516C80.7507 91.7644 80.5168 91.7988 80.2938 91.748C80.0708 91.6972 79.8749 91.5649 79.7444 91.3771C79.614 91.1892 79.5585 90.9594 79.5888 90.7327C79.6191 90.506 79.7331 90.2989 79.9083 90.1519L82.7683 87.7851L79.1658 89.8641C78.9706 89.9759 78.7411 90.012 78.521 89.9655C78.3009 89.919 78.1055 89.7932 77.9722 89.6121C77.8388 89.4309 77.7767 89.207 77.7977 88.9831C77.8187 88.7591 77.9213 88.5506 78.086 88.3974L82.7243 84.1239L76.9512 87.4569C76.7528 87.5722 76.5184 87.6089 76.2943 87.5597C76.0702 87.5106 75.8727 87.3792 75.7407 87.1916C75.6088 87.0039 75.552 86.7735 75.5816 86.546C75.6112 86.3185 75.7251 86.1104 75.9007 85.9627L79.0705 83.2897L75.9043 85.1231C75.7045 85.2381 75.4686 85.2737 75.2438 85.2225C75.0189 85.1714 74.8216 85.0374 74.6911 84.8473C74.5606 84.6571 74.5066 84.4248 74.5398 84.1966C74.5731 83.9684 74.6911 83.7611 74.8703 83.6161L76.0437 82.6682L75.71 82.8516C75.5211 82.9593 75.3001 82.9964 75.0864 82.9562C74.8726 82.916 74.6802 82.8012 74.5433 82.6322C74.4065 82.4632 74.3342 82.251 74.3394 82.0336C74.3445 81.8162 74.4268 81.6077 74.5715 81.4454L76.9292 78.8311C76.7651 78.8296 76.604 78.7869 76.4608 78.7068C76.3175 78.6267 76.1968 78.5118 76.1097 78.3727C75.988 78.1624 75.9547 77.9124 76.0173 77.6776C76.0799 77.4428 76.2331 77.2424 76.4433 77.1206L80.8067 74.5997C80.9958 74.4908 81.2175 74.4529 81.4321 74.4928C81.6466 74.5328 81.8398 74.648 81.9771 74.8177C82.1143 74.9874 82.1864 75.2004 82.1806 75.4186C82.1748 75.6367 82.0913 75.8456 81.9452 76.0077L79.8222 78.3617L85.2525 75.2231C85.452 75.1106 85.6865 75.077 85.9096 75.1287C86.1327 75.1805 86.3284 75.3139 86.4581 75.5026C86.5877 75.6914 86.6421 75.9219 86.6103 76.1488C86.5786 76.3756 86.463 76.5823 86.2865 76.7282L85.1132 77.6797L87.1078 76.5284C87.3059 76.4173 87.5381 76.3837 87.7595 76.434C87.9809 76.4843 88.1758 76.615 88.3063 76.8008C88.4369 76.9866 88.4939 77.2142 88.4662 77.4396C88.4385 77.665 88.3281 77.8721 88.1565 78.0207L84.9903 80.6901L88.9742 78.3947C89.1694 78.283 89.3989 78.2469 89.619 78.2933C89.8391 78.3398 90.0345 78.4656 90.1678 78.6468C90.3012 78.8279 90.3633 79.0518 90.3423 79.2758C90.3213 79.4998 90.2187 79.7082 90.054 79.8614L85.4157 84.1331L91.3135 80.7304C91.5124 80.6176 91.7463 80.5832 91.9693 80.634C92.1923 80.6847 92.3883 80.8171 92.5187 81.0049C92.6492 81.1928 92.7047 81.4226 92.6743 81.6493C92.644 81.8759 92.5301 82.0831 92.3548 82.2301L89.493 84.5969L93.0973 82.5161C93.2924 82.4087 93.5199 82.3761 93.7373 82.4242C93.9547 82.4723 94.1471 82.5979 94.2787 82.7775C94.4103 82.9571 94.472 83.1785 94.4523 83.4003C94.4326 83.6221 94.3328 83.8291 94.1717 83.9827L89.724 88.0161L95.3542 84.7747C95.5517 84.6594 95.7852 84.6221 96.0089 84.6701C96.2325 84.7181 96.4301 84.848 96.5629 85.0343C96.6957 85.2206 96.754 85.4498 96.7264 85.6769C96.6988 85.9039 96.5873 86.1125 96.4138 86.2616L92.5858 89.5799L97.3892 86.8097C97.5845 86.691 97.8172 86.6495 98.0415 86.6934C98.2659 86.7373 98.4657 86.8634 98.6019 87.0471C98.738 87.2308 98.8006 87.4587 98.7774 87.6861C98.7541 87.9135 98.6468 88.1241 98.4763 88.2764L93.6052 92.8597L99.8385 89.2609C100.032 89.151 100.258 89.1149 100.476 89.1594C100.693 89.2039 100.887 89.3258 101.022 89.5026C101.156 89.6795 101.222 89.8991 101.207 90.1207C101.191 90.3423 101.096 90.5508 100.938 90.7074L95.6805 95.8792L102.511 91.9357C102.707 91.8223 102.937 91.785 103.158 91.8309C103.379 91.8768 103.576 92.0026 103.71 92.1843C103.844 92.3661 103.906 92.5909 103.884 92.8156C103.863 93.0404 103.759 93.2494 103.593 93.4024L98.8778 97.7731L104.886 94.3026C105.081 94.1892 105.311 94.1518 105.532 94.1977C105.753 94.2436 105.95 94.3695 106.084 94.5512C106.218 94.7329 106.28 94.9577 106.259 95.1825C106.237 95.4073 106.133 95.6162 105.967 95.7692L101.241 100.169L106.91 96.8949C107.105 96.7847 107.334 96.7498 107.553 96.7968C107.772 96.8438 107.966 96.9696 108.099 97.1502C108.232 97.3308 108.294 97.5538 108.273 97.777C108.253 98.0002 108.151 98.2082 107.988 98.3616L103.841 102.173L107.648 99.9731C107.835 99.8658 108.053 99.8275 108.265 99.865C108.477 99.9026 108.669 100.013 108.808 100.178C108.946 100.343 109.022 100.551 109.022 100.767C109.022 100.982 108.947 101.19 108.809 101.355L106.019 104.681L106.052 104.665C106.261 104.555 106.505 104.531 106.732 104.596C106.959 104.662 107.152 104.813 107.27 105.018C107.389 105.223 107.423 105.465 107.367 105.695C107.311 105.925 107.168 106.124 106.968 106.25L102.436 108.867C102.297 108.946 102.139 108.987 101.978 108.984Z" fill="#626270"/>
  <path d="M54.3278 65.0737C54.1441 65.0735 53.9646 65.018 53.8128 64.9145C53.661 64.811 53.5437 64.6642 53.4763 64.4933C53.409 64.3223 53.3945 64.135 53.4349 63.9558C53.4752 63.7765 53.5685 63.6135 53.7027 63.4879L53.974 63.2331L52.4816 64.0947C52.2894 64.2056 52.0634 64.2429 51.8456 64.1998C51.6279 64.1566 51.4332 64.036 51.2977 63.8602C51.1622 63.6844 51.0951 63.4654 51.1089 63.2438C51.1226 63.0223 51.2163 62.8133 51.3725 62.6556L54.953 59.0494L48.7691 62.6244C48.5725 62.7382 48.3405 62.7749 48.1183 62.7273C47.8961 62.6798 47.6995 62.5514 47.5666 62.3671C47.4337 62.1828 47.374 61.9558 47.399 61.7299C47.4241 61.5041 47.5321 61.2956 47.7021 61.1449L53.0371 56.4222L39.9691 63.9646C39.7664 64.0807 39.527 64.115 39.2998 64.0606C39.0726 64.0061 38.8748 63.8669 38.7467 63.6715C38.6187 63.476 38.5701 63.2391 38.6109 63.009C38.6518 62.779 38.7789 62.5732 38.9663 62.4337L46.758 56.6862L36.4675 62.6262C36.2616 62.7456 36.0174 62.7801 35.7865 62.7227C35.5556 62.6652 35.356 62.5202 35.2301 62.3183C35.1041 62.1164 35.0616 61.8735 35.1116 61.6408C35.1615 61.4081 35.2999 61.204 35.4976 61.0716L38.0643 59.3409L29.0535 64.5421C28.847 64.6595 28.6029 64.6921 28.3728 64.6331C28.1427 64.5741 27.9444 64.4281 27.8199 64.2258C27.6953 64.0235 27.6542 63.7808 27.7051 63.5487C27.756 63.3167 27.895 63.1135 28.0928 62.9819L32.7513 59.9294L26.6188 63.4696C26.4129 63.5889 26.1687 63.6235 25.9378 63.566C25.7069 63.5085 25.5074 63.3635 25.3814 63.1616C25.2555 62.9597 25.213 62.7168 25.2629 62.4841C25.3128 62.2515 25.4513 62.0473 25.649 61.9149L37.4538 53.9894L24.3858 61.5299C24.1786 61.6457 23.9346 61.6766 23.7051 61.6162C23.4756 61.5557 23.2785 61.4086 23.1552 61.2058C23.0319 61.003 22.9922 60.7603 23.0442 60.5287C23.0963 60.2971 23.2361 60.0948 23.4343 59.9642L25.3795 58.7231L24.3473 59.3171C24.1408 59.4291 23.8992 59.4576 23.6723 59.3967C23.4454 59.3358 23.2506 59.1901 23.128 58.9896C23.0054 58.7892 22.9645 58.5494 23.0136 58.3196C23.0628 58.0899 23.1983 57.8878 23.3921 57.7551L28.5841 54.4056L24.3473 56.8512C24.1411 56.9666 23.8984 56.9978 23.6697 56.9385C23.441 56.8792 23.2441 56.7339 23.1199 56.5329C22.9958 56.3319 22.954 56.0907 23.0034 55.8597C23.0527 55.6287 23.1894 55.4256 23.3848 55.2929L33.8513 48.4014L24.3455 53.8886C24.1393 54.0039 23.8966 54.0352 23.6679 53.9758C23.4392 53.9165 23.2422 53.7712 23.1181 53.5702C22.994 53.3692 22.9522 53.1281 23.0016 52.897C23.0509 52.666 23.1875 52.463 23.383 52.3302L33.833 45.4589L24.3528 50.9296C24.1458 51.0474 23.901 51.08 23.6703 51.0205C23.4397 50.961 23.2412 50.814 23.1171 50.6107C22.9929 50.4074 22.9527 50.1638 23.0051 49.9314C23.0575 49.699 23.1983 49.4961 23.3976 49.3657L28.531 46.0657L24.362 48.4711C24.1564 48.5882 23.9135 48.6213 23.6841 48.5635C23.4547 48.5057 23.2565 48.3615 23.131 48.1609C23.0055 47.9603 22.9624 47.719 23.0108 47.4874C23.0591 47.2558 23.1951 47.0519 23.3903 46.9182L38.607 36.6277L24.3638 44.8521C24.1562 44.9787 23.9068 45.0177 23.6704 44.9605C23.434 44.9032 23.2301 44.7544 23.1034 44.5468C22.9767 44.3392 22.9377 44.0898 22.995 43.8534C23.0522 43.617 23.201 43.4131 23.4086 43.2864L27.8361 40.4392L24.362 42.4449C24.1556 42.5585 23.9135 42.5884 23.6857 42.5282C23.458 42.4681 23.2621 42.3226 23.1388 42.1219C23.0155 41.9212 22.9741 41.6808 23.0233 41.4504C23.0726 41.22 23.2086 41.0175 23.4031 40.8847L31.4185 35.6616L24.3601 39.7371C24.1548 39.8563 23.9111 39.8911 23.6805 39.8342C23.45 39.7774 23.2505 39.6332 23.124 39.4322C22.9976 39.2312 22.9542 38.9889 23.0028 38.7565C23.0514 38.524 23.1884 38.3195 23.3848 38.1861L39.5182 27.1476L24.3546 35.9017C24.1475 36.0175 23.9035 36.0485 23.6739 35.988C23.4444 35.9276 23.2473 35.7805 23.124 35.5776C23.0008 35.3748 22.961 35.1321 23.013 34.9005C23.0651 34.669 23.2049 34.4666 23.4031 34.3361L24.1493 33.8576C23.9382 33.918 23.7124 33.9007 23.513 33.8087C23.3135 33.7167 23.1538 33.5562 23.0627 33.3563C22.9717 33.1565 22.9554 32.9306 23.0169 32.7198C23.0784 32.5089 23.2135 32.3272 23.3976 32.2076L26.188 30.3962L24.3546 31.4541C24.1499 31.5697 23.9085 31.6022 23.6804 31.5448C23.4523 31.4875 23.255 31.3447 23.1293 31.146C23.0036 30.9472 22.959 30.7078 23.0049 30.4771C23.0507 30.2465 23.1835 30.0423 23.3756 29.9067L33.8256 22.6889L24.3455 28.1614C24.1427 28.2735 23.905 28.3046 23.6802 28.2485C23.4553 28.1924 23.2601 28.0533 23.1337 27.8591C23.0073 27.6649 22.9592 27.43 22.999 27.2017C23.0388 26.9735 23.1635 26.7687 23.3481 26.6287L34.5186 18.4576L24.3455 24.3242C24.1399 24.4414 23.897 24.4745 23.6676 24.4167C23.4382 24.3589 23.24 24.2146 23.1145 24.0141C22.989 23.8135 22.9459 23.5722 22.9943 23.3406C23.0426 23.109 23.1786 22.905 23.3738 22.7714L24.1475 22.2489C23.9406 22.3119 23.718 22.2997 23.5192 22.2144C23.3205 22.1291 23.1582 21.9763 23.0612 21.783C22.9642 21.5897 22.9387 21.3683 22.9892 21.158C23.0397 20.9476 23.163 20.762 23.3371 20.6337L28.1313 17.0624L24.3418 19.2514C24.149 19.3598 23.9235 19.3949 23.7069 19.3501C23.4903 19.3053 23.2972 19.1837 23.1632 19.0077C23.0292 18.8317 22.9633 18.6132 22.9778 18.3925C22.9922 18.1718 23.086 17.9637 23.2418 17.8067L26.5858 14.4774L24.3198 15.7846C24.2155 15.8509 24.0988 15.8954 23.9768 15.9155C23.8548 15.9355 23.73 15.9307 23.61 15.9013C23.4899 15.8719 23.377 15.8185 23.2781 15.7443C23.1792 15.6702 23.0963 15.5767 23.0344 15.4697C22.9726 15.3627 22.933 15.2442 22.9181 15.1215C22.9032 14.9988 22.9132 14.8743 22.9477 14.7556C22.9821 14.6368 23.0402 14.5263 23.1185 14.4306C23.1968 14.3349 23.2936 14.256 23.4031 14.1987L31.8053 9.35139C31.9981 9.24297 32.2236 9.20792 32.4402 9.2527C32.6568 9.29748 32.85 9.41908 32.984 9.59507C33.1179 9.77105 33.1838 9.98955 33.1693 10.2103C33.1549 10.431 33.0611 10.639 32.9053 10.7961L29.5393 14.1382L40.785 7.64639C40.9875 7.53128 41.2262 7.49756 41.4526 7.55208C41.679 7.60659 41.8762 7.74526 42.0041 7.9399C42.132 8.13455 42.181 8.37058 42.1412 8.60006C42.1014 8.82953 41.9757 9.03524 41.7896 9.17539L37.001 12.7431L45.4691 7.85906C45.6747 7.74191 45.9176 7.70878 46.147 7.76659C46.3764 7.82439 46.5746 7.96867 46.7001 8.16923C46.8256 8.36979 46.8687 8.6111 46.8204 8.8427C46.772 9.0743 46.636 9.27825 46.4408 9.41189L45.9531 9.74006L48.309 8.38156C48.5119 8.26705 48.7508 8.23409 48.9771 8.28939C49.2034 8.34469 49.4002 8.48409 49.5274 8.67926C49.6547 8.87443 49.7028 9.11072 49.6621 9.34012C49.6213 9.56951 49.4948 9.77479 49.3081 9.91422L38.1358 18.0836L52.6192 9.72539C52.8239 9.60976 53.0653 9.57726 53.2934 9.63461C53.5215 9.69195 53.7188 9.83476 53.8445 10.0335C53.9702 10.2322 54.0148 10.4717 53.9689 10.7023C53.9231 10.933 53.7903 11.1372 53.5981 11.2727L43.1481 18.4924L55.7358 11.2086C55.9425 11.0931 56.1858 11.062 56.4149 11.1219C56.6439 11.1818 56.8409 11.328 56.9646 11.5299C57.0882 11.7318 57.129 11.9737 57.0784 12.2049C57.0277 12.4362 56.8896 12.6389 56.6928 12.7706L53.9025 14.5892L57.703 12.3892C57.9102 12.2734 58.1542 12.2425 58.3837 12.3029C58.6132 12.3634 58.8103 12.5105 58.9336 12.7133C59.0569 12.9161 59.0966 13.1589 59.0446 13.3904C58.9925 13.622 58.8527 13.8243 58.6545 13.9549L58.4161 14.1089L59.3713 13.5589C59.5767 13.4397 59.8204 13.4048 60.0509 13.4617C60.2815 13.5186 60.481 13.6627 60.6074 13.8637C60.7338 14.0648 60.7773 14.307 60.7287 14.5395C60.68 14.7719 60.5431 14.9764 60.3467 15.1099L44.2133 26.1447L59.9892 17.0404C60.1953 16.9297 60.436 16.9021 60.6619 16.9632C60.8877 17.0242 61.0817 17.1693 61.204 17.3688C61.3264 17.5682 61.3678 17.8069 61.3199 18.0359C61.2719 18.2649 61.1382 18.4669 60.9462 18.6006L52.9382 23.8201L59.9892 19.7482C60.1966 19.6267 60.4435 19.5915 60.6766 19.6502C60.9098 19.709 61.1105 19.857 61.2356 20.0624C61.3606 20.2677 61.4 20.514 61.3451 20.7481C61.2903 20.9822 61.1457 21.1854 60.9425 21.3139L56.5297 24.1519L59.9892 22.1554C60.1942 22.043 60.4345 22.0132 60.6609 22.0721C60.8872 22.1311 61.0824 22.2743 61.2066 22.4725C61.3308 22.6707 61.3745 22.9089 61.3288 23.1383C61.2831 23.3677 61.1515 23.5709 60.9608 23.7064L45.7442 34.0024L59.991 25.7762C60.1978 25.6625 60.4405 25.6329 60.6686 25.6936C60.8967 25.7544 61.0926 25.9008 61.2154 26.1023C61.3383 26.3038 61.3787 26.545 61.3282 26.7756C61.2777 27.0061 61.1402 27.2083 60.9443 27.3401L55.811 30.6529L59.9965 28.2384C60.2033 28.1146 60.4505 28.0772 60.6846 28.1343C60.9188 28.1914 61.1211 28.3384 61.2476 28.5435C61.3741 28.7487 61.4148 28.9954 61.3608 29.2303C61.3068 29.4652 61.1624 29.6693 60.959 29.7986L50.509 36.6754L59.9928 31.1992C60.1996 31.0754 60.4468 31.038 60.681 31.0951C60.9151 31.1522 61.1174 31.2992 61.2439 31.5044C61.3705 31.7095 61.4111 31.9562 61.3571 32.1911C61.3031 32.426 61.1588 32.6301 60.9553 32.7594L50.4888 39.6564L59.9892 34.1564C60.1955 34.0471 60.4357 34.0207 60.6608 34.0824C60.886 34.1442 61.0791 34.2896 61.2007 34.4889C61.3223 34.6882 61.3633 34.9263 61.3153 35.1548C61.2674 35.3833 61.134 35.5849 60.9425 35.7184L55.7597 39.0697L59.9892 36.6277C60.197 36.5015 60.4465 36.4631 60.6827 36.5209C60.9189 36.5786 61.1225 36.7279 61.2487 36.9357C61.3748 37.1436 61.4133 37.3931 61.3555 37.6293C61.2977 37.8655 61.1485 38.069 60.9406 38.1952L59.0046 39.4309L59.9892 38.8626C60.1949 38.7472 60.4371 38.7156 60.6655 38.7743C60.8939 38.833 61.0909 38.9775 61.2155 39.1776C61.3402 39.3778 61.3829 39.6184 61.3348 39.8492C61.2866 40.0801 61.1514 40.2835 60.9572 40.4172L49.156 48.3409L59.9892 42.0874C60.1952 41.9753 60.4363 41.9464 60.663 42.0067C60.8896 42.067 61.0845 42.2119 61.2076 42.4115C61.3307 42.6112 61.3725 42.8504 61.3246 43.08C61.2766 43.3096 61.1425 43.512 60.9498 43.6457L56.2675 46.7129L59.9892 44.5661C60.195 44.4467 60.4392 44.4122 60.6702 44.4696C60.9011 44.5271 61.1006 44.6721 61.2265 44.874C61.3525 45.0759 61.395 45.3188 61.3451 45.5515C61.2951 45.7842 61.1567 45.9883 60.959 46.1207L58.3923 47.8551L59.9965 46.9384C60.1992 46.8223 60.4386 46.7879 60.6658 46.8424C60.893 46.8969 61.0909 47.0361 61.2189 47.2315C61.3469 47.4269 61.3955 47.6639 61.3547 47.8939C61.3139 48.124 61.1868 48.3298 60.9993 48.4692L53.215 54.2112L59.9983 50.2971C60.1949 50.185 60.4261 50.1496 60.6472 50.1978C60.8684 50.2459 61.0639 50.3742 61.1961 50.5579C61.3284 50.7416 61.388 50.9677 61.3635 51.1927C61.339 51.4177 61.2321 51.6256 61.0635 51.7766L55.7322 56.4974L59.9983 54.0352C60.1904 53.9308 60.4135 53.8985 60.6273 53.9441C60.8411 53.9898 61.0316 54.1103 61.1643 54.284C61.2971 54.4577 61.3634 54.6731 61.3513 54.8914C61.3392 55.1097 61.2495 55.3164 61.0983 55.4744L57.5178 59.0787L59.991 57.6524C60.1863 57.5355 60.4181 57.4955 60.6413 57.5401C60.8645 57.5847 61.0632 57.7107 61.1986 57.8937C61.3339 58.0767 61.3964 58.3035 61.3738 58.53C61.3512 58.7565 61.2452 58.9664 61.0763 59.1191L60.4163 59.7351C60.6181 59.7351 60.8142 59.8017 60.9743 59.9245C61.1344 60.0473 61.2495 60.2196 61.3017 60.4145C61.3539 60.6094 61.3404 60.8161 61.2632 61.0025C61.186 61.1889 61.0494 61.3447 60.8746 61.4456L54.7861 64.9564C54.6463 65.0349 54.4882 65.0754 54.3278 65.0737Z" fill="#F0F1F2"/>
  <path d="M64.2918 16.164C13.7945 -18.4603 -20.4503 69.965 41.6648 76.0169C72.5382 77.1224 89.0693 35.5259 64.2918 16.164ZM58.1043 14.6057C58.471 14.8257 58.812 15.0695 59.1658 15.3024C57.4975 23.7925 63.1717 62.012 55.7118 62.914C55.4124 63.1254 55.0555 63.2399 54.689 63.2422C54.3225 63.2445 53.9642 63.1344 53.6622 62.9269C47.0622 58.1034 44.1765 65.8932 37.9377 61.3704C33.1178 60.0302 30.0745 66.3717 25.2107 60.417C25.0787 45.3067 25.2235 30.0735 25.1722 14.9192C30.0944 11.8235 35.7794 10.155 41.5939 10.0997C47.4084 10.0443 53.1241 11.6042 58.1043 14.6057ZM73.4035 47.723C58.2382 105.422 -19.7848 57.3242 22.4992 16.8625C22.5102 31.4027 22.4845 45.9557 22.4992 60.4849C22.7522 63.0515 25.5865 63.7079 27.6508 64.553C32.885 66.0674 34.6578 60.6682 40.2843 64.7364C43.2177 65.8015 44.8878 63.3614 47.5737 62.903C52.6373 64.0965 54.357 66.7347 59.846 62.8847C60.5116 62.5636 61.061 62.0435 61.418 61.3965C61.7751 60.7494 61.9221 60.0073 61.8388 59.273V17.2567C66.2473 20.8925 69.6322 25.6143 71.6601 30.9567C73.688 36.2991 74.2889 42.0777 73.4035 47.723Z" fill="#262626"/>
  <path d="M102.165 90.0455C95.7592 85.057 91.0806 75.1699 82.5024 74.3064L75.1324 66.9364C107.219 24.073 45.1922 -23.8906 10.3791 15.8359C-21.0754 53.3899 27.9791 103.799 66.8457 75.0782L73.9206 82.153C75.4569 92.4784 88.0372 98.2864 94.1092 106.335C107.469 115.96 115.563 97.9252 102.165 90.0455ZM12.0877 67.1179C-27.6461 7.68488 74.2176 -29.0588 81.1714 42.3789C82.3191 78.2939 33.9191 95.8609 12.0877 67.1179ZM69.5132 74.3651L68.7341 73.5859C70.4609 72.1431 72.0702 70.5651 73.5466 68.8669L79.5361 74.8564C78.4465 75.2505 77.4478 75.8606 76.5997 76.6501C75.7516 77.4395 75.0717 78.3921 74.6007 79.4507L69.5132 74.3651ZM96.8629 105.499C91.6911 97.5769 73.1212 88.9987 77.6624 78.6459C85.4486 69.5287 99.4057 92.9881 105.896 97.6557C109.594 103.418 102.022 110.649 96.8629 105.499Z" fill="#262626"/>
  <path d="M33.5175 20.7565C40.4842 19.7354 31.7502 19.0699 30.1552 20.1919C29.2605 21.2974 32.7347 20.5549 33.5175 20.7565Z" fill="#262626"/>
  <path d="M41.3037 20.7511C45.5387 20.4247 50.1257 21.4606 54.1829 20.2487C55.446 19.1799 39.067 19.2129 41.3037 20.7511Z" fill="#262626"/>
  <path d="M31.0444 30.3394C32.4011 30.1817 37.1146 31.0892 35.8624 28.6344C34.5406 27.8131 26.8021 28.7646 31.0444 30.3394Z" fill="#262626"/>
  <path d="M51.2459 29.9819C61.5438 28.9552 42.5376 27.8277 40.9573 29.4557C43.0546 30.9114 48.1751 29.5089 51.2459 29.9819Z" fill="#262626"/>
  <path d="M30.6741 39.3906C32.1884 39.0881 36.1741 40.3237 36.0623 38.0119C35.1254 37.1997 27.3979 37.6819 30.6741 39.3906Z" fill="#262626"/>
  <path d="M41.6428 39.2732C45.7532 38.7947 50.6958 40.2962 54.3992 38.5637C55.4662 37.075 36.9788 37.4674 41.6428 39.2732Z" fill="#262626"/>
  <path d="M46.3857 47.0979C41.0415 47.5947 34.9366 46.0584 29.9517 47.7689C29.0497 48.9661 51.1524 48.7736 46.3857 47.0979Z" fill="#262626"/>
  </g>
  <defs>
  <clipPath id="clip0_280_461">
  <rect width="110" height="110" fill="white" transform="translate(0.00244141 0.00146484)"/>
  </clipPath>
  </defs>
  </svg>
  