<svg width="21" height="20" viewBox="0 0 21 20" fill="none" xmlns="http://www.w3.org/2000/svg">
  <g clip-path="url(#clip0_280_330)">
  <path d="M19.037 17.8572C19.4854 17.8572 19.8739 17.7087 20.2042 17.4156L14.5526 11.7491C14.417 11.8464 14.2856 11.9411 14.1614 12.0311C13.7385 12.3435 13.3952 12.5873 13.1317 12.762C12.8681 12.9371 12.5175 13.1156 12.0797 13.2978C11.6417 13.4802 11.2337 13.5711 10.8551 13.5711H10.8441H10.833C10.4544 13.5711 10.0463 13.4803 9.60837 13.2978C9.1704 13.1156 8.81975 12.9371 8.55646 12.762C8.29291 12.5873 7.94982 12.3436 7.52667 12.0311C7.40874 11.9444 7.27796 11.8493 7.13657 11.7476L1.48389 17.4156C1.81415 17.7087 2.20294 17.8572 2.6513 17.8572H19.037Z" fill="#AA8652"/>
  <path d="M1.99454 8.18107C1.57164 7.89838 1.19661 7.57463 0.870117 7.20996V15.8311L5.85142 10.8369C4.85487 10.1393 3.57088 9.25508 1.99454 8.18107Z" fill="#AA8652"/>
  <path d="M19.705 8.18107C18.1888 9.20998 16.9001 10.0958 15.8389 10.8389L20.8182 15.8314V7.20996C20.4989 7.5673 20.1279 7.89083 19.705 8.18107Z" fill="#AA8652"/>
  <path d="M19.0372 2.14307H2.65157C2.07992 2.14307 1.64043 2.3366 1.33255 2.72328C1.02442 3.11014 0.870605 3.59395 0.870605 4.17417C0.870605 4.64283 1.07472 5.15065 1.48278 5.69775C1.89083 6.24463 2.32504 6.67419 2.78517 6.98665C3.03742 7.16533 3.79812 7.69555 5.06727 8.57711C5.75238 9.05311 6.34818 9.46801 6.86018 9.82603C7.29659 10.1309 7.67296 10.3949 7.9837 10.614C8.01937 10.6391 8.07547 10.6793 8.14994 10.7327C8.23016 10.7905 8.33167 10.8638 8.45691 10.9545C8.69808 11.1293 8.89843 11.2707 9.058 11.3787C9.21735 11.4867 9.41043 11.6074 9.63693 11.7414C9.86325 11.8752 10.0767 11.9758 10.2771 12.0427C10.4774 12.1096 10.6629 12.1432 10.8336 12.1432H10.8447H10.8558C11.0264 12.1432 11.2119 12.1096 11.4123 12.0427C11.6127 11.9758 11.8259 11.8754 12.0524 11.7414C12.2787 11.6074 12.4715 11.4865 12.6314 11.3787C12.791 11.2707 12.9913 11.1294 13.2325 10.9545C13.3575 10.8638 13.459 10.7905 13.5393 10.7329C13.6138 10.6793 13.6698 10.6393 13.7057 10.614C13.9478 10.4451 14.325 10.1822 14.8322 9.82912C15.7551 9.18623 17.1142 8.24 18.9154 6.98665C19.457 6.6073 19.9096 6.14953 20.2733 5.61398C20.6364 5.07842 20.8184 4.51665 20.8184 3.92885C20.8184 3.43774 20.642 3.01751 20.2897 2.66751C19.9371 2.31794 19.5196 2.14307 19.0372 2.14307Z" fill="#AA8652"/>
  </g>
  <defs>
  <clipPath id="clip0_280_330">
  <rect width="19.9481" height="20" fill="white" transform="translate(0.870117)"/>
  </clipPath>
  </defs>
  </svg>
  