<svg width="110" height="111" viewBox="0 0 110 111" fill="none" xmlns="http://www.w3.org/2000/svg">
  <path d="M33.9882 109.188C33.7888 109.188 33.5947 109.123 33.4354 109.003C33.2762 108.883 33.1604 108.715 33.1057 108.523C33.0509 108.331 33.0602 108.127 33.1322 107.941C33.2041 107.755 33.3347 107.597 33.5042 107.492L45.7032 99.902L29.8339 109.069C29.6271 109.178 29.3864 109.204 29.161 109.142C28.9356 109.079 28.7426 108.933 28.6215 108.733C28.5004 108.533 28.4603 108.294 28.5095 108.065C28.5587 107.837 28.6934 107.636 28.8861 107.503L55.4804 90.6474L23.5676 109.06C23.3605 109.17 23.1188 109.197 22.8923 109.135C22.6659 109.073 22.472 108.926 22.3507 108.725C22.2293 108.524 22.1898 108.284 22.2402 108.054C22.2906 107.825 22.4271 107.624 22.6216 107.492L52.4572 88.7095L18.4581 108.339C18.2492 108.458 18.002 108.49 17.7696 108.429C17.5373 108.367 17.3384 108.217 17.2158 108.01C17.0932 107.803 17.0567 107.557 17.1142 107.323C17.1716 107.09 17.3185 106.889 17.5231 106.762L32.3327 97.6929L17.1619 106.454C16.9537 106.572 16.7078 106.603 16.4768 106.542C16.2458 106.48 16.0479 106.331 15.9252 106.126C15.8026 105.921 15.7649 105.676 15.8202 105.444C15.8755 105.211 16.0195 105.009 16.2214 104.881L42.7846 88.4254L17.0134 103.303C16.8043 103.427 16.5545 103.463 16.3188 103.403C16.0831 103.343 15.8809 103.192 15.7567 102.983C15.6324 102.774 15.5963 102.524 15.6563 102.288C15.7163 102.053 15.8675 101.85 16.0766 101.726L33.4767 91.0635L17.0134 100.568C16.8053 100.693 16.5558 100.731 16.3198 100.673C16.0837 100.615 15.8805 100.465 15.7548 100.257C15.6291 100.049 15.5913 99.7992 15.6495 99.5631C15.7078 99.3271 15.8575 99.1239 16.0656 98.9982L54.3162 74.8202L17.0134 96.3564C16.8056 96.4708 16.5614 96.5003 16.3324 96.4384C16.1033 96.3766 15.9071 96.2284 15.7851 96.0249C15.663 95.8214 15.6246 95.5786 15.678 95.3474C15.7313 95.1162 15.8722 94.9146 16.0711 94.7852L48.0976 74.7762L17.0134 92.7282C16.8049 92.8416 16.5605 92.8697 16.3317 92.8066C16.1029 92.7435 15.9075 92.5941 15.7866 92.3898C15.6657 92.1856 15.6288 91.9424 15.6835 91.7114C15.7383 91.4805 15.8805 91.2798 16.0802 91.1515L17.2792 90.4182L17.0134 90.5704C16.8058 90.6813 16.5635 90.708 16.3367 90.6452C16.1098 90.5823 15.9159 90.4346 15.795 90.2326C15.6741 90.0307 15.6356 89.79 15.6873 89.5603C15.739 89.3307 15.8771 89.1298 16.0729 88.9992L42.4729 72.655L17.0134 87.3565C16.8049 87.4699 16.5605 87.498 16.3317 87.4349C16.1029 87.3718 15.9075 87.2224 15.7866 87.0181C15.6657 86.8139 15.6288 86.5707 15.6835 86.3398C15.7383 86.1088 15.8805 85.9081 16.0802 85.7799L26.5192 79.4182L17.0134 84.9072C16.805 85.0224 16.56 85.052 16.3302 84.9898C16.1004 84.9275 15.9038 84.7783 15.7821 84.5736C15.6603 84.369 15.623 84.125 15.678 83.8934C15.7329 83.6617 15.8759 83.4605 16.0766 83.3324L37.2681 70.2919L17.0134 81.9849C16.805 82.1001 16.56 82.1297 16.3302 82.0674C16.1004 82.0052 15.9038 81.8559 15.7821 81.6513C15.6603 81.4467 15.623 81.2027 15.678 80.971C15.7329 80.7394 15.8759 80.5382 16.0766 80.41L37.7411 67.0762L17.0134 79.0369C16.8063 79.1476 16.5646 79.1746 16.3382 79.1123C16.1117 79.05 15.9178 78.9031 15.7965 78.7021C15.6752 78.501 15.6356 78.261 15.686 78.0317C15.7364 77.8023 15.8729 77.601 16.0674 77.4694L53.7662 53.669L17.0134 74.8862C16.8053 75.0062 16.5584 75.0397 16.3258 74.9795C16.0932 74.9193 15.8935 74.7702 15.7698 74.5643C15.646 74.3583 15.6081 74.1121 15.6641 73.8784C15.7201 73.6448 15.8656 73.4425 16.0692 73.315L49.2214 52.5709L17.0134 71.1645C16.8053 71.2758 16.5623 71.3025 16.335 71.239C16.1077 71.1756 15.9136 71.027 15.7931 70.8241C15.6726 70.6212 15.6351 70.3796 15.6882 70.1497C15.7413 69.9197 15.8811 69.7192 16.0784 69.5897L31.5847 60.1095L17.0134 68.5135C16.8055 68.6217 16.564 68.6462 16.3387 68.5818C16.1133 68.5175 15.9211 68.3693 15.8017 68.1677C15.6822 67.966 15.6445 67.7263 15.6963 67.4977C15.7481 67.2692 15.8855 67.0691 16.0802 66.9387L23.5969 62.3554L17.0134 66.1595C16.8057 66.2759 16.5609 66.3069 16.3307 66.246C16.1006 66.1851 15.9032 66.037 15.7803 65.8331C15.6574 65.6292 15.6186 65.3855 15.6722 65.1535C15.7258 64.9215 15.8675 64.7195 16.0674 64.5902L48.9299 43.9194L17.0134 62.3462C16.8049 62.4596 16.5605 62.4877 16.3317 62.4246C16.1029 62.3615 15.9075 62.2121 15.7866 62.0078C15.6657 61.8036 15.6288 61.5604 15.6835 61.3294C15.7383 61.0985 15.8805 60.8978 16.0802 60.7695L18.0291 59.5852L17.0134 60.17C16.8064 60.2822 16.5642 60.3104 16.337 60.2489C16.1098 60.1874 15.915 60.0408 15.7929 59.8395C15.6708 59.6382 15.6308 59.3977 15.6813 59.1678C15.7317 58.9378 15.8686 58.7361 16.0637 58.6044L49.8961 37.0774L17.0134 56.0597C16.8064 56.1719 16.5642 56.2001 16.337 56.1386C16.1098 56.077 15.915 55.9304 15.7929 55.7292C15.6708 55.5279 15.6308 55.2874 15.6813 55.0574C15.7317 54.8275 15.8686 54.6258 16.0637 54.494L48.4697 33.8085L17.0134 51.9695C16.8053 52.0895 16.5584 52.1231 16.3258 52.0628C16.0932 52.0026 15.8935 51.8535 15.7698 51.6476C15.646 51.4417 15.6081 51.1954 15.6641 50.9618C15.7201 50.7281 15.8656 50.5258 16.0692 50.3984L38.4597 36.3605L17.0134 48.7429C16.806 48.8644 16.5591 48.8996 16.3259 48.8409C16.0928 48.7821 15.892 48.6341 15.767 48.4287C15.6419 48.2234 15.6026 47.9771 15.6574 47.743C15.7122 47.5089 15.8568 47.3057 16.0601 47.1772L46.1634 27.8319L17.0134 44.66C16.8054 44.7728 16.5619 44.8008 16.3338 44.7382C16.1056 44.6755 15.9105 44.5271 15.7893 44.3239C15.668 44.1208 15.6301 43.8786 15.6833 43.6481C15.7365 43.4176 15.8767 43.2165 16.0747 43.087L24.2752 38.0234L17.0134 42.2144C16.8063 42.3251 16.5646 42.352 16.3382 42.2897C16.1117 42.2275 15.9178 42.0806 15.7965 41.8796C15.6752 41.6785 15.6356 41.4385 15.686 41.2092C15.7364 40.9798 15.8729 40.7785 16.0674 40.6469L34.4741 29.0602L17.0134 39.1435C16.8057 39.2599 16.5609 39.2909 16.3307 39.23C16.1006 39.1691 15.9032 39.021 15.7803 38.8171C15.6574 38.6132 15.6186 38.3695 15.6722 38.1375C15.7258 37.9055 15.8675 37.7035 16.0674 37.5742L33.0862 26.8474L17.0134 36.1204C16.8066 36.2296 16.5659 36.2557 16.3405 36.1933C16.1151 36.1309 15.9221 35.9847 15.801 35.7846C15.6799 35.5845 15.6398 35.3457 15.689 35.1171C15.7382 34.8885 15.8729 34.6873 16.0656 34.5547L31.4399 24.7977L17.0134 33.1265C16.8077 33.2419 16.5655 33.2734 16.3371 33.2148C16.1087 33.1561 15.9117 33.0116 15.787 32.8114C15.6624 32.6113 15.6197 32.3707 15.6678 32.1399C15.7159 31.909 15.8512 31.7056 16.0454 31.5719L38.1206 16.819L17.0134 29.0034C16.8063 29.1141 16.5646 29.141 16.3382 29.0787C16.1117 29.0165 15.9178 28.8696 15.7965 28.6686C15.6752 28.4675 15.6356 28.2275 15.686 27.9982C15.7364 27.7688 15.8729 27.5675 16.0674 27.4359L18.6011 25.8354L17.0134 26.752C16.8066 26.8658 16.5639 26.8954 16.3358 26.8346C16.1077 26.7739 15.9118 26.6275 15.789 26.426C15.6661 26.2244 15.6257 25.9833 15.6762 25.7527C15.7267 25.5221 15.8642 25.3199 16.0601 25.1882L21.6627 21.5765L17.0134 24.2587C16.8069 24.3761 16.5628 24.4088 16.3327 24.3498C16.1026 24.2908 15.9044 24.1447 15.7798 23.9424C15.6552 23.7401 15.6141 23.4974 15.665 23.2654C15.7159 23.0333 15.8549 22.8301 16.0527 22.6985L21.8167 18.9127L17.0134 21.6884C16.8091 21.8043 16.568 21.8373 16.3401 21.7807C16.1121 21.7241 15.9145 21.5821 15.7882 21.384C15.6619 21.1859 15.6164 20.9469 15.6612 20.7163C15.706 20.4857 15.8376 20.2811 16.0289 20.1447L25.8116 13.288L17.0134 18.3682C16.8092 18.4859 16.5676 18.5205 16.3386 18.4647C16.1096 18.409 15.9109 18.2671 15.7837 18.0687C15.6566 17.8703 15.6107 17.6305 15.6557 17.3992C15.7006 17.1678 15.833 16.9627 16.0252 16.8264L21.7086 12.8132L17.0134 15.5192C16.8153 15.634 16.5813 15.6704 16.3577 15.6214C16.134 15.5724 15.9368 15.4414 15.8048 15.2543C15.6728 15.0671 15.6157 14.8374 15.6446 14.6102C15.6735 14.3831 15.7864 14.175 15.9611 14.0269L23.2046 7.85954L17.0134 11.4254C16.8224 11.5357 16.5981 11.5735 16.3815 11.5319C16.1649 11.4902 15.9706 11.3718 15.8343 11.1985C15.6979 11.0251 15.6286 10.8084 15.6391 10.5881C15.6496 10.3678 15.7392 10.1586 15.8914 9.99904L19.6791 6.0262L17.0134 7.5552C16.8303 7.65965 16.6169 7.69783 16.409 7.66331C16.2011 7.62879 16.0114 7.52369 15.8719 7.36569C15.7325 7.2077 15.6517 7.00647 15.6432 6.79588C15.6347 6.5853 15.6991 6.37823 15.8254 6.20954L16.9547 4.7117C16.766 4.68537 16.5902 4.60088 16.4517 4.46999C16.3132 4.3391 16.219 4.1683 16.1821 3.98136C16.1452 3.79443 16.1675 3.60063 16.2458 3.42694C16.3242 3.25324 16.4547 3.10827 16.6192 3.0122L19.6571 1.25954C19.8401 1.15509 20.0536 1.11691 20.2615 1.15143C20.4694 1.18595 20.6591 1.29105 20.7985 1.44905C20.938 1.60704 21.0188 1.80827 21.0273 2.01886C21.0357 2.22944 20.9714 2.43651 20.8451 2.6052L20.0127 3.7052L24.2624 1.25954C24.4532 1.14922 24.6773 1.11132 24.8937 1.15279C25.1102 1.19425 25.3044 1.3123 25.4409 1.48532C25.5774 1.65833 25.647 1.87473 25.637 2.09487C25.6269 2.31502 25.5379 2.52417 25.3862 2.68404L21.5967 6.66237L30.9651 1.25954C31.1629 1.14707 31.3956 1.11223 31.6177 1.16181C31.8399 1.21139 32.0356 1.34184 32.1669 1.52777C32.2981 1.7137 32.3556 1.94182 32.3279 2.16774C32.3003 2.39366 32.1896 2.60122 32.0174 2.75004L24.7757 8.9247L38.0546 1.25954C38.2583 1.14605 38.4977 1.1145 38.7239 1.17131C38.9501 1.22813 39.1461 1.36903 39.2721 1.56532C39.3981 1.76162 39.4445 1.99855 39.4018 2.22785C39.3592 2.45716 39.2308 2.6616 39.0427 2.79954L33.3594 6.81454L42.9881 1.25954C43.192 1.14754 43.4309 1.11726 43.6563 1.17485C43.8817 1.23244 44.0768 1.37358 44.202 1.56967C44.3272 1.76575 44.3731 2.00211 44.3305 2.23082C44.2879 2.45954 44.16 2.6635 43.9726 2.80137L34.1844 9.65987L48.7429 1.25954C48.9489 1.14744 49.1901 1.11856 49.4167 1.17886C49.6434 1.23915 49.8383 1.38403 49.9614 1.58368C50.0844 1.78332 50.1263 2.02255 50.0783 2.25213C50.0304 2.48171 49.8963 2.68418 49.7036 2.81787L43.9414 6.59637L53.1924 1.25954C53.3987 1.15025 53.6389 1.1238 53.8641 1.18558C54.0892 1.24737 54.2823 1.39274 54.4039 1.59202C54.5256 1.7913 54.5666 2.02949 54.5186 2.25797C54.4706 2.48645 54.3373 2.68802 54.1457 2.82154L48.5321 6.4387L57.5099 1.25954C57.7172 1.14553 57.9606 1.1161 58.1891 1.1774C58.4176 1.2387 58.6136 1.38598 58.736 1.58845C58.8584 1.79091 58.8979 2.03287 58.846 2.26371C58.7941 2.49455 58.655 2.6964 58.4577 2.82704L55.9534 4.4092L61.4167 1.25954C61.6224 1.14422 61.8647 1.11262 62.0931 1.1713C62.3215 1.22999 62.5185 1.37444 62.6431 1.57462C62.7678 1.77481 62.8105 2.01534 62.7624 2.2462C62.7142 2.47706 62.579 2.68049 62.3847 2.8142L40.2986 17.567L68.5557 1.25954C68.7625 1.15028 69.0032 1.1242 69.2286 1.18662C69.454 1.24904 69.647 1.39524 69.7681 1.59531C69.8892 1.79537 69.9293 2.03416 69.8801 2.2628C69.831 2.49144 69.6962 2.69264 69.5036 2.8252L54.1347 12.573L73.0254 1.66654C73.2335 1.54085 73.483 1.50297 73.7191 1.56125C73.9551 1.61953 74.1583 1.76918 74.284 1.97729C74.4097 2.18539 74.4476 2.43491 74.3893 2.67094C74.331 2.90697 74.1813 3.11018 73.9732 3.23587L56.9599 13.959L75.0897 3.49254C75.2978 3.36685 75.5474 3.32897 75.7834 3.38725C76.0194 3.44553 76.2226 3.59518 76.3483 3.80329C76.474 4.01139 76.5119 4.26091 76.4536 4.49694C76.3953 4.73297 76.2457 4.93618 76.0376 5.06187L57.6364 16.6449L77.0386 5.4432C77.2468 5.32589 77.4926 5.29455 77.7237 5.35586C77.9547 5.41718 78.1526 5.5663 78.2753 5.77145C78.3979 5.97659 78.4356 6.22153 78.3803 6.45405C78.3249 6.68657 78.181 6.88829 77.9791 7.0162L69.7566 12.0945L78.5914 6.9942C78.7984 6.87636 79.0432 6.84373 79.2739 6.90325C79.5046 6.96276 79.703 7.10974 79.8272 7.31304C79.9513 7.51634 79.9915 7.75999 79.9391 7.99239C79.8867 8.22478 79.7459 8.42766 79.5466 8.55804L49.4542 27.8979L81.1709 9.58104C81.3802 9.4534 81.6317 9.41415 81.8699 9.47191C82.1082 9.52967 82.3138 9.67971 82.4414 9.88904C82.569 10.0984 82.6083 10.3498 82.5505 10.5881C82.4928 10.8263 82.3427 11.0319 82.1334 11.1595L59.7099 25.201L83.2334 11.627C83.4404 11.5149 83.6826 11.4866 83.9098 11.5482C84.137 11.6097 84.3318 11.7563 84.4539 11.9576C84.576 12.1588 84.616 12.3994 84.5656 12.6293C84.5151 12.8593 84.3782 13.061 84.1831 13.1927L51.7826 33.869L85.8184 14.2194C86.0254 14.1072 86.2676 14.079 86.4948 14.1405C86.722 14.202 86.9168 14.3486 87.0389 14.5499C87.161 14.7512 87.201 14.9917 87.1506 15.2216C87.1001 15.4516 86.9632 15.6533 86.7681 15.785L52.9266 37.3212L88.4236 16.8264C88.6324 16.7074 88.8796 16.6751 89.112 16.7367C89.3444 16.7982 89.5433 16.9485 89.6659 17.1552C89.7885 17.362 89.825 17.6086 89.7675 17.842C89.71 18.0754 89.5632 18.2769 89.3586 18.403L87.3786 19.6057L89.8022 18.2069C90.0096 18.0929 90.2529 18.0634 90.4815 18.1247C90.71 18.186 90.9059 18.3333 91.0284 18.5358C91.1508 18.7382 91.1902 18.9802 91.1383 19.211C91.0864 19.4419 90.9473 19.6437 90.7501 19.7744L57.9004 40.4434L92.1947 20.6434C92.4029 20.5321 92.6459 20.5055 92.8732 20.5689C93.1005 20.6323 93.2946 20.7809 93.415 20.9838C93.5355 21.1868 93.5731 21.4283 93.5199 21.6582C93.4668 21.8882 93.327 22.0887 93.1297 22.2182L85.5782 26.8125L92.9592 22.5519C93.1676 22.4367 93.4126 22.4071 93.6425 22.4693C93.8723 22.5316 94.0688 22.6808 94.1906 22.8854C94.3123 23.0901 94.3496 23.334 94.2947 23.5657C94.2397 23.7974 94.0968 23.9986 93.8961 24.1267L78.4044 33.605L92.9867 25.1864C93.1949 25.0664 93.4418 25.0329 93.6744 25.0931C93.907 25.1533 94.1066 25.3024 94.2303 25.5083C94.3541 25.7142 94.3921 25.9605 94.3361 26.1942C94.2801 26.4278 94.1346 26.6301 93.9309 26.7575L60.7787 47.5017L92.9867 28.908C93.1939 28.7973 93.4356 28.7704 93.662 28.8327C93.8884 28.895 94.0823 29.0418 94.2036 29.2428C94.325 29.4439 94.3645 29.6839 94.3141 29.9132C94.2637 30.1426 94.1272 30.3439 93.9327 30.4755L56.2339 54.2777L92.9867 33.0587C93.1951 32.9435 93.4401 32.9139 93.67 32.9762C93.8998 33.0384 94.0964 33.1876 94.2181 33.3923C94.3398 33.5969 94.3771 33.8409 94.3222 34.0725C94.2672 34.3042 94.1243 34.5054 93.9236 34.6335L72.2591 47.9729L92.9867 36.0067C93.1945 35.8972 93.4364 35.8716 93.6624 35.9352C93.8885 35.9989 94.0815 36.1468 94.2017 36.3486C94.3219 36.5504 94.36 36.7906 94.3083 37.0196C94.2565 37.2487 94.1188 37.4492 93.9236 37.5797L72.7321 50.6202L92.9867 38.9272C93.1953 38.8138 93.4396 38.7857 93.6684 38.8488C93.8972 38.9119 94.0926 39.0613 94.2135 39.2656C94.3344 39.4699 94.3714 39.713 94.3166 39.944C94.2618 40.1749 94.1196 40.3756 93.9199 40.5039L83.4809 46.8655L92.9867 41.3765C93.195 41.2592 93.4408 41.2279 93.6718 41.2892C93.9028 41.3505 94.1008 41.4996 94.2234 41.7048C94.3461 41.9099 94.3838 42.1549 94.3284 42.3874C94.2731 42.6199 94.1292 42.8216 93.9272 42.9495L67.5272 59.2937L92.9867 44.5995C93.0904 44.5383 93.2051 44.498 93.3243 44.4811C93.4435 44.4641 93.5649 44.4708 93.6815 44.5008C93.7981 44.5307 93.9077 44.5834 94.0039 44.6557C94.1002 44.728 94.1813 44.8186 94.2426 44.9222C94.3038 45.0258 94.3441 45.1405 94.3611 45.2598C94.378 45.379 94.3713 45.5003 94.3413 45.6169C94.3114 45.7336 94.2587 45.8431 94.1864 45.9394C94.1141 46.0357 94.0236 46.1168 93.9199 46.178L92.7209 46.9022L92.9867 46.75C93.1946 46.6356 93.4387 46.6061 93.6678 46.668C93.8969 46.7298 94.093 46.878 94.2151 47.0815C94.3371 47.285 94.3755 47.5278 94.3222 47.759C94.2688 47.9902 94.1279 48.1918 93.9291 48.3212L61.9026 68.3247L92.9867 50.3782C93.1941 50.2642 93.4374 50.2348 93.6659 50.2961C93.8945 50.3574 94.0904 50.5047 94.2129 50.7071C94.3353 50.9096 94.3747 51.1515 94.3228 51.3824C94.271 51.6132 94.1318 51.8151 93.9346 51.9457L55.6839 76.1255L92.9867 54.5875C93.1958 54.4633 93.4457 54.4272 93.6814 54.4872C93.9171 54.5472 94.1193 54.6984 94.2435 54.9075C94.3677 55.1165 94.4038 55.3664 94.3438 55.6021C94.2838 55.8378 94.1327 56.04 93.9236 56.1642L76.5234 66.8287L92.9867 57.3247C93.1944 57.2138 93.4367 57.187 93.6635 57.2499C93.8903 57.3128 94.0842 57.4605 94.2051 57.6625C94.326 57.8644 94.3646 58.1051 94.3129 58.3347C94.2611 58.5644 94.1231 58.7653 93.9272 58.8959L67.3622 75.3555L92.9867 60.5605C93.1956 60.4415 93.4428 60.4093 93.6752 60.4708C93.9075 60.5323 94.1064 60.6827 94.229 60.8894C94.3516 61.0961 94.3881 61.3428 94.3307 61.5762C94.2732 61.8096 94.1263 62.011 93.9217 62.1372L79.1121 71.2049L92.9867 63.195C93.1939 63.0843 93.4356 63.0574 93.662 63.1197C93.8884 63.182 94.0823 63.3288 94.2036 63.5298C94.325 63.7309 94.3645 63.9709 94.3141 64.2002C94.2637 64.4296 94.1272 64.6309 93.9327 64.7625L64.0916 83.5505L92.9867 66.8672C93.1935 66.758 93.4342 66.7319 93.6596 66.7943C93.885 66.8567 94.078 67.0029 94.1991 67.203C94.3203 67.403 94.3603 67.6418 94.3111 67.8705C94.262 68.0991 94.1272 68.3003 93.9346 68.4329L67.3366 85.2995L92.9867 70.488C93.195 70.3707 93.4408 70.3394 93.6718 70.4007C93.9028 70.462 94.1008 70.6111 94.2234 70.8163C94.3461 71.0214 94.3838 71.2664 94.3284 71.4989C94.2731 71.7314 94.1292 71.9331 93.9272 72.061L81.7374 79.6437L92.9867 73.15C93.1943 73.0314 93.44 72.9986 93.6714 73.0585C93.9028 73.1185 94.1017 73.2665 94.2256 73.4709C94.3495 73.6754 94.3885 73.9202 94.3345 74.153C94.2805 74.3859 94.1376 74.5885 93.9364 74.7175L76.2667 85.9595L92.9959 76.3015C93.204 76.1815 93.451 76.148 93.6835 76.2082C93.9161 76.2684 94.1158 76.4176 94.2395 76.6235C94.3633 76.8294 94.4012 77.0757 94.3452 77.3093C94.2892 77.543 94.1437 77.7453 93.9401 77.8727L86.9276 82.2727L92.9959 78.771C93.2033 78.6441 93.4526 78.6048 93.689 78.6617C93.9253 78.7186 94.1294 78.8671 94.2563 79.0745C94.3832 79.2818 94.4226 79.5311 94.3657 79.7675C94.3088 80.0039 94.1603 80.208 93.9529 80.3349L79.3834 89.771L92.9959 81.9134C93.201 81.8009 93.4413 81.7712 93.6676 81.8301C93.894 81.8891 94.0892 82.0323 94.2134 82.2305C94.3375 82.4287 94.3812 82.6669 94.3355 82.8963C94.2899 83.1256 94.1582 83.3289 93.9676 83.4644L77.3521 94.721L92.9959 85.69C93.1998 85.5737 93.4405 85.5401 93.6685 85.596C93.8964 85.6519 94.0943 85.7931 94.2212 85.9906C94.3481 86.188 94.3945 86.4266 94.3507 86.6572C94.3069 86.8878 94.1764 87.0928 93.9859 87.23L78.9782 97.933L92.9959 89.8425C93.2015 89.7254 93.4443 89.6923 93.6738 89.7501C93.9032 89.8079 94.1014 89.9521 94.2269 90.1527C94.3524 90.3533 94.3955 90.5946 94.3471 90.8262C94.2988 91.0578 94.1628 91.2617 93.9676 91.3954L89.1752 94.6367L92.9959 92.4367C93.1988 92.3222 93.4377 92.2892 93.664 92.3445C93.8903 92.3998 94.0871 92.5392 94.2143 92.7344C94.3416 92.9296 94.3897 93.1659 94.349 93.3953C94.3083 93.6247 94.1817 93.8299 93.9951 93.9694L87.1439 98.9762L92.9867 95.6047C93.1816 95.5026 93.4066 95.474 93.6208 95.5241C93.835 95.5742 94.024 95.6996 94.1534 95.8774C94.2828 96.0553 94.3439 96.2738 94.3256 96.4929C94.3073 96.7121 94.2108 96.9174 94.0537 97.0714L87.4042 102.991L92.9867 99.7682C93.1726 99.6627 93.3894 99.6255 93.5998 99.6628C93.8101 99.7002 94.0008 99.81 94.1389 99.973C94.277 100.136 94.3537 100.342 94.3559 100.556C94.3581 100.77 94.2856 100.977 94.1509 101.143L91.0214 104.947L92.9867 103.814C93.1962 103.705 93.44 103.68 93.667 103.746C93.8941 103.812 94.0869 103.963 94.2053 104.168C94.3236 104.373 94.3582 104.615 94.302 104.845C94.2457 105.074 94.1029 105.273 93.9034 105.4L87.5582 109.067C87.3724 109.173 87.1551 109.212 86.9441 109.175C86.7331 109.138 86.5417 109.028 86.4031 108.865C86.2646 108.701 86.1876 108.494 86.1856 108.28C86.1836 108.066 86.2567 107.858 86.3922 107.692L89.5217 103.888L80.5512 109.06C80.3563 109.163 80.1307 109.192 79.9158 109.143C79.7008 109.093 79.511 108.968 79.3811 108.79C79.2511 108.611 79.1899 108.392 79.2085 108.172C79.2271 107.952 79.3244 107.747 79.4824 107.593L86.1319 101.673L73.3206 109.06C73.1177 109.174 72.8788 109.207 72.6525 109.152C72.4261 109.096 72.2294 108.957 72.1021 108.762C71.9749 108.567 71.9268 108.33 71.9675 108.101C72.0082 107.872 72.1348 107.666 72.3214 107.527L79.1634 102.526L67.8444 109.06C67.6393 109.172 67.399 109.202 67.1727 109.143C66.9463 109.084 66.7511 108.941 66.6269 108.742C66.5028 108.544 66.4591 108.306 66.5048 108.077C66.5505 107.847 66.6821 107.644 66.8727 107.509L71.6614 104.267L63.3582 109.06C63.1548 109.172 62.9161 109.203 62.6907 109.146C62.4653 109.089 62.2698 108.949 62.144 108.753C62.0182 108.558 61.9713 108.322 62.013 108.093C62.0546 107.864 62.1816 107.66 62.3682 107.521L77.3667 96.8239L56.1679 109.06C55.9627 109.175 55.7209 109.207 55.4927 109.149C55.2645 109.091 55.0674 108.947 54.9422 108.748C54.817 108.548 54.7734 108.308 54.8203 108.078C54.8673 107.847 55.0012 107.643 55.1944 107.509L71.8191 96.2464L49.6211 109.06C49.4144 109.175 49.1711 109.206 48.942 109.146C48.713 109.086 48.516 108.94 48.3923 108.738C48.2686 108.536 48.2279 108.294 48.2785 108.063C48.3292 107.832 48.4673 107.629 48.6641 107.498L63.2207 98.0559L44.1541 109.056C43.9464 109.172 43.7016 109.203 43.4714 109.142C43.2413 109.081 43.0438 108.933 42.9209 108.729C42.798 108.526 42.7593 108.282 42.8129 108.05C42.8664 107.818 43.0082 107.616 43.2081 107.487L50.2316 103.087L39.8952 109.06C39.6881 109.175 39.444 109.206 39.2145 109.146C38.985 109.085 38.7879 108.938 38.6646 108.735C38.5414 108.533 38.5016 108.29 38.5536 108.058C38.6057 107.827 38.7455 107.624 38.9437 107.494L56.6207 96.2592L34.4466 109.06C34.3078 109.142 34.1496 109.186 33.9882 109.188Z" fill="#E7EDEF"/>
  <path d="M80.7381 23.0029C80.5535 23.0031 80.3731 22.9475 80.2205 22.8434C80.068 22.7394 79.9505 22.5917 79.8833 22.4197C79.8161 22.2477 79.8025 22.0594 79.8441 21.8795C79.8857 21.6997 79.9807 21.5365 80.1166 21.4115L80.6006 20.9679L77.3006 22.8672C77.108 22.9742 76.8834 23.0083 76.6677 22.9632C76.4521 22.9182 76.2599 22.7969 76.1263 22.6217C75.9928 22.4465 75.9268 22.2291 75.9404 22.0092C75.954 21.7893 76.0464 21.5817 76.2006 21.4244L79.4639 18.183L74.3691 21.1255C74.1709 21.2403 73.937 21.2768 73.7133 21.2277C73.4897 21.1787 73.2924 21.0477 73.1605 20.8606C73.0285 20.6735 72.9714 20.4437 73.0003 20.2166C73.0292 19.9894 73.1421 19.7813 73.3168 19.6332L75.2271 18.0052L73.8448 18.8027C73.6479 18.9151 73.4164 18.9506 73.1949 18.9023C72.9735 18.854 72.7778 18.7253 72.6456 18.5412C72.5134 18.3571 72.4541 18.1305 72.4792 17.9052C72.5043 17.6799 72.612 17.4719 72.7814 17.3214L74.3123 15.9739L73.8448 16.2415C73.6584 16.3489 73.4402 16.3874 73.2283 16.3501C73.0165 16.3128 72.8245 16.2022 72.6859 16.0377C72.5474 15.8731 72.4711 15.6651 72.4705 15.45C72.4698 15.2349 72.5449 15.0264 72.6824 14.861L75.4324 11.583L73.8466 12.4997C73.6615 12.6056 73.4452 12.6437 73.235 12.6073C73.0249 12.5709 72.834 12.4624 72.6952 12.3004C72.5564 12.1384 72.4785 11.9331 72.4749 11.7198C72.4712 11.5066 72.542 11.2987 72.6751 11.132L73.8649 9.66537H73.8466C73.6628 9.77126 73.448 9.81014 73.2388 9.77541C73.0296 9.74067 72.8389 9.63446 72.6992 9.47488C72.5595 9.3153 72.4795 9.11221 72.4727 8.90024C72.466 8.68826 72.533 8.48051 72.6623 8.31238L73.1793 7.63954C72.9606 7.58842 72.7683 7.45881 72.6389 7.27531C72.5095 7.0918 72.4519 6.86718 72.4771 6.64404L72.8163 3.66671C72.7279 3.59526 72.6534 3.50828 72.5963 3.41004C72.4746 3.19972 72.4413 2.94969 72.5039 2.71489C72.5665 2.48009 72.7197 2.27974 72.9299 2.15787L73.3919 1.89021C73.5395 1.80627 73.7073 1.76445 73.877 1.7693C74.0467 1.77415 74.2119 1.82548 74.3544 1.91771C74.4962 2.01096 74.6094 2.14174 74.6812 2.2955C74.7531 2.44925 74.7808 2.61994 74.7614 2.78854L74.5048 5.04537L75.8596 4.26437C76.0434 4.15849 76.2581 4.11961 76.4674 4.15434C76.6766 4.18908 76.8673 4.29529 77.007 4.45487C77.1467 4.61445 77.2267 4.81753 77.2334 5.02951C77.2402 5.24149 77.1732 5.44924 77.0439 5.61737L76.9284 5.76954L77.2034 5.61004C77.3886 5.50306 77.6053 5.46417 77.8161 5.50012C78.0269 5.53607 78.2185 5.64458 78.3577 5.80688C78.497 5.96918 78.5751 6.17505 78.5786 6.38886C78.582 6.60267 78.5107 6.81097 78.3768 6.97771L77.1833 8.45904L79.0038 7.40854C79.1903 7.30011 79.4092 7.26097 79.6218 7.29803C79.8344 7.33509 80.0271 7.44597 80.166 7.61114C80.3049 7.77631 80.381 7.98518 80.381 8.20098C80.3811 8.41679 80.3049 8.62568 80.1661 8.79087L77.4161 12.067L81.3743 9.78271C81.5711 9.67032 81.8026 9.63485 82.0241 9.68314C82.2455 9.73144 82.4413 9.86008 82.5734 10.0442C82.7056 10.2284 82.7649 10.4549 82.7398 10.6802C82.7147 10.9055 82.607 11.1135 82.4376 11.264L80.9123 12.6079L82.9949 11.4052C83.1929 11.2909 83.4263 11.2546 83.6496 11.3036C83.8729 11.3525 84.0698 11.4831 84.2018 11.6697C84.3338 11.8563 84.3913 12.0855 84.363 12.3123C84.3348 12.5391 84.2228 12.7472 84.0491 12.8957L82.1333 14.5255L84.6596 13.0589C84.8522 12.9519 85.0768 12.9178 85.2925 12.9628C85.5081 13.0079 85.7003 13.1292 85.8339 13.3044C85.9674 13.4796 86.0334 13.697 86.0198 13.9169C86.0062 14.1367 85.9138 14.3444 85.7596 14.5017L82.4999 17.7595L86.8394 15.2534C87.0346 15.1416 87.2642 15.1055 87.4843 15.152C87.7044 15.1984 87.8997 15.3242 88.0331 15.5054C88.1665 15.6865 88.2286 15.9104 88.2076 16.1344C88.1866 16.3584 88.084 16.5668 87.9193 16.72L87.4353 17.1637L88.2713 16.6834C88.439 16.5869 88.6329 16.5459 88.8254 16.5664C89.0178 16.5869 89.1988 16.6677 89.3424 16.7974C89.4861 16.927 89.5851 17.0987 89.6251 17.288C89.6652 17.4773 89.6444 17.6745 89.5656 17.8512L88.6489 19.8807L90.4328 18.8504C90.541 18.7869 90.661 18.7463 90.7855 18.731C90.9101 18.7158 91.0364 18.7263 91.1567 18.7619C91.277 18.7975 91.3887 18.8574 91.4849 18.9379C91.5812 19.0184 91.6598 19.1177 91.7161 19.2299L92.5246 20.8285C92.7374 20.7602 92.9678 20.7719 93.1725 20.8615C93.3773 20.9511 93.5422 21.1124 93.6364 21.3151C93.7305 21.5178 93.7474 21.7479 93.6838 21.9622C93.6201 22.1764 93.4804 22.3601 93.2909 22.4785L92.5961 22.88C92.4879 22.9419 92.3683 22.9812 92.2444 22.9957C92.1206 23.0102 91.9952 22.9995 91.8756 22.9644C91.7574 22.9282 91.6477 22.8684 91.5532 22.7887C91.4587 22.709 91.3812 22.611 91.3256 22.5005L90.5263 20.9165L87.1254 22.88C86.9575 22.9776 86.7629 23.0194 86.5698 22.9993C86.3766 22.9792 86.1948 22.8982 86.0506 22.7681C85.9064 22.638 85.8073 22.4654 85.7675 22.2753C85.7277 22.0852 85.7493 21.8874 85.8293 21.7104L86.7459 19.6809L81.2056 22.88C81.0636 22.9621 80.9021 23.0045 80.7381 23.0029Z" fill="#728F6F"/>
  <path d="M43.6426 41.4297C43.4482 41.4293 43.259 41.3671 43.1023 41.2522C42.9456 41.1372 42.8295 40.9754 42.7707 40.7902C42.7119 40.6049 42.7136 40.4058 42.7754 40.2215C42.8372 40.0372 42.956 39.8774 43.1146 39.765L44.7426 38.6137L40.9256 40.8137C40.7231 40.9288 40.4844 40.9625 40.258 40.908C40.0316 40.8535 39.8344 40.7148 39.7065 40.5202C39.5786 40.3255 39.5296 40.0895 39.5694 39.86C39.6092 39.6305 39.7349 39.4248 39.9209 39.2847L44.9479 35.5575L37.5248 39.842C37.3221 39.9556 37.0839 39.988 36.8583 39.9327C36.6327 39.8773 36.4365 39.7384 36.3094 39.544C36.1823 39.3496 36.1337 39.1142 36.1735 38.8853C36.2133 38.6565 36.3385 38.4513 36.5238 38.3112L40.8999 35.1047L34.2834 38.9254C34.0913 39.0361 33.8656 39.0735 33.648 39.0306C33.4305 38.9876 33.2359 38.8673 33.1003 38.6918C32.9646 38.5164 32.8972 38.2977 32.9105 38.0764C32.9238 37.855 33.0168 37.646 33.1724 37.488L37.0371 33.5647L29.9128 37.6769C29.7572 37.7663 29.5789 37.8081 29.3998 37.7972C29.2207 37.7862 29.0488 37.7229 28.9053 37.6152C28.7618 37.5074 28.6531 37.36 28.5927 37.191C28.5323 37.0221 28.5227 36.8392 28.5653 36.6649L29.0548 34.6812L28.1033 35.2312C27.9989 35.2975 27.8823 35.342 27.7603 35.3621C27.6383 35.3822 27.5135 35.3774 27.3934 35.3479C27.2733 35.3185 27.1604 35.2651 27.0615 35.191C26.9626 35.1168 26.8797 35.0234 26.8179 34.9163C26.756 34.8093 26.7164 34.6909 26.7015 34.5681C26.6866 34.4454 26.6967 34.3209 26.7311 34.2022C26.7656 34.0835 26.8237 33.9729 26.902 33.8772C26.9802 33.7815 27.077 33.7027 27.1866 33.6453L29.9989 32.021C30.1545 31.931 30.3331 31.8887 30.5125 31.8994C30.6919 31.9101 30.8643 31.9733 31.008 32.0811C31.1518 32.1889 31.2607 32.3367 31.3212 32.5059C31.3817 32.6752 31.3911 32.8585 31.3483 33.033L30.8588 35.0167L41.9798 28.6C42.1717 28.4893 42.3972 28.4519 42.6145 28.4946C42.8319 28.5374 43.0265 28.6574 43.1622 28.8325C43.2979 29.0075 43.3657 29.2259 43.3529 29.447C43.3401 29.6682 43.2476 29.8773 43.0926 30.0355L39.2334 33.9552L54.5784 25.0929C54.7813 24.9783 55.0202 24.9454 55.2465 25.0007C55.4729 25.056 55.6696 25.1954 55.7969 25.3906C55.9241 25.5857 55.9722 25.822 55.9315 26.0514C55.8908 26.2808 55.7642 26.4861 55.5776 26.6255L51.2088 29.8265L57.9004 25.9619C58.1029 25.8467 58.3416 25.813 58.568 25.8675C58.7945 25.9221 58.9917 26.0607 59.1196 26.2554C59.2475 26.45 59.2965 26.686 59.2566 26.9155C59.2168 27.145 59.0911 27.3507 58.9051 27.4909L53.8763 31.2199L61.3013 26.9335C61.5053 26.8189 61.7455 26.7866 61.9725 26.8434C62.1996 26.9001 62.3963 27.0416 62.5224 27.2387C62.6485 27.4359 62.6945 27.6738 62.6508 27.9037C62.6072 28.1336 62.4772 28.3382 62.2876 28.4754L60.6376 29.6358L63.9834 27.7072C64.181 27.5918 64.4145 27.5545 64.6381 27.6025C64.8618 27.6506 65.0594 27.7805 65.1922 27.9667C65.3249 28.153 65.3832 28.3822 65.3557 28.6093C65.3281 28.8364 65.2166 29.0449 65.0431 29.194L58.4193 34.947L68.6493 29.04C68.8524 28.9245 69.0921 28.8909 69.3192 28.9461C69.5463 29.0014 69.7437 29.1413 69.8711 29.3373C69.9985 29.5332 70.0462 29.7705 70.0044 30.0004C69.9627 30.2304 69.8347 30.4358 69.6466 30.5745L68.9884 31.0548L71.2104 29.7715C71.4056 29.6597 71.6352 29.6236 71.8553 29.6701C72.0754 29.7166 72.2707 29.8424 72.4041 30.0235C72.5375 30.2047 72.5996 30.4286 72.5786 30.6525C72.5576 30.8765 72.455 31.085 72.2903 31.2382L67.5713 35.5887L75.5151 31.0054C75.7041 30.8959 75.926 30.8576 76.1408 30.8973C76.3556 30.9369 76.5491 31.052 76.6866 31.2217C76.8241 31.3916 76.8963 31.6051 76.8903 31.8236C76.8842 32.0421 76.8003 32.2513 76.6536 32.4134L72.7834 36.707L80.3001 32.3675C80.4593 32.2759 80.6423 32.2342 80.8255 32.2479C81.0086 32.2616 81.1834 32.3299 81.3273 32.4441C81.4711 32.5583 81.5773 32.7131 81.6321 32.8884C81.687 33.0637 81.6879 33.2514 81.6348 33.4272L81.0848 35.211L81.8786 34.7545C81.9829 34.6882 82.0996 34.6437 82.2216 34.6236C82.3436 34.6035 82.4684 34.6083 82.5885 34.6378C82.7085 34.6672 82.8214 34.7206 82.9203 34.7947C83.0192 34.8689 83.1021 34.9623 83.164 35.0694C83.2259 35.1764 83.2654 35.2948 83.2803 35.4176C83.2952 35.5403 83.2852 35.6648 83.2507 35.7835C83.2163 35.9022 83.1582 36.0128 83.0799 36.1085C83.0016 36.2042 82.9048 36.283 82.7953 36.3404L79.9903 37.961C79.831 38.0532 79.6478 38.0954 79.4643 38.082C79.2808 38.0687 79.1055 38.0004 78.9613 37.8861C78.8172 37.7718 78.7107 37.6167 78.6559 37.4411C78.601 37.2655 78.6003 37.0774 78.6538 36.9014L79.2038 35.1157L68.6823 41.1914C68.4932 41.3003 68.2714 41.3382 68.0569 41.2983C67.8423 41.2583 67.6491 41.1431 67.5119 40.9734C67.3746 40.8037 67.3025 40.5907 67.3083 40.3725C67.3142 40.1544 67.3977 39.9455 67.5438 39.7834L71.4139 35.4879L61.3306 41.305C61.1354 41.4168 60.9059 41.4529 60.6857 41.4064C60.4656 41.36 60.2703 41.2342 60.1369 41.053C60.0035 40.8719 59.9414 40.648 59.9624 40.424C59.9834 40.2 60.086 39.9916 60.2508 39.8384L64.9698 35.486L54.8864 41.3032C54.6833 41.4187 54.4436 41.4523 54.2165 41.3971C53.9894 41.3418 53.792 41.2019 53.6646 41.0059C53.5372 40.81 53.4895 40.5727 53.5313 40.3428C53.573 40.1128 53.701 39.9074 53.8891 39.7687L54.5473 39.292L51.0639 41.3087C50.8667 41.4218 50.6344 41.4575 50.4122 41.4089C50.1901 41.3604 49.9939 41.231 49.8619 41.0459C49.7298 40.8608 49.6712 40.6332 49.6975 40.4073C49.7238 40.1815 49.8332 39.9735 50.0043 39.8237L56.6318 34.067L44.0881 41.3087C43.9524 41.3864 43.799 41.428 43.6426 41.4297Z" fill="#1C372B"/>
  <path d="M57.4053 52.3545C57.2146 52.3542 57.0288 52.2944 56.8736 52.1834C56.7185 52.0725 56.6018 51.9159 56.5399 51.7356C56.478 51.5552 56.4738 51.36 56.5281 51.1771C56.5823 50.9943 56.6922 50.8329 56.8425 50.7155L56.9067 50.6642L54.1933 52.2298C53.9967 52.3419 53.7656 52.3773 53.5444 52.3291C53.3233 52.281 53.1278 52.1527 52.9955 51.969C52.8633 51.7853 52.8037 51.5592 52.8282 51.3342C52.8527 51.1092 52.9595 50.9013 53.1282 50.7503L60.1168 44.5848L46.8747 52.2262C46.6736 52.3388 46.4375 52.3715 46.2134 52.3179C45.9893 52.2642 45.7937 52.1282 45.6654 51.9368C45.5371 51.7453 45.4856 51.5126 45.5211 51.285C45.5566 51.0573 45.6766 50.8514 45.8572 50.7082L52.8238 45.3347L43.4023 50.7723C43.2021 50.8865 42.9662 50.9211 42.7416 50.8691C42.517 50.8171 42.3202 50.6825 42.1905 50.4919C42.0608 50.3014 42.0076 50.0689 42.0416 49.8409C42.0756 49.6129 42.1942 49.4061 42.3738 49.2617L48.9738 44.0202L42.68 47.6575C42.4861 47.7743 42.2558 47.8151 42.0336 47.7723C41.8113 47.7294 41.6128 47.6058 41.4762 47.4253C41.3396 47.2448 41.2747 47.0201 41.2938 46.7946C41.313 46.569 41.4149 46.3585 41.58 46.2037L46.486 41.4792L42.6727 43.6792C42.5 43.7813 42.2983 43.8233 42.0992 43.7984C41.9001 43.7735 41.7149 43.6832 41.5727 43.5417C41.4287 43.4015 41.3347 43.218 41.3052 43.0192C41.2758 42.8205 41.3124 42.6176 41.4095 42.4417L42.6177 40.2417C42.4049 40.31 42.1745 40.2983 41.9697 40.2087C41.765 40.1191 41.6 39.9578 41.5059 39.7551C41.4117 39.5524 41.3949 39.3223 41.4585 39.108C41.5221 38.8938 41.6618 38.7101 41.8513 38.5917L44.528 37.0462C44.7012 36.9467 44.9021 36.9065 45.1002 36.9317C45.2984 36.9569 45.4828 37.0461 45.6256 37.1857C45.7684 37.3254 45.8616 37.5079 45.8912 37.7054C45.9207 37.9029 45.885 38.1047 45.7893 38.28L44.5958 40.4562L52.0703 36.1405C52.2643 36.0237 52.4945 35.9829 52.7168 36.0258C52.939 36.0686 53.1376 36.1922 53.2741 36.3727C53.4107 36.5532 53.4757 36.7779 53.4565 37.0034C53.4374 37.229 53.3354 37.4395 53.1703 37.5943L48.2643 42.3188L58.7968 36.2377C58.9971 36.1235 59.233 36.0889 59.4576 36.1409C59.6822 36.1929 59.8789 36.3275 60.0087 36.5181C60.1384 36.7086 60.1916 36.9411 60.1576 37.1691C60.1236 37.3971 60.005 37.6039 59.8253 37.7483L53.2253 42.9935L63.8 36.883C64.0011 36.7704 64.2371 36.7377 64.4612 36.7913C64.6853 36.8449 64.881 36.981 65.0093 37.1724C65.1376 37.3638 65.1891 37.5965 65.1536 37.8242C65.118 38.0519 64.998 38.2578 64.8175 38.401L57.8508 43.7782L67.1513 38.4102C67.3482 38.296 67.5805 38.2592 67.8031 38.3069C68.0256 38.3545 68.2225 38.4833 68.3553 38.668C68.4882 38.8528 68.5476 39.0804 68.5219 39.3066C68.4963 39.5327 68.3874 39.7412 68.2165 39.8915L61.2333 46.0552L67.3292 42.537C67.5297 42.4257 67.7648 42.3936 67.9878 42.4471C68.2109 42.5006 68.4058 42.6358 68.5341 42.826C68.6623 43.0162 68.7146 43.2475 68.6806 43.4744C68.6466 43.7013 68.5287 43.9071 68.3503 44.0513L67.7343 44.5353C67.8761 44.5307 68.0171 44.5574 68.1473 44.6135C68.2776 44.6695 68.3938 44.7537 68.4878 44.8598C68.6255 45.0247 68.7009 45.2326 68.7009 45.4474C68.7009 45.6622 68.6255 45.8702 68.4878 46.035L66.7902 48.081L67.221 47.8262C67.3253 47.7598 67.442 47.7153 67.564 47.6952C67.686 47.6752 67.8108 47.68 67.9309 47.7094C68.0509 47.7388 68.1638 47.7922 68.2627 47.8664C68.3616 47.9406 68.4445 48.034 68.5064 48.141C68.5683 48.2481 68.6078 48.3665 68.6227 48.4892C68.6377 48.612 68.6276 48.7364 68.5931 48.8552C68.5587 48.9739 68.5006 49.0844 68.4223 49.1801C68.344 49.2758 68.2472 49.3547 68.1377 49.412L63.25 52.2262C63.0638 52.3336 62.8457 52.3722 62.6339 52.3352C62.4222 52.2982 62.2301 52.1879 62.0914 52.0237C61.9527 51.8594 61.8761 51.6516 61.8751 51.4366C61.8741 51.2216 61.9487 51.0131 62.0858 50.8475L63.7853 48.8052L57.8637 52.2262C57.7251 52.3091 57.5668 52.3534 57.4053 52.3545Z" fill="#1C372B"/>
  <path d="M15.1707 82.9364C16.5549 89.6593 11.6874 105.934 18.4708 108.939C41.9044 109.254 65.4609 109.184 88.9276 109.091C100.28 108.972 92.7923 82.2361 94.8254 73.9604C94.4203 56.6629 95.5991 39.2389 94.4258 22.0367C94.4528 21.9365 94.4461 21.8301 94.4067 21.734C94.3672 21.6379 94.2973 21.5575 94.2076 21.5051C88.0266 14.2973 81.2579 7.61505 73.9713 1.52725C58.1771 0.680249 42.0914 1.51075 26.2001 1.22842C14.9508 -0.166751 14.3824 4.89508 15.1726 14.6117C15.1714 37.3866 15.1707 60.1615 15.1707 82.9364ZM87.8808 18.2949C88.9599 19.2536 89.9885 20.2676 90.9626 21.3328C72.9959 21.8241 74.2188 22.9186 74.6661 5.01608C79.2384 9.23825 83.4881 13.9096 87.8808 18.2949ZM17.8291 5.54042C16.1113 -0.256584 65.1474 3.62458 72.0004 3.05625C71.3313 24.6437 70.4568 23.5676 91.9471 22.9497C92.5998 50.1528 91.9471 77.5556 92.1708 104.823C91.9434 107.641 90.3081 107.562 88.2951 107.562H22.1833C19.0006 107.943 17.2589 105.492 17.8309 102.331C17.8321 70.0707 17.8315 37.8071 17.8291 5.54042Z" fill="#262626"/>
  <path d="M30.1435 38.1408L40.7769 41.1749C39.9959 48.5339 41.303 53.9771 50.0095 52.4408C59.794 52.3418 71.9912 55.3961 69.1697 40.9806L77.4985 38.5973C76.4279 53.5004 81.321 50.6001 80.1532 37.8639C95.0435 32.0266 60.212 27.3736 56.3474 25.1241C52.6349 25.6264 13.8324 33.3429 30.1435 38.1408ZM64.2857 50.5433C58.7417 49.5221 46.418 53.2511 43.569 48.1599C43.217 45.4943 43.602 42.6728 43.5195 39.9833C45.6792 36.6961 64.3645 36.7346 66.4985 40.2234C65.8312 43.3401 68.3465 49.5166 64.2857 50.5433ZM29.214 33.9094C37.5264 31.4894 46.1449 29.0804 54.514 26.6806C57.9332 28.1949 83.4807 32.8828 80.925 36.0306C77.2162 37.4019 72.9427 38.1169 69.1275 39.3966C66.5224 34.1973 44.2584 34.5254 41.0372 39.2371C39.0315 38.0326 27.146 37.0518 29.214 33.9094Z" fill="#262626"/>
  <path d="M25.1862 63.3821H83.8529C85.028 63.3821 86.6029 61.6038 84.8135 61.6038H26.1469C24.9717 61.6038 23.3969 63.3821 25.1862 63.3821Z" fill="#262626"/>
  <path d="M76.2666 73.9952C107.877 72.6954 32.8312 72.9356 26.5392 72.9924C26.0186 72.9924 23.5546 73.9952 24.7939 73.9952H76.2666Z" fill="#262626"/>
  <path d="M85.193 83.9429C65.8367 84.9879 42.0895 81.9134 24.8066 85.0429C44.163 83.9979 67.9102 87.0724 85.193 83.9429Z" fill="#262626"/>
  <path d="M24.7976 96.0099C37.3614 95.0089 54.8093 97.9422 65.0356 94.9795C52.4718 95.9769 35.0166 93.0435 24.7976 96.0099Z" fill="#262626"/>
  </svg>
  