<svg width="54" height="55" viewBox="0 0 54 55" fill="none" xmlns="http://www.w3.org/2000/svg">
  <g clip-path="url(#clip0_280_544)">
  <path fill-rule="evenodd" clip-rule="evenodd" d="M14.664 53.6459C14.5059 53.6434 14.3596 53.5617 14.2745 53.4286C14.1485 53.2125 14.2165 52.9359 14.4284 52.8032L16.4941 51.5259L12.9338 53.5824C12.7961 53.6923 12.607 53.7122 12.4494 53.6335C12.2918 53.5551 12.194 53.3921 12.1985 53.2158C12.2035 53.0396 12.3101 52.8824 12.4718 52.8123L21.9118 46.8783L10.2793 53.5824C10.069 53.7069 9.79779 53.638 9.67255 53.4286C9.54524 53.2179 9.60993 52.9442 9.81729 52.8123L23.1165 44.4054L7.5617 53.383C7.34605 53.507 7.07152 53.434 6.94545 53.22C6.82021 53.0072 6.88863 52.7331 7.0993 52.6042L21.4767 43.5445L6.62861 52.1509C6.41545 52.2765 6.14133 52.2077 6.01236 51.997C5.89997 51.7909 5.96757 51.533 6.16621 51.4081L14.5644 46.2351L6.52867 50.8466C6.31592 50.9719 6.0418 50.9034 5.91283 50.6924C5.84979 50.5895 5.8303 50.4651 5.85933 50.3477C5.88836 50.2304 5.96301 50.1296 6.06668 50.0674L14.5644 44.84L6.52867 49.4785C6.31592 49.6038 6.0418 49.5353 5.91283 49.3247C5.84689 49.2206 5.82574 49.0945 5.85477 48.9746C5.8838 48.8552 5.96052 48.7524 6.06668 48.6906L7.44392 47.857L6.53779 48.3825C6.32753 48.5069 6.05632 48.438 5.93066 48.2282C5.80376 48.0175 5.86804 47.7442 6.07581 47.6123L20.9604 38.281L8.54911 45.4472C8.33596 45.5724 8.06184 45.504 7.93286 45.2933C7.80679 45.0772 7.87522 44.8006 8.08713 44.6679L16.7657 39.305L10.361 43.0012C10.1461 43.1236 9.87286 43.051 9.7472 42.8387C9.62113 42.6259 9.68831 42.3518 9.89898 42.222L19.3389 36.3423L12.2632 40.4284C12.0484 40.5582 11.7685 40.4893 11.6383 40.2741C11.508 40.0589 11.5773 39.7794 11.7921 39.6492L26.2873 30.327L14.8361 36.9133C14.6258 37.0187 14.3695 36.9453 14.2468 36.7446C14.124 36.5438 14.1754 36.2826 14.365 36.1432L27.3382 27.745L17.3728 33.5069C17.27 33.5687 17.1464 33.5866 17.0303 33.5555C16.9141 33.5248 16.8154 33.4485 16.757 33.344C16.6301 33.1333 16.6944 32.8596 16.9017 32.7277L24.9827 27.5729L19.3476 30.8255C19.1349 30.9507 18.8608 30.8819 18.7318 30.6712C18.6049 30.4605 18.6692 30.1872 18.8765 30.0553L22.7632 27.6003L20.9513 28.642C20.7377 28.7623 20.4673 28.6947 20.3351 28.4878C20.2065 28.2796 20.2666 28.0067 20.4711 27.8719L30.7898 20.9687L23.5424 25.1722C23.3292 25.2974 23.0551 25.229 22.9261 25.0183C22.7984 24.8048 22.8623 24.5286 23.0713 24.393L25.6984 22.7171L25.1004 23.0613C24.8844 23.1799 24.6136 23.1082 24.4846 22.8984C24.3577 22.6877 24.422 22.4144 24.6293 22.2821L26.4412 21.15C26.228 21.1927 26.0145 21.0778 25.9328 20.8762C25.8506 20.6747 25.9236 20.4437 26.1061 20.3255L33.4352 15.2342L29.0505 17.7618C28.8403 17.8862 28.569 17.8174 28.4434 17.6075C28.3132 17.4014 28.3692 17.1294 28.5703 16.9917L32.2666 14.4732L30.8984 15.2611C30.6923 15.3719 30.436 15.3072 30.3067 15.1122C30.1777 14.9173 30.2179 14.6561 30.4004 14.5093L34.3409 11.6739L32.955 12.4801C32.7501 12.607 32.4818 12.5514 32.3441 12.3536C32.2064 12.1558 32.2483 11.885 32.4387 11.737L35.41 9.31839L35.211 9.42704C35.0202 9.54482 34.7714 9.50211 34.6308 9.32751C34.4861 9.1579 34.4861 8.90783 34.6308 8.73863L36.4426 6.77251C36.3328 6.55935 36.4082 6.29684 36.6152 6.17451L37.4122 5.72165C37.6009 5.60926 37.8435 5.65156 37.9829 5.82118C38.128 5.99079 38.128 6.24086 37.9829 6.41006L37.2493 7.23449L39.7947 5.74902C39.9983 5.62709 40.2617 5.68681 40.3927 5.88463C40.525 6.07995 40.4856 6.34371 40.3023 6.49176L37.3397 8.91074L41.7608 6.35573C41.9694 6.23505 42.2361 6.2985 42.3676 6.50088C42.4998 6.7045 42.448 6.97613 42.2498 7.11672L38.3092 9.94335L42.2589 7.65127C42.4716 7.51857 42.7516 7.58368 42.8843 7.79642C43.0166 8.00875 42.9519 8.28868 42.7391 8.42138L39.0429 10.9399L42.2589 9.08284C42.47 8.9634 42.7375 9.03141 42.866 9.23669C42.9311 9.33539 42.9544 9.45566 42.9303 9.57095C42.9067 9.68665 42.8378 9.78825 42.7391 9.85295L35.41 14.9534L42.2589 10.9942C42.4721 10.869 42.7462 10.9374 42.8752 11.1481C43.0029 11.3616 42.9386 11.6378 42.73 11.7735L41.4797 12.5705L42.2589 12.1177C42.4741 11.9874 42.7541 12.0567 42.8843 12.2715C43.0141 12.4867 42.9452 12.7667 42.73 12.8969L40.0937 14.5818L42.2589 13.3589C42.4692 13.2345 42.7404 13.3033 42.866 13.5127C42.9962 13.7188 42.9403 13.9909 42.7391 14.129L32.4204 21.0048L42.2589 15.3246C42.4696 15.2192 42.7254 15.2922 42.8482 15.4934C42.9714 15.6941 42.9199 15.9553 42.73 16.0947L38.8347 18.5497L42.2589 16.5749C42.4721 16.4497 42.7462 16.5181 42.8752 16.7288C43.0029 16.9423 42.9386 17.2185 42.73 17.3541L34.6399 22.5089L42.2589 18.1151C42.3609 18.0521 42.4837 18.0334 42.5994 18.0625C42.7155 18.0911 42.8146 18.1657 42.8752 18.269C43.0021 18.4797 42.9378 18.753 42.73 18.8848L29.7572 27.283L42.2589 20.0356C42.475 19.917 42.7462 19.9888 42.8752 20.1986C43.0021 20.4093 42.9378 20.6826 42.73 20.8145L28.2352 30.1366L42.2589 22.0378C42.4696 21.9321 42.7254 22.0055 42.8482 22.2062C42.9714 22.4069 42.9199 22.6686 42.73 22.8075L33.2901 28.7598L42.2589 23.5776C42.4721 23.4524 42.7462 23.5208 42.8752 23.7319C42.9378 23.8335 42.9569 23.9563 42.9278 24.0724C42.8988 24.1881 42.8241 24.2876 42.7209 24.3477L34.0419 29.6655L42.2589 24.9275C42.4696 24.8222 42.7254 24.8956 42.8482 25.0963C42.9714 25.297 42.9199 25.5583 42.73 25.6976L27.8363 35.038L42.2589 26.7215C42.4721 26.5963 42.7462 26.6647 42.8752 26.8754C43.0012 27.091 42.9328 27.3681 42.7209 27.5003L41.3167 28.3521L42.2228 27.8085C42.4356 27.6832 42.7097 27.7517 42.8387 27.9623C42.9017 28.0656 42.9212 28.1896 42.8922 28.3074C42.8631 28.4247 42.7885 28.5255 42.6848 28.5877L34.1871 33.8151L42.2228 29.1766C42.4356 29.0513 42.7097 29.1198 42.8387 29.3304C42.9013 29.432 42.9204 29.5548 42.8913 29.6709C42.8623 29.787 42.7881 29.8861 42.6848 29.9467L34.3592 35.1015L42.2589 30.5717C42.3617 30.5099 42.4853 30.492 42.6014 30.5227C42.7176 30.5534 42.8163 30.6301 42.8752 30.7346C43.0021 30.9453 42.9378 31.2186 42.73 31.3509L28.3439 40.4101L42.2589 32.3744C42.4696 32.269 42.7254 32.342 42.8482 32.5432C42.9714 32.7439 42.9199 33.0052 42.73 33.1445L29.4308 41.4428L42.2589 34.0415C42.3617 33.9793 42.4853 33.9619 42.6014 33.9926C42.7176 34.0233 42.8163 34.0996 42.8752 34.2045C43.0021 34.4152 42.9378 34.6884 42.73 34.8203L33.2809 40.7904L42.2589 35.6087C42.4737 35.4863 42.747 35.5585 42.8727 35.7712C42.9987 35.9836 42.9311 36.2581 42.7209 36.3879L40.6374 37.6743L42.2589 36.7682C42.3617 36.7064 42.4853 36.6886 42.6014 36.7193C42.7176 36.7499 42.8163 36.8267 42.8752 36.9312C43.0021 37.1418 42.9378 37.4156 42.73 37.5474L39.8582 39.3593L42.2589 37.9733C42.4696 37.8676 42.7254 37.941 42.8482 38.1417C42.9714 38.3424 42.9199 38.6037 42.73 38.743L38.7803 41.2346L42.2589 39.2233C42.4725 39.103 42.7433 39.1706 42.8752 39.3775C42.9987 39.5865 42.9394 39.8557 42.7391 39.9934L35.2653 44.84L42.2589 40.7995C42.4716 40.6673 42.7516 40.732 42.8843 40.9447C43.0166 41.1574 42.9519 41.437 42.7391 41.5697L35.6999 46.3168L42.2589 42.5301C42.47 42.4107 42.7375 42.4787 42.866 42.684C42.9316 42.7798 42.956 42.898 42.9336 43.012C42.9116 43.126 42.8449 43.2264 42.7483 43.2911L35.7907 48.3099L42.2589 44.5775C42.4667 44.4515 42.7375 44.5161 42.866 44.7223C42.9942 44.9221 42.9469 45.1867 42.7574 45.3294L38.291 48.5906L42.2589 46.3077C42.4654 46.1849 42.7317 46.2446 42.866 46.4437C42.9917 46.6419 42.949 46.9032 42.7665 47.0508L39.7947 49.3425L42.2771 47.9113C42.4745 47.7973 42.7263 47.8479 42.864 48.0295C43.0021 48.2112 42.9834 48.467 42.8208 48.6271L40.3745 51.0731L42.2771 49.9679C42.4646 49.8567 42.7039 49.8949 42.8478 50.0583C42.9776 50.23 42.9776 50.4668 42.8478 50.638L42.0598 51.6711C42.1996 51.569 42.385 51.5562 42.538 51.6366C42.6906 51.7175 42.7843 51.8784 42.7789 52.0514C42.7736 52.2243 42.6703 52.379 42.5127 52.4499L40.5196 53.6007C40.3322 53.7114 40.0925 53.6733 39.949 53.5099C39.8138 53.3436 39.8138 53.1055 39.949 52.9392L40.7369 51.9066L37.8108 53.5824C37.6154 53.6952 37.3666 53.6471 37.2277 53.4692C37.0883 53.2913 37.1016 53.0384 37.2584 52.8758L39.7134 50.4299L34.2775 53.5824C34.0714 53.7052 33.8051 53.6455 33.6708 53.4464C33.5347 53.2474 33.5783 52.9766 33.7703 52.8306L36.7508 50.5476L31.4604 53.5824C31.2543 53.6932 30.9976 53.6285 30.8686 53.4336C30.7392 53.2387 30.7798 52.9774 30.9619 52.8306L35.4283 49.5963L28.4616 53.5824C28.2572 53.6778 28.0133 53.6082 27.8902 53.4191C27.767 53.2299 27.8023 52.979 27.9723 52.8306L34.9389 47.7844L24.9735 53.5642C24.7662 53.6637 24.5178 53.592 24.395 53.3975C24.2723 53.203 24.3146 52.9475 24.4933 52.8032L31.5417 48.0474L21.9296 53.5824C21.7193 53.7069 21.4481 53.638 21.3229 53.4286C21.1939 53.22 21.2545 52.9471 21.4585 52.8123L28.9236 47.9205L19.1034 53.5824C18.8931 53.7069 18.6215 53.638 18.4963 53.4286C18.3694 53.2179 18.4336 52.9442 18.641 52.8123L22.5819 50.3212L16.9291 53.5824C16.7205 53.6724 16.4775 53.5945 16.3609 53.3996C16.244 53.2051 16.2892 52.9538 16.4671 52.8123L19.3476 51.0005L14.8904 53.5824C14.8228 53.6256 14.744 53.6476 14.664 53.6459Z" fill="#AA8652"/>
  <path fill-rule="evenodd" clip-rule="evenodd" d="M15.6515 48.2104C15.4935 48.2079 15.3471 48.1262 15.2621 47.9926C15.1352 47.7824 15.1995 47.5087 15.4073 47.3768L20.6525 44.0069L13.5229 48.1469C13.3122 48.2522 13.0563 48.1793 12.9336 47.9781C12.8104 47.7774 12.8618 47.5161 13.0517 47.3768L24.1858 40.0295L10.1256 48.183C9.91491 48.2887 9.65904 48.2153 9.53628 48.0146C9.41312 47.8139 9.46454 47.5522 9.65447 47.4129L15.09 44.0339L7.81525 48.1469C7.67757 48.2568 7.48847 48.2767 7.33088 48.1979C7.17329 48.1191 7.07542 47.9561 7.08039 47.7803C7.08496 47.6041 7.19154 47.4469 7.35327 47.3768L14.5285 42.8926L5.46885 48.1469C5.25859 48.2522 5.0023 48.1793 4.87955 47.9781C4.7568 47.7774 4.80822 47.5161 4.99774 47.3768L20.1814 37.6287L2.24368 47.9748C2.13834 48.0316 2.01435 48.0436 1.9003 48.0076C1.78584 47.9719 1.69088 47.8914 1.63696 47.7845C1.52499 47.5908 1.57103 47.3445 1.74562 47.2047L4.1646 45.7279L1.41053 47.3407C1.2065 47.4402 0.960164 47.3697 0.839485 47.1773C0.712585 46.9667 0.776864 46.6934 0.984632 46.5615L17.9436 35.799L1.09328 45.5376C0.877223 45.6562 0.60642 45.5844 0.477447 45.3746C0.351791 45.1619 0.420632 44.8877 0.631302 44.7588L8.78484 39.7487L1.09328 44.1608C0.990438 44.2225 0.866855 44.2404 0.750738 44.2097C0.63462 44.1786 0.53592 44.1023 0.477447 43.9978C0.350132 43.7871 0.414826 43.5134 0.622179 43.3815L16.0231 33.7243L1.09328 42.3489C0.990438 42.4107 0.866855 42.4285 0.750738 42.3974C0.63462 42.3667 0.53592 42.2904 0.477447 42.1859C0.350132 41.9753 0.414826 41.7015 0.622179 41.5697L17.0197 31.2331L1.09328 40.4554C0.990438 40.5171 0.866855 40.535 0.750738 40.5043C0.63462 40.4736 0.53592 40.3969 0.477447 40.2924C0.350132 40.0817 0.414826 39.8084 0.622179 39.6761L17.4547 29.0497L1.09328 38.4988C0.990438 38.5606 0.866855 38.578 0.750738 38.5473C0.63462 38.5166 0.53592 38.4403 0.477447 38.3354C0.350132 38.1247 0.414826 37.8514 0.622179 37.7195L14.791 28.8685L1.09328 36.7773C0.883029 36.8827 0.626741 36.8097 0.503988 36.6085C0.381235 36.4078 0.432658 36.1466 0.622179 36.0072L14.4286 27.41L1.09328 35.1015C0.990438 35.1633 0.866855 35.1807 0.750738 35.15C0.63462 35.1193 0.53592 35.043 0.477447 34.9381C0.350132 34.7274 0.414826 34.4541 0.622179 34.3223L11.6202 27.5095L1.09328 33.5882C0.883029 33.694 0.626741 33.6206 0.503988 33.4199C0.381235 33.2192 0.432658 32.9575 0.622179 32.8185L18.4056 21.5124L1.09328 31.4774C0.880126 31.603 0.60642 31.5342 0.477447 31.3235C0.349302 31.11 0.413582 30.8338 0.622179 30.6986L11.8105 23.7771L1.09328 30.0189C0.883029 30.1246 0.626741 30.0512 0.503988 29.8505C0.381235 29.6498 0.432658 29.3881 0.622179 29.2488L17.672 18.4685L1.09328 28.044C0.98712 28.1038 0.86105 28.1174 0.744517 28.0814C0.627985 28.0457 0.531358 27.9632 0.477447 27.8537C0.350132 27.643 0.414826 27.3697 0.622179 27.2378L16.476 17.2725L1.07504 26.1505C0.877638 26.2732 0.619276 26.2264 0.477447 26.0418C0.349302 25.8287 0.413582 25.5521 0.622179 25.4169L5.64095 22.3364L1.11153 24.964C0.898373 25.0893 0.624252 25.0204 0.495279 24.8097C0.391602 24.6115 0.445099 24.3668 0.622179 24.23L10.7236 17.9882L1.08416 23.5142C0.978826 23.5714 0.854829 23.583 0.740785 23.5474C0.626326 23.5113 0.531358 23.4308 0.477447 23.3243C0.350132 23.1136 0.414826 22.8399 0.622179 22.708L17.2735 12.1811L1.08416 21.5124C0.871417 21.6377 0.597296 21.5688 0.468323 21.3581C0.346814 21.1417 0.414411 20.8684 0.622179 20.7332L6.3841 17.1908L1.08416 20.2621C0.8681 20.3807 0.597296 20.3089 0.468323 20.0991C0.343082 19.8859 0.411508 19.6118 0.622179 19.4828L7.18117 15.4424L1.08416 18.9305C0.946479 19.0399 0.757373 19.0598 0.599785 18.9815C0.442196 18.9027 0.344326 18.7397 0.349302 18.5639C0.353864 18.3876 0.460444 18.23 0.622179 18.1603L6.40194 14.5366L1.08416 17.6258C0.982144 17.6847 0.860635 17.7009 0.747005 17.6702C0.632961 17.6395 0.53592 17.5648 0.477447 17.4628C0.353449 17.2534 0.412752 16.9842 0.613055 16.8466L9.61798 11.0938L1.08416 16.0221C0.869344 16.1445 0.596467 16.0723 0.470397 15.8596C0.344326 15.6472 0.411923 15.3727 0.622179 15.2433L3.72957 13.2863L1.08416 14.8174C0.873905 14.9227 0.617617 14.8498 0.494864 14.6486C0.372111 14.4479 0.423535 14.1866 0.613055 14.0473L9.07472 8.43964L1.08416 13.0508C0.868929 13.181 0.589417 13.1117 0.459199 12.8969C0.328982 12.6817 0.397823 12.4017 0.613055 12.2715L2.57918 11.0125L1.08416 11.9182C0.863952 12.0314 0.593564 11.9468 0.477447 11.7283C0.346814 11.5221 0.402799 11.2497 0.603932 11.112L6.61053 7.0172L1.08416 10.188C0.875564 10.3091 0.608908 10.2453 0.477447 10.0429C0.345985 9.84218 0.398238 9.57345 0.595223 9.43618L6.09422 5.4409L5.36932 5.85768C5.16984 5.97546 4.91356 5.9203 4.78044 5.73078C4.63612 5.54873 4.65976 5.2858 4.83476 5.13277L8.84829 1.50907C8.78525 1.30421 8.87151 1.08276 9.05647 0.974518L10.1347 0.313062C10.3367 0.194456 10.5959 0.249612 10.7323 0.439962C10.87 0.625751 10.8426 0.885356 10.6693 1.03797L8.53104 2.98584L13.1695 0.313062C13.3781 0.192383 13.6448 0.255833 13.7762 0.458209C13.9077 0.658927 13.8554 0.928071 13.6585 1.06534L8.16858 5.0602L16.3856 0.313062C16.5933 0.187406 16.8641 0.251686 16.9927 0.458209C17.0578 0.556495 17.081 0.676759 17.057 0.792462C17.0333 0.908165 16.9645 1.00935 16.8658 1.07405L10.8592 5.20535L19.3117 0.313062C19.522 0.207727 19.7783 0.28113 19.901 0.481848C20.0238 0.682565 19.9724 0.94383 19.7828 1.08317L17.7989 2.35176L21.3409 0.313062C21.5511 0.18865 21.8224 0.257492 21.948 0.467333C22.0766 0.675515 22.0164 0.948392 21.812 1.08317L13.3507 6.69124L24.394 0.313062C24.6071 0.187821 24.8812 0.256662 25.0102 0.467333C25.1354 0.680077 25.067 0.954198 24.8559 1.08317L21.7577 3.04017L26.4866 0.322186C26.5882 0.255833 26.7122 0.233853 26.8304 0.261224C26.9481 0.288595 27.0501 0.362827 27.1119 0.467333C27.1762 0.566862 27.1978 0.687956 27.1725 0.803659C27.1468 0.919362 27.0763 1.02014 26.9759 1.08317L17.9527 6.8451L29.268 0.313062C29.4782 0.18865 29.7495 0.257492 29.8751 0.467333C30.002 0.678003 29.9377 0.951295 29.73 1.08317L23.9411 4.70687L31.5327 0.313062C31.7459 0.187821 32.02 0.256662 32.149 0.467333C32.2116 0.568936 32.2307 0.691689 32.2016 0.807806C32.1726 0.923509 32.0979 1.02304 31.9947 1.08317L25.4813 5.13277L33.8339 0.313062C34.0442 0.18865 34.3154 0.257492 34.441 0.467333C34.5688 0.680492 34.5045 0.957101 34.2959 1.09229L28.5431 4.62559L35.7092 0.494289C35.9195 0.388953 36.1758 0.462356 36.2985 0.663074C36.4213 0.863792 36.3698 1.12506 36.1803 1.2644L19.5112 11.8369L36.724 1.87153C36.8268 1.80974 36.9504 1.7919 37.0665 1.82259C37.1827 1.85328 37.2809 1.93 37.3398 2.03451C37.4667 2.24518 37.4025 2.51847 37.1951 2.65076L27.1119 8.88338L36.8235 3.29397C37.0367 3.16831 37.3104 3.23715 37.4394 3.44782C37.5658 3.66347 37.4974 3.9405 37.2855 4.07279L32.2846 7.12585L36.8144 4.50781C37.0251 4.40248 37.2809 4.47547 37.4037 4.67618C37.5269 4.8769 37.4754 5.13858 37.2855 5.27792L21.4135 15.2433L36.8144 6.35574C36.9172 6.29395 37.0408 6.27653 37.1569 6.30722C37.2731 6.33791 37.3718 6.41422 37.4306 6.51914C37.5575 6.72939 37.4933 7.0031 37.2855 7.13497L20.2448 17.8883L36.8235 8.3397C37.0383 8.21736 37.3112 8.28993 37.4373 8.50226C37.5634 8.715 37.4958 8.98913 37.2855 9.11893L26.1063 16.0765L36.8235 9.87991C37.0396 9.76131 37.3104 9.83305 37.4394 10.0429C37.5667 10.2536 37.502 10.5273 37.2946 10.6591L19.493 21.9201L36.8235 11.9547C37.0367 11.8294 37.3104 11.8979 37.4394 12.1085C37.5024 12.2101 37.5211 12.3329 37.492 12.449C37.4634 12.5651 37.3888 12.6642 37.2855 12.7248L26.3145 19.5193L36.8235 13.4493C36.9264 13.3875 37.0499 13.3697 37.1661 13.4008C37.2822 13.4315 37.3809 13.5078 37.4394 13.6123C37.5667 13.8229 37.502 14.0966 37.2946 14.2285L23.4882 22.7897L36.7962 15.1073C37.0068 15.0019 37.2627 15.0749 37.3859 15.2757C37.5086 15.4764 37.4572 15.7381 37.2673 15.8774L23.1349 24.7285L36.8235 16.8196C37.0388 16.6894 37.3187 16.7582 37.4485 16.9735C37.5787 17.1887 37.5099 17.4686 37.2946 17.5984L20.4621 28.2253L36.8235 18.7944C37.0388 18.6642 37.3187 18.7335 37.4485 18.9483C37.5787 19.1635 37.5099 19.4434 37.2946 19.5737L20.8972 29.9011L36.8235 20.688C37.0388 20.5578 37.3187 20.6266 37.4485 20.8418C37.5787 21.0571 37.5099 21.337 37.2946 21.4668L21.8937 31.1332L36.8235 22.509C37.0383 22.3866 37.3112 22.4588 37.4373 22.6711C37.5634 22.8838 37.4958 23.158 37.2855 23.2878L29.132 28.2887L36.8053 23.8584C37.0205 23.7286 37.3004 23.7974 37.4306 24.0127C37.5605 24.2279 37.4916 24.5078 37.2764 24.6376L20.2809 35.4001L36.8235 25.8515C37.0367 25.7262 37.3104 25.7951 37.4394 26.0058C37.5658 26.2214 37.4974 26.4984 37.2855 26.6307L34.8665 28.0984L36.8235 26.948C37.0338 26.8422 37.2901 26.9156 37.4128 27.1163C37.5356 27.3171 37.4841 27.5787 37.2946 27.7181L22.0658 37.4931L36.8235 28.9771C37.0338 28.8718 37.2901 28.9448 37.4128 29.1459C37.5356 29.3466 37.4841 29.6079 37.2946 29.7472L30.1285 34.1954L36.8235 30.327C37.0388 30.1968 37.3187 30.266 37.4485 30.4808C37.5787 30.6961 37.5099 30.976 37.2946 31.1062L31.8591 34.4852L36.7962 31.6317C37.0101 31.5114 37.2805 31.579 37.4124 31.7855C37.536 31.9945 37.4767 32.2641 37.2764 32.4018L26.2058 39.7761L36.8596 33.6247C37.0736 33.5045 37.344 33.5721 37.4759 33.7786C37.6028 33.9893 37.5385 34.2626 37.3307 34.3948L32.0494 37.8191L36.8235 35.0559C36.9612 34.97 37.1341 34.9642 37.2768 35.0405C37.4199 35.1168 37.5115 35.2637 37.5169 35.4258C37.5227 35.5875 37.441 35.7401 37.3037 35.826L28.7152 41.7418L36.8687 37.0672C37.0761 36.9681 37.3249 37.0398 37.4477 37.2339C37.57 37.4284 37.5277 37.6839 37.349 37.8282L31.5601 41.8326L36.8235 38.7252C37.0313 38.5991 37.3021 38.6638 37.4306 38.8699C37.5629 39.0736 37.5107 39.3456 37.3129 39.4862L33.0912 42.4667L36.8235 40.3193C37.0313 40.1937 37.3021 40.258 37.4306 40.4645C37.5679 40.6673 37.5153 40.9426 37.3129 41.0803L35.9448 41.9865L36.8509 41.4793C37.0595 41.3582 37.3261 41.422 37.4576 41.624C37.5907 41.8226 37.5426 42.091 37.349 42.2311L36.1712 43.0916L36.8509 42.7022C37.0533 42.5753 37.3208 42.6359 37.4485 42.8378C37.5828 43.0307 37.5476 43.2944 37.3672 43.445L36.0625 44.5232L36.8235 44.0882C37.0155 43.9679 37.2681 44.0152 37.4033 44.1968C37.5522 44.3648 37.5522 44.6178 37.4033 44.7857L36.4428 45.8096L36.8509 45.5741C36.9537 45.5119 37.0773 45.4944 37.193 45.5251C37.3091 45.5558 37.4078 45.6321 37.4667 45.737C37.5911 45.9552 37.519 46.2326 37.3037 46.362L34.2055 48.1739C34.0118 48.2867 33.7651 48.2406 33.6249 48.0665C33.4843 47.8923 33.4926 47.6414 33.6436 47.4763L34.6131 46.4528L31.6414 48.1469C31.4381 48.2684 31.1748 48.2087 31.0438 48.0109C30.9094 47.818 30.9446 47.5543 31.125 47.4042L32.4023 46.3711L29.3223 48.183C29.1162 48.2937 28.8599 48.229 28.7305 48.0341C28.6016 47.8392 28.6418 47.5779 28.8243 47.4311L29.9929 46.5797L27.1571 48.1469C26.9494 48.273 26.6786 48.2083 26.55 48.0018C26.4127 47.7994 26.4654 47.5236 26.6678 47.3859L28.0177 46.4346L25.0645 48.1469C24.8559 48.268 24.5889 48.2041 24.4574 48.0018C24.3347 47.7965 24.3852 47.5315 24.5752 47.3859L28.7969 44.3963L22.3013 48.1469C22.0928 48.268 21.8257 48.2041 21.6942 48.0018C21.564 47.7961 21.62 47.5236 21.8211 47.3859L27.61 43.3815L19.3569 48.1469C19.1479 48.2663 18.8817 48.2008 18.7515 47.9984C18.6212 47.7957 18.6723 47.5265 18.868 47.3859L27.4653 41.4428L15.8784 48.1469C15.8104 48.1888 15.7316 48.2108 15.6515 48.2104Z" fill="#FCEEB9"/>
  <path fill-rule="evenodd" clip-rule="evenodd" d="M2.6511 10.1607C2.45951 10.1599 2.28906 10.0379 2.22603 9.8567C2.16299 9.67589 2.22064 9.47434 2.37034 9.35449L4.93406 7.30709L2.54245 8.69304C2.33468 8.80708 2.07507 8.74861 1.93573 8.55743C1.8644 8.45997 1.83496 8.33846 1.85362 8.21944C1.87228 8.10042 1.93781 7.99384 2.03526 7.92334L5.65896 5.09671C5.60256 5.06436 5.55363 5.02123 5.51423 4.96981C5.37406 4.78651 5.3977 4.5269 5.56856 4.3718L8.80243 1.38219C8.78585 1.21921 8.85883 1.05996 8.99278 0.965408L9.60904 0.612079C9.80685 0.497205 10.0594 0.547385 10.1979 0.729855C10.3344 0.917303 10.3111 1.17691 10.1432 1.33698L9.05623 2.34265L9.60904 2.03452C9.81224 1.92836 10.0631 1.99139 10.1925 2.18091C10.3219 2.37043 10.2892 2.62672 10.1162 2.77726L7.75157 4.58911L9.60904 3.52041C9.81183 3.39351 10.0789 3.45406 10.2066 3.65602C10.3439 3.8501 10.3041 4.11759 10.1162 4.26315L7.60684 6.33792L9.64512 5.15104C9.84086 5.04114 10.0876 5.09132 10.2249 5.26881C10.3738 5.43677 10.3738 5.68974 10.2249 5.85769L8.41302 7.71475L9.64512 7.01721C9.83256 6.90649 10.0723 6.94422 10.2158 7.10762C10.3472 7.27516 10.3472 7.51113 10.2158 7.67867L9.66336 8.41228C9.794 8.43302 9.90804 8.51347 9.97108 8.62959C10.0333 8.73285 10.0507 8.85643 10.02 8.97214C9.98932 9.08825 9.91302 9.18695 9.8081 9.24584L8.34045 10.0972C8.15549 10.2034 7.9216 10.1657 7.77894 10.0068C7.6425 9.83763 7.6425 9.59627 7.77894 9.42707L8.16835 8.91988L6.1027 10.0972C5.90737 10.2146 5.65482 10.1681 5.51423 9.98858C5.36369 9.81772 5.36369 9.56185 5.51423 9.39057L7.32608 7.57872L2.88665 10.0972C2.81698 10.1433 2.73446 10.1652 2.6511 10.1607Z" fill="#AA8652"/>
  <path fill-rule="evenodd" clip-rule="evenodd" d="M41.6066 53.5551C41.4067 53.5646 41.2255 53.4385 41.1637 53.2478C41.1023 53.0574 41.1762 52.8492 41.3441 52.7398L45.2303 49.8953L39.1516 53.4103C38.938 53.5306 38.6676 53.463 38.5357 53.2565C38.4051 53.0504 38.4611 52.7779 38.6626 52.6402L42.9474 49.7141L37.2854 52.9844C37.0726 53.1171 36.7931 53.052 36.6604 52.8397C36.5277 52.627 36.5928 52.347 36.8052 52.2143L42.6849 48.2195L35.5461 52.3143C35.3301 52.4329 35.0588 52.3611 34.9299 52.1509C34.803 51.9406 34.8672 51.6669 35.075 51.535L38.3093 49.4424L34.3592 51.7254C34.149 51.8307 33.8927 51.7573 33.7699 51.5566C33.6472 51.3559 33.6986 51.0946 33.8881 50.9553L39.0068 47.6123L33.2723 50.9462C33.0616 51.0515 32.8057 50.9785 32.6826 50.7778C32.5598 50.5767 32.6112 50.3154 32.8012 50.176L41.0721 44.6501L32.0128 49.8862C31.8017 50.0056 31.5342 49.9376 31.4057 49.7323C31.3418 49.6328 31.3198 49.5117 31.3456 49.396C31.3709 49.2803 31.4418 49.1795 31.5417 49.1161L40.0577 43.4541L30.9893 48.6906C30.7782 48.8096 30.5108 48.742 30.3822 48.5363C30.2516 48.3302 30.308 48.0581 30.5091 47.9205L40.7009 41.0081L30.0106 47.2047C29.9078 47.2665 29.7842 47.2843 29.6681 47.2536C29.552 47.2229 29.4537 47.1462 29.3948 47.0417C29.2679 46.831 29.3322 46.5573 29.5395 46.4254L30.2735 45.9726L29.5486 46.3802C29.34 46.5013 29.0734 46.4375 28.9419 46.2351C28.8121 46.024 28.8722 45.7482 29.0775 45.6101L37.6839 39.903L28.9871 44.9308C28.7744 45.0631 28.4945 44.9984 28.3617 44.7857C28.2295 44.573 28.2941 44.2934 28.5069 44.1607L37.4575 38.1633L28.516 43.3181C28.3074 43.4391 28.0403 43.3753 27.9089 43.1733C27.7787 42.9672 27.8347 42.6948 28.0358 42.5571L37.1676 36.3336L28.3257 41.4428C28.2228 41.505 28.0992 41.5224 27.9831 41.4917C27.867 41.461 27.7683 41.3847 27.7098 41.2798C27.5829 41.0691 27.6472 40.7958 27.8546 40.6639L29.9385 39.3319L28.3348 40.238C28.1212 40.3583 27.8508 40.2907 27.7185 40.0838C27.5916 39.8735 27.6563 39.5998 27.8637 39.4679L31.8407 36.9133L28.4708 38.8065C28.2601 38.9122 28.0043 38.8388 27.8811 38.6381C27.7583 38.4374 27.8098 38.1757 27.9997 38.0364L30.2101 36.587L28.8329 37.3844C28.6238 37.5006 28.3601 37.4375 28.2261 37.2393C28.0889 37.0365 28.1415 36.7611 28.3439 36.6235L33.6343 32.8094L29.8294 35.038C29.6274 35.1575 29.3674 35.1027 29.2306 34.912C29.0937 34.7208 29.1256 34.457 29.304 34.304L32.7012 31.3418C32.5105 31.3853 32.3131 31.3011 32.2123 31.1332C32.0875 30.915 32.16 30.6376 32.3753 30.5082L36.1711 28.2796C36.373 28.1606 36.6326 28.2157 36.7691 28.4065C36.9014 28.5981 36.8703 28.8581 36.6965 29.0132L33.3718 31.9033L40.9543 27.5277C41.1592 27.4323 41.4026 27.502 41.5258 27.6911C41.6489 27.8802 41.6137 28.1311 41.4436 28.2796L36.1711 32.0936L43.4185 27.908C43.6291 27.8027 43.885 27.8761 44.0082 28.0768C44.1309 28.2775 44.0795 28.5388 43.8896 28.6781L41.7066 30.1188L44.8861 28.3069C45.0993 28.1813 45.3734 28.2501 45.5024 28.4608C45.626 28.6698 45.5667 28.939 45.3663 29.0766L41.3802 31.6951L46.1725 28.9771C46.3832 28.8718 46.6391 28.9448 46.7622 29.1459C46.885 29.3466 46.8336 29.6079 46.6436 29.7472L44.5602 31.088L47.2781 29.5299C47.4154 29.4424 47.5892 29.4349 47.7335 29.5104C47.8782 29.5859 47.9715 29.7327 47.9782 29.8957C47.9852 30.0582 47.9048 30.2125 47.7671 30.3L38.5992 36.4601L48.7275 30.5717C48.9403 30.4389 49.2198 30.5041 49.3525 30.7164C49.4852 30.9291 49.4201 31.2091 49.2078 31.3418L40.2568 37.3388L49.9053 31.7673C50.118 31.642 50.3922 31.7109 50.5211 31.9215C50.6451 32.1305 50.5854 32.3997 50.3851 32.5374L41.7787 38.2358L50.9018 32.9724C51.1167 32.8422 51.3966 32.911 51.5268 33.1262C51.657 33.3415 51.5878 33.6214 51.3729 33.7516L50.6298 34.2136L51.3638 33.7877C51.5774 33.6674 51.8478 33.735 51.9797 33.9416C52.1082 34.1502 52.0481 34.423 51.8441 34.5578L41.6066 41.4971L52.1609 35.4092C52.3711 35.2848 52.6424 35.3536 52.768 35.5635C52.8966 35.7717 52.8364 36.0445 52.632 36.1793L44.1073 41.8413L52.6594 36.9133C52.7966 36.8275 52.9696 36.8217 53.1126 36.8976C53.2557 36.9739 53.3474 37.1207 53.3528 37.2828C53.3581 37.445 53.2769 37.5976 53.1392 37.683L44.8683 43.2003L52.9584 38.5348C53.1711 38.4096 53.4452 38.478 53.5742 38.6887C53.6978 38.8981 53.6385 39.1673 53.4382 39.3049L48.3108 42.6479L53.1031 39.8756C53.3192 39.757 53.59 39.8287 53.7194 40.0386C53.8463 40.2492 53.7816 40.5229 53.5742 40.6548L50.3399 42.7474L53.0579 41.1981C53.2715 41.0778 53.5419 41.1454 53.6737 41.3523C53.8027 41.5605 53.7422 41.8334 53.5381 41.9682L47.6223 45.9726L52.7859 42.9921C52.9986 42.8594 53.2785 42.9245 53.4112 43.1368C53.5439 43.3496 53.4788 43.6295 53.2661 43.7622L48.9722 46.6975L52.2152 44.8222C52.4255 44.6845 52.7075 44.7434 52.8447 44.9532C52.9824 45.1635 52.9235 45.4455 52.7137 45.5832L48.8001 48.4276L51.0196 47.1412C51.227 47.0011 51.509 47.0558 51.6491 47.2636C51.7893 47.4713 51.7346 47.7529 51.5268 47.8931L49.0717 49.7958C49.1356 49.8323 49.1891 49.8858 49.2256 49.9496C49.3496 50.1649 49.2766 50.4398 49.0626 50.5659L45.149 52.8306C44.9413 52.9708 44.6593 52.916 44.5195 52.7082C44.3793 52.5005 44.4341 52.2189 44.6419 52.0787L45.6927 51.2634L41.797 53.519C41.7364 53.543 41.6717 53.5555 41.6066 53.5551Z" fill="#E7EDEF"/>
  <path fill-rule="evenodd" clip-rule="evenodd" d="M41.2534 53.4464C41.788 53.4464 42.6306 52.6311 41.7428 52.6311C41.2082 52.6311 40.3659 53.4464 41.2534 53.4464Z" fill="#262626"/>
  <path d="M0.169306 32.3835C0.169306 36.56 -0.0936176 40.8361 0.169306 45.003C0.304915 47.0687 0.803391 48.0474 3.0681 48.2916C3.90166 48.3916 4.75347 48.4459 5.59573 48.5094C5.53228 50.9553 5.25153 53.1748 8.16857 53.7276C11.0856 54.28 14.7184 53.7276 17.7263 53.7276H40.6467C40.8126 53.74 40.9764 53.6857 41.1024 53.5771C41.2281 53.468 41.3052 53.3137 41.3168 53.1474C41.321 53.1205 41.321 53.0931 41.3168 53.0662C47.5681 52.5677 53.6378 48.3008 54.0002 40.3828C53.6469 33.1354 48.6459 29.0679 43.0652 28.1257C43.1117 28.0731 43.1374 28.0055 43.1378 27.9354V7.83251C43.1424 7.80556 43.1424 7.77819 43.1378 7.75082C42.4312 5.15102 39.94 5.59476 37.7023 5.65821V2.48737C37.7068 2.45751 37.7068 2.42682 37.7023 2.39696C36.9322 -0.637856 33.4536 0.168332 31.0073 0.168332H14.9814C13.269 0.168332 11.4302 -0.157627 9.89914 0.376514C9.71915 0.415911 9.54747 0.486411 9.39154 0.585111C9.27376 0.648561 9.15598 0.693764 9.04733 0.766338C7.39846 1.85328 5.93082 3.87373 4.51791 5.29576C3.41231 6.40136 1.00286 8.01374 0.350532 9.46314C0.309476 9.55188 0.273397 9.6427 0.24188 9.73518C0.235659 9.76795 0.235659 9.80154 0.24188 9.83471C-0.3018 11.6014 0.24188 14.3645 0.24188 16.1038L0.169306 32.3835ZM3.29453 7.92333C3.89254 7.37053 4.59007 6.79989 5.30585 6.11107C6.6014 4.81594 8.02384 3.57473 9.2468 2.19749V4.47132C9.2468 5.61301 9.58189 7.38878 9.18335 8.49397C8.6488 9.97074 5.86737 9.39969 4.7261 9.39969H2.00811C2.191 9.09032 2.40664 8.80168 2.65132 8.53917L3.29453 7.92333ZM12.8975 52.7489C10.5693 52.7489 7.68834 53.655 6.9456 50.7923C6.8187 50.0778 6.77889 49.3508 6.82782 48.6271C14.3564 49.0257 22.2288 48.3733 29.6756 48.3373C30.5594 49.5212 31.6716 50.5161 32.946 51.2634C33.1641 51.4778 33.4038 51.6694 33.6618 51.8341C34.2573 52.1936 34.8852 52.4968 35.5371 52.7398H12.8888L12.8975 52.7489ZM52.759 40.7452C52.4509 47.2317 47.5225 52.7671 41.3533 52.9936C41.3533 52.8667 41.2082 52.7763 40.9457 52.758C38.7523 52.7132 36.6045 52.1252 34.6944 51.0457C33.381 50.2578 32.1307 47.9566 30.9077 47.4946C26.55 40.5188 29.3132 31.6951 37.2494 28.9046C37.3373 28.873 37.4219 28.8336 37.5028 28.7868C39.0795 28.4057 40.7097 28.2983 42.3225 28.4699C42.4569 28.4791 42.5921 28.4637 42.721 28.4247C43.6599 28.591 44.5731 28.8772 45.439 29.2761C49.9689 31.3327 52.4782 35.8077 52.7316 40.7092L52.759 40.7452ZM41.8879 8.13152V21.5124C41.8879 22.8349 42.5763 26.5038 41.8879 27.6273C41.6975 27.9354 42.1956 27.6273 40.8005 27.4369C39.7683 27.4411 38.7461 27.6347 37.784 28.008V13.5488C37.784 11.6374 38.282 8.95595 37.784 7.13498V6.45569C39.179 6.22014 41.462 6.72732 41.8514 8.08631L41.8879 8.13152ZM24.3396 1.18312C26.4687 1.18312 35.564 -0.266695 36.4067 2.64164V25.4894V25.589V28.37C36.2798 28.5425 33.8069 29.2761 33.3358 29.5751C32.4144 30.1889 31.5717 30.913 30.826 31.7312C30.627 31.9576 30.4366 32.184 30.2463 32.4196C28.4825 34.5794 27.4794 37.2605 27.3927 40.0477C27.2164 42.4733 27.7249 44.8998 28.8603 47.0508C26.9129 47.0023 24.9646 47.0749 23.0262 47.2681H6.32976C6.17715 47.276 6.02952 47.3262 5.90386 47.4129C3.99248 47.5037 2.07156 47.3586 1.51005 45.4563C0.767312 42.983 1.51005 39.1146 1.51005 36.5235C1.51005 28.0984 1.4466 19.6732 1.51005 11.248C1.52332 10.8483 1.60294 10.453 1.7456 10.0794H5.44188C6.7283 10.0794 8.395 10.3328 9.51844 9.57179C10.8683 8.66607 10.5515 6.95375 10.5515 5.54043V1.20095H10.8413C15.3347 1.11054 19.8645 1.18312 24.3396 1.18312Z" fill="#262626"/>
  <path fill-rule="evenodd" clip-rule="evenodd" d="M6.21206 16.5297H31.5784C32.3029 16.5297 32.6019 15.6236 31.7049 15.6236H6.33855C5.61406 15.6236 5.31505 16.5297 6.21206 16.5297Z" fill="#262626"/>
  <path fill-rule="evenodd" clip-rule="evenodd" d="M24.4575 33.7425H6.33855C5.61406 33.7425 5.31505 34.6482 6.21206 34.6482H24.3306C25.0555 34.6482 25.3545 33.7425 24.4575 33.7425Z" fill="#262626"/>
  <path fill-rule="evenodd" clip-rule="evenodd" d="M31.6962 20.1082H27.1664C26.4054 20.1082 26.1698 21.1048 27.0577 21.1048H31.5871C32.3481 21.1048 32.5476 20.1082 31.6962 20.1082Z" fill="#262626"/>
  <path fill-rule="evenodd" clip-rule="evenodd" d="M22.1562 20.8692C22.4283 20.8692 23.633 20.3434 23.008 20.3434H6.70095C6.42932 20.3434 5.22418 20.8692 5.84956 20.8692H22.1562Z" fill="#262626"/>
  <path fill-rule="evenodd" clip-rule="evenodd" d="M17.3913 38.2993H16.4852C16.1518 38.2674 15.8254 38.4113 15.6247 38.6796C15.4886 38.9516 15.7424 39.1507 15.9962 39.1507H16.902C17.2358 39.183 17.5618 39.0387 17.7625 38.7704C17.8985 38.4988 17.6447 38.2993 17.3913 38.2993Z" fill="#262626"/>
  <path fill-rule="evenodd" clip-rule="evenodd" d="M11.9557 38.2993H6.51972C5.94908 38.2993 5.15202 39.1507 6.03078 39.1507H11.4663C12.037 39.1507 12.8344 38.2993 11.9557 38.2993Z" fill="#262626"/>
  <path fill-rule="evenodd" clip-rule="evenodd" d="M6.21206 25.589H10.7415C11.4664 25.589 11.7654 24.6828 10.8684 24.6828H6.33855C5.61406 24.6828 5.31505 25.589 6.21206 25.589Z" fill="#262626"/>
  <path fill-rule="evenodd" clip-rule="evenodd" d="M15.5885 24.7463C15.0717 24.7463 14.2021 25.5255 15.0809 25.5255H31.3879C31.9042 25.5255 32.7739 24.7463 31.8951 24.7463H15.5885Z" fill="#262626"/>
  <path fill-rule="evenodd" clip-rule="evenodd" d="M6.22063 30.1458H8.93862C9.69048 30.1458 9.94428 29.1857 9.04727 29.1857H6.3297C5.57742 29.1857 5.36924 30.1458 6.22063 30.1458Z" fill="#262626"/>
  <path fill-rule="evenodd" clip-rule="evenodd" d="M13.7762 29.2852C13.269 29.2852 12.3903 30.0462 13.269 30.0462H27.7642C28.2714 30.0462 29.1502 29.2852 28.2714 29.2852H13.7762Z" fill="#262626"/>
  <g clip-path="url(#clip1_280_544)">
  <path d="M38.561 42.7049C38.5363 42.7049 38.5123 42.6971 38.4924 42.6826C38.4725 42.6681 38.4577 42.6476 38.4502 42.6242C38.4427 42.6007 38.4429 42.5754 38.4507 42.5521C38.4585 42.5287 38.4736 42.5084 38.4937 42.4942L38.5833 42.4308L38.3359 42.5733C38.3098 42.5896 38.2783 42.5949 38.2483 42.588C38.2183 42.581 38.1923 42.5625 38.176 42.5364C38.1596 42.5103 38.1544 42.4788 38.1613 42.4488C38.1682 42.4188 38.1868 42.3928 38.2129 42.3765L38.4099 42.2451L38.0462 42.454C38.0203 42.4691 37.9895 42.4736 37.9603 42.4664C37.9312 42.4593 37.9059 42.4412 37.8898 42.4158C37.8738 42.3905 37.8682 42.3599 37.8742 42.3305C37.8802 42.3011 37.8973 42.2751 37.9221 42.2581L39.6611 41.0527L37.5709 42.2595C37.5448 42.2747 37.5138 42.279 37.4845 42.2717C37.4552 42.2644 37.4299 42.2459 37.414 42.2202C37.3981 42.1945 37.3929 42.1637 37.3994 42.1342C37.4059 42.1047 37.4236 42.0789 37.4488 42.0622L39.3998 40.7681L37.1295 42.0787C37.1033 42.0933 37.0725 42.0973 37.0435 42.0897C37.0145 42.0821 36.9896 42.0636 36.9739 42.038C36.9583 42.0125 36.9531 41.9819 36.9595 41.9526C36.9659 41.9233 36.9834 41.8977 37.0083 41.881L39.0252 40.5748L36.7147 41.9105C36.6884 41.9264 36.6568 41.9313 36.6269 41.924C36.597 41.9167 36.5713 41.8978 36.5553 41.8715C36.5393 41.8452 36.5345 41.8136 36.5418 41.7837C36.5491 41.7538 36.568 41.728 36.5943 41.712L38.1576 40.7175L36.3504 41.7619C36.3241 41.7769 36.293 41.7811 36.2637 41.7735C36.2344 41.7659 36.2092 41.7472 36.1935 41.7213C36.1779 41.6954 36.1729 41.6644 36.1797 41.635C36.1866 41.6055 36.2047 41.5798 36.2301 41.5635L37.8218 40.5553L35.9883 41.6139C35.9621 41.6288 35.9311 41.6329 35.9019 41.6254C35.8727 41.6178 35.8476 41.5992 35.8319 41.5735C35.8162 41.5478 35.8111 41.5169 35.8177 41.4875C35.8243 41.4581 35.8422 41.4324 35.8674 41.4159L38.5529 39.6806L35.5292 41.4245C35.503 41.4387 35.4722 41.4423 35.4434 41.4344C35.4146 41.4265 35.3899 41.4079 35.3745 41.3823C35.3591 41.3567 35.3542 41.3261 35.3608 41.297C35.3673 41.2678 35.3848 41.2423 35.4097 41.2258L36.9928 40.2322L35.1774 41.2803C35.1511 41.2955 35.1199 41.2998 35.0905 41.2923C35.0611 41.2847 35.0358 41.266 35.02 41.24C35.0043 41.214 34.9993 41.1828 35.0063 41.1532C35.0132 41.1236 35.0315 41.0979 35.0572 41.0817L37.3356 39.6409L34.778 41.1172C34.7518 41.1321 34.7208 41.1362 34.6916 41.1287C34.6624 41.1212 34.6373 41.1026 34.6215 41.0768C34.6058 41.0511 34.6007 41.0202 34.6074 40.9908C34.614 40.9614 34.6318 40.9357 34.6571 40.9192L38.0919 38.7021L34.2925 40.8965C34.2662 40.9111 34.2353 40.9151 34.2063 40.9074C34.1772 40.8997 34.1523 40.8811 34.1367 40.8555C34.1211 40.8298 34.116 40.799 34.1226 40.7697C34.1292 40.7404 34.1469 40.7148 34.172 40.6983L37.5507 38.5382L34.224 40.4588C34.1978 40.4737 34.1668 40.4778 34.1376 40.4703C34.1084 40.4627 34.0833 40.4441 34.0676 40.4184C34.0518 40.3927 34.0467 40.3618 34.0534 40.3324C34.06 40.303 34.0778 40.2773 34.1031 40.2608L37.8898 37.8081L34.3878 39.83C34.3615 39.846 34.3299 39.8509 34.3 39.8435C34.27 39.8362 34.2443 39.8173 34.2283 39.7909C34.2123 39.7646 34.2075 39.733 34.2148 39.7031C34.2221 39.6731 34.241 39.6473 34.2674 39.6314L36.4068 38.2853L34.4763 39.3995C34.45 39.4136 34.4193 39.4169 34.3906 39.409C34.3619 39.401 34.3373 39.3823 34.322 39.3568C34.3067 39.3312 34.3018 39.3007 34.3084 39.2717C34.3149 39.2426 34.3324 39.2172 34.3572 39.2006L35.1895 38.6845L34.5327 39.0637C34.5065 39.0789 34.4754 39.0833 34.446 39.0759C34.4166 39.0685 34.3913 39.0499 34.3754 39.0241C34.3596 38.9983 34.3545 38.9673 34.3612 38.9377C34.3679 38.9082 34.3858 38.8824 34.4113 38.866L37.5335 36.8419L34.6028 38.5343C34.5765 38.549 34.5455 38.553 34.5163 38.5452C34.4872 38.5375 34.4622 38.5188 34.4466 38.493C34.4311 38.4672 34.4262 38.4363 34.433 38.4069C34.4398 38.3776 34.4577 38.352 34.483 38.3356L36.1194 37.3042L34.6325 38.163C34.6063 38.1772 34.5756 38.1807 34.5468 38.1729C34.5181 38.1652 34.4934 38.1466 34.478 38.1211C34.4625 38.0956 34.4574 38.0652 34.4638 38.0361C34.4702 38.007 34.4875 37.9814 34.5122 37.9648L36.6152 36.6233L34.655 37.7547C34.6288 37.7696 34.5979 37.7737 34.5688 37.7662C34.5397 37.7588 34.5146 37.7403 34.4988 37.7147C34.483 37.6891 34.4778 37.6583 34.4843 37.629C34.4907 37.5996 34.5083 37.5739 34.5334 37.5572L36.7305 36.1183L34.6559 37.3151C34.63 37.33 34.5994 37.3343 34.5704 37.3272C34.5414 37.32 34.5162 37.302 34.5002 37.2768C34.4842 37.2516 34.4785 37.2212 34.4843 37.1919C34.4902 37.1626 34.5071 37.1367 34.5315 37.1195L36.6214 35.6604L34.6369 36.8062C34.6112 36.8208 34.5808 36.8251 34.5521 36.8181C34.5233 36.8111 34.4983 36.7934 34.4822 36.7686C34.4661 36.7437 34.46 36.7137 34.4653 36.6846C34.4706 36.6555 34.4868 36.6295 34.5106 36.6119L36.0545 35.4919L34.6023 36.3295C34.5764 36.3442 34.5459 36.3483 34.517 36.3412C34.4882 36.334 34.4632 36.316 34.4472 36.2909C34.4312 36.2659 34.4254 36.2356 34.4311 36.2064C34.4368 36.1772 34.4534 36.1513 34.4777 36.1341L35.1275 35.6775L34.5587 36.0057C34.5331 36.0205 34.503 36.0249 34.4742 36.0182C34.4455 36.0115 34.4205 35.9942 34.4041 35.9697C34.3877 35.9451 34.3813 35.9153 34.3861 35.8862C34.391 35.8572 34.4067 35.831 34.4301 35.8131L35.1825 35.2389L34.5043 35.6302C34.4788 35.6445 34.4487 35.6487 34.4202 35.6418C34.3917 35.6349 34.3669 35.6175 34.3508 35.593C34.3346 35.5685 34.3283 35.5389 34.3331 35.51C34.3379 35.481 34.3535 35.455 34.3767 35.4371L34.6441 35.2357L34.4491 35.348C34.4246 35.3625 34.3956 35.3675 34.3676 35.362C34.3396 35.3566 34.3146 35.341 34.2974 35.3182C34.2802 35.2955 34.272 35.2673 34.2743 35.2388C34.2766 35.2104 34.2892 35.1838 34.3099 35.1642L34.8418 34.6494L34.3577 34.9279C34.3343 34.9415 34.3068 34.9464 34.2802 34.9419C34.2535 34.9374 34.2292 34.9237 34.2116 34.9032C34.1939 34.8827 34.184 34.8566 34.1835 34.8296C34.183 34.8025 34.192 34.7761 34.2089 34.755L34.5303 34.354L34.2491 34.5164C34.226 34.5296 34.1991 34.5344 34.1728 34.5302C34.1466 34.5259 34.1226 34.5127 34.1049 34.4929C34.0872 34.473 34.0769 34.4477 34.0756 34.4212C34.0744 34.3946 34.0822 34.3684 34.098 34.347L34.1936 34.2177L34.163 34.2354C34.1418 34.2476 34.1172 34.2528 34.0929 34.2502C34.0686 34.2476 34.0457 34.2375 34.0275 34.2211C34.0093 34.2048 33.9967 34.1831 33.9916 34.1592C33.9865 34.1353 33.989 34.1104 33.9989 34.088L34.0453 33.9824C34.0208 33.98 33.9978 33.9698 33.9794 33.9535C33.9611 33.9371 33.9484 33.9153 33.9433 33.8913C33.9381 33.8672 33.9407 33.8422 33.9507 33.8197C33.9607 33.7973 33.9776 33.7786 33.9989 33.7663L34.2233 33.6363C34.2445 33.624 34.2691 33.6187 34.2935 33.6212C34.3179 33.6237 34.3409 33.6339 34.3592 33.6503C34.3775 33.6667 34.39 33.6885 34.3952 33.7125C34.4003 33.7365 34.3976 33.7615 34.3876 33.784L34.3558 33.8571L34.5619 33.7382C34.585 33.7251 34.6119 33.7202 34.6381 33.7245C34.6644 33.7288 34.6883 33.7419 34.706 33.7618C34.7237 33.7816 34.7341 33.8069 34.7353 33.8335C34.7366 33.86 34.7287 33.8862 34.713 33.9077L34.6176 34.0365L34.9472 33.8464C34.9706 33.833 34.9979 33.8281 35.0245 33.8327C35.0511 33.8373 35.0753 33.851 35.0929 33.8714C35.1105 33.8919 35.1204 33.9179 35.1209 33.9449C35.1214 33.9718 35.1125 33.9982 35.0957 34.0193L34.7745 34.4201L35.5383 33.9791C35.5628 33.9646 35.5918 33.9596 35.6198 33.9651C35.6478 33.9706 35.6728 33.9862 35.69 34.0089C35.7072 34.0316 35.7154 34.0599 35.7132 34.0883C35.7109 34.1167 35.6982 34.1433 35.6775 34.1629L35.1456 34.6782L36.1719 34.0857C36.1975 34.071 36.2277 34.0666 36.2564 34.0734C36.285 34.0802 36.3101 34.0977 36.3263 34.1223C36.3426 34.1469 36.3489 34.1767 36.344 34.2058C36.3391 34.2348 36.3232 34.2609 36.2998 34.2788L36.0326 34.48L36.6303 34.1356C36.6558 34.1211 36.6858 34.1169 36.7143 34.1237C36.7428 34.1305 36.7677 34.1478 36.784 34.1722C36.8002 34.1966 36.8067 34.2263 36.8019 34.2552C36.7972 34.2841 36.7818 34.3102 36.7586 34.3282L36.0055 34.9026L37.2699 34.1727C37.2958 34.1576 37.3265 34.1531 37.3556 34.1601C37.3848 34.1671 37.4101 34.1852 37.4262 34.2104C37.4423 34.2357 37.4481 34.2662 37.4422 34.2956C37.4364 34.325 37.4194 34.351 37.3948 34.3681L36.7449 34.8244L37.8613 34.1797C37.887 34.165 37.9173 34.1608 37.9461 34.1678C37.9748 34.1748 37.9998 34.1925 38.0159 34.2173C38.032 34.2421 38.0381 34.2721 38.0328 34.3012C38.0275 34.3304 38.0113 34.3564 37.9875 34.3739L36.4451 35.4942L38.8416 34.1107C38.8675 34.0959 38.8981 34.0916 38.9271 34.0987C38.9561 34.1059 38.9812 34.1239 38.9973 34.1491C39.0133 34.1743 39.019 34.2047 39.0132 34.234C39.0073 34.2633 38.9904 34.2892 38.966 34.3064L36.8772 35.7655L40.1784 33.8591C40.2045 33.8443 40.2354 33.8402 40.2646 33.8476C40.2937 33.8551 40.3188 33.8736 40.3346 33.8992C40.3503 33.9248 40.3555 33.9555 40.3491 33.9849C40.3427 34.0143 40.3251 34.04 40.3 34.0567L38.1017 35.4956L41.042 33.7995C41.0682 33.7848 41.0991 33.7809 41.1282 33.7886C41.1572 33.7962 41.1822 33.8149 41.1978 33.8405C41.2134 33.8662 41.2184 33.8969 41.2118 33.9262C41.2052 33.9556 41.1875 33.9812 41.1625 33.9977L39.0618 35.3375L41.1956 34.1059C41.2219 34.0918 41.2525 34.0884 41.2811 34.0963C41.3098 34.1042 41.3343 34.1228 41.3497 34.1482C41.3651 34.1737 41.3701 34.2041 41.3637 34.2331C41.3573 34.2621 41.34 34.2876 41.3154 34.3043L39.6778 35.3364L41.3131 34.3923C41.3261 34.3843 41.3405 34.3789 41.3556 34.3766C41.3706 34.3742 41.386 34.3748 41.4008 34.3783C41.4157 34.3819 41.4297 34.3883 41.442 34.3973C41.4543 34.4062 41.4648 34.4175 41.4728 34.4305C41.4807 34.4435 41.4861 34.458 41.4884 34.473C41.4908 34.4881 41.4902 34.5035 41.4867 34.5183C41.4831 34.5331 41.4767 34.5471 41.4677 34.5595C41.4588 34.5718 41.4475 34.5823 41.4345 34.5902L38.3115 36.6145L41.4755 34.788C41.5019 34.7731 41.533 34.7691 41.5623 34.7769C41.5915 34.7847 41.6166 34.8035 41.6321 34.8295C41.6476 34.8555 41.6524 34.8865 41.6454 34.9159C41.6384 34.9454 41.6202 34.9709 41.5946 34.9871L40.7642 35.5021L41.5765 35.0333C41.6027 35.0188 41.6335 35.0151 41.6625 35.0229C41.6914 35.0306 41.7162 35.0493 41.7317 35.0749C41.7472 35.1005 41.7522 35.1312 41.7456 35.1604C41.7391 35.1896 41.7215 35.2152 41.6965 35.2317L39.559 36.5764L41.7018 35.3394C41.7281 35.3233 41.7596 35.3184 41.7896 35.3256C41.8195 35.3328 41.8453 35.3516 41.8614 35.3778C41.8774 35.4041 41.8824 35.4356 41.8752 35.4655C41.868 35.4955 41.8492 35.5213 41.823 35.5374L38.0353 37.9905L41.8798 35.7715C41.906 35.7575 41.9365 35.7541 41.9651 35.7619C41.9938 35.7697 42.0183 35.7882 42.0337 35.8135C42.0492 35.8389 42.0543 35.8692 42.0481 35.8982C42.0418 35.9272 42.0247 35.9527 42.0003 35.9695L38.6216 38.1293L42.0372 36.1566C42.0633 36.1424 42.0939 36.1388 42.1226 36.1465C42.1514 36.1542 42.176 36.1726 42.1915 36.198C42.2071 36.2234 42.2122 36.2538 42.206 36.2828C42.1998 36.3119 42.1826 36.3375 42.1581 36.3543L38.7216 38.5728L42.2029 36.5627C42.2292 36.5477 42.2603 36.5436 42.2896 36.5511C42.3189 36.5587 42.344 36.5775 42.3597 36.6033C42.3754 36.6292 42.3804 36.6602 42.3735 36.6897C42.3667 36.7192 42.3486 36.7448 42.3231 36.7612L40.0463 38.202L42.335 36.8807C42.3612 36.8665 42.392 36.8629 42.4208 36.8708C42.4496 36.8786 42.4743 36.8973 42.4897 36.9229C42.5051 36.9485 42.51 36.979 42.5034 37.0082C42.4969 37.0373 42.4794 37.0628 42.4545 37.0793L40.8726 38.0722L42.4508 37.1615C42.4769 37.1473 42.5075 37.1437 42.5362 37.1514C42.5649 37.1591 42.5896 37.1776 42.6051 37.203C42.6206 37.2283 42.6258 37.2587 42.6196 37.2878C42.6134 37.3169 42.5962 37.3424 42.5717 37.3592L39.8839 39.0955L42.5993 37.5275C42.6256 37.5116 42.6572 37.5067 42.6871 37.5141C42.717 37.5215 42.7428 37.5404 42.7587 37.5667C42.7747 37.5931 42.7795 37.6247 42.7722 37.6546C42.7648 37.6845 42.7459 37.7102 42.7195 37.7262L41.1297 38.733L42.7177 37.8162C42.744 37.8003 42.7756 37.7954 42.8055 37.8027C42.8354 37.81 42.8611 37.8289 42.8771 37.8552C42.8931 37.8815 42.8979 37.9131 42.8906 37.943C42.8833 37.9729 42.8644 37.9987 42.8381 38.0147L41.2725 39.0108L42.8372 38.1073C42.8634 38.0923 42.8944 38.0882 42.9236 38.0957C42.9528 38.1033 42.9779 38.1219 42.9936 38.1476C43.0093 38.1734 43.0144 38.2042 43.0078 38.2336C43.0012 38.263 42.9833 38.2887 42.9581 38.3052L40.9445 39.6096L42.519 38.7005C42.5451 38.6861 42.5757 38.6823 42.6044 38.6898C42.6332 38.6973 42.6581 38.7156 42.6737 38.7409C42.6894 38.7663 42.6948 38.7966 42.6887 38.8258C42.6826 38.8549 42.6656 38.8806 42.6411 38.8975L40.6883 40.193L41.9806 39.4471C42.0065 39.4322 42.0371 39.4279 42.0661 39.4351C42.0951 39.4422 42.1202 39.4603 42.1362 39.4855C42.1523 39.5107 42.158 39.5411 42.1521 39.5704C42.1463 39.5997 42.1294 39.6256 42.105 39.6427L40.3643 40.8496L41.4006 40.2513C41.4267 40.2358 41.4578 40.2311 41.4873 40.2383C41.5168 40.2455 41.5423 40.264 41.5584 40.2898C41.5744 40.3155 41.5797 40.3466 41.5731 40.3762C41.5665 40.4059 41.5486 40.4318 41.5231 40.4483L40.7101 40.99C40.7287 40.9984 40.7448 41.0115 40.7567 41.0281C40.7686 41.0447 40.776 41.0641 40.778 41.0844C40.78 41.1048 40.7766 41.1252 40.7681 41.1438C40.7597 41.1624 40.7465 41.1784 40.7298 41.1903L39.1382 42.3208C39.1384 42.3414 39.1332 42.3617 39.123 42.3796C39.1128 42.3975 39.098 42.4124 39.0802 42.4227L38.6188 42.6891C38.6013 42.6994 38.5813 42.7049 38.561 42.7049Z" fill="#BFDBF0"/>
  <path d="M43.3884 47.2742C43.3646 47.2742 43.3414 47.2669 43.3219 47.2532C43.3024 47.2395 43.2876 47.2202 43.2795 47.1978C43.2713 47.1755 43.2703 47.1511 43.2764 47.1281C43.2826 47.1051 43.2957 47.0846 43.3139 47.0693L43.4601 46.9468L43.125 47.1401C43.0992 47.1546 43.0689 47.1588 43.0401 47.1517C43.0114 47.1446 42.9864 47.1268 42.9704 47.1019C42.9543 47.0771 42.9484 47.047 42.9538 47.0179C42.9592 46.9888 42.9755 46.9628 42.9995 46.9454L43.2733 46.7495L42.921 46.9526C42.8951 46.9665 42.8648 46.97 42.8364 46.9624C42.8079 46.9549 42.7834 46.9368 42.7678 46.9118C42.7522 46.8868 42.7466 46.8569 42.7523 46.828C42.7579 46.7991 42.7744 46.7734 42.7982 46.7562L43.197 46.487L42.7263 46.7585C42.7004 46.7732 42.6698 46.7773 42.6409 46.77C42.6121 46.7628 42.5871 46.7447 42.5712 46.7195C42.5552 46.6944 42.5496 46.6641 42.5554 46.6349C42.5612 46.6057 42.578 46.5798 42.6024 46.5627L44.7926 45.0499L42.3988 46.4308C42.3727 46.445 42.3422 46.4487 42.3135 46.441C42.2848 46.4334 42.2601 46.4151 42.2446 46.3898C42.229 46.3645 42.2237 46.3342 42.2298 46.3052C42.2358 46.2761 42.2528 46.2505 42.2772 46.2336L44.0274 45.084L42.1405 46.1732C42.1144 46.188 42.0836 46.1922 42.0545 46.1848C42.0254 46.1774 42.0004 46.159 41.9845 46.1335C41.9687 46.108 41.9634 46.0774 41.9696 46.0481C41.9759 46.0187 41.9933 45.993 42.0182 45.9762L44.1234 44.5772L41.8536 45.8875C41.8274 45.9027 41.7963 45.9071 41.767 45.8997C41.7376 45.8923 41.7123 45.8737 41.6964 45.8479C41.6806 45.8221 41.6754 45.7911 41.6821 45.7615C41.6888 45.732 41.7068 45.7062 41.7323 45.6898L43.3636 44.6259L41.6062 45.6403C41.5801 45.6555 41.5491 45.6599 41.5198 45.6525C41.4905 45.6452 41.4652 45.6267 41.4494 45.601C41.4335 45.5753 41.4282 45.5445 41.4347 45.515C41.4412 45.4855 41.4589 45.4597 41.4842 45.4431L43.5066 44.1042L41.3275 45.3625C41.3012 45.3784 41.2696 45.3832 41.2397 45.3759C41.2098 45.3685 41.1841 45.3495 41.1682 45.3232C41.1523 45.2968 41.1475 45.2653 41.1548 45.2354C41.1622 45.2055 41.1812 45.1798 41.2075 45.1639L41.5589 44.942L41.1453 45.1808C41.1191 45.1969 41.0875 45.2019 41.0576 45.1946C41.0277 45.1874 41.0018 45.1686 40.9858 45.1424C40.9697 45.1161 40.9647 45.0846 40.9719 45.0547C40.9791 45.0247 40.9979 44.9989 41.0242 44.9828L42.4125 44.0847L40.9139 44.9508C40.901 44.9588 40.8866 44.9642 40.8715 44.9667C40.8565 44.9692 40.8411 44.9686 40.8263 44.9652C40.8114 44.9617 40.7974 44.9553 40.785 44.9464C40.7727 44.9375 40.7622 44.9263 40.7541 44.9133C40.7461 44.9004 40.7407 44.886 40.7382 44.8709C40.7358 44.8559 40.7363 44.8405 40.7398 44.8257C40.7468 44.7957 40.7655 44.7698 40.7916 44.7535L42.8523 43.387L40.6315 44.6693C40.6051 44.6852 40.5735 44.69 40.5437 44.6826C40.5138 44.6752 40.4881 44.6563 40.4721 44.63C40.4562 44.6036 40.4514 44.572 40.4588 44.5421C40.4662 44.5123 40.4851 44.4865 40.5115 44.4706L40.8568 44.2527L40.4495 44.4866C40.4234 44.5018 40.3924 44.5062 40.3631 44.4988C40.3338 44.4915 40.3085 44.473 40.2926 44.4473C40.2767 44.4216 40.2715 44.3908 40.278 44.3613C40.2845 44.3318 40.3022 44.306 40.3274 44.2894L42.228 43.0373L40.1805 44.2193C40.1543 44.2335 40.1237 44.237 40.0949 44.2293C40.0661 44.2215 40.0415 44.2029 40.026 44.1774C40.0106 44.1519 40.0055 44.1215 40.0119 44.0924C40.0183 44.0633 40.0356 44.0377 40.0603 44.0211L40.8053 43.5469L39.9833 44.0225C39.9573 44.0367 39.9269 44.0405 39.8982 44.033C39.8696 44.0255 39.8449 44.0074 39.8291 43.9823C39.8134 43.9572 39.8079 43.9271 39.8137 43.898C39.8194 43.869 39.8361 43.8433 39.8602 43.8261L42.2867 42.186L39.6614 43.7008C39.6351 43.7155 39.6041 43.7194 39.5749 43.7117C39.5458 43.704 39.5208 43.6853 39.5052 43.6595C39.4897 43.6337 39.4848 43.6028 39.4916 43.5734C39.4983 43.5441 39.5163 43.5185 39.5416 43.5021L39.7929 43.3438L39.4829 43.5225C39.4567 43.5388 39.4252 43.5439 39.3952 43.5369C39.3653 43.5299 39.3393 43.5112 39.3231 43.4851C39.3069 43.4589 39.3017 43.4274 39.3087 43.3974C39.3158 43.3674 39.3344 43.3415 39.3606 43.3253L41.3967 41.9771L39.9809 42.7945C39.9551 42.8085 39.9249 42.8122 39.8965 42.8048C39.868 42.7974 39.8435 42.7795 39.8277 42.7547C39.8119 42.7299 39.8062 42.7 39.8116 42.6712C39.817 42.6423 39.8331 42.6165 39.8568 42.5991L41.9455 41.1474L41.1952 41.58C41.1695 41.5948 41.139 41.5991 41.1102 41.5921C41.0813 41.5851 41.0562 41.5674 41.0401 41.5424C41.0239 41.5175 41.0179 41.4874 41.0234 41.4582C41.0288 41.429 41.0452 41.403 41.0692 41.3855L42.16 40.5964C42.1339 40.6026 42.1065 40.5996 42.0824 40.5879C42.0583 40.5762 42.039 40.5565 42.0277 40.5322C42.0165 40.5078 42.014 40.4804 42.0208 40.4544C42.0275 40.4285 42.043 40.4057 42.0646 40.3898L42.7082 39.9141C42.7028 39.9089 42.6979 39.9033 42.6936 39.8974C42.6767 39.8742 42.669 39.8456 42.672 39.8171C42.6749 39.7886 42.6883 39.7622 42.7096 39.743L43.3464 39.1677C43.3442 39.1456 43.3483 39.1233 43.3583 39.1034C43.3684 39.0836 43.3839 39.0671 43.4031 39.0558L43.604 38.9398C43.6287 38.9264 43.6574 38.9224 43.6849 38.9285C43.7123 38.9347 43.7365 38.9506 43.7531 38.9732C43.7697 38.9959 43.7775 39.0238 43.775 39.0518C43.7726 39.0798 43.7601 39.106 43.7398 39.1254L43.6785 39.1809L43.7851 39.1194C43.8107 39.1047 43.841 39.1004 43.8698 39.1073C43.8986 39.1141 43.9236 39.1318 43.9398 39.1565C43.956 39.1812 43.9622 39.2112 43.957 39.2404C43.9518 39.2695 43.9357 39.2955 43.912 39.3132L43.8538 39.3564L43.9603 39.2949C43.986 39.2801 44.0165 39.2757 44.0453 39.2827C44.0742 39.2897 44.0993 39.3075 44.1154 39.3324C44.1316 39.3573 44.1376 39.3875 44.1321 39.4167C44.1267 39.4459 44.1103 39.4719 44.0863 39.4893L43.0352 40.2497L44.227 39.5618C44.2528 39.5478 44.283 39.5441 44.3114 39.5515C44.3399 39.5589 44.3644 39.5768 44.3802 39.6016C44.396 39.6264 44.4017 39.6562 44.3963 39.6851C44.3909 39.714 44.3748 39.7397 44.3511 39.7572L42.2623 41.2093L44.5528 39.8864C44.5658 39.8784 44.5802 39.873 44.5952 39.8706C44.6103 39.8681 44.6256 39.8686 44.6405 39.8721C44.6553 39.8756 44.6693 39.8819 44.6817 39.8908C44.6941 39.8997 44.7046 39.911 44.7126 39.9239C44.7206 39.9369 44.726 39.9513 44.7285 39.9663C44.731 39.9814 44.7304 39.9968 44.727 40.0116C44.7235 40.0264 44.7171 40.0404 44.7082 40.0528C44.6993 40.0652 44.6881 40.0757 44.6751 40.0837L42.6406 41.431L44.8325 40.1656C44.8588 40.1509 44.8898 40.147 44.9189 40.1547C44.948 40.1624 44.973 40.1812 44.9886 40.207C45.0041 40.2328 45.009 40.2636 45.0023 40.293C44.9955 40.3224 44.9775 40.3479 44.9522 40.3643L44.7016 40.5224L45.0105 40.3441C45.0364 40.3299 45.0669 40.3261 45.0955 40.3336C45.1242 40.341 45.1489 40.3592 45.1646 40.3843C45.1803 40.4094 45.1859 40.4395 45.1801 40.4686C45.1743 40.4976 45.1576 40.5233 45.1335 40.5405L42.7059 42.1813L45.3319 40.6653C45.3582 40.6503 45.3893 40.6462 45.4186 40.6537C45.4479 40.6613 45.4731 40.6801 45.4887 40.706C45.5044 40.7318 45.5094 40.7628 45.5025 40.7923C45.4957 40.8218 45.4776 40.8474 45.4521 40.8638L44.7095 41.3368L45.5301 40.8631C45.5563 40.8469 45.5879 40.8418 45.6178 40.8488C45.6327 40.8523 45.6467 40.8587 45.659 40.8676C45.6714 40.8766 45.6819 40.8878 45.6899 40.9008C45.6979 40.9138 45.7033 40.9282 45.7058 40.9432C45.7082 40.9583 45.7077 40.9737 45.7042 40.9885C45.7007 41.0033 45.6943 41.0173 45.6853 41.0297C45.6764 41.0421 45.6652 41.0526 45.6522 41.0606L43.7491 42.3138L45.7973 41.1314C45.8235 41.1166 45.8545 41.1127 45.8837 41.1204C45.9128 41.1281 45.9378 41.1469 45.9534 41.1727C45.9689 41.1985 45.9738 41.2294 45.967 41.2587C45.9603 41.2881 45.9423 41.3137 45.917 41.33L45.5742 41.5466L45.979 41.3131C46.005 41.2987 46.0356 41.2949 46.0644 41.3024C46.0932 41.3099 46.118 41.3283 46.1337 41.3536C46.1494 41.3789 46.1547 41.4092 46.1487 41.4384C46.1426 41.4675 46.1255 41.4932 46.1011 41.5101L44.0399 42.8769L46.2607 41.5948C46.2869 41.5799 46.3179 41.5758 46.3471 41.5833C46.3763 41.5909 46.4015 41.6095 46.4172 41.6352C46.4329 41.6609 46.438 41.6918 46.4313 41.7212C46.4247 41.7506 46.4069 41.7763 46.3816 41.7928L44.9947 42.6903L46.4917 41.8262C46.5179 41.8122 46.5485 41.8088 46.5771 41.8167C46.6058 41.8246 46.6303 41.8432 46.6457 41.8686C46.6611 41.8941 46.6661 41.9244 46.6597 41.9535C46.6533 41.9825 46.636 42.008 46.6114 42.0247L46.261 42.2461L46.6734 42.0082C46.6994 41.9938 46.73 41.99 46.7588 41.9975C46.7876 42.005 46.8124 42.0234 46.8281 42.0487C46.8438 42.074 46.8491 42.1043 46.8431 42.1335C46.837 42.1626 46.8199 42.1883 46.7955 42.2052L44.7726 43.5448L46.9519 42.2865C46.978 42.2716 47.0089 42.2675 47.0381 42.2749C47.0672 42.2824 47.0923 42.3009 47.1081 42.3265C47.1238 42.3521 47.129 42.3828 47.1226 42.4122C47.1161 42.4416 47.0985 42.4673 47.0735 42.484L45.4424 43.5476L47.1991 42.5334C47.2251 42.519 47.2557 42.5152 47.2845 42.5227C47.3133 42.5303 47.3381 42.5486 47.3538 42.5739C47.3695 42.5992 47.3748 42.6295 47.3687 42.6587C47.3627 42.6878 47.3456 42.7135 47.3211 42.7304L45.2154 44.1299L47.4035 42.8676C47.4296 42.8534 47.4601 42.8498 47.4888 42.8574C47.5175 42.865 47.5422 42.8834 47.5578 42.9086C47.5734 42.9339 47.5787 42.9642 47.5726 42.9933C47.5665 43.0223 47.5495 43.0479 47.5251 43.0649L45.7752 44.2144L47.1633 43.413C47.1892 43.3984 47.2198 43.3943 47.2487 43.4015C47.2775 43.4088 47.3025 43.4268 47.3184 43.452C47.3344 43.4772 47.34 43.5075 47.3342 43.5367C47.3284 43.5659 47.3116 43.5917 47.2873 43.6089L45.0971 45.1216L45.9414 44.6331C45.9674 44.6187 45.9979 44.6148 46.0267 44.6223C46.0555 44.6297 46.0803 44.6479 46.096 44.6731C46.1118 44.6983 46.1172 44.7286 46.1113 44.7578C46.1054 44.7869 46.0885 44.8126 46.0642 44.8297L45.3006 45.3454C45.3223 45.3504 45.3422 45.3615 45.3577 45.3775C45.3733 45.3935 45.3839 45.4136 45.3883 45.4355C45.3927 45.4574 45.3907 45.4801 45.3826 45.5008C45.3744 45.5216 45.3605 45.5396 45.3424 45.5526L44.6073 46.0788C44.6233 46.0873 44.637 46.0995 44.6475 46.1143C44.6642 46.138 44.6713 46.1672 44.6675 46.196C44.6638 46.2248 44.6493 46.2511 44.6271 46.2698L43.9362 46.85C43.9492 46.8765 43.9517 46.9069 43.9431 46.9352C43.9344 46.9634 43.9154 46.9873 43.8897 47.002L43.4448 47.2591C43.4277 47.269 43.4082 47.2742 43.3884 47.2742Z" fill="#2D629B"/>
  <path d="M37.768 38.6522C37.7447 38.6523 37.722 38.6453 37.7028 38.6323C37.6835 38.6193 37.6686 38.6008 37.66 38.5792C37.6513 38.5576 37.6494 38.534 37.6544 38.5113C37.6593 38.4886 37.671 38.4679 37.6879 38.4519L38.0825 38.0757L37.447 38.4424C37.4224 38.4574 37.3931 38.4628 37.3648 38.4574C37.3365 38.4521 37.3112 38.4364 37.2938 38.4134C37.2765 38.3904 37.2683 38.3618 37.2708 38.3331C37.2734 38.3044 37.2866 38.2776 37.3078 38.2581L37.9075 37.6865L37.2003 38.0945C37.1758 38.1088 37.1469 38.1137 37.1191 38.1081C37.0913 38.1026 37.0664 38.087 37.0493 38.0644C37.0321 38.0418 37.0239 38.0137 37.026 37.9854C37.0282 37.9572 37.0407 37.9306 37.061 37.9109L37.5863 37.4015L37.1397 37.6591C37.1156 37.6729 37.0873 37.6776 37.06 37.6723C37.0328 37.667 37.0083 37.6521 36.991 37.6303C36.9738 37.6085 36.965 37.5812 36.9662 37.5535C36.9673 37.5257 36.9784 37.4993 36.9974 37.479L37.272 37.1891C37.2491 37.1842 37.2281 37.1725 37.212 37.1555C37.1958 37.1385 37.1852 37.1169 37.1816 37.0938C37.1779 37.0706 37.1813 37.0469 37.1914 37.0257C37.2015 37.0045 37.2178 36.9869 37.2381 36.9751L37.774 36.6653C37.7982 36.6512 37.8266 36.6462 37.8541 36.6514C37.8816 36.6566 37.9063 36.6716 37.9237 36.6935C37.941 36.7155 37.9499 36.743 37.9485 36.7709C37.9472 36.7989 37.9358 36.8254 37.9165 36.8456L37.7139 37.0594L38.2795 36.7328C38.304 36.7185 38.3329 36.7137 38.3607 36.7192C38.3885 36.7247 38.4134 36.7403 38.4305 36.7629C38.4477 36.7855 38.4559 36.8136 38.4538 36.8419C38.4516 36.8702 38.4391 36.8967 38.4187 36.9164L37.8945 37.4254L38.6246 37.0037C38.6492 36.9886 38.6785 36.9833 38.7068 36.9887C38.7351 36.994 38.7604 37.0097 38.7778 37.0327C38.7951 37.0557 38.8033 37.0843 38.8008 37.113C38.7982 37.1417 38.785 37.1684 38.7639 37.188L38.1644 37.7608L38.8082 37.3894C38.8328 37.3752 38.8617 37.3705 38.8896 37.3762C38.9174 37.3819 38.9421 37.3976 38.9592 37.4203C38.9762 37.4431 38.9843 37.4713 38.9819 37.4996C38.9795 37.5279 38.9669 37.5543 38.9463 37.5739L38.5517 37.9504L38.7815 37.8178C38.7947 37.8094 38.8095 37.8038 38.8249 37.8013C38.8404 37.7987 38.8562 37.7993 38.8714 37.8031C38.8866 37.8068 38.9009 37.8135 38.9134 37.8229C38.9259 37.8323 38.9364 37.8442 38.9442 37.8577C38.9521 37.8713 38.9571 37.8862 38.959 37.9018C38.9608 37.9173 38.9596 37.9331 38.9552 37.9481C38.9508 37.9631 38.9435 37.9771 38.9336 37.9892C38.9237 38.0014 38.9114 38.0113 38.8975 38.0186L37.8265 38.6369C37.8087 38.6472 37.7885 38.6525 37.768 38.6522Z" fill="#9EBBCE"/>
  <path d="M39.0544 44.2186C39.0307 44.2186 39.0075 44.2113 38.9881 44.1977C38.9686 44.1842 38.9538 44.165 38.9455 44.1427C38.9373 44.1205 38.9361 44.0962 38.9421 44.0733C38.9481 44.0503 38.9609 44.0298 38.979 44.0143L39.7268 43.3726L38.6624 43.9872C38.6365 44.0029 38.6055 44.0079 38.5759 44.0011C38.5464 43.9943 38.5207 43.9762 38.5043 43.9506C38.488 43.9251 38.4823 43.8942 38.4885 43.8645C38.4946 43.8348 38.5122 43.8087 38.5373 43.7918L39.5033 43.1117L38.4236 43.7347C38.3976 43.7495 38.3669 43.7538 38.3379 43.7465C38.3089 43.7393 38.2838 43.7211 38.2679 43.6958C38.2519 43.6705 38.2463 43.6401 38.2523 43.6108C38.2583 43.5815 38.2753 43.5556 38.2999 43.5386L40.3578 42.1228L38.2943 43.3141C38.2681 43.3298 38.2368 43.3345 38.2072 43.3273C38.1776 43.3201 38.152 43.3015 38.1359 43.2755C38.1199 43.2495 38.1148 43.2183 38.1216 43.1886C38.1284 43.1588 38.1467 43.133 38.1725 43.1166L40.3703 41.6777L38.8813 42.5371C38.8551 42.5528 38.8238 42.5575 38.7941 42.5503C38.7645 42.5431 38.7389 42.5244 38.7229 42.4985C38.7069 42.4725 38.7017 42.4413 38.7086 42.4115C38.7154 42.3818 38.7337 42.356 38.7594 42.3396L41.0339 40.8429L39.9482 41.4695C39.922 41.4841 39.8912 41.4881 39.8622 41.4805C39.8332 41.4729 39.8083 41.4544 39.7926 41.4288C39.777 41.4033 39.7718 41.3726 39.7782 41.3434C39.7846 41.3141 39.8021 41.2884 39.827 41.2718L40.6057 40.7695C40.5807 40.7695 40.5564 40.7614 40.5364 40.7465C40.5164 40.7316 40.5017 40.7106 40.4946 40.6867C40.4874 40.6627 40.4882 40.6372 40.4967 40.6137C40.5053 40.5902 40.5212 40.5702 40.5421 40.5565L41.2416 40.0979C41.2203 40.0918 41.2012 40.0799 41.1865 40.0634C41.1719 40.0468 41.1622 40.0265 41.1587 40.0047C41.1552 39.9828 41.158 39.9605 41.1667 39.9402C41.1755 39.9199 41.1899 39.9025 41.2082 39.8902L41.8596 39.4504C41.8428 39.4417 41.8284 39.429 41.8175 39.4135C41.8067 39.398 41.7999 39.38 41.7976 39.3612C41.7953 39.3424 41.7976 39.3234 41.8044 39.3057C41.8112 39.288 41.8222 39.2723 41.8364 39.2598L42.9723 38.2665C42.9691 38.2624 42.9663 38.258 42.9639 38.2535C42.9485 38.2269 42.9443 38.1952 42.9522 38.1655C42.9601 38.1358 42.9795 38.1104 43.0061 38.095L43.4921 37.8146C43.5171 37.8003 43.5464 37.7958 43.5745 37.802C43.6026 37.8081 43.6274 37.8244 43.6441 37.8478C43.6608 37.8712 43.6683 37.8999 43.665 37.9285C43.6618 37.957 43.6481 37.9834 43.6265 38.0024L42.8838 38.6522L43.9811 38.0186C44.0071 38.0042 44.0377 38.0003 44.0664 38.0078C44.0952 38.0152 44.12 38.0334 44.1358 38.0586C44.1515 38.0839 44.157 38.1141 44.1511 38.1433C44.1451 38.1724 44.1283 38.1981 44.1039 38.2152L44.0774 38.2333L44.1524 38.1899C44.1786 38.175 44.2095 38.1709 44.2386 38.1784C44.2677 38.1858 44.2928 38.2043 44.3086 38.2299C44.3243 38.2555 44.3296 38.2863 44.3231 38.3156C44.3167 38.345 44.2991 38.3707 44.274 38.3874L44.093 38.5062L44.2989 38.3874C44.3251 38.3725 44.3561 38.3683 44.3853 38.3759C44.4145 38.3834 44.4396 38.402 44.4553 38.4278C44.471 38.4535 44.4761 38.4843 44.4695 38.5138C44.4628 38.5432 44.445 38.5689 44.4198 38.5854L43.9059 38.9168L44.3613 38.6538C44.3875 38.6382 44.4188 38.6334 44.4484 38.6406C44.4781 38.6479 44.5037 38.6665 44.5197 38.6925C44.5357 38.7184 44.5408 38.7497 44.534 38.7794C44.5272 38.8091 44.5089 38.835 44.4831 38.8513L42.2101 40.3469L43.8252 39.4146C43.8513 39.4004 43.8818 39.3968 43.9105 39.4044C43.9392 39.412 43.9638 39.4304 43.9794 39.4556C43.995 39.4809 44.0003 39.5112 43.9942 39.5403C43.9882 39.5693 43.9712 39.595 43.9468 39.6119L41.7452 41.0538L42.785 40.4534C42.8109 40.4386 42.8416 40.4343 42.8706 40.4416C42.8996 40.4488 42.9247 40.467 42.9407 40.4923C42.9567 40.5176 42.9622 40.548 42.9563 40.5773C42.9503 40.6066 42.9332 40.6325 42.9087 40.6495L40.851 42.0653L41.6141 41.6243C41.64 41.6092 41.6707 41.6047 41.6998 41.6117C41.729 41.6187 41.7543 41.6368 41.7704 41.662C41.7865 41.6873 41.7923 41.7178 41.7864 41.7472C41.7806 41.7766 41.7635 41.8026 41.7389 41.8197L40.7238 42.5348C40.7491 42.5292 40.7755 42.5322 40.7988 42.5434C40.8221 42.5545 40.8411 42.5731 40.8526 42.5963C40.8642 42.6194 40.8677 42.6458 40.8625 42.6711C40.8574 42.6965 40.8439 42.7194 40.8243 42.7362L39.7082 43.6936C39.7143 43.7002 39.7197 43.7074 39.7242 43.7152C39.7396 43.7418 39.7438 43.7735 39.7358 43.8032C39.7278 43.833 39.7084 43.8583 39.6817 43.8737L39.112 44.2028C39.0945 44.2131 39.0746 44.2185 39.0544 44.2186Z" fill="#3778C6"/>
  <path d="M44.2115 38.0669C44.066 37.9249 43.874 37.8407 43.671 37.8297C43.4681 37.8188 43.268 37.882 43.1082 38.0074C43.0817 38.0274 43.0569 38.0511 43.0311 38.0724C42.5901 36.9952 42.1492 35.918 41.7082 34.8406C41.6087 34.5979 41.5092 34.3551 41.4098 34.1123C41.3438 33.9515 41.2949 33.7923 41.1152 33.7203C40.8398 33.6101 40.484 33.7995 40.2217 33.8659C39.8215 33.9669 39.4154 34.0431 39.0058 34.094C38.3343 34.177 37.6564 34.1944 36.9815 34.146C36.4348 34.1073 35.892 34.0257 35.3581 33.9021C35.1641 33.8566 34.9714 33.8058 34.78 33.7498C34.6219 33.6824 34.4557 33.6356 34.2856 33.6106C34.2023 33.6068 34.1197 33.6278 34.0483 33.6709C33.9768 33.7139 33.9197 33.7772 33.8841 33.8526C33.8263 34.0088 33.9407 34.21 33.986 34.3597C34.1141 34.786 34.2143 35.2201 34.2859 35.6594C34.504 36.9762 34.4708 38.3223 34.1879 39.6267C34.1485 39.8077 34.104 39.9876 34.0545 40.1663C33.9913 40.3151 33.9549 40.4739 33.947 40.6354C33.9544 40.7031 33.9798 40.7677 34.0206 40.8223C34.0615 40.8769 34.1162 40.9196 34.1791 40.9459C34.3348 41.0243 34.5068 41.08 34.6681 41.146L38.4186 42.6817C38.3608 42.7409 38.3007 42.7977 38.2448 42.859C37.682 43.4701 38.5481 44.3293 39.2196 44.1519C39.3866 44.1009 39.5394 44.0115 39.6659 43.8911L42.7361 46.9607C42.9499 47.1744 43.1622 47.3522 43.4962 47.2763C43.7239 47.1948 43.9232 47.0492 44.0702 46.8571L45.9352 44.9921L47.5002 43.4271C47.7638 43.1115 47.6626 42.8021 47.4032 42.5438L46.6851 41.8257L44.6736 39.8142L44.2057 39.3464L44.4116 39.1407C44.7606 38.7413 44.5288 38.3758 44.2115 38.0669ZM35.5649 41.2281C35.1764 41.0969 34.7966 40.9413 34.4277 40.7623C34.1322 40.5938 34.4163 40.0596 34.4776 39.8052C34.5609 39.4584 34.6263 39.1076 34.6737 38.7541C34.7554 38.1413 34.7836 37.5225 34.7579 36.9048C34.7238 35.9867 34.5695 35.0771 34.2991 34.1991L36.797 36.6973L37.1572 37.0577C37.0412 37.1774 36.9595 37.3259 36.9205 37.4879C36.8816 37.6499 36.8869 37.8194 36.9358 37.9787C36.9848 38.1379 37.0756 38.2811 37.1988 38.3933C37.322 38.5054 37.4731 38.5824 37.6363 38.6162C37.8605 38.6625 38.093 38.6476 38.3094 38.573C38.5258 38.4984 38.7182 38.367 38.8663 38.1924C39.004 38.0114 39.0715 37.7867 39.0565 37.5598C39.0414 37.3329 38.9448 37.1192 38.7844 36.958C38.6151 36.8108 38.4061 36.717 38.1836 36.6883C37.9612 36.6597 37.7352 36.6974 37.5341 36.7969C37.4878 36.8163 37.4428 36.839 37.3995 36.8647C36.5479 36.0129 35.6963 35.1612 34.8447 34.3096L34.4683 33.9334C34.4286 33.8937 34.712 33.9923 34.8928 34.0395C35.325 34.1515 35.7638 34.2368 36.2066 34.2948C37.4184 34.4544 38.6484 34.4092 39.8453 34.1611C40.0876 34.1107 40.8349 33.8023 40.9999 34.0232C41.0168 34.0545 41.0304 34.0875 41.0403 34.1216C41.1261 34.3189 41.2027 34.5203 41.2849 34.7192C41.7769 35.9208 42.2689 37.1224 42.7607 38.324C42.6268 38.4633 42.498 38.6072 42.3662 38.7378L39.1253 41.9801C38.9582 42.1472 38.7876 42.3124 38.6185 42.4793L35.5649 41.2281ZM37.4752 36.9974C37.5055 36.9653 37.539 36.9365 37.5752 36.9113C37.7198 36.8327 37.8869 36.8056 38.0489 36.8344C38.211 36.8632 38.3585 36.9462 38.4671 37.0698C38.5885 37.1947 38.6715 37.3518 38.7063 37.5224C38.741 37.6931 38.7261 37.8701 38.6632 38.0325C38.6173 38.1861 38.517 38.3177 38.3809 38.4025C38.2449 38.4874 38.0827 38.5197 37.9245 38.4934C37.7669 38.4562 37.6222 38.3771 37.5058 38.2646C37.3893 38.1521 37.3053 38.0103 37.2626 37.854C37.2264 37.7047 37.2268 37.5488 37.2639 37.3997C37.3009 37.2505 37.3734 37.1125 37.4752 36.9974ZM39.3136 43.9486C39.0624 44.0995 38.8828 43.9577 38.7143 43.7894C38.553 43.6687 38.4387 43.4955 38.391 43.2997C38.3921 43.1792 38.4205 43.0605 38.474 42.9525C38.5275 42.8446 38.6049 42.7501 38.7001 42.6763C38.7538 42.6494 38.793 42.6151 38.7965 42.5835C38.8724 42.5139 38.9469 42.4466 39.0086 42.3848L41.8737 39.52L42.9965 38.3971C43.0629 38.3739 43.1126 38.3321 43.1103 38.2834L43.1444 38.2493C43.2669 38.1274 43.3883 37.9543 43.5972 37.9882C43.7768 38.0177 43.9546 38.2335 44.0723 38.3625C44.1811 38.464 44.2455 38.6043 44.2514 38.753C44.2573 38.9017 44.2043 39.0467 44.1038 39.1565L43.9752 39.2879C43.94 39.2992 43.9077 39.3182 43.8806 39.3433C42.6226 40.6006 41.3647 41.8586 40.1066 43.1173L39.5654 43.6588C39.5475 43.6777 39.5368 43.7024 39.5352 43.7284L39.493 43.7706C39.4399 43.8364 39.3797 43.8961 39.3136 43.9486ZM45.6377 41.2316L46.7939 42.3881C47.0302 42.6241 47.5266 42.972 47.2212 43.3375L44.1326 46.4264C43.9583 46.6005 43.7917 46.7977 43.603 46.956C43.3765 47.1459 43.207 46.9792 43.046 46.8168L41.3459 45.1177L39.91 43.6813L43.6178 39.9735L43.9987 39.5926L45.6377 41.2316Z" fill="#262626"/>
  <path d="M41.4648 43.9206L41.1715 43.6279C41.1411 43.5995 41.1026 43.5814 41.0613 43.5762C41.0201 43.5711 40.9783 43.5792 40.9419 43.5994C40.8897 43.6251 40.8027 43.717 40.8642 43.779L42.9258 45.8406L43.2192 46.134C43.2494 46.1625 43.2879 46.1806 43.3291 46.1858C43.3703 46.191 43.4121 46.1829 43.4485 46.1627C43.5007 46.137 43.5877 46.0448 43.5262 45.9831L41.4648 43.9206Z" fill="#262626"/>
  </g>
  </g>
  <defs>
  <clipPath id="clip0_280_544">
  <rect width="54" height="54" fill="white" transform="translate(0 0.00146484)"/>
  </clipPath>
  <clipPath id="clip1_280_544">
  <rect width="13.9252" height="13.9252" fill="white" transform="translate(33.8032 33.4857)"/>
  </clipPath>
  </defs>
  </svg>
  