<svg width="54" height="55" viewBox="0 0 54 55" fill="none" xmlns="http://www.w3.org/2000/svg">
  <g clip-path="url(#clip0_280_503)">
  <path fill-rule="evenodd" clip-rule="evenodd" d="M14.6642 53.6459C14.5062 53.6434 14.3598 53.5617 14.2748 53.4286C14.1487 53.2125 14.2167 52.9359 14.4286 52.8032L16.4943 51.5259L12.934 53.5824C12.7964 53.6923 12.6073 53.7122 12.4497 53.6335C12.2921 53.5551 12.1942 53.3921 12.1988 53.2158C12.2037 53.0396 12.3103 52.8824 12.4721 52.8123L21.912 46.8783L10.2795 53.5824C10.0693 53.7069 9.79804 53.638 9.6728 53.4286C9.54548 53.2179 9.61018 52.9442 9.81753 52.8123L23.1167 44.4054L7.56194 53.383C7.3463 53.507 7.07176 53.434 6.94569 53.22C6.82045 53.0072 6.88888 52.7331 7.09955 52.6042L21.477 43.5445L6.62886 52.1509C6.4157 52.2765 6.14158 52.2077 6.0126 51.997C5.90022 51.7909 5.96781 51.533 6.16646 51.4081L14.5647 46.2351L6.52891 50.8466C6.31617 50.9719 6.04205 50.9034 5.91307 50.6924C5.85004 50.5895 5.83055 50.4651 5.85958 50.3477C5.88861 50.2304 5.96325 50.1296 6.06693 50.0674L14.5647 44.84L6.52891 49.4785C6.31617 49.6038 6.04205 49.5353 5.91307 49.3247C5.84713 49.2206 5.82598 49.0945 5.85501 48.9746C5.88404 48.8552 5.96076 48.7524 6.06693 48.6906L7.44417 47.857L6.53803 48.3825C6.32778 48.5069 6.05656 48.438 5.93091 48.2282C5.80401 48.0175 5.86828 47.7442 6.07605 47.6123L20.9607 38.281L8.54936 45.4472C8.3362 45.5724 8.06208 45.504 7.93311 45.2933C7.80704 45.0772 7.87546 44.8006 8.08738 44.6679L16.7659 39.305L10.3612 43.0012C10.1464 43.1236 9.8731 43.051 9.74744 42.8387C9.62137 42.6259 9.68856 42.3518 9.89923 42.222L19.3392 36.3423L12.2635 40.4284C12.0486 40.5582 11.7687 40.4893 11.6385 40.2741C11.5083 40.0589 11.5775 39.7794 11.7924 39.6492L26.2876 30.327L14.8363 36.9133C14.626 37.0187 14.3698 36.9453 14.247 36.7446C14.1243 36.5438 14.1757 36.2826 14.3652 36.1432L27.3384 27.745L17.3731 33.5069C17.2702 33.5687 17.1466 33.5866 17.0305 33.5555C16.9144 33.5248 16.8157 33.4485 16.7572 33.344C16.6303 33.1333 16.6946 32.8596 16.9019 32.7277L24.9829 27.5729L19.3479 30.8255C19.1351 30.9507 18.861 30.8819 18.732 30.6712C18.6051 30.4605 18.6694 30.1872 18.8768 30.0553L22.7634 27.6003L20.9516 28.642C20.738 28.7623 20.4676 28.6947 20.3353 28.4878C20.2067 28.2796 20.2669 28.0067 20.4713 27.8719L30.79 20.9687L23.5426 25.1722C23.3295 25.2974 23.0554 25.229 22.9264 25.0183C22.7987 24.8048 22.8625 24.5286 23.0715 24.393L25.6987 22.7171L25.1007 23.0613C24.8846 23.1799 24.6138 23.1082 24.4848 22.8984C24.3579 22.6877 24.4222 22.4144 24.6296 22.2821L26.4414 21.15C26.2283 21.1927 26.0147 21.0778 25.933 20.8762C25.8509 20.6747 25.9239 20.4437 26.1063 20.3255L33.4354 15.2342L29.0508 17.7618C28.8405 17.8862 28.5693 17.8174 28.4436 17.6075C28.3134 17.4014 28.3694 17.1294 28.5705 16.9917L32.2668 14.4732L30.8987 15.2611C30.6926 15.3719 30.4363 15.3072 30.3069 15.1122C30.1779 14.9173 30.2182 14.6561 30.4006 14.5093L34.3412 11.6739L32.9552 12.4801C32.7504 12.607 32.482 12.5514 32.3444 12.3536C32.2067 12.1558 32.2486 11.885 32.4389 11.737L35.4103 9.31839L35.2112 9.42704C35.0205 9.54482 34.7716 9.50211 34.631 9.32751C34.4863 9.1579 34.4863 8.90783 34.631 8.73863L36.4429 6.77251C36.333 6.55935 36.4085 6.29684 36.6154 6.17451L37.4125 5.72165C37.6012 5.60926 37.8438 5.65156 37.9831 5.82118C38.1283 5.99079 38.1283 6.24086 37.9831 6.41006L37.2495 7.23449L39.795 5.74902C39.9986 5.62709 40.2619 5.68681 40.393 5.88463C40.5253 6.07995 40.4859 6.34371 40.3026 6.49176L37.3399 8.91074L41.7611 6.35573C41.9697 6.23505 42.2363 6.2985 42.3678 6.50088C42.5001 6.7045 42.4482 6.97613 42.25 7.11672L38.3095 9.94335L42.2591 7.65127C42.4719 7.51857 42.7518 7.58368 42.8845 7.79642C43.0168 8.00875 42.9521 8.28868 42.7394 8.42138L39.0431 10.9399L42.2591 9.08284C42.4702 8.9634 42.7377 9.03141 42.8663 9.23669C42.9314 9.33539 42.9546 9.45566 42.9306 9.57095C42.9069 9.68665 42.8381 9.78825 42.7394 9.85295L35.4103 14.9534L42.2591 10.9942C42.4723 10.869 42.7464 10.9374 42.8754 11.1481C43.0031 11.3616 42.9388 11.6378 42.7303 11.7735L41.4799 12.5705L42.2591 12.1177C42.4744 11.9874 42.7543 12.0567 42.8845 12.2715C43.0143 12.4867 42.9455 12.7667 42.7303 12.8969L40.094 14.5818L42.2591 13.3589C42.4694 13.2345 42.7406 13.3033 42.8663 13.5127C42.9965 13.7188 42.9405 13.9909 42.7394 14.129L32.4207 21.0048L42.2591 15.3246C42.4698 15.2192 42.7257 15.2922 42.8484 15.4934C42.9716 15.6941 42.9202 15.9553 42.7303 16.0947L38.8349 18.5497L42.2591 16.5749C42.4723 16.4497 42.7464 16.5181 42.8754 16.7288C43.0031 16.9423 42.9388 17.2185 42.7303 17.3541L34.6402 22.5089L42.2591 18.1151C42.3612 18.0521 42.4839 18.0334 42.5996 18.0625C42.7157 18.0911 42.8148 18.1657 42.8754 18.269C43.0023 18.4797 42.938 18.753 42.7303 18.8848L29.7574 27.283L42.2591 20.0356C42.4752 19.917 42.7464 19.9888 42.8754 20.1986C43.0023 20.4093 42.938 20.6826 42.7303 20.8145L28.2354 30.1366L42.2591 22.0378C42.4698 21.9321 42.7257 22.0055 42.8484 22.2062C42.9716 22.4069 42.9202 22.6686 42.7303 22.8075L33.2903 28.7598L42.2591 23.5776C42.4723 23.4524 42.7464 23.5208 42.8754 23.7319C42.938 23.8335 42.9571 23.9563 42.9281 24.0724C42.899 24.1881 42.8244 24.2876 42.7211 24.3477L34.0422 29.6655L42.2591 24.9275C42.4698 24.8222 42.7257 24.8956 42.8484 25.0963C42.9716 25.297 42.9202 25.5583 42.7303 25.6976L27.8365 35.038L42.2591 26.7215C42.4723 26.5963 42.7464 26.6647 42.8754 26.8754C43.0015 27.091 42.933 27.3681 42.7211 27.5003L41.3169 28.3521L42.2231 27.8085C42.4358 27.6832 42.7099 27.7517 42.8389 27.9623C42.9019 28.0656 42.9214 28.1896 42.8924 28.3074C42.8634 28.4247 42.7887 28.5255 42.685 28.5877L34.1873 33.8151L42.2231 29.1766C42.4358 29.0513 42.7099 29.1198 42.8389 29.3304C42.9015 29.432 42.9206 29.5548 42.8916 29.6709C42.8625 29.787 42.7883 29.8861 42.685 29.9467L34.3594 35.1015L42.2591 30.5717C42.362 30.5099 42.4856 30.492 42.6017 30.5227C42.7178 30.5534 42.8165 30.6301 42.8754 30.7346C43.0023 30.9453 42.938 31.2186 42.7303 31.3509L28.3441 40.4101L42.2591 32.3744C42.4698 32.269 42.7257 32.342 42.8484 32.5432C42.9716 32.7439 42.9202 33.0052 42.7303 33.1445L29.431 41.4428L42.2591 34.0415C42.362 33.9793 42.4856 33.9619 42.6017 33.9926C42.7178 34.0233 42.8165 34.0996 42.8754 34.2045C43.0023 34.4152 42.938 34.6884 42.7303 34.8203L33.2812 40.7904L42.2591 35.6087C42.474 35.4863 42.7473 35.5585 42.8729 35.7712C42.999 35.9836 42.9314 36.2581 42.7211 36.3879L40.6376 37.6743L42.2591 36.7682C42.362 36.7064 42.4856 36.6886 42.6017 36.7193C42.7178 36.7499 42.8165 36.8267 42.8754 36.9312C43.0023 37.1418 42.938 37.4156 42.7303 37.5474L39.8584 39.3593L42.2591 37.9733C42.4698 37.8676 42.7257 37.941 42.8484 38.1417C42.9716 38.3424 42.9202 38.6037 42.7303 38.743L38.7806 41.2346L42.2591 39.2233C42.4727 39.103 42.7435 39.1706 42.8754 39.3775C42.999 39.5865 42.9397 39.8557 42.7394 39.9934L35.2655 44.84L42.2591 40.7995C42.4719 40.6673 42.7518 40.732 42.8845 40.9447C43.0168 41.1574 42.9521 41.437 42.7394 41.5697L35.7002 46.3168L42.2591 42.5301C42.4702 42.4107 42.7377 42.4787 42.8663 42.684C42.9318 42.7798 42.9563 42.898 42.9339 43.012C42.9119 43.126 42.8451 43.2264 42.7485 43.2911L35.791 48.3099L42.2591 44.5775C42.4669 44.4515 42.7377 44.5161 42.8663 44.7223C42.9944 44.9221 42.9471 45.1867 42.7576 45.3294L38.2912 48.5906L42.2591 46.3077C42.4657 46.1849 42.7319 46.2446 42.8663 46.4437C42.9919 46.6419 42.9492 46.9032 42.7667 47.0508L39.795 49.3425L42.2774 47.9113C42.4748 47.7973 42.7265 47.8479 42.8642 48.0295C43.0023 48.2112 42.9836 48.467 42.8211 48.6271L40.3747 51.0731L42.2774 49.9679C42.4648 49.8567 42.7041 49.8949 42.848 50.0583C42.9778 50.23 42.9778 50.4668 42.848 50.638L42.0601 51.6711C42.1998 51.569 42.3852 51.5562 42.5382 51.6366C42.6909 51.7175 42.7846 51.8784 42.7792 52.0514C42.7738 52.2243 42.6705 52.379 42.5129 52.4499L40.5199 53.6007C40.3324 53.7114 40.0927 53.6733 39.9492 53.5099C39.814 53.3436 39.814 53.1055 39.9492 52.9392L40.7372 51.9066L37.811 53.5824C37.6157 53.6952 37.3669 53.6471 37.2279 53.4692C37.0886 53.2913 37.1019 53.0384 37.2586 52.8758L39.7137 50.4299L34.2777 53.5824C34.0716 53.7052 33.8054 53.6455 33.671 53.4464C33.535 53.2474 33.5785 52.9766 33.7705 52.8306L36.751 50.5476L31.4606 53.5824C31.2545 53.6932 30.9978 53.6285 30.8688 53.4336C30.7394 53.2387 30.7801 52.9774 30.9621 52.8306L35.4285 49.5963L28.4619 53.5824C28.2574 53.6778 28.0136 53.6082 27.8904 53.4191C27.7672 53.2299 27.8025 52.979 27.9725 52.8306L34.9392 47.7844L24.9738 53.5642C24.7664 53.6637 24.518 53.592 24.3953 53.3975C24.2725 53.203 24.3148 52.9475 24.4936 52.8032L31.5419 48.0474L21.9298 53.5824C21.7196 53.7069 21.4484 53.638 21.3231 53.4286C21.1942 53.22 21.2547 52.9471 21.4587 52.8123L28.9239 47.9205L19.1036 53.5824C18.8934 53.7069 18.6217 53.638 18.4965 53.4286C18.3696 53.2179 18.4339 52.9442 18.6412 52.8123L22.5822 50.3212L16.9293 53.5824C16.7207 53.6724 16.4777 53.5945 16.3612 53.3996C16.2442 53.2051 16.2894 52.9538 16.4673 52.8123L19.3479 51.0005L14.8906 53.5824C14.823 53.6256 14.7442 53.6476 14.6642 53.6459Z" fill="#AA8652"/>
  <path fill-rule="evenodd" clip-rule="evenodd" d="M15.6515 48.2104C15.4935 48.2079 15.3471 48.1262 15.2621 47.9926C15.1352 47.7824 15.1995 47.5087 15.4073 47.3768L20.6525 44.0069L13.5229 48.1469C13.3122 48.2522 13.0563 48.1793 12.9336 47.9781C12.8104 47.7774 12.8618 47.5161 13.0517 47.3768L24.1858 40.0295L10.1256 48.183C9.91491 48.2887 9.65904 48.2153 9.53628 48.0146C9.41312 47.8139 9.46454 47.5522 9.65447 47.4129L15.09 44.0339L7.81525 48.1469C7.67757 48.2568 7.48847 48.2767 7.33088 48.1979C7.17329 48.1191 7.07542 47.9561 7.08039 47.7803C7.08496 47.6041 7.19154 47.4469 7.35327 47.3768L14.5285 42.8926L5.46885 48.1469C5.25859 48.2522 5.0023 48.1793 4.87955 47.9781C4.7568 47.7774 4.80822 47.5161 4.99774 47.3768L20.1814 37.6287L2.24368 47.9748C2.13834 48.0316 2.01435 48.0436 1.9003 48.0076C1.78584 47.9719 1.69088 47.8914 1.63696 47.7845C1.52499 47.5908 1.57103 47.3445 1.74562 47.2047L4.1646 45.7279L1.41053 47.3407C1.2065 47.4402 0.960164 47.3697 0.839485 47.1773C0.712585 46.9667 0.776864 46.6934 0.984632 46.5615L17.9436 35.799L1.09328 45.5376C0.877223 45.6562 0.60642 45.5844 0.477447 45.3746C0.351791 45.1619 0.420632 44.8877 0.631302 44.7588L8.78484 39.7487L1.09328 44.1608C0.990438 44.2225 0.866855 44.2404 0.750738 44.2097C0.63462 44.1786 0.53592 44.1023 0.477447 43.9978C0.350132 43.7871 0.414826 43.5134 0.622179 43.3815L16.0231 33.7243L1.09328 42.3489C0.990438 42.4107 0.866855 42.4285 0.750738 42.3974C0.63462 42.3667 0.53592 42.2904 0.477447 42.1859C0.350132 41.9753 0.414826 41.7015 0.622179 41.5697L17.0197 31.2331L1.09328 40.4554C0.990438 40.5171 0.866855 40.535 0.750738 40.5043C0.63462 40.4736 0.53592 40.3969 0.477447 40.2924C0.350132 40.0817 0.414826 39.8084 0.622179 39.6761L17.4547 29.0497L1.09328 38.4988C0.990438 38.5606 0.866855 38.578 0.750738 38.5473C0.63462 38.5166 0.53592 38.4403 0.477447 38.3354C0.350132 38.1247 0.414826 37.8514 0.622179 37.7195L14.791 28.8685L1.09328 36.7773C0.883029 36.8827 0.626741 36.8097 0.503988 36.6085C0.381235 36.4078 0.432658 36.1466 0.622179 36.0072L14.4286 27.41L1.09328 35.1015C0.990438 35.1633 0.866855 35.1807 0.750738 35.15C0.63462 35.1193 0.53592 35.043 0.477447 34.9381C0.350132 34.7274 0.414826 34.4541 0.622179 34.3223L11.6202 27.5095L1.09328 33.5882C0.883029 33.694 0.626741 33.6206 0.503988 33.4199C0.381235 33.2192 0.432658 32.9575 0.622179 32.8185L18.4056 21.5124L1.09328 31.4774C0.880126 31.603 0.60642 31.5342 0.477447 31.3235C0.349302 31.11 0.413582 30.8338 0.622179 30.6986L11.8105 23.7771L1.09328 30.0189C0.883029 30.1246 0.626741 30.0512 0.503988 29.8505C0.381235 29.6498 0.432658 29.3881 0.622179 29.2488L17.672 18.4685L1.09328 28.044C0.98712 28.1038 0.86105 28.1174 0.744517 28.0814C0.627985 28.0457 0.531358 27.9632 0.477447 27.8537C0.350132 27.643 0.414826 27.3697 0.622179 27.2378L16.476 17.2725L1.07504 26.1505C0.877638 26.2732 0.619276 26.2264 0.477447 26.0418C0.349302 25.8287 0.413582 25.5521 0.622179 25.4169L5.64095 22.3364L1.11153 24.964C0.898373 25.0893 0.624252 25.0204 0.495279 24.8097C0.391602 24.6115 0.445099 24.3668 0.622179 24.23L10.7236 17.9882L1.08416 23.5142C0.978826 23.5714 0.854829 23.583 0.740785 23.5474C0.626326 23.5113 0.531358 23.4308 0.477447 23.3243C0.350132 23.1136 0.414826 22.8399 0.622179 22.708L17.2735 12.1811L1.08416 21.5124C0.871417 21.6377 0.597296 21.5688 0.468323 21.3581C0.346814 21.1417 0.414411 20.8684 0.622179 20.7332L6.3841 17.1908L1.08416 20.2621C0.8681 20.3807 0.597296 20.3089 0.468323 20.0991C0.343082 19.8859 0.411508 19.6118 0.622179 19.4828L7.18117 15.4424L1.08416 18.9305C0.946479 19.0399 0.757373 19.0598 0.599785 18.9815C0.442196 18.9027 0.344326 18.7397 0.349302 18.5639C0.353864 18.3876 0.460444 18.23 0.622179 18.1603L6.40194 14.5366L1.08416 17.6258C0.982144 17.6847 0.860635 17.7009 0.747005 17.6702C0.632961 17.6395 0.53592 17.5648 0.477447 17.4628C0.353449 17.2534 0.412752 16.9842 0.613055 16.8466L9.61798 11.0938L1.08416 16.0221C0.869344 16.1445 0.596467 16.0723 0.470397 15.8596C0.344326 15.6472 0.411923 15.3727 0.622179 15.2433L3.72957 13.2863L1.08416 14.8174C0.873905 14.9227 0.617617 14.8498 0.494864 14.6486C0.372111 14.4479 0.423535 14.1866 0.613055 14.0473L9.07472 8.43964L1.08416 13.0508C0.868929 13.181 0.589417 13.1117 0.459199 12.8969C0.328982 12.6817 0.397823 12.4017 0.613055 12.2715L2.57918 11.0125L1.08416 11.9182C0.863952 12.0314 0.593564 11.9468 0.477447 11.7283C0.346814 11.5221 0.402799 11.2497 0.603932 11.112L6.61053 7.0172L1.08416 10.188C0.875564 10.3091 0.608908 10.2453 0.477447 10.0429C0.345985 9.84218 0.398238 9.57345 0.595223 9.43618L6.09422 5.4409L5.36932 5.85768C5.16984 5.97546 4.91356 5.9203 4.78044 5.73078C4.63612 5.54873 4.65976 5.2858 4.83476 5.13277L8.84829 1.50907C8.78525 1.30421 8.87151 1.08276 9.05647 0.974518L10.1347 0.313062C10.3367 0.194456 10.5959 0.249612 10.7323 0.439962C10.87 0.625751 10.8426 0.885356 10.6693 1.03797L8.53104 2.98584L13.1695 0.313062C13.3781 0.192383 13.6448 0.255833 13.7762 0.458209C13.9077 0.658927 13.8554 0.928071 13.6585 1.06534L8.16858 5.0602L16.3856 0.313062C16.5933 0.187406 16.8641 0.251686 16.9927 0.458209C17.0578 0.556495 17.081 0.676759 17.057 0.792462C17.0333 0.908165 16.9645 1.00935 16.8658 1.07405L10.8592 5.20535L19.3117 0.313062C19.522 0.207727 19.7783 0.28113 19.901 0.481848C20.0238 0.682565 19.9724 0.94383 19.7828 1.08317L17.7989 2.35176L21.3409 0.313062C21.5511 0.18865 21.8224 0.257492 21.948 0.467333C22.0766 0.675515 22.0164 0.948392 21.812 1.08317L13.3507 6.69124L24.394 0.313062C24.6071 0.187821 24.8812 0.256662 25.0102 0.467333C25.1354 0.680077 25.067 0.954198 24.8559 1.08317L21.7577 3.04017L26.4866 0.322186C26.5882 0.255833 26.7122 0.233853 26.8304 0.261224C26.9481 0.288595 27.0501 0.362827 27.1119 0.467333C27.1762 0.566862 27.1978 0.687956 27.1725 0.803659C27.1468 0.919362 27.0763 1.02014 26.9759 1.08317L17.9527 6.8451L29.268 0.313062C29.4782 0.18865 29.7495 0.257492 29.8751 0.467333C30.002 0.678003 29.9377 0.951295 29.73 1.08317L23.9411 4.70687L31.5327 0.313062C31.7459 0.187821 32.02 0.256662 32.149 0.467333C32.2116 0.568936 32.2307 0.691689 32.2016 0.807806C32.1726 0.923509 32.0979 1.02304 31.9947 1.08317L25.4813 5.13277L33.8339 0.313062C34.0442 0.18865 34.3154 0.257492 34.441 0.467333C34.5688 0.680492 34.5045 0.957101 34.2959 1.09229L28.5431 4.62559L35.7092 0.494289C35.9195 0.388953 36.1758 0.462356 36.2985 0.663074C36.4213 0.863792 36.3698 1.12506 36.1803 1.2644L19.5112 11.8369L36.724 1.87153C36.8268 1.80974 36.9504 1.7919 37.0665 1.82259C37.1827 1.85328 37.2809 1.93 37.3398 2.03451C37.4667 2.24518 37.4025 2.51847 37.1951 2.65076L27.1119 8.88338L36.8235 3.29397C37.0367 3.16831 37.3104 3.23715 37.4394 3.44782C37.5658 3.66347 37.4974 3.9405 37.2855 4.07279L32.2846 7.12585L36.8144 4.50781C37.0251 4.40248 37.2809 4.47547 37.4037 4.67618C37.5269 4.8769 37.4754 5.13858 37.2855 5.27792L21.4135 15.2433L36.8144 6.35574C36.9172 6.29395 37.0408 6.27653 37.1569 6.30722C37.2731 6.33791 37.3718 6.41422 37.4306 6.51914C37.5575 6.72939 37.4933 7.0031 37.2855 7.13497L20.2448 17.8883L36.8235 8.3397C37.0383 8.21736 37.3112 8.28993 37.4373 8.50226C37.5634 8.715 37.4958 8.98913 37.2855 9.11893L26.1063 16.0765L36.8235 9.87991C37.0396 9.76131 37.3104 9.83305 37.4394 10.0429C37.5667 10.2536 37.502 10.5273 37.2946 10.6591L19.493 21.9201L36.8235 11.9547C37.0367 11.8294 37.3104 11.8979 37.4394 12.1085C37.5024 12.2101 37.5211 12.3329 37.492 12.449C37.4634 12.5651 37.3888 12.6642 37.2855 12.7248L26.3145 19.5193L36.8235 13.4493C36.9264 13.3875 37.0499 13.3697 37.1661 13.4008C37.2822 13.4315 37.3809 13.5078 37.4394 13.6123C37.5667 13.8229 37.502 14.0966 37.2946 14.2285L23.4882 22.7897L36.7962 15.1073C37.0068 15.0019 37.2627 15.0749 37.3859 15.2757C37.5086 15.4764 37.4572 15.7381 37.2673 15.8774L23.1349 24.7285L36.8235 16.8196C37.0388 16.6894 37.3187 16.7582 37.4485 16.9735C37.5787 17.1887 37.5099 17.4686 37.2946 17.5984L20.4621 28.2253L36.8235 18.7944C37.0388 18.6642 37.3187 18.7335 37.4485 18.9483C37.5787 19.1635 37.5099 19.4434 37.2946 19.5737L20.8972 29.9011L36.8235 20.688C37.0388 20.5578 37.3187 20.6266 37.4485 20.8418C37.5787 21.0571 37.5099 21.337 37.2946 21.4668L21.8937 31.1332L36.8235 22.509C37.0383 22.3866 37.3112 22.4588 37.4373 22.6711C37.5634 22.8838 37.4958 23.158 37.2855 23.2878L29.132 28.2887L36.8053 23.8584C37.0205 23.7286 37.3004 23.7974 37.4306 24.0127C37.5605 24.2279 37.4916 24.5078 37.2764 24.6376L20.2809 35.4001L36.8235 25.8515C37.0367 25.7262 37.3104 25.7951 37.4394 26.0058C37.5658 26.2214 37.4974 26.4984 37.2855 26.6307L34.8665 28.0984L36.8235 26.948C37.0338 26.8422 37.2901 26.9156 37.4128 27.1163C37.5356 27.3171 37.4841 27.5787 37.2946 27.7181L22.0658 37.4931L36.8235 28.9771C37.0338 28.8718 37.2901 28.9448 37.4128 29.1459C37.5356 29.3466 37.4841 29.6079 37.2946 29.7472L30.1285 34.1954L36.8235 30.327C37.0388 30.1968 37.3187 30.266 37.4485 30.4808C37.5787 30.6961 37.5099 30.976 37.2946 31.1062L31.8591 34.4852L36.7962 31.6317C37.0101 31.5114 37.2805 31.579 37.4124 31.7855C37.536 31.9945 37.4767 32.2641 37.2764 32.4018L26.2058 39.7761L36.8596 33.6247C37.0736 33.5045 37.344 33.5721 37.4759 33.7786C37.6028 33.9893 37.5385 34.2626 37.3307 34.3948L32.0494 37.8191L36.8235 35.0559C36.9612 34.97 37.1341 34.9642 37.2768 35.0405C37.4199 35.1168 37.5115 35.2637 37.5169 35.4258C37.5227 35.5875 37.441 35.7401 37.3037 35.826L28.7152 41.7418L36.8687 37.0672C37.0761 36.9681 37.3249 37.0398 37.4477 37.2339C37.57 37.4284 37.5277 37.6839 37.349 37.8282L31.5601 41.8326L36.8235 38.7252C37.0313 38.5991 37.3021 38.6638 37.4306 38.8699C37.5629 39.0736 37.5107 39.3456 37.3129 39.4862L33.0912 42.4667L36.8235 40.3193C37.0313 40.1937 37.3021 40.258 37.4306 40.4645C37.5679 40.6673 37.5153 40.9426 37.3129 41.0803L35.9448 41.9865L36.8509 41.4793C37.0595 41.3582 37.3261 41.422 37.4576 41.624C37.5907 41.8226 37.5426 42.091 37.349 42.2311L36.1712 43.0916L36.8509 42.7022C37.0533 42.5753 37.3208 42.6359 37.4485 42.8378C37.5828 43.0307 37.5476 43.2944 37.3672 43.445L36.0625 44.5232L36.8235 44.0882C37.0155 43.9679 37.2681 44.0152 37.4033 44.1968C37.5522 44.3648 37.5522 44.6178 37.4033 44.7857L36.4428 45.8096L36.8509 45.5741C36.9537 45.5119 37.0773 45.4944 37.193 45.5251C37.3091 45.5558 37.4078 45.6321 37.4667 45.737C37.5911 45.9552 37.519 46.2326 37.3037 46.362L34.2055 48.1739C34.0118 48.2867 33.7651 48.2406 33.6249 48.0665C33.4843 47.8923 33.4926 47.6414 33.6436 47.4763L34.6131 46.4528L31.6414 48.1469C31.4381 48.2684 31.1748 48.2087 31.0438 48.0109C30.9094 47.818 30.9446 47.5543 31.125 47.4042L32.4023 46.3711L29.3223 48.183C29.1162 48.2937 28.8599 48.229 28.7305 48.0341C28.6016 47.8392 28.6418 47.5779 28.8243 47.4311L29.9929 46.5797L27.1571 48.1469C26.9494 48.273 26.6786 48.2083 26.55 48.0018C26.4127 47.7994 26.4654 47.5236 26.6678 47.3859L28.0177 46.4346L25.0645 48.1469C24.8559 48.268 24.5889 48.2041 24.4574 48.0018C24.3347 47.7965 24.3852 47.5315 24.5752 47.3859L28.7969 44.3963L22.3013 48.1469C22.0928 48.268 21.8257 48.2041 21.6942 48.0018C21.564 47.7961 21.62 47.5236 21.8211 47.3859L27.61 43.3815L19.3569 48.1469C19.1479 48.2663 18.8817 48.2008 18.7515 47.9984C18.6212 47.7957 18.6723 47.5265 18.868 47.3859L27.4653 41.4428L15.8784 48.1469C15.8104 48.1888 15.7316 48.2108 15.6515 48.2104Z" fill="#FCEEB9"/>
  <path fill-rule="evenodd" clip-rule="evenodd" d="M2.6511 10.1607C2.45951 10.1599 2.28906 10.0379 2.22603 9.8567C2.16299 9.67589 2.22064 9.47434 2.37034 9.35449L4.93406 7.30709L2.54245 8.69304C2.33468 8.80708 2.07507 8.74861 1.93573 8.55743C1.8644 8.45997 1.83496 8.33846 1.85362 8.21944C1.87228 8.10042 1.93781 7.99384 2.03526 7.92334L5.65896 5.09671C5.60256 5.06436 5.55363 5.02123 5.51423 4.96981C5.37406 4.78651 5.3977 4.5269 5.56856 4.3718L8.80243 1.38219C8.78585 1.21921 8.85883 1.05996 8.99278 0.965408L9.60904 0.612079C9.80685 0.497205 10.0594 0.547385 10.1979 0.729855C10.3344 0.917303 10.3111 1.17691 10.1432 1.33698L9.05623 2.34265L9.60904 2.03452C9.81224 1.92836 10.0631 1.99139 10.1925 2.18091C10.3219 2.37043 10.2892 2.62672 10.1162 2.77726L7.75157 4.58911L9.60904 3.52041C9.81183 3.39351 10.0789 3.45406 10.2066 3.65602C10.3439 3.8501 10.3041 4.11759 10.1162 4.26315L7.60684 6.33792L9.64512 5.15104C9.84086 5.04114 10.0876 5.09132 10.2249 5.26881C10.3738 5.43677 10.3738 5.68974 10.2249 5.85769L8.41302 7.71475L9.64512 7.01721C9.83256 6.90649 10.0723 6.94422 10.2158 7.10762C10.3472 7.27516 10.3472 7.51113 10.2158 7.67867L9.66336 8.41228C9.794 8.43302 9.90804 8.51347 9.97108 8.62959C10.0333 8.73285 10.0507 8.85643 10.02 8.97214C9.98932 9.08825 9.91302 9.18695 9.8081 9.24584L8.34045 10.0972C8.15549 10.2034 7.9216 10.1657 7.77894 10.0068C7.6425 9.83763 7.6425 9.59627 7.77894 9.42707L8.16835 8.91988L6.1027 10.0972C5.90737 10.2146 5.65482 10.1681 5.51423 9.98858C5.36369 9.81772 5.36369 9.56185 5.51423 9.39057L7.32608 7.57872L2.88665 10.0972C2.81698 10.1433 2.73446 10.1652 2.6511 10.1607Z" fill="#FCC80A"/>
  <path fill-rule="evenodd" clip-rule="evenodd" d="M41.6064 53.5551C41.4065 53.5646 41.2253 53.4385 41.1635 53.2478C41.1021 53.0574 41.1759 52.8492 41.3439 52.7398L45.2301 49.8953L39.1513 53.4103C38.9377 53.5306 38.6674 53.463 38.5355 53.2565C38.4049 53.0504 38.4608 52.7779 38.6624 52.6402L42.9471 49.7141L37.2851 52.9844C37.0724 53.1171 36.7929 53.052 36.6602 52.8397C36.5275 52.627 36.5926 52.347 36.8049 52.2143L42.6846 48.2195L35.5459 52.3143C35.3298 52.4329 35.0586 52.3611 34.9296 52.1509C34.8027 51.9406 34.867 51.6669 35.0748 51.535L38.3091 49.4424L34.359 51.7254C34.1487 51.8307 33.8924 51.7573 33.7697 51.5566C33.6469 51.3559 33.6984 51.0946 33.8879 50.9553L39.0066 47.6123L33.272 50.9462C33.0614 51.0515 32.8055 50.9785 32.6823 50.7778C32.5596 50.5767 32.611 50.3154 32.8009 50.176L41.0718 44.6501L32.0126 49.8862C31.8015 50.0056 31.534 49.9376 31.4054 49.7323C31.3416 49.6328 31.3196 49.5117 31.3453 49.396C31.3706 49.2803 31.4415 49.1795 31.5415 49.1161L40.0575 43.4541L30.9891 48.6906C30.778 48.8096 30.5105 48.742 30.3819 48.5363C30.2513 48.3302 30.3077 48.0581 30.5089 47.9205L40.7007 41.0081L30.0104 47.2047C29.9075 47.2665 29.7839 47.2843 29.6678 47.2536C29.5517 47.2229 29.4534 47.1462 29.3945 47.0417C29.2676 46.831 29.3319 46.5573 29.5393 46.4254L30.2733 45.9726L29.5484 46.3802C29.3398 46.5013 29.0731 46.4375 28.9417 46.2351C28.8119 46.024 28.872 45.7482 29.0773 45.6101L37.6837 39.903L28.9869 44.9308C28.7741 45.0631 28.4942 44.9984 28.3615 44.7857C28.2292 44.573 28.2939 44.2934 28.5066 44.1607L37.4572 38.1633L28.5158 43.3181C28.3072 43.4391 28.0401 43.3753 27.9086 43.1733C27.7784 42.9672 27.8344 42.6948 28.0355 42.5571L37.1674 36.3336L28.3254 41.4428C28.2226 41.505 28.099 41.5224 27.9829 41.4917C27.8668 41.461 27.7681 41.3847 27.7096 41.2798C27.5827 41.0691 27.647 40.7958 27.8543 40.6639L29.9382 39.3319L28.3345 40.238C28.121 40.3583 27.8506 40.2907 27.7183 40.0838C27.5914 39.8735 27.6561 39.5998 27.8634 39.4679L31.8405 36.9133L28.4706 38.8065C28.2599 38.9122 28.004 38.8388 27.8809 38.6381C27.7581 38.4374 27.8095 38.1757 27.9995 38.0364L30.2098 36.587L28.8326 37.3844C28.6236 37.5006 28.3598 37.4375 28.2259 37.2393C28.0886 37.0365 28.1413 36.7611 28.3437 36.6235L33.6341 32.8094L29.8291 35.038C29.6272 35.1575 29.3672 35.1027 29.2303 34.912C29.0935 34.7208 29.1254 34.457 29.3037 34.304L32.701 31.3418C32.5102 31.3853 32.3128 31.3011 32.212 31.1332C32.0872 30.915 32.1598 30.6376 32.375 30.5082L36.1708 28.2796C36.3728 28.1606 36.6324 28.2157 36.7688 28.4065C36.9011 28.5981 36.87 28.8581 36.6963 29.0132L33.3716 31.9033L40.954 27.5277C41.1589 27.4323 41.4023 27.502 41.5255 27.6911C41.6487 27.8802 41.6134 28.1311 41.4434 28.2796L36.1708 32.0936L43.4182 27.908C43.6289 27.8027 43.8848 27.8761 44.0079 28.0768C44.1307 28.2775 44.0793 28.5388 43.8893 28.6781L41.7063 30.1188L44.8859 28.3069C45.099 28.1813 45.3732 28.2501 45.5021 28.4608C45.6257 28.6698 45.5664 28.939 45.3661 29.0766L41.38 31.6951L46.1723 28.9771C46.383 28.8718 46.6388 28.9448 46.762 29.1459C46.8848 29.3466 46.8333 29.6079 46.6434 29.7472L44.5599 31.088L47.2779 29.5299C47.4152 29.4424 47.5889 29.4349 47.7332 29.5104C47.878 29.5859 47.9713 29.7327 47.9779 29.8957C47.985 30.0582 47.9045 30.2125 47.7668 30.3L38.5989 36.4601L48.7273 30.5717C48.94 30.4389 49.2196 30.5041 49.3523 30.7164C49.485 30.9291 49.4199 31.2091 49.2075 31.3418L40.2565 37.3388L49.9051 31.7673C50.1178 31.642 50.3919 31.7109 50.5209 31.9215C50.6449 32.1305 50.5852 32.3997 50.3849 32.5374L41.7785 38.2358L50.9016 32.9724C51.1164 32.8422 51.3963 32.911 51.5266 33.1262C51.6568 33.3415 51.5875 33.6214 51.3727 33.7516L50.6296 34.2136L51.3636 33.7877C51.5772 33.6674 51.8475 33.735 51.9794 33.9416C52.108 34.1502 52.0478 34.423 51.8438 34.5578L41.6064 41.4971L52.1606 35.4092C52.3709 35.2848 52.6421 35.3536 52.7678 35.5635C52.8963 35.7717 52.8362 36.0445 52.6318 36.1793L44.1071 41.8413L52.6591 36.9133C52.7964 36.8275 52.9693 36.8217 53.1124 36.8976C53.2555 36.9739 53.3471 37.1207 53.3525 37.2828C53.3579 37.445 53.2766 37.5976 53.1389 37.683L44.868 43.2003L52.9581 38.5348C53.1709 38.4096 53.445 38.478 53.574 38.6887C53.6975 38.8981 53.6382 39.1673 53.4379 39.3049L48.3105 42.6479L53.1029 39.8756C53.3189 39.757 53.5897 39.8287 53.7191 40.0386C53.846 40.2492 53.7813 40.5229 53.574 40.6548L50.3397 42.7474L53.0577 41.1981C53.2712 41.0778 53.5416 41.1454 53.6735 41.3523C53.8025 41.5605 53.7419 41.8334 53.5379 41.9682L47.6221 45.9726L52.7856 42.9921C52.9984 42.8594 53.2783 42.9245 53.411 43.1368C53.5437 43.3496 53.4786 43.6295 53.2658 43.7622L48.972 46.6975L52.215 44.8222C52.4252 44.6845 52.7072 44.7434 52.8445 44.9532C52.9822 45.1635 52.9233 45.4455 52.7134 45.5832L48.7999 48.4276L51.0194 47.1412C51.2267 47.0011 51.5087 47.0558 51.6489 47.2636C51.7891 47.4713 51.7343 47.7529 51.5266 47.8931L49.0715 49.7958C49.1354 49.8323 49.1889 49.8858 49.2254 49.9496C49.3494 50.1649 49.2764 50.4398 49.0624 50.5659L45.1488 52.8306C44.941 52.9708 44.659 52.916 44.5193 52.7082C44.3791 52.5005 44.4338 52.2189 44.6416 52.0787L45.6925 51.2634L41.7967 53.519C41.7362 53.543 41.6715 53.5555 41.6064 53.5551Z" fill="#E7EDEF"/>
  <path fill-rule="evenodd" clip-rule="evenodd" d="M41.2532 53.4464C41.7877 53.4464 42.6304 52.6311 41.7425 52.6311C41.208 52.6311 40.3657 53.4464 41.2532 53.4464Z" fill="#262626"/>
  <path d="M0.169062 32.3835C0.169062 36.56 -0.0938617 40.8361 0.169062 45.003C0.304671 47.0687 0.803147 48.0474 3.06786 48.2916C3.90142 48.3916 4.75322 48.4459 5.59549 48.5094C5.53204 50.9553 5.25128 53.1748 8.16832 53.7276C11.0854 54.28 14.7182 53.7276 17.7261 53.7276H40.6464C40.8123 53.74 40.9761 53.6857 41.1022 53.5771C41.2279 53.468 41.305 53.3137 41.3166 53.1474C41.3207 53.1205 41.3207 53.0931 41.3166 53.0662C47.5679 52.5677 53.6375 48.3008 54 40.3828C53.6466 33.1354 48.6457 29.0679 43.065 28.1257C43.1114 28.0731 43.1372 28.0055 43.1376 27.9354V7.83251C43.1421 7.80556 43.1421 7.77819 43.1376 7.75082C42.4309 5.15102 39.9398 5.59476 37.702 5.65821V2.48737C37.7066 2.45751 37.7066 2.42682 37.702 2.39696C36.9319 -0.637856 33.4534 0.168332 31.007 0.168332H14.9811C13.2688 0.168332 11.43 -0.157627 9.89889 0.376514C9.71891 0.415911 9.54722 0.486411 9.39129 0.585111C9.27352 0.648561 9.15574 0.693764 9.04709 0.766338C7.39822 1.85328 5.93057 3.87373 4.51767 5.29576C3.41206 6.40136 1.00262 8.01374 0.350288 9.46314C0.309232 9.55188 0.273153 9.6427 0.241635 9.73518C0.235415 9.76795 0.235415 9.80154 0.241635 9.83471C-0.302044 11.6014 0.241635 14.3645 0.241635 16.1038L0.169062 32.3835ZM3.29429 7.92333C3.89229 7.37053 4.58983 6.79989 5.30561 6.11107C6.60115 4.81594 8.02359 3.57473 9.24656 2.19749V4.47132C9.24656 5.61301 9.58164 7.38878 9.18311 8.49397C8.64855 9.97074 5.86712 9.39969 4.72585 9.39969H2.00787C2.19075 9.09032 2.4064 8.80168 2.65108 8.53917L3.29429 7.92333ZM12.8972 52.7489C10.5691 52.7489 7.6881 53.655 6.94536 50.7923C6.81846 50.0778 6.77865 49.3508 6.82758 48.6271C14.3562 49.0257 22.2285 48.3733 29.6754 48.3373C30.5591 49.5212 31.6714 50.5161 32.9458 51.2634C33.1639 51.4778 33.4036 51.6694 33.6615 51.8341C34.2571 52.1936 34.8849 52.4968 35.5368 52.7398H12.8885L12.8972 52.7489ZM52.7588 40.7452C52.4506 47.2317 47.5223 52.7671 41.3531 52.9936C41.3531 52.8667 41.2079 52.7763 40.9454 52.758C38.7521 52.7132 36.6043 52.1252 34.6942 51.0457C33.3808 50.2578 32.1304 47.9566 30.9075 47.4946C26.5498 40.5188 29.3129 31.6951 37.2492 28.9046C37.3371 28.873 37.4217 28.8336 37.5025 28.7868C39.0793 28.4057 40.7095 28.2983 42.3223 28.4699C42.4566 28.4791 42.5918 28.4637 42.7208 28.4247C43.6597 28.591 44.5729 28.8772 45.4388 29.2761C49.9686 31.3327 52.478 35.8077 52.7314 40.7092L52.7588 40.7452ZM41.8876 8.13152V21.5124C41.8876 22.8349 42.5761 26.5038 41.8876 27.6273C41.6973 27.9354 42.1954 27.6273 40.8003 27.4369C39.7681 27.4411 38.7458 27.6347 37.7837 28.008V13.5488C37.7837 11.6374 38.2818 8.95595 37.7837 7.13498V6.45569C39.1788 6.22014 41.4617 6.72732 41.8512 8.08631L41.8876 8.13152ZM24.3394 1.18312C26.4685 1.18312 35.5638 -0.266695 36.4065 2.64164V25.4894V25.589V28.37C36.2796 28.5425 33.8067 29.2761 33.3356 29.5751C32.4141 30.1889 31.5714 30.913 30.8258 31.7312C30.6267 31.9576 30.4364 32.184 30.246 32.4196C28.4823 34.5794 27.4791 37.2605 27.3924 40.0477C27.2162 42.4733 27.7246 44.8998 28.8601 47.0508C26.9126 47.0023 24.9643 47.0749 23.026 47.2681H6.32952C6.17691 47.276 6.02927 47.3262 5.90362 47.4129C3.99224 47.5037 2.07132 47.3586 1.50981 45.4563C0.767068 42.983 1.50981 39.1146 1.50981 36.5235C1.50981 28.0984 1.44636 19.6732 1.50981 11.248C1.52308 10.8483 1.6027 10.453 1.74536 10.0794H5.44163C6.72805 10.0794 8.39475 10.3328 9.51819 9.57179C10.8681 8.66607 10.5512 6.95375 10.5512 5.54043V1.20095H10.8411C15.3344 1.11054 19.8643 1.18312 24.3394 1.18312Z" fill="#262626"/>
  <path fill-rule="evenodd" clip-rule="evenodd" d="M6.21182 16.5297H31.5781C32.3026 16.5297 32.6016 15.6236 31.7046 15.6236H6.3383C5.61381 15.6236 5.31481 16.5297 6.21182 16.5297Z" fill="#262626"/>
  <path fill-rule="evenodd" clip-rule="evenodd" d="M24.4572 33.7425H6.3383C5.61381 33.7425 5.31481 34.6482 6.21182 34.6482H24.3303C25.0552 34.6482 25.3542 33.7425 24.4572 33.7425Z" fill="#262626"/>
  <path fill-rule="evenodd" clip-rule="evenodd" d="M31.696 20.1082H27.1661C26.4051 20.1082 26.1696 21.1048 27.0575 21.1048H31.5869C32.3479 21.1048 32.5473 20.1082 31.696 20.1082Z" fill="#262626"/>
  <path fill-rule="evenodd" clip-rule="evenodd" d="M22.1557 20.8692C22.4278 20.8692 23.6325 20.3434 23.0075 20.3434H6.70046C6.42883 20.3434 5.22369 20.8692 5.84907 20.8692H22.1557Z" fill="#262626"/>
  <path fill-rule="evenodd" clip-rule="evenodd" d="M17.3911 38.2993H16.4849C16.1515 38.2674 15.8251 38.4113 15.6244 38.6796C15.4884 38.9516 15.7422 39.1507 15.996 39.1507H16.9017C17.2356 39.183 17.5615 39.0387 17.7622 38.7704C17.8983 38.4988 17.6445 38.2993 17.3911 38.2993Z" fill="#262626"/>
  <path fill-rule="evenodd" clip-rule="evenodd" d="M11.9552 38.2993H6.51923C5.94859 38.2993 5.15153 39.1507 6.03029 39.1507H11.4658C12.0365 39.1507 12.834 38.2993 11.9552 38.2993Z" fill="#262626"/>
  <path fill-rule="evenodd" clip-rule="evenodd" d="M6.21182 25.589H10.7412C11.4661 25.589 11.7651 24.6828 10.8681 24.6828H6.3383C5.61381 24.6828 5.31481 25.589 6.21182 25.589Z" fill="#262626"/>
  <path fill-rule="evenodd" clip-rule="evenodd" d="M15.5885 24.7463C15.0717 24.7463 14.2021 25.5255 15.0809 25.5255H31.3879C31.9042 25.5255 32.7739 24.7463 31.8951 24.7463H15.5885Z" fill="#262626"/>
  <path fill-rule="evenodd" clip-rule="evenodd" d="M6.22063 30.1458H8.93862C9.69048 30.1458 9.94428 29.1857 9.04727 29.1857H6.3297C5.57742 29.1857 5.36924 30.1458 6.22063 30.1458Z" fill="#262626"/>
  <path fill-rule="evenodd" clip-rule="evenodd" d="M13.7762 29.2852C13.269 29.2852 12.3903 30.0462 13.269 30.0462H27.7642C28.2714 30.0462 29.1502 29.2852 28.2714 29.2852H13.7762Z" fill="#262626"/>
  <path d="M32.8085 46.4775C32.7634 46.4775 32.7196 46.4626 32.6836 46.4352C32.6477 46.4079 32.6216 46.3695 32.6094 46.3259C32.5971 46.2823 32.5994 46.2359 32.6158 46.1937C32.6322 46.1515 32.6619 46.1158 32.7003 46.0921L36.6599 43.6454L32.1627 46.2528C32.1155 46.281 32.059 46.2893 32.0057 46.2758C31.9524 46.2622 31.9067 46.228 31.8785 46.1805C31.8504 46.1331 31.8422 46.0764 31.8556 46.0229C31.8691 45.9694 31.9032 45.9235 31.9505 45.8952L36.0928 43.3403L32.103 45.653C32.0562 45.6784 32.0014 45.6848 31.9501 45.6709C31.8987 45.6569 31.8546 45.6236 31.827 45.5779C31.7994 45.5322 31.7904 45.4776 31.8018 45.4254C31.8132 45.3732 31.8442 45.3274 31.8883 45.2975L39.5778 40.3738L32.103 44.7069C32.0559 44.7335 32.0003 44.7406 31.9481 44.7267C31.8959 44.7128 31.8511 44.6789 31.8234 44.6323C31.7956 44.5858 31.7871 44.5301 31.7996 44.4774C31.8121 44.4246 31.8447 44.3788 31.8903 44.3497L35.3948 42.1653L32.103 44.0733C32.0562 44.0996 32.001 44.1067 31.9491 44.0929C31.8972 44.0792 31.8526 44.0458 31.8247 43.9998C31.7969 43.9537 31.7879 43.8986 31.7997 43.846C31.8114 43.7935 31.843 43.7475 31.8879 43.7179L37.21 40.3047L32.103 43.2658C32.0563 43.2921 32.0012 43.2991 31.9495 43.2855C31.8977 43.2719 31.8531 43.2387 31.8252 43.1929C31.7972 43.147 31.788 43.0921 31.7994 43.0396C31.8109 42.9871 31.8421 42.9411 31.8866 42.9112L36.9439 39.6125L32.103 42.4184C32.056 42.4448 32.0007 42.4518 31.9486 42.438C31.8966 42.4242 31.852 42.3905 31.8242 42.3443C31.7964 42.298 31.7876 42.2426 31.7997 42.19C31.8119 42.1373 31.8439 42.0914 31.8891 42.0621L33.4643 41.066L32.103 41.8548C32.0561 41.8803 32.0012 41.8867 31.9497 41.8726C31.8983 41.8585 31.8542 41.825 31.8267 41.7791C31.7992 41.7332 31.7904 41.6784 31.8021 41.6261C31.8138 41.5739 31.8451 41.5281 31.8895 41.4985L32.188 41.3103L32.103 41.3595C32.0559 41.388 31.9995 41.3966 31.9462 41.3834C31.8928 41.3701 31.8468 41.3362 31.8184 41.2889C31.79 41.2417 31.7814 41.185 31.7946 41.1314C31.8078 41.0778 31.8416 41.0317 31.8887 41.0032L32.1478 40.8392L32.103 40.8646C32.0563 40.8897 32.0017 40.8959 31.9506 40.8819C31.8995 40.8679 31.8557 40.8347 31.8281 40.7893C31.8006 40.7438 31.7914 40.6895 31.8025 40.6374C31.8136 40.5854 31.8442 40.5396 31.8879 40.5095L32.3911 40.1857L32.1009 40.3522C32.0542 40.3788 31.999 40.3862 31.947 40.3728C31.895 40.3594 31.8502 40.3263 31.822 40.2804C31.7938 40.2344 31.7845 40.1793 31.796 40.1266C31.8076 40.074 31.839 40.0278 31.8837 39.9979L32.8786 39.3424L32.103 39.7944C32.0572 39.8205 32.0032 39.8282 31.952 39.8158C31.9008 39.8034 31.8563 39.772 31.8273 39.7278C31.7984 39.6836 31.7873 39.63 31.7964 39.5779C31.8054 39.5258 31.8338 39.4791 31.8758 39.4473L34.5346 37.4668L32.103 38.8766C32.058 38.9019 32.0052 38.9094 31.9549 38.8977C31.9047 38.886 31.8606 38.8559 31.8312 38.8133C31.8019 38.7707 31.7895 38.7186 31.7963 38.6673C31.8032 38.616 31.8289 38.569 31.8684 38.5357L33.8212 36.9294L32.103 37.9255C32.0577 37.9511 32.0044 37.9586 31.9538 37.9467C31.9032 37.9347 31.859 37.9041 31.8298 37.8608C31.8006 37.8176 31.7887 37.765 31.7964 37.7133C31.8041 37.6617 31.8308 37.6149 31.8713 37.5821L32.4902 37.0913L32.103 37.3157C32.0609 37.3399 32.0118 37.3485 31.964 37.34C31.9163 37.3316 31.8731 37.3066 31.8418 37.2695C31.8105 37.2323 31.7931 37.1853 31.7928 37.1366C31.7924 37.088 31.809 37.0407 31.8398 37.0031L32.4761 36.2302L32.103 36.4458C32.0629 36.4689 32.0162 36.4778 31.9704 36.4713C31.9246 36.4647 31.8824 36.4429 31.8503 36.4094C31.8183 36.3759 31.7984 36.3326 31.7937 36.2864C31.789 36.2402 31.7998 36.1937 31.8244 36.1544L31.955 35.9492C31.9172 35.9364 31.8839 35.9129 31.859 35.8816C31.8342 35.8502 31.8189 35.8124 31.815 35.7725C31.811 35.7327 31.8186 35.6925 31.8368 35.6569C31.8551 35.6213 31.8831 35.5917 31.9177 35.5717L32.4015 35.2932C32.4416 35.2701 32.4882 35.2611 32.534 35.2677C32.5798 35.2743 32.6221 35.2961 32.6541 35.3296C32.6862 35.3631 32.7061 35.4064 32.7108 35.4526C32.7155 35.4988 32.7047 35.5453 32.68 35.5846L32.6319 35.6599L33.2662 35.2928C33.3082 35.2684 33.3575 35.2596 33.4054 35.2679C33.4532 35.2762 33.4967 35.3012 33.5281 35.3385C33.5595 35.3757 33.5769 35.4228 33.5772 35.4716C33.5775 35.5204 33.5607 35.5677 33.5298 35.6054L32.8935 36.3783L34.7643 35.2932C34.8096 35.2671 34.8631 35.2592 34.914 35.271C34.9649 35.2828 35.0095 35.3135 35.0388 35.3569C35.0681 35.4003 35.0801 35.4532 35.0722 35.5051C35.0644 35.557 35.0373 35.6039 34.9964 35.6366L34.3771 36.1257L35.8168 35.2932C35.8618 35.2675 35.9148 35.2596 35.9653 35.2712C36.0158 35.2827 36.0602 35.3128 36.0897 35.3556C36.1192 35.3984 36.1316 35.4507 36.1246 35.5022C36.1176 35.5538 36.0916 35.6008 36.0518 35.6341L34.101 37.2387L37.4587 35.2932C37.5045 35.2671 37.5585 35.2594 37.6097 35.2718C37.6609 35.2842 37.7054 35.3156 37.7344 35.3598C37.7633 35.404 37.7744 35.4576 37.7654 35.5097C37.7564 35.5618 37.7279 35.6085 37.6859 35.6403L35.0271 37.6204L39.041 35.2932C39.0875 35.2677 39.1421 35.2612 39.1933 35.2749C39.2446 35.2886 39.2886 35.3215 39.3165 35.3668C39.3443 35.4121 39.3538 35.4664 39.3429 35.5186C39.3321 35.5707 39.3018 35.6166 39.2582 35.647L38.2633 36.3026L40.0043 35.2932C40.0511 35.2681 40.1056 35.2619 40.1567 35.2759C40.2078 35.2899 40.2517 35.323 40.2792 35.3685C40.3068 35.414 40.3159 35.4683 40.3048 35.5203C40.2937 35.5723 40.2632 35.6181 40.2195 35.6482L39.7175 35.9713L40.8869 35.2932C40.9337 35.2673 40.9888 35.2606 41.0404 35.2745C41.0921 35.2885 41.1364 35.3219 41.1641 35.3679C41.1918 35.4138 41.2007 35.4688 41.189 35.5212C41.1772 35.5736 41.1458 35.6194 41.1012 35.6491L40.8417 35.8156L41.74 35.2932C41.7869 35.2668 41.8423 35.2597 41.8943 35.2736C41.9464 35.2874 41.991 35.321 42.0188 35.3673C42.0466 35.4136 42.0553 35.4689 42.0432 35.5216C42.0311 35.5743 41.9991 35.6201 41.9539 35.6495L41.6484 35.8418L42.5956 35.2932C42.6424 35.2681 42.697 35.2619 42.7482 35.2761C42.7994 35.2902 42.8433 35.3236 42.8707 35.3692C42.8981 35.4149 42.9071 35.4693 42.8957 35.5214C42.8843 35.5735 42.8534 35.6192 42.8094 35.6491L41.2405 36.6414L43.5668 35.2932C43.6134 35.2681 43.6678 35.2618 43.7189 35.2757C43.77 35.2895 43.8138 35.3225 43.8415 35.3678C43.8691 35.413 43.8785 35.4672 43.8677 35.5192C43.8568 35.5712 43.8266 35.6171 43.7832 35.6474L38.7259 38.9474L45.0288 35.2932C45.0757 35.2669 45.1309 35.2599 45.1827 35.2736C45.2346 35.2873 45.2792 35.3207 45.3071 35.3668C45.335 35.4128 45.344 35.4679 45.3322 35.5205C45.3204 35.5731 45.2888 35.619 45.244 35.6487L39.9256 39.0589L46.4212 35.2932C46.4682 35.2672 46.5234 35.2605 46.5752 35.2746C46.627 35.2886 46.6714 35.3223 46.699 35.3684C46.7266 35.4146 46.7352 35.4698 46.7232 35.5223C46.7111 35.5748 46.6793 35.6205 46.6343 35.6499L43.1241 37.8381L47.5144 35.2932C47.5612 35.2669 47.6164 35.2599 47.6683 35.2736C47.7202 35.2873 47.7647 35.3207 47.7926 35.3668C47.8205 35.4128 47.8295 35.4679 47.8177 35.5205C47.8059 35.5731 47.7743 35.619 47.7295 35.6487L40.0425 40.5699L49.0655 35.3394C49.1125 35.3138 49.1676 35.3074 49.2192 35.3217C49.2708 35.3359 49.3149 35.3696 49.3423 35.4157C49.3697 35.4618 49.3783 35.5168 49.3663 35.5692C49.3542 35.6215 49.3225 35.6671 49.2778 35.6965L45.1325 38.2543L49.2827 35.8485C49.3297 35.8236 49.3844 35.8178 49.4355 35.8322C49.4866 35.8467 49.5303 35.8803 49.5574 35.9261C49.5846 35.9719 49.5932 36.0264 49.5815 36.0784C49.5698 36.1304 49.5387 36.176 49.4946 36.2056L45.537 38.651L49.2811 36.4795C49.328 36.4525 49.3836 36.4451 49.4359 36.4587C49.4882 36.4723 49.5332 36.5059 49.5612 36.5523C49.5892 36.5988 49.598 36.6543 49.5858 36.7072C49.5736 36.7601 49.5413 36.8061 49.4958 36.8354L42.3821 41.3928L49.2811 37.3935C49.3281 37.3683 49.3831 37.3622 49.4345 37.3766C49.4859 37.391 49.5298 37.4248 49.557 37.4708C49.5842 37.5169 49.5927 37.5718 49.5807 37.624C49.5687 37.6762 49.5371 37.7217 49.4925 37.7511L49.1451 37.9646L49.2811 37.8859C49.3283 37.8577 49.3848 37.8494 49.438 37.863C49.4913 37.8765 49.5371 37.9108 49.5652 37.9582C49.5934 38.0056 49.6016 38.0623 49.5881 38.1158C49.5746 38.1693 49.5405 38.2152 49.4933 38.2435L48.377 38.9349L49.2811 38.4108C49.328 38.3853 49.3829 38.3789 49.4344 38.393C49.4858 38.4071 49.5299 38.4406 49.5574 38.4865C49.5849 38.5324 49.5937 38.5872 49.582 38.6395C49.5703 38.6917 49.539 38.7375 49.4946 38.7671L47.0111 40.3297L49.2811 39.014C49.3278 38.9877 49.3828 38.9807 49.4346 38.9943C49.4864 39.0079 49.5309 39.0411 49.5589 39.0869C49.5869 39.1327 49.5961 39.1877 49.5846 39.2402C49.5732 39.2927 49.5419 39.3387 49.4975 39.3686L45.2693 42.1278L49.2827 39.8015C49.3296 39.7756 49.3846 39.7689 49.4363 39.7828C49.488 39.7967 49.5323 39.8302 49.56 39.8762C49.5876 39.9221 49.5966 39.9771 49.5848 40.0295C49.5731 40.0819 49.5416 40.1277 49.497 40.1574L48.1399 41.0202L49.2827 40.3584C49.3295 40.3326 49.3844 40.3259 49.4359 40.3397C49.4875 40.3534 49.5318 40.3867 49.5596 40.4324C49.5874 40.4782 49.5965 40.5329 49.5851 40.5853C49.5737 40.6376 49.5426 40.6836 49.4983 40.7135L48.0168 41.6683L49.2827 40.9345C49.3295 40.9072 49.3851 40.8993 49.4376 40.9126C49.49 40.9259 49.5353 40.9592 49.5636 41.0055C49.5919 41.0518 49.601 41.1074 49.5891 41.1604C49.5771 41.2134 49.545 41.2596 49.4995 41.2891L48.04 42.2444L49.2811 41.5247C49.3279 41.498 49.3832 41.4905 49.4354 41.5041C49.4875 41.5176 49.5324 41.5509 49.5605 41.5971C49.5886 41.6433 49.5976 41.6986 49.5858 41.7513C49.574 41.8041 49.5421 41.8502 49.497 41.8798L49.2434 42.0463L49.2811 42.025C49.3276 41.9992 49.3823 41.9924 49.4337 42.0059C49.4851 42.0194 49.5294 42.0522 49.5574 42.0976C49.5854 42.143 49.595 42.1975 49.5841 42.2497C49.5733 42.302 49.5428 42.3481 49.4991 42.3784L48.9602 42.738L49.2827 42.5516C49.3291 42.525 49.3839 42.5173 49.4357 42.5303C49.4876 42.5433 49.5324 42.5759 49.5609 42.6212C49.5894 42.6666 49.5993 42.7212 49.5887 42.7738C49.578 42.8263 49.5476 42.8727 49.5037 42.9033L48.7766 43.4028L49.2827 43.1114C49.3278 43.0857 49.3808 43.0778 49.4313 43.0894C49.4818 43.1009 49.5262 43.1311 49.5557 43.1738C49.5851 43.2166 49.5976 43.2689 49.5906 43.3205C49.5836 43.372 49.5576 43.419 49.5178 43.4523L47.8576 44.8188L49.2827 43.9926C49.3266 43.9675 49.3781 43.9593 49.4275 43.9696C49.477 43.9799 49.521 44.008 49.5512 44.0486C49.5815 44.0892 49.596 44.1394 49.592 44.19C49.588 44.2405 49.5657 44.2879 49.5294 44.3231L48.5863 45.2305L49.2827 44.8267C49.3248 44.8028 49.3738 44.7944 49.4214 44.8029C49.469 44.8115 49.5121 44.8365 49.5433 44.8735C49.5745 44.9106 49.5918 44.9575 49.5922 45.006C49.5926 45.0546 49.5761 45.1017 49.5455 45.1393L49.2375 45.5139L49.2827 45.4881C49.3301 45.4633 49.3852 45.4577 49.4366 45.4727C49.4879 45.4876 49.5315 45.5219 49.5582 45.5684C49.585 45.6149 49.5928 45.6699 49.5801 45.7221C49.5674 45.7742 49.5351 45.8194 49.49 45.8482L48.4437 46.4484C48.4017 46.4726 48.3525 46.4812 48.3048 46.4727C48.2571 46.4643 48.2138 46.4393 48.1825 46.4022C48.1512 46.365 48.1339 46.318 48.1335 46.2693C48.1331 46.2207 48.1498 46.1734 48.1805 46.1358L48.4889 45.7612L47.3034 46.448C47.2595 46.475 47.2071 46.4846 47.1566 46.4749C47.106 46.4653 47.0608 46.4372 47.0298 46.3959C46.9988 46.3547 46.9841 46.3034 46.9887 46.2519C46.9933 46.2004 47.0168 46.1525 47.0546 46.1175L47.9981 45.2105L45.8658 46.4484C45.8207 46.4741 45.7677 46.482 45.7172 46.4704C45.6667 46.4589 45.6223 46.4288 45.5928 46.386C45.5633 46.3432 45.5509 46.2909 45.5579 46.2393C45.5649 46.1878 45.5909 46.1408 45.6307 46.1075L47.2888 44.7418L44.3457 46.4484C44.2994 46.474 44.2452 46.4809 44.194 46.4676C44.1429 46.4544 44.0987 46.4221 44.0705 46.3772C44.0422 46.3324 44.0322 46.2784 44.0423 46.2263C44.0523 46.1743 44.0819 46.128 44.1247 46.0971L44.851 45.5976L43.3819 46.4484C43.3354 46.4742 43.2807 46.4811 43.2293 46.4675C43.1779 46.454 43.1336 46.4212 43.1056 46.3758C43.0775 46.3304 43.068 46.276 43.0788 46.2237C43.0897 46.1714 43.1201 46.1254 43.1639 46.095L43.7069 45.7333L42.4745 46.4484C42.4278 46.4746 42.3728 46.4817 42.321 46.4681C42.2692 46.4545 42.2246 46.4213 42.1967 46.3754C42.1687 46.3296 42.1595 46.2747 42.1709 46.2222C42.1824 46.1697 42.2136 46.1237 42.2581 46.0938L42.5106 45.9298L41.6135 46.4484C41.5668 46.4751 41.5117 46.4825 41.4596 46.4691C41.4076 46.4557 41.3628 46.4225 41.3346 46.3766C41.3064 46.3307 41.2971 46.2756 41.3087 46.2229C41.3202 46.1702 41.3516 46.124 41.3963 46.0942L42.8534 45.1406L40.5971 46.4484C40.5503 46.4752 40.495 46.4826 40.4428 46.469C40.3906 46.4555 40.3458 46.4222 40.3177 46.376C40.2896 46.3299 40.2805 46.2745 40.2924 46.2218C40.3042 46.169 40.3361 46.1229 40.3811 46.0933L41.8623 45.1385L39.6027 46.4484C39.5557 46.4753 39.5002 46.4828 39.4478 46.4692C39.3955 46.4556 39.3506 46.422 39.3225 46.3755C39.2945 46.3291 39.2857 46.2736 39.2979 46.2207C39.3101 46.1678 39.3424 46.1218 39.3879 46.0925L40.7455 45.2292L38.6422 46.4484C38.5955 46.4742 38.5408 46.481 38.4893 46.4673C38.4378 46.4537 38.3935 46.4206 38.3656 46.3751C38.3377 46.3295 38.3284 46.2749 38.3395 46.2226C38.3506 46.1703 38.3814 46.1243 38.4254 46.0942L42.6573 43.3337L37.2834 46.4484C37.2365 46.4739 37.1816 46.4803 37.1301 46.4662C37.0786 46.4521 37.0345 46.4186 37.007 46.3727C36.9795 46.3268 36.9707 46.272 36.9824 46.2197C36.9941 46.1675 37.0255 46.1218 37.0699 46.0921L39.5479 44.5337L36.2437 46.4484C36.1966 46.475 36.1411 46.4821 36.0888 46.4682C36.0366 46.4543 35.9918 46.4205 35.9641 46.3739C35.9364 46.3273 35.9278 46.2717 35.9404 46.2189C35.9529 46.1661 35.9854 46.1203 36.0311 46.0913L37.1528 45.3966L35.338 46.4484C35.2909 46.4746 35.2355 46.4813 35.1835 46.4671C35.1315 46.453 35.0871 46.4191 35.0596 46.3727C35.032 46.3262 35.0236 46.2708 35.036 46.2182C35.0485 46.1656 35.0808 46.1199 35.1262 46.0908L35.4723 45.8782L34.4882 46.4484C34.4414 46.4739 34.3866 46.4803 34.3353 46.4663C34.2839 46.4523 34.2398 46.4191 34.2122 46.3734C34.1846 46.3277 34.1756 46.273 34.187 46.2208C34.1984 46.1686 34.2294 46.1228 34.2735 46.0929L41.386 41.5368L32.9122 46.4484C32.8808 46.4671 32.845 46.4772 32.8085 46.4775Z" fill="#63A63D"/>
  <path d="M38.9345 44.8126C38.8898 44.8127 38.8463 44.7984 38.8104 44.7717C38.7745 44.745 38.7482 44.7073 38.7353 44.6644C38.7224 44.6214 38.7237 44.5754 38.739 44.5333C38.7543 44.4911 38.7827 44.4551 38.8201 44.4305L41.2065 42.8517L37.8733 44.7834C37.8268 44.8089 37.7724 44.8156 37.7212 44.802C37.67 44.7885 37.6259 44.7558 37.5979 44.7106C37.57 44.6655 37.5603 44.6113 37.5709 44.5592C37.5814 44.5071 37.6115 44.461 37.6548 44.4305L41.4026 41.9189L36.4589 44.7834C36.4124 44.8089 36.358 44.8156 36.3068 44.802C36.2556 44.7885 36.2115 44.7558 36.1835 44.7106C36.1556 44.6655 36.1459 44.6113 36.1565 44.5592C36.1671 44.5071 36.1971 44.461 36.2404 44.4305L41.1373 41.1542L34.9803 44.7247C34.9334 44.7523 34.8775 44.7603 34.8248 44.747C34.7721 44.7336 34.7267 44.7 34.6984 44.6534C34.6702 44.6068 34.6613 44.5509 34.6737 44.4977C34.6861 44.4446 34.7188 44.3984 34.7647 44.3693L38.6103 41.8997L34.8381 44.085C34.7914 44.1121 34.7361 44.12 34.6837 44.1068C34.6314 44.0936 34.5863 44.0605 34.5579 44.0144C34.5295 43.9684 34.5201 43.913 34.5317 43.8601C34.5433 43.8073 34.575 43.761 34.62 43.7312L39.1019 40.7567L34.6474 43.3399C34.6004 43.3663 34.5451 43.3734 34.493 43.3595C34.441 43.3457 34.3964 43.3121 34.3686 43.2658C34.3408 43.2195 34.332 43.1642 34.3441 43.1115C34.3563 43.0588 34.3883 43.013 34.4335 42.9836L34.6242 42.8629L34.453 42.962C34.4061 42.9878 34.3511 42.9945 34.2994 42.9806C34.2477 42.9667 34.2034 42.9333 34.1758 42.8873C34.1481 42.8413 34.1392 42.7864 34.1509 42.734C34.1626 42.6816 34.1941 42.6357 34.2387 42.6061L34.482 42.4517L34.1744 42.6298C34.1277 42.6565 34.0726 42.6639 34.0205 42.6505C33.9685 42.6371 33.9237 42.6039 33.8955 42.558C33.8673 42.5121 33.858 42.457 33.8695 42.4043C33.8811 42.3516 33.9125 42.3055 33.9572 42.2756L36.0676 40.8812L33.7616 42.2177C33.7149 42.2432 33.6602 42.2497 33.6089 42.2358C33.5576 42.222 33.5136 42.1889 33.4859 42.1434C33.4581 42.0979 33.4489 42.0434 33.46 41.9913C33.4711 41.9391 33.5018 41.8932 33.5456 41.8631L34.2611 41.3982L33.7611 41.6895C33.7152 41.7161 33.6609 41.7241 33.6094 41.7118C33.5578 41.6994 33.5129 41.6677 33.4839 41.6231C33.4549 41.5786 33.4441 41.5245 33.4535 41.4722C33.463 41.4198 33.4921 41.373 33.5348 41.3415L36.4038 39.2312L33.7611 40.7605C33.7159 40.7864 33.6625 40.7942 33.6117 40.7825C33.561 40.7707 33.5165 40.7401 33.4871 40.6968C33.4578 40.6536 33.4458 40.6008 33.4535 40.549C33.4611 40.4973 33.488 40.4503 33.5286 40.4175L35.6584 38.7155L33.7765 39.8065C33.7323 39.8322 33.6803 39.8407 33.6303 39.8303C33.5803 39.8199 33.5359 39.7913 33.5056 39.75C33.4753 39.7088 33.4612 39.6577 33.4661 39.6067C33.4709 39.5557 33.4944 39.5082 33.5319 39.4735L34.8584 38.231L34.795 38.2676C34.7562 38.2899 34.7114 38.299 34.667 38.2937C34.6227 38.2883 34.5813 38.2687 34.549 38.2378C34.5167 38.2068 34.4951 38.1663 34.4876 38.1221C34.4801 38.0779 34.487 38.0324 34.5073 37.9925L34.7245 37.5675C34.6985 37.5606 34.674 37.5485 34.6527 37.532C34.6313 37.5155 34.6135 37.4949 34.6001 37.4714C34.5726 37.4236 34.5651 37.3668 34.5793 37.3135C34.5934 37.2602 34.6281 37.2147 34.6756 37.1871L35.074 36.9565C35.1127 36.9342 35.1576 36.925 35.2019 36.9304C35.2462 36.9358 35.2876 36.9554 35.3199 36.9863C35.3523 37.0173 35.3738 37.0578 35.3813 37.102C35.3888 37.1462 35.3819 37.1917 35.3616 37.2316L35.1958 37.5538L36.2301 36.9581C36.2742 36.932 36.3265 36.9232 36.3767 36.9335C36.4269 36.9438 36.4716 36.9724 36.502 37.0138C36.5325 37.0552 36.5466 37.1064 36.5416 37.1576C36.5366 37.2089 36.5129 37.2564 36.4751 37.2911L35.1486 38.5332L37.8637 36.9581C37.909 36.9322 37.9624 36.9244 38.0131 36.9362C38.0639 36.948 38.1084 36.9785 38.1377 37.0218C38.1671 37.0651 38.1791 37.1178 38.1714 37.1696C38.1637 37.2214 38.1369 37.2683 38.0963 37.3011L35.9664 39.0019L39.4937 36.9581C39.5396 36.9315 39.5939 36.9236 39.6454 36.9359C39.697 36.9483 39.7419 36.98 39.7709 37.0245C39.7999 37.0691 39.8107 37.1231 39.8013 37.1755C39.7918 37.2279 39.7627 37.2746 39.72 37.3061L36.8515 39.4164L41.0925 36.9581C41.1392 36.9327 41.1938 36.9262 41.2451 36.94C41.2964 36.9539 41.3405 36.987 41.3682 37.0325C41.3959 37.078 41.4052 37.1324 41.394 37.1846C41.3829 37.2368 41.3523 37.2826 41.3085 37.3128L40.5942 37.7769L42.0078 36.9581C42.0544 36.9327 42.1089 36.9261 42.1601 36.9398C42.2114 36.9535 42.2554 36.9864 42.2833 37.0317C42.3111 37.0771 42.3206 37.1314 42.3097 37.1835C42.2989 37.2356 42.2686 37.2816 42.225 37.3119L40.1138 38.7063L43.1312 36.9581C43.178 36.9323 43.2331 36.9256 43.2847 36.9395C43.3364 36.9534 43.3807 36.9868 43.4084 37.0328C43.4361 37.0788 43.445 37.1337 43.4332 37.1861C43.4215 37.2385 43.3901 37.2844 43.3455 37.314L43.1054 37.4664L43.9826 36.9581C44.0294 36.933 44.0841 36.9269 44.1353 36.941C44.1865 36.9552 44.2303 36.9885 44.2577 37.0341C44.2852 37.0798 44.2941 37.1343 44.2827 37.1864C44.2713 37.2384 44.2405 37.2841 44.1965 37.314L44.0017 37.4389L44.8286 36.9581C44.8752 36.9323 44.9298 36.9255 44.9813 36.939C45.0327 36.9525 45.077 36.9853 45.105 37.0307C45.133 37.0761 45.1426 37.1306 45.1317 37.1828C45.1209 37.2351 45.0904 37.2812 45.0467 37.3115L40.5648 40.288L46.2944 36.9665C46.3413 36.9402 46.3964 36.9331 46.4483 36.9469C46.5002 36.9606 46.5448 36.994 46.5727 37.04C46.6005 37.0861 46.6095 37.1412 46.5978 37.1938C46.586 37.2463 46.5544 37.2923 46.5096 37.3219L42.6698 39.7886L46.5303 37.5504C46.5768 37.525 46.6312 37.5183 46.6824 37.5319C46.7336 37.5454 46.7777 37.5781 46.8056 37.6233C46.8336 37.6684 46.8433 37.7226 46.8327 37.7747C46.8221 37.8268 46.7921 37.8729 46.7487 37.9034L41.8494 41.1788L46.7189 38.3563C46.7655 38.3297 46.8205 38.3222 46.8725 38.3355C46.9244 38.3488 46.9692 38.3817 46.9975 38.4274C47.0257 38.4731 47.0353 38.5281 47.0241 38.5807C47.0128 38.6333 46.9818 38.6796 46.9374 38.7097L43.1888 41.2221L47.0737 38.9702C47.1204 38.9441 47.1752 38.937 47.2269 38.9504C47.2787 38.9639 47.3232 38.9969 47.3513 39.0425C47.3793 39.0881 47.3888 39.1429 47.3776 39.1953C47.3664 39.2478 47.3356 39.2939 47.2914 39.324L44.9053 40.9024L47.5583 39.3648C47.6048 39.3386 47.6596 39.3315 47.7112 39.3448C47.7629 39.3581 47.8074 39.3909 47.8356 39.4364C47.8638 39.4818 47.8735 39.5364 47.8626 39.5888C47.8517 39.6413 47.8211 39.6874 47.7772 39.7178L45.5835 41.1859L47.6226 40.0038C47.6686 39.9772 47.7229 39.9695 47.7745 39.982C47.826 39.9945 47.8708 40.0264 47.8997 40.0711C47.9285 40.1158 47.9392 40.1699 47.9295 40.2222C47.9198 40.2746 47.8905 40.3212 47.8477 40.3526L45.0575 42.3738L47.6226 40.887C47.6686 40.8605 47.7229 40.8527 47.7745 40.8652C47.826 40.8778 47.8708 40.9097 47.8997 40.9543C47.9285 40.999 47.9392 41.0531 47.9295 41.1055C47.9198 41.1579 47.8905 41.2045 47.8477 41.2358L46.231 42.4117L47.6234 41.605C47.6683 41.5795 47.7211 41.5718 47.7714 41.5833C47.8218 41.5948 47.866 41.6247 47.8955 41.6672C47.925 41.7098 47.9376 41.7618 47.9309 41.8132C47.9242 41.8646 47.8987 41.9116 47.8593 41.9451L46.3587 43.1938L46.7384 42.974C46.7815 42.9496 46.8318 42.9414 46.8804 42.951C46.929 42.9606 46.9725 42.9873 47.0031 43.0263C47.0338 43.0653 47.0495 43.1141 47.0475 43.1637C47.0455 43.2134 47.0258 43.2607 46.9921 43.297L46.5904 43.7224C46.6346 43.7107 46.6814 43.7139 46.7237 43.7314C46.766 43.7489 46.8014 43.7798 46.8246 43.8194C46.8521 43.8672 46.8595 43.924 46.8453 43.9773C46.8311 44.0307 46.7963 44.0761 46.7487 44.1037L45.5765 44.7834C45.5334 44.8079 45.483 44.8161 45.4344 44.8065C45.3859 44.7969 45.3423 44.7702 45.3117 44.7311C45.2811 44.6921 45.2653 44.6434 45.2674 44.5937C45.2694 44.5441 45.289 44.4968 45.3228 44.4604L45.7087 44.0521L44.446 44.7834C44.4011 44.8094 44.3481 44.8175 44.2975 44.8061C44.2469 44.7948 44.2024 44.7648 44.1727 44.7221C44.1431 44.6794 44.1304 44.6271 44.1373 44.5755C44.1441 44.5239 44.17 44.4768 44.2098 44.4434L45.7103 43.1946L42.967 44.7834C42.921 44.8099 42.8666 44.8177 42.8151 44.8052C42.7635 44.7927 42.7187 44.7608 42.6899 44.7161C42.6611 44.6714 42.6504 44.6173 42.66 44.5649C42.6697 44.5126 42.699 44.4659 42.7419 44.4346L44.3586 43.2596L41.7284 44.7834C41.6824 44.8099 41.628 44.8177 41.5765 44.8052C41.5249 44.7927 41.4801 44.7608 41.4513 44.7161C41.4224 44.6714 41.4118 44.6173 41.4214 44.5649C41.4311 44.5126 41.4604 44.4659 41.5033 44.4346L44.2943 42.4125L40.2042 44.7851C40.1577 44.8106 40.1033 44.8172 40.0521 44.8037C40.0009 44.7901 39.9568 44.7574 39.9288 44.7123C39.9009 44.6671 39.8912 44.6129 39.9018 44.5608C39.9123 44.5087 39.9424 44.4627 39.9857 44.4321L42.179 42.964L39.0381 44.7834C39.0067 44.8021 38.971 44.8122 38.9345 44.8126Z" fill="#89D461"/>
  <path d="M35.6508 41.7412C35.6113 41.7412 35.5726 41.7299 35.5393 41.7086C35.506 41.6873 35.4794 41.6569 35.4628 41.6209C35.4461 41.585 35.44 41.545 35.4452 41.5057C35.4503 41.4664 35.4666 41.4294 35.4921 41.399L35.7797 41.056L35.4481 41.2492C35.4066 41.2732 35.3581 41.2821 35.3108 41.2743C35.2635 41.2665 35.2203 41.2424 35.1887 41.2062C35.1571 41.1701 35.1389 41.124 35.1373 41.0759C35.1357 41.0278 35.1508 40.9806 35.1799 40.9424L35.4 40.6544C35.3583 40.6469 35.3198 40.6267 35.2899 40.5966C35.2599 40.5664 35.2399 40.5278 35.2325 40.4859C35.2251 40.4439 35.2306 40.4007 35.2484 40.3621C35.2662 40.3234 35.2954 40.2912 35.3321 40.2698L36.0193 39.8718C36.0608 39.848 36.1093 39.8393 36.1564 39.8472C36.2036 39.8551 36.2466 39.8792 36.2781 39.9153C36.3096 39.9514 36.3277 39.9973 36.3294 40.0453C36.331 40.0933 36.3161 40.1404 36.2871 40.1786L36.1445 40.3647L36.598 40.102C36.6402 40.0774 36.6898 40.0686 36.7379 40.077C36.7859 40.0855 36.8295 40.1107 36.8609 40.1483C36.8922 40.1859 36.9094 40.2333 36.9093 40.2824C36.9092 40.3314 36.8919 40.3788 36.8604 40.4163L36.5727 40.7588L36.8401 40.604C36.8637 40.5901 36.8898 40.5811 36.9169 40.5773C36.9439 40.5736 36.9715 40.5753 36.9979 40.5823C37.0243 40.5893 37.0491 40.6015 37.0708 40.6182C37.0925 40.6349 37.1108 40.6557 37.1244 40.6795C37.1381 40.7032 37.1469 40.7295 37.1505 40.7567C37.154 40.7839 37.1521 40.8116 37.145 40.8381C37.1378 40.8645 37.1255 40.8894 37.1087 40.911C37.092 40.9327 37.0711 40.9509 37.0474 40.9645L35.7561 41.7137C35.7242 41.7323 35.6878 41.7418 35.6508 41.7412Z" fill="#63A63D"/>
  <path d="M45.2182 41.8964C45.1822 41.8964 45.1467 41.887 45.1154 41.8691C45.084 41.8511 45.0579 41.8253 45.0396 41.7941C45.0212 41.7629 45.0113 41.7274 45.0108 41.6912C45.0103 41.655 45.0192 41.6193 45.0367 41.5876L45.3811 40.9632L44.6205 41.404C44.5804 41.4277 44.5334 41.4372 44.4873 41.4308C44.4412 41.4245 44.3985 41.4027 44.3662 41.3691C44.3338 41.3354 44.3138 41.2918 44.3091 41.2453C44.3045 41.1988 44.3156 41.152 44.3407 41.1126L44.6308 40.6402C44.5814 40.6645 44.5243 40.668 44.4722 40.6501C44.4201 40.6321 44.3773 40.5941 44.3531 40.5445C44.3289 40.4948 44.3254 40.4375 44.3433 40.3852C44.3611 40.3329 44.399 40.2899 44.4485 40.2656L45.1357 39.8677C45.1756 39.8439 45.2223 39.8344 45.2681 39.8409C45.314 39.8473 45.3564 39.8692 45.3882 39.903C45.4202 39.9364 45.4403 39.9795 45.4452 40.0255C45.45 40.0716 45.4395 40.118 45.4151 40.1574L45.125 40.6256L45.8181 40.224C45.8573 40.2012 45.9028 40.192 45.9477 40.1977C45.9926 40.2034 46.0344 40.2238 46.0668 40.2556C46.0992 40.2875 46.1203 40.3292 46.1268 40.3743C46.1333 40.4195 46.1249 40.4655 46.1028 40.5053L45.7584 41.1297L45.8703 41.0652C45.8939 41.0501 45.9203 41.04 45.9478 41.0354C45.9754 41.0309 46.0036 41.032 46.0308 41.0387C46.0579 41.0453 46.0835 41.0575 46.1058 41.0743C46.1282 41.0911 46.1469 41.1124 46.1609 41.1367C46.1749 41.161 46.1839 41.1878 46.1872 41.2157C46.1906 41.2436 46.1883 41.2718 46.1805 41.2988C46.1727 41.3257 46.1596 41.3508 46.1419 41.3726C46.1242 41.3943 46.1023 41.4122 46.0776 41.4252L45.3219 41.8698C45.2903 41.8878 45.2545 41.897 45.2182 41.8964Z" fill="#63A63D"/>
  <path fill-rule="evenodd" clip-rule="evenodd" d="M31.6869 36.1864C31.592 35.5729 32.2134 35.2999 32.7373 35.3382C32.8879 35.3367 33.0385 35.3358 33.189 35.335H33.1892H33.1893C33.3777 35.334 33.566 35.333 33.7542 35.3307L34.3652 35.3265C36.8374 35.3092 39.3104 35.3186 41.7831 35.328H41.7833H41.7835H41.7837H41.7839C43.5292 35.3347 45.2744 35.3413 47.0191 35.3386L47.6318 35.3382C47.8329 35.3776 48.0894 35.3553 48.3537 35.3323C48.9284 35.2823 49.5402 35.229 49.6995 35.801C49.7263 37.4553 49.7151 39.118 49.7039 40.7819C49.6942 42.2227 49.6845 43.6643 49.6995 45.1019C49.8238 45.7791 49.5697 46.4367 48.7875 46.4034C47.8066 46.4571 46.8145 46.4391 45.8261 46.4212C45.3332 46.4123 44.8412 46.4034 44.352 46.4034H32.2063C31.8042 46.3706 31.6733 46.0896 31.6869 45.7333V36.1864ZM49.1056 36.5908C49.1277 36.1775 49.1569 35.6316 48.7038 35.5812C48.3288 35.5509 47.9521 35.5474 47.5767 35.5708L47.0448 35.5817H34.3018H33.7799C33.5453 35.5897 33.3007 35.5844 33.0564 35.5791H33.0563C32.7718 35.5728 32.4876 35.5666 32.22 35.5817C32.333 37.2897 32.3118 39.0615 32.2907 40.8309C32.2767 41.9952 32.2628 43.1585 32.2872 44.3019C32.2872 44.3766 32.2796 44.4823 32.2708 44.6058C32.2314 45.1555 32.1667 46.0588 32.6304 46.1608H45.7254C46.2354 46.1559 46.7469 46.159 47.2581 46.1621H47.2581H47.2582C47.8447 46.1657 48.4309 46.1692 49.0142 46.1608C49.049 46.1559 49.0759 46.1531 49.0964 46.1509C49.1337 46.147 49.1497 46.1453 49.1534 46.1376C49.1562 46.1319 49.1522 46.1228 49.1451 46.1069C49.1312 46.076 49.1058 46.0192 49.0971 45.911C49.0811 44.2865 49.0878 42.6591 49.0945 41.0312C49.1002 39.6259 49.106 38.2203 49.0971 36.8162C49.0971 36.7496 49.1012 36.6728 49.1056 36.5908Z" fill="#262626"/>
  <path d="M47.5707 39.1488C47.217 38.7593 47.0015 38.2634 46.9576 37.7382C46.905 37.3635 46.9601 37.0443 46.5112 37.0014C42.7746 36.9619 39.0152 37.0068 35.2737 37.0014C34.1603 36.9157 34.5732 38.1906 34.1437 38.8358C33.8913 39.4185 33.1513 39.4651 33.3449 40.2323C33.3984 40.8957 33.2359 41.6225 33.3926 42.2618C33.6413 42.487 33.9696 42.6573 34.1143 42.994C34.4641 43.4585 34.2855 44.1936 34.5769 44.6402C38.296 44.9249 42.1706 44.6515 45.9399 44.7401C46.1015 44.7605 46.2655 44.7469 46.4215 44.7004C46.5776 44.6538 46.7223 44.5752 46.8465 44.4696C47.0869 43.7699 46.9796 42.8371 47.6946 42.3538C47.9019 42.1911 48.0238 42.1153 48.0391 41.8406C47.9098 40.9619 48.4545 39.6907 47.5707 39.1488ZM47.4389 42.0916C47.3701 42.3447 46.9688 42.5307 46.8038 42.7576C46.4498 43.2025 46.3818 43.9156 46.3122 44.4921H35.6207C34.9433 44.6839 35.0242 43.7844 34.9189 43.3266C34.5354 42.0862 33.6836 42.3884 33.9456 40.7875C33.965 40.2368 33.7503 39.5638 34.3418 39.2516C34.7584 38.8141 35.2306 37.9151 34.9553 37.3627C34.9436 37.3214 34.9287 37.2811 34.911 37.242C38.6003 37.2503 42.3257 37.242 46.0204 37.2453C46.3706 37.3078 46.3172 37.6653 46.3686 37.9792C46.4259 38.4827 46.6392 38.9554 46.9783 39.3307C47.6553 39.7161 47.4294 40.5061 47.4385 41.158C47.4751 41.4681 47.4753 41.7815 47.4389 42.0916Z" fill="#262626"/>
  <path d="M41.5627 38.7142C37.749 37.6012 37.0518 43.6408 41.1158 43.1126C43.3671 42.7855 43.7842 39.4389 41.5627 38.7142ZM41.3219 42.6435C38.5159 43.4952 38.0056 38.6327 40.9708 39.0331C42.7109 39.3461 43.0082 42.025 41.3206 42.6435H41.3219Z" fill="#262626"/>
  <path d="M36.9728 40.0978C36.2619 39.5184 34.9002 40.0774 35.0523 41.0685C35.4129 42.7713 38.2989 41.3761 36.9728 40.0978ZM36.6258 41.2454C36.5338 41.4119 36.3493 41.6096 36.1384 41.5035C36.0155 41.458 35.907 41.3804 35.8241 41.2786C35.7412 41.1768 35.687 41.0545 35.6671 40.9246C35.6472 40.7946 35.6623 40.6617 35.7108 40.5396C35.7593 40.4175 35.8395 40.3107 35.9431 40.2302C36.4559 40.062 36.875 40.8004 36.6258 41.2454Z" fill="#262626"/>
  <path d="M46.0397 40.0978C45.3288 39.5184 43.967 40.0774 44.1192 41.0685C44.4802 42.7713 47.3662 41.3761 46.0397 40.0978ZM45.6931 41.2454C45.6011 41.4119 45.4167 41.6096 45.2057 41.5035C45.0828 41.458 44.9743 41.3804 44.8914 41.2786C44.8085 41.1768 44.7543 41.0545 44.7344 40.9246C44.7145 40.7946 44.7296 40.6617 44.7781 40.5396C44.8266 40.4175 44.9069 40.3107 45.0104 40.2302C45.5232 40.062 45.9423 40.8004 45.6931 41.2454Z" fill="#262626"/>
  <path d="M31.6139 44.239C31.5703 44.2273 31.5318 44.2016 31.5042 44.1659C31.4765 44.1301 31.4613 44.0863 31.4608 44.041C31.4602 43.9957 31.4744 43.9515 31.5012 43.915C31.528 43.8784 31.5659 43.8517 31.6092 43.8387L36.0671 42.5003L31.0482 43.8548C30.9953 43.8698 30.9386 43.8632 30.8907 43.8363C30.8427 43.8095 30.8074 43.7645 30.7925 43.7115C30.7775 43.6584 30.7843 43.6015 30.8111 43.5533C30.838 43.5051 30.8829 43.4695 30.9358 43.4545L35.5983 42.0588L31.1458 43.26C31.094 43.2724 31.0395 43.2645 30.9935 43.2377C30.9475 43.2109 30.9135 43.1673 30.8987 43.116C30.8838 43.0648 30.8893 43.0097 30.9138 42.9622C30.9383 42.9147 30.9801 42.8785 31.0304 42.861L39.7323 40.0953L31.3907 42.3461C31.3383 42.3596 31.2828 42.3521 31.2359 42.3251C31.1891 42.2982 31.1546 42.2539 31.1399 42.2017C31.1252 42.1496 31.1313 42.0936 31.1571 42.0459C31.1828 41.9981 31.2261 41.9623 31.2777 41.9461L35.2281 40.7431L31.5547 41.7342C31.5026 41.7474 31.4475 41.7399 31.4009 41.7132C31.3543 41.6866 31.3199 41.6428 31.3049 41.5911C31.2899 41.5394 31.2955 41.4838 31.3205 41.4361C31.3455 41.3883 31.3879 41.3521 31.4389 41.3351L37.463 39.4157L31.7637 40.9542C31.7117 40.9674 31.6568 40.96 31.6103 40.9334C31.5638 40.9069 31.5293 40.8633 31.5142 40.8118C31.499 40.7603 31.5043 40.7048 31.529 40.6571C31.5536 40.6093 31.5957 40.573 31.6464 40.5556L37.3851 38.6782L31.983 40.1356C31.9308 40.1489 31.8755 40.1414 31.8288 40.1146C31.7821 40.0878 31.7477 40.0437 31.7329 39.9918C31.718 39.9399 31.7239 39.8842 31.7492 39.8365C31.7745 39.7887 31.8174 39.7527 31.8686 39.7361L33.6479 39.1816L32.1289 39.5912C32.077 39.6037 32.0223 39.5956 31.9762 39.5687C31.9301 39.5418 31.8962 39.498 31.8816 39.4466C31.8669 39.3951 31.8725 39.3399 31.8974 39.2924C31.9222 39.245 31.9643 39.2089 32.0149 39.1918L32.3519 39.0873L32.2571 39.1127C32.2042 39.1281 32.1475 39.1218 32.0994 39.0952C32.0513 39.0687 32.0157 39.0239 32.0004 38.9709C31.9852 38.918 31.9916 38.861 32.0182 38.8127C32.0448 38.7643 32.0894 38.7285 32.1423 38.7131L32.435 38.6218L32.3852 38.6347C32.3335 38.6469 32.2793 38.6387 32.2335 38.612C32.1877 38.5852 32.154 38.5419 32.1391 38.4908C32.1243 38.4398 32.1295 38.3849 32.1537 38.3376C32.1779 38.2902 32.2192 38.2539 32.2692 38.2361L32.8391 38.0535L32.5158 38.1392C32.4638 38.1529 32.4085 38.1458 32.3618 38.1194C32.315 38.093 32.2803 38.0493 32.2649 37.9977C32.2496 37.946 32.2549 37.8904 32.2796 37.8425C32.3044 37.7946 32.3467 37.7581 32.3976 37.7409L33.5283 37.3651L32.6621 37.601C32.6111 37.6144 32.557 37.6078 32.5108 37.5826C32.4645 37.5574 32.4296 37.5155 32.4131 37.4653C32.3966 37.4151 32.3998 37.3605 32.422 37.3125C32.4442 37.2645 32.4837 37.2268 32.5326 37.2069L35.6133 35.9821L32.8997 36.7145C32.8496 36.7273 32.7967 36.7209 32.7512 36.6966C32.7057 36.6723 32.6709 36.6318 32.6536 36.583C32.6363 36.5343 32.6377 36.4808 32.6576 36.4329C32.6776 36.3851 32.7145 36.3465 32.7613 36.3245L35.0633 35.2784L33.1458 35.7958C33.0954 35.8088 33.0421 35.8023 32.9963 35.7776C32.9505 35.753 32.9157 35.7119 32.8987 35.6626C32.8817 35.6133 32.8838 35.5594 32.9046 35.5115C32.9254 35.4636 32.9633 35.4253 33.0109 35.4041L33.7357 35.0903L33.3037 35.2068C33.2568 35.2192 33.2071 35.2148 33.1632 35.1943C33.1192 35.1738 33.0839 35.1385 33.0633 35.0945C33.0427 35.0505 33.0381 35.0006 33.0504 34.9535C33.0626 34.9064 33.0909 34.8651 33.1303 34.8367L33.945 34.2548L33.5288 34.3665C33.4841 34.3784 33.4367 34.375 33.3942 34.3568C33.3517 34.3386 33.3165 34.3066 33.2942 34.2659C33.2719 34.2253 33.2639 34.1783 33.2713 34.1324C33.2787 34.0866 33.3012 34.0445 33.3352 34.0129L33.5144 33.8485C33.4812 33.8264 33.4551 33.7951 33.4392 33.7584C33.4233 33.7217 33.4183 33.6811 33.4248 33.6416C33.4314 33.6021 33.4491 33.5653 33.4759 33.5356C33.5027 33.5059 33.5375 33.4846 33.5761 33.4742L34.1154 33.3304C34.1602 33.3185 34.2076 33.3219 34.2501 33.3401C34.2926 33.3583 34.3278 33.3903 34.3501 33.431C34.3723 33.4716 34.3804 33.5186 34.373 33.5645C34.3655 33.6103 34.3431 33.6524 34.3091 33.684L34.2431 33.7443L34.9508 33.5538C34.9977 33.5411 35.0476 33.5454 35.0917 33.5658C35.1358 33.5863 35.1712 33.6216 35.1919 33.6657C35.2126 33.7098 35.2172 33.7598 35.2049 33.8071C35.1926 33.8543 35.1641 33.8957 35.1245 33.924L34.3098 34.5059L36.3977 33.942C36.4483 33.9285 36.502 33.9347 36.5481 33.9593C36.5942 33.9839 36.6293 34.025 36.6464 34.0746C36.6635 34.1241 36.6613 34.1783 36.6403 34.2263C36.6193 34.2744 36.581 34.3128 36.5331 34.3338L35.8083 34.6459L37.4144 34.2144C37.4645 34.2012 37.5177 34.2073 37.5635 34.2315C37.6093 34.2558 37.6444 34.2964 37.6618 34.3453C37.6792 34.3943 37.6777 34.448 37.6576 34.496C37.6375 34.544 37.6002 34.5827 37.5531 34.6045L35.2535 35.6495L39.0004 34.6393C39.0513 34.626 39.1054 34.6325 39.1517 34.6577C39.1979 34.6829 39.2329 34.7249 39.2494 34.7751C39.2659 34.8252 39.2627 34.8799 39.2405 34.9279C39.2183 34.9758 39.1788 35.0136 39.1299 35.0335L36.0493 36.2579L40.5287 35.0489C40.5803 35.0363 40.6346 35.0441 40.6806 35.0706C40.7266 35.0971 40.7606 35.1403 40.7758 35.1913C40.7909 35.2422 40.786 35.2972 40.762 35.3447C40.7381 35.3922 40.6969 35.4288 40.6469 35.4468L39.5163 35.8226L41.4592 35.2982C41.5109 35.286 41.5651 35.2942 41.6109 35.3209C41.6567 35.3477 41.6904 35.391 41.7053 35.4421C41.7201 35.4931 41.7149 35.548 41.6907 35.5954C41.6665 35.6427 41.6251 35.6791 41.5751 35.6968L41.0067 35.8789L42.3117 35.5266C42.3637 35.5137 42.4186 35.5215 42.4649 35.5484C42.5112 35.5752 42.5453 35.6189 42.5602 35.6705C42.575 35.7221 42.5694 35.7774 42.5445 35.825C42.5196 35.8726 42.4774 35.9087 42.4266 35.9258L42.1328 36.0195L43.1357 35.7474C43.1879 35.7341 43.2432 35.7416 43.2899 35.7684C43.3366 35.7952 43.371 35.8393 43.3859 35.8912C43.4007 35.9431 43.3949 35.9988 43.3695 36.0465C43.3442 36.0943 43.3014 36.1303 43.2501 36.1469L42.9052 36.2536L43.9622 35.9689C44.0139 35.9567 44.0683 35.9649 44.1141 35.9918C44.1599 36.0188 44.1936 36.0623 44.2083 36.1135C44.2229 36.1647 44.2175 36.2196 44.193 36.267C44.1685 36.3143 44.1269 36.3505 44.0767 36.368L42.3043 36.9204L44.9003 36.2202C44.9518 36.208 45.006 36.2161 45.0518 36.2427C45.0975 36.2693 45.1313 36.3124 45.1463 36.3633C45.1613 36.4142 45.1564 36.469 45.1324 36.5164C45.1085 36.5638 45.0674 36.6003 45.0176 36.6184L39.2786 38.497L46.3125 36.5986C46.3646 36.5854 46.4197 36.5929 46.4663 36.6196C46.5128 36.6462 46.5473 36.69 46.5623 36.7417C46.5773 36.7934 46.5717 36.849 46.5467 36.8967C46.5217 36.9445 46.4793 36.9806 46.4283 36.9977L40.4085 38.9152L47.6575 36.959C47.7096 36.9461 47.7647 36.9539 47.8111 36.9809C47.8575 37.0078 47.8916 37.0518 47.9063 37.1036C47.921 37.1554 47.9151 37.2109 47.8899 37.2584C47.8646 37.306 47.822 37.342 47.771 37.3587L43.814 38.5638L48.7134 37.2419C48.7654 37.2287 48.8205 37.2362 48.8671 37.2629C48.9137 37.2895 48.9481 37.3333 48.9631 37.385C48.9781 37.4367 48.9725 37.4923 48.9475 37.54C48.9226 37.5878 48.8801 37.6239 48.8292 37.641L40.1304 40.4049L50.1997 37.688C50.2518 37.6755 50.3066 37.6836 50.3527 37.7107C50.3989 37.7378 50.4328 37.7817 50.4473 37.8334C50.4619 37.885 50.4559 37.9404 50.4307 37.9878C50.4056 38.0352 50.3631 38.0711 50.3123 38.0879L45.6462 39.4857L50.2778 38.236C50.3296 38.2241 50.3839 38.2327 50.4295 38.2598C50.4752 38.287 50.5086 38.3308 50.523 38.382C50.5374 38.4333 50.5316 38.4882 50.5069 38.5354C50.4821 38.5827 50.4402 38.6186 50.3899 38.6358L45.9344 39.9736L50.1128 38.8451C50.1651 38.8312 50.2207 38.8384 50.2678 38.8651C50.3148 38.8917 50.3495 38.9358 50.3646 38.9879C50.3796 39.04 50.3737 39.096 50.3483 39.1439C50.3228 39.1918 50.2797 39.2279 50.2281 39.2444L42.1773 41.8053L49.8763 39.728C49.9283 39.7158 49.9829 39.7241 50.0288 39.7513C50.0747 39.7785 50.1084 39.8225 50.1228 39.8741C50.1372 39.9256 50.1312 39.9808 50.1061 40.0281C50.0809 40.0754 50.0386 40.1112 49.9879 40.1281L49.5971 40.2444L49.7488 40.2036C49.8017 40.1885 49.8584 40.1952 49.9064 40.222C49.9544 40.2489 49.9897 40.2938 50.0046 40.3469C50.0195 40.4 50.0128 40.4569 49.9859 40.5051C49.959 40.5533 49.9142 40.5888 49.8613 40.6039L48.6041 40.9828L49.613 40.7106C49.6649 40.6981 49.7196 40.7062 49.7656 40.7331C49.8117 40.76 49.8456 40.8038 49.8603 40.8552C49.875 40.9067 49.8693 40.9619 49.8445 41.0094C49.8196 41.0568 49.7776 41.0929 49.727 41.11L46.9237 41.9766L49.4569 41.2932C49.5088 41.2799 49.5638 41.2874 49.6103 41.3139C49.6568 41.3405 49.6912 41.384 49.7064 41.4356C49.7215 41.4871 49.7162 41.5425 49.6915 41.5903C49.6669 41.638 49.6248 41.6744 49.5741 41.6917L44.7758 43.2626L49.2546 42.0543C49.3066 42.0414 49.3615 42.0492 49.4078 42.076C49.4541 42.1028 49.4883 42.1466 49.5031 42.1982C49.5179 42.2497 49.5123 42.3051 49.4874 42.3527C49.4626 42.4003 49.4203 42.4364 49.3695 42.4535L47.8353 42.9357L49.1105 42.5922C49.1624 42.5794 49.2171 42.5871 49.2634 42.6138C49.3096 42.6405 49.3438 42.684 49.3588 42.7354C49.3738 42.7868 49.3684 42.842 49.3438 42.8897C49.3192 42.9373 49.2773 42.9736 49.2268 42.991L47.5486 43.5299L48.9614 43.1487C49.0137 43.1344 49.0694 43.1412 49.1166 43.1676C49.1639 43.194 49.1989 43.2379 49.2143 43.29C49.2296 43.342 49.2241 43.3981 49.1988 43.4462C49.1735 43.4943 49.1306 43.5306 49.079 43.5474L47.422 44.0923L48.807 43.7184C48.8592 43.7046 48.9146 43.7118 48.9614 43.7384C49.0083 43.7649 49.043 43.8088 49.0582 43.8606C49.0734 43.9125 49.0678 43.9683 49.0427 44.0162C49.0176 44.0641 48.975 44.1003 48.9238 44.1172L48.6356 44.2124L48.6776 44.2016C48.7292 44.1888 48.7837 44.1963 48.8299 44.2227C48.8761 44.249 48.9104 44.2922 48.9257 44.3433C48.941 44.3944 48.9362 44.4494 48.9121 44.4971C48.8881 44.5448 48.8468 44.5814 48.7967 44.5994L48.1831 44.8073L48.5429 44.7107C48.5946 44.697 48.6495 44.7038 48.6962 44.7298C48.7429 44.7557 48.7777 44.7988 48.7935 44.85C48.8093 44.9011 48.8048 44.9565 48.7809 45.0045C48.757 45.0525 48.7156 45.0894 48.6653 45.1076L47.8337 45.4019L48.398 45.2514C48.4481 45.2382 48.5014 45.2444 48.5472 45.2686C48.593 45.2928 48.628 45.3334 48.6454 45.3824C48.6629 45.4313 48.6614 45.4851 48.6413 45.5331C48.6211 45.581 48.5839 45.6197 48.5368 45.6416L46.5795 46.5318L48.1699 46.1026C48.2188 46.0897 48.2706 46.0951 48.3157 46.1179C48.3608 46.1406 48.396 46.1792 48.4148 46.2262C48.4335 46.2732 48.4345 46.3255 48.4175 46.3733C48.4006 46.4211 48.3668 46.461 48.3226 46.4857L47.1768 47.1181L47.954 46.9083C48.0008 46.8961 48.0504 46.9007 48.0941 46.9212C48.1379 46.9418 48.1731 46.9771 48.1936 47.021C48.2141 47.0649 48.2187 47.1146 48.2065 47.1616C48.1943 47.2086 48.1662 47.2499 48.127 47.2783L47.7325 47.5604L47.7828 47.5472C47.835 47.5354 47.8897 47.5443 47.9354 47.5721C47.9811 47.5998 48.0144 47.6442 48.0282 47.696C48.042 47.7478 48.0353 47.803 48.0095 47.8501C47.9838 47.8972 47.9409 47.9325 47.8898 47.9486L46.7239 48.2576C46.677 48.27 46.6273 48.2656 46.5834 48.2451C46.5395 48.2246 46.5041 48.1893 46.4835 48.1453C46.4629 48.1013 46.4583 48.0514 46.4706 48.0043C46.4828 47.9572 46.5111 47.9159 46.5505 47.8875L46.9454 47.6055L45.6225 47.962C45.5731 47.9767 45.5201 47.9725 45.4737 47.9501C45.4274 47.9277 45.391 47.8888 45.3717 47.841C45.3524 47.7931 45.3516 47.7397 45.3693 47.6912C45.3871 47.6427 45.4222 47.6025 45.4678 47.5784L46.6138 46.9465L44.2338 47.5904C44.1836 47.6036 44.1304 47.5974 44.0846 47.5732C44.0388 47.549 44.0037 47.5084 43.9863 47.4594C43.9689 47.4105 43.9704 47.3567 43.9905 47.3087C44.0106 47.2608 44.0479 47.2221 44.095 47.2002L46.0501 46.3102L42.7655 47.1969C42.7142 47.2097 42.66 47.2023 42.614 47.1763C42.568 47.1502 42.5337 47.1076 42.518 47.0569C42.5024 47.0063 42.5066 46.9516 42.5299 46.9039C42.5531 46.8562 42.5935 46.8192 42.643 46.8004L43.4738 46.5059L41.8345 46.9475C41.7829 46.9604 41.7284 46.9528 41.6822 46.9265C41.636 46.9001 41.6017 46.8569 41.5864 46.8058C41.5711 46.7548 41.5759 46.6997 41.6 46.652C41.624 46.6043 41.6653 46.5677 41.7154 46.5497L42.3335 46.3409L40.9581 46.7126C40.9061 46.7259 40.8512 46.7184 40.8047 46.6919C40.7582 46.6653 40.7237 46.6218 40.7086 46.5703C40.6934 46.5187 40.6987 46.4633 40.7234 46.4156C40.748 46.3678 40.7901 46.3314 40.8408 46.3141L41.1271 46.221L40.1264 46.4898C40.0744 46.5035 40.0192 46.4963 39.9724 46.4699C39.9256 46.4435 39.8909 46.3999 39.8756 46.3482C39.8603 46.2966 39.8655 46.2409 39.8903 46.193C39.9151 46.1451 39.9574 46.1087 40.0083 46.0914L41.6625 45.5474L39.1446 46.2267C39.0925 46.2405 39.0371 46.2333 38.9902 46.2067C38.9434 46.1802 38.9086 46.1363 38.8935 46.0845C38.8783 46.0326 38.8839 45.9768 38.9089 45.9289C38.934 45.881 38.9767 45.8448 39.0279 45.8279L40.7057 45.2889L38.1841 45.9693C38.1318 45.9832 38.0762 45.976 38.0291 45.9493C37.9821 45.9227 37.9474 45.8786 37.9324 45.8265C37.9173 45.7744 37.9232 45.7184 37.9486 45.6705C37.9741 45.6226 38.0172 45.5865 38.0688 45.57L39.6035 45.0875L37.2563 45.7208C37.2046 45.7336 37.1499 45.726 37.1037 45.6995C37.0575 45.6729 37.0233 45.6296 37.0082 45.5783C36.993 45.5271 36.9981 45.472 37.0224 45.4243C37.0467 45.3767 37.0883 45.3402 37.1386 45.3225L41.9408 43.7514L35.9438 45.3691C35.8919 45.3816 35.8372 45.3735 35.7911 45.3466C35.7451 45.3196 35.7112 45.2759 35.6965 45.2244C35.6818 45.173 35.6875 45.1178 35.7123 45.0703C35.7371 45.0229 35.7792 44.9868 35.8298 44.9696L38.6268 44.1057L34.9396 45.1C34.8872 45.1135 34.8317 45.106 34.7848 45.079C34.738 45.0521 34.7035 45.0078 34.6888 44.9556C34.674 44.9035 34.6802 44.8475 34.706 44.7998C34.7317 44.752 34.775 44.7162 34.8266 44.7L36.0899 44.3193L34.0647 44.8656C34.0124 44.8786 33.9572 44.8708 33.9106 44.8437C33.8641 44.8166 33.8299 44.7723 33.8154 44.7203C33.8008 44.6683 33.807 44.6127 33.8326 44.5651C33.8582 44.5175 33.9013 44.4817 33.9526 44.4654L34.342 44.3495L33.2439 44.6456C33.1921 44.6581 33.1375 44.6501 33.0915 44.6233C33.0455 44.5965 33.0116 44.553 32.9967 44.5017C32.9819 44.4504 32.9873 44.3953 33.0118 44.3479C33.0364 44.3004 33.0781 44.2642 33.1285 44.2467L41.1778 41.6866L31.7215 44.2377C31.6864 44.2477 31.6492 44.2481 31.6139 44.239Z" fill="#63A63D"/>
  <path d="M37.962 44.2163C37.9189 44.2049 37.8805 44.1798 37.8528 44.1447C37.825 44.1096 37.8093 44.0664 37.808 44.0216C37.8067 43.9768 37.8199 43.9327 37.8455 43.8959C37.8712 43.8592 37.908 43.8317 37.9504 43.8176L40.6642 42.9103L36.9445 43.9135C36.8931 43.9261 36.8388 43.9184 36.7928 43.8921C36.7469 43.8658 36.7127 43.8227 36.6974 43.7719C36.6821 43.721 36.6868 43.6662 36.7105 43.6186C36.7342 43.571 36.7751 43.5343 36.8249 43.516L41.095 42.06L35.5784 43.5474C35.5269 43.56 35.4726 43.5524 35.4266 43.526C35.3807 43.4997 35.3465 43.4567 35.3312 43.4058C35.3159 43.355 35.3206 43.3001 35.3443 43.2525C35.368 43.205 35.4089 43.1682 35.4587 43.1499L41.0366 41.2528L34.1653 43.108C34.1129 43.1226 34.0569 43.1158 34.0094 43.0893C33.9619 43.0628 33.9268 43.0186 33.9116 42.9662C33.8963 42.9139 33.9022 42.8575 33.9279 42.8094C33.9536 42.7613 33.9972 42.7252 34.0491 42.7089L38.4028 41.3188L34.1936 42.4533C34.1415 42.4674 34.0859 42.4607 34.0388 42.4344C33.9917 42.4082 33.9566 42.3645 33.9411 42.3126C33.9257 42.2608 33.9309 42.2049 33.9558 42.1568C33.9807 42.1087 34.0233 42.0722 34.0745 42.0551L39.1735 40.342L34.2022 41.6843C34.15 41.6976 34.0947 41.6901 34.048 41.6633C34.0013 41.6364 33.9669 41.5924 33.9521 41.5405C33.9372 41.4886 33.9431 41.4329 33.9684 41.3851C33.9937 41.3374 34.0366 41.3014 34.0878 41.2847L34.3032 41.2175L34.1122 41.2689C34.0603 41.2817 34.0054 41.2739 33.9591 41.2471C33.9128 41.2203 33.8786 41.1765 33.8638 41.125C33.8489 41.0734 33.8545 41.018 33.8794 40.9705C33.9043 40.9229 33.9466 40.8867 33.9973 40.8696L34.2723 40.7835L33.9291 40.8759C33.8771 40.8896 33.8219 40.8825 33.7751 40.8561C33.7283 40.8297 33.6936 40.786 33.6783 40.7344C33.663 40.6827 33.6683 40.6271 33.693 40.5792C33.7178 40.5313 33.7601 40.4948 33.811 40.4776L36.2104 39.6769L33.637 40.371C33.5853 40.3835 33.5309 40.3756 33.4849 40.349C33.4389 40.3224 33.4049 40.279 33.3899 40.2279C33.3749 40.1767 33.3801 40.1218 33.4043 40.0742C33.4286 40.0267 33.47 39.9903 33.5202 39.9726L34.3316 39.7087L33.7733 39.8607C33.7221 39.8746 33.6675 39.8682 33.6209 39.8429C33.5743 39.8176 33.5392 39.7754 33.5227 39.7248C33.5063 39.6743 33.5097 39.6193 33.5324 39.5711C33.5551 39.523 33.5953 39.4854 33.6447 39.466L36.9621 38.1701L34.0137 38.9633C33.9633 38.9767 33.9097 38.9704 33.8638 38.9459C33.8178 38.9213 33.7827 38.8803 33.7656 38.8309C33.7484 38.7815 33.7505 38.7275 33.7713 38.6794C33.7921 38.6314 33.8302 38.593 33.8779 38.5718L36.3757 37.4791L34.2755 38.0458C34.2262 38.0592 34.1737 38.0539 34.1281 38.0309C34.0825 38.0079 34.047 37.9688 34.0284 37.9212C34.0098 37.8735 34.0095 37.8205 34.0274 37.7725C34.0453 37.7244 34.0802 37.6847 34.1254 37.6608L35.7283 36.804L35.6576 36.823C35.6144 36.8345 35.5687 36.8317 35.5272 36.815C35.4858 36.7984 35.4509 36.7687 35.4277 36.7305C35.4045 36.6922 35.3942 36.6475 35.3983 36.6028C35.4025 36.5582 35.421 36.5161 35.4509 36.4828L35.7707 36.1285C35.7473 36.1151 35.7269 36.0971 35.7105 36.0756C35.6941 36.0541 35.6822 36.0296 35.6755 36.0034C35.6612 35.9502 35.6687 35.8934 35.6961 35.8456C35.7236 35.7977 35.7688 35.7628 35.8219 35.7484L36.2664 35.6287C36.3096 35.6172 36.3553 35.62 36.3967 35.6367C36.4381 35.6534 36.473 35.683 36.4963 35.7212C36.5195 35.7595 36.5298 35.8042 36.5256 35.8489C36.5214 35.8935 36.503 35.9356 36.473 35.9689L36.2295 36.2372L37.3827 35.9296C37.4321 35.9157 37.4848 35.9208 37.5307 35.9437C37.5765 35.9666 37.6122 36.0058 37.631 36.0537C37.6497 36.1015 37.65 36.1547 37.6319 36.2029C37.6139 36.2511 37.5787 36.2909 37.5331 36.3146L35.9304 37.171L38.9607 36.3524C39.0111 36.3391 39.0647 36.3453 39.1107 36.3698C39.1567 36.3944 39.1917 36.4354 39.2089 36.4848C39.226 36.5342 39.2239 36.5883 39.2031 36.6363C39.1823 36.6843 39.1442 36.7227 39.0965 36.7439L36.5991 37.8354L40.5351 36.7742C40.5863 36.7604 40.6408 36.7668 40.6874 36.792C40.734 36.8173 40.7692 36.8596 40.7856 36.9101C40.8021 36.9607 40.7986 37.0157 40.7759 37.0638C40.7532 37.1119 40.713 37.1496 40.6636 37.1689L37.3466 38.4649L42.0794 37.188C42.1311 37.1755 42.1855 37.1834 42.2315 37.2101C42.2775 37.2367 42.3115 37.2801 42.3265 37.3312C42.3415 37.3823 42.3363 37.4373 42.3121 37.4848C42.2878 37.5323 42.2464 37.5687 42.1962 37.5865L41.3862 37.8499L42.9635 37.4249C43.0151 37.4124 43.0694 37.4202 43.1154 37.4467C43.1614 37.4732 43.1954 37.5163 43.2106 37.5673C43.2257 37.6183 43.2208 37.6732 43.1968 37.7208C43.1729 37.7683 43.1317 37.8049 43.0817 37.8229L40.6816 38.6234L44.0486 37.7157C44.1006 37.7028 44.1555 37.7106 44.2018 37.7374C44.2481 37.7642 44.2822 37.808 44.2971 37.8596C44.3119 37.9111 44.3063 37.9665 44.2814 38.0141C44.2565 38.0617 44.2143 38.0978 44.1635 38.1149L43.8922 38.1999L44.871 37.9361C44.9228 37.9239 44.9771 37.9321 45.0229 37.959C45.0687 37.986 45.1024 38.0295 45.1171 38.0807C45.1318 38.1319 45.1264 38.1868 45.1019 38.2342C45.0774 38.2815 45.0357 38.3177 44.9855 38.3352L44.765 38.4054L45.6883 38.155C45.7399 38.1422 45.7944 38.1497 45.8406 38.176C45.8868 38.2024 45.9211 38.2456 45.9364 38.2967C45.9517 38.3478 45.9469 38.4028 45.9228 38.4505C45.8988 38.4982 45.8575 38.5348 45.8074 38.5528L40.7079 40.2679L47.1019 38.5424C47.154 38.5292 47.2091 38.5367 47.2557 38.5634C47.3022 38.59 47.3367 38.6338 47.3517 38.6855C47.3667 38.7372 47.3611 38.7928 47.3361 38.8405C47.3111 38.8883 47.2687 38.9244 47.2177 38.9415L42.8704 40.3303L47.1786 39.1676C47.2301 39.155 47.2844 39.1627 47.3303 39.189C47.3763 39.2153 47.4104 39.2583 47.4257 39.3092C47.4411 39.36 47.4364 39.4149 47.4127 39.4625C47.389 39.51 47.348 39.5468 47.2983 39.5651L41.7182 41.4608L47.1522 39.9948C47.2041 39.9811 47.2592 39.9882 47.3059 40.0144C47.3527 40.0407 47.3874 40.0841 47.4029 40.1356C47.4184 40.1871 47.4134 40.2426 47.3889 40.2905C47.3645 40.3385 47.3225 40.3751 47.2718 40.3927L43.0007 41.8493L47.3361 40.6796C47.3879 40.6664 47.4427 40.6738 47.4892 40.7002C47.5357 40.7265 47.5701 40.7699 47.5854 40.8213C47.6007 40.8726 47.5957 40.928 47.5713 40.9757C47.547 41.0235 47.5052 41.06 47.4547 41.0777L44.7415 41.9848L47.702 41.1862C47.7537 41.173 47.8085 41.1802 47.8549 41.2064C47.9014 41.2327 47.9359 41.2759 47.9514 41.3271C47.9668 41.3783 47.962 41.4335 47.9379 41.4813C47.9139 41.5291 47.8724 41.5658 47.8221 41.5838L45.3232 42.4341L47.5987 41.82C47.65 41.8063 47.7045 41.8128 47.7511 41.8383C47.7976 41.8637 47.8327 41.9061 47.849 41.9568C47.8652 42.0074 47.8616 42.0624 47.8387 42.1105C47.8158 42.1585 47.7754 42.196 47.7259 42.2152L44.5076 43.4454L47.3701 42.6732C47.4214 42.6595 47.4759 42.666 47.5225 42.6914C47.569 42.7169 47.6041 42.7593 47.6204 42.8099C47.6366 42.8605 47.633 42.9156 47.6101 42.9636C47.5872 43.0117 47.5468 43.0492 47.4973 43.0683L45.6313 43.7857L47.1851 43.3669C47.2351 43.3539 47.2881 43.3601 47.3337 43.3842C47.3793 43.4084 47.4143 43.4487 47.4318 43.4974C47.4493 43.5462 47.448 43.5997 47.4283 43.6476C47.4085 43.6955 47.3716 43.7343 47.3249 43.7564L45.5522 44.5742L45.9759 44.4602C46.0238 44.4477 46.0746 44.4529 46.119 44.4747C46.1635 44.4965 46.1986 44.5336 46.2181 44.5792C46.2376 44.6249 46.2402 44.676 46.2254 44.7235C46.2106 44.7709 46.1793 44.8115 46.1373 44.8379L45.6392 45.1448C45.685 45.145 45.7294 45.1601 45.7657 45.188C45.802 45.2158 45.8282 45.2549 45.8404 45.2991C45.8545 45.3524 45.847 45.4092 45.8195 45.457C45.792 45.5048 45.7466 45.5397 45.6935 45.5541L44.3853 45.9072C44.3373 45.9197 44.2865 45.9146 44.2421 45.8927C44.1977 45.8709 44.1626 45.8338 44.143 45.7882C44.1235 45.7426 44.121 45.6914 44.1358 45.644C44.1506 45.5966 44.1818 45.556 44.2238 45.5296L44.7023 45.235L43.2934 45.6147C43.2432 45.6281 43.1899 45.6222 43.144 45.5981C43.0981 45.5741 43.0628 45.5336 43.0452 45.4847C43.0276 45.4358 43.029 45.382 43.0489 45.3339C43.0689 45.2858 43.1061 45.247 43.1531 45.225L44.9258 44.4072L41.8647 45.2319C41.8134 45.2455 41.7589 45.239 41.7123 45.2136C41.6658 45.1881 41.6308 45.1457 41.6145 45.0951C41.5982 45.0445 41.6019 44.9894 41.6248 44.9414C41.6477 44.8933 41.688 44.8558 41.7376 44.8367L43.6033 44.1201L40.6683 44.9113C40.617 44.925 40.5625 44.9184 40.5159 44.893C40.4694 44.8675 40.4344 44.8251 40.4181 44.7745C40.4018 44.7239 40.4055 44.6689 40.4284 44.6208C40.4513 44.5727 40.4916 44.5353 40.5412 44.5161L43.7604 43.2853L39.1956 44.5184C39.1441 44.531 39.0898 44.5233 39.0439 44.497C38.9979 44.4706 38.9638 44.4276 38.9485 44.3768C38.9331 44.3259 38.9378 44.2711 38.9615 44.2235C38.9852 44.1759 39.0262 44.1392 39.0759 44.1209L41.5744 43.2705L38.0697 44.215C38.0345 44.2249 37.9974 44.2254 37.962 44.2163Z" fill="#89D461"/>
  <path d="M35.5848 40.3996C35.5466 40.3894 35.5122 40.3685 35.4855 40.3393C35.4588 40.3101 35.441 40.2738 35.4342 40.2348C35.4274 40.1957 35.4319 40.1555 35.4471 40.1189C35.4623 40.0823 35.4876 40.0507 35.52 40.028L35.8866 39.7712L35.5163 39.8719C35.47 39.8844 35.4208 39.8804 35.3771 39.8606C35.3335 39.8408 35.298 39.8064 35.2769 39.7633C35.2557 39.7202 35.2501 39.671 35.261 39.6241C35.2719 39.5772 35.2986 39.5355 35.3367 39.5062L35.6238 39.2849C35.5854 39.2669 35.5535 39.2374 35.5324 39.2006C35.5112 39.1637 35.5019 39.1212 35.5056 39.0788C35.5093 39.0364 35.5258 38.9961 35.553 38.9634C35.5802 38.9306 35.6168 38.9071 35.6577 38.8958L36.4246 38.6893C36.4708 38.677 36.5199 38.6812 36.5634 38.701C36.6069 38.7209 36.6422 38.7553 36.6633 38.7983C36.6844 38.8413 36.69 38.8904 36.6791 38.9372C36.6683 38.9839 36.6417 39.0256 36.6038 39.0549L36.4179 39.1978L36.9239 39.0614C36.9711 39.0486 37.0212 39.0529 37.0655 39.0735C37.1097 39.0941 37.1453 39.1298 37.1659 39.1742C37.1864 39.2186 37.1907 39.2689 37.1779 39.3162C37.1652 39.3635 37.1362 39.4049 37.0961 39.4329L36.7295 39.6893L37.0279 39.609C37.0542 39.6017 37.0818 39.5997 37.1089 39.6031C37.136 39.6065 37.1622 39.6153 37.1859 39.6289C37.2096 39.6425 37.2304 39.6607 37.247 39.6824C37.2637 39.7041 37.2759 39.729 37.283 39.7555C37.29 39.782 37.2918 39.8096 37.2881 39.8368C37.2845 39.864 37.2755 39.8902 37.2617 39.914C37.248 39.9377 37.2297 39.9585 37.2079 39.9751C37.1861 39.9917 37.1612 40.0038 37.1348 40.0108L35.6936 40.4003C35.6579 40.41 35.6203 40.4097 35.5848 40.3996Z" fill="#63A63D"/>
  <path d="M44.7865 43.0259C44.7517 43.0166 44.7199 42.9983 44.6942 42.9728C44.6686 42.9474 44.6501 42.9157 44.6404 42.8808C44.6308 42.8459 44.6304 42.8091 44.6393 42.774C44.6482 42.7389 44.666 42.7067 44.6911 42.6806L45.1854 42.1666L44.3366 42.3955C44.2917 42.408 44.2439 42.405 44.201 42.387C44.1581 42.3689 44.1225 42.3369 44.1 42.296C44.0775 42.2551 44.0694 42.2078 44.0769 42.1617C44.0845 42.1155 44.1073 42.0733 44.1417 42.0417L44.5443 41.6604C44.4902 41.6711 44.4342 41.6598 44.3885 41.6289C44.3429 41.5981 44.3113 41.5503 44.3008 41.4961C44.2903 41.4418 44.3017 41.3856 44.3325 41.3397C44.3633 41.2938 44.411 41.262 44.4651 41.2514L45.2319 41.0449C45.2766 41.0322 45.3241 41.0352 45.3668 41.0533C45.4094 41.0714 45.4446 41.1035 45.4666 41.1444C45.4889 41.1849 45.4972 41.2317 45.4899 41.2775C45.4827 41.3233 45.4605 41.3653 45.4268 41.397L45.0253 41.7743L45.7988 41.5657C45.8425 41.5539 45.8889 41.5567 45.9308 41.5739C45.9727 41.591 46.0078 41.6215 46.0308 41.6606C46.0539 41.6998 46.0635 41.7456 46.0581 41.7908C46.0527 41.8361 46.0327 41.8784 46.001 41.9112L45.5067 42.4251L45.6315 42.3917C45.6582 42.3833 45.6863 42.3804 45.7141 42.3831C45.7419 42.3858 45.7689 42.3942 45.7934 42.4077C45.8179 42.4211 45.8394 42.4395 45.8567 42.4615C45.8739 42.4836 45.8865 42.5089 45.8937 42.536C45.901 42.5631 45.9026 42.5914 45.8987 42.6192C45.8947 42.647 45.8852 42.6737 45.8707 42.6977C45.8562 42.7217 45.837 42.7426 45.8143 42.759C45.7916 42.7754 45.7658 42.787 45.7385 42.7932L44.8935 43.027C44.8584 43.0362 44.8214 43.0358 44.7865 43.0259Z" fill="#63A63D"/>
  <path fill-rule="evenodd" clip-rule="evenodd" d="M33.1937 34.0083C33.2608 33.3911 33.9317 33.2881 34.4279 33.4607C34.5737 33.4983 34.7193 33.5364 34.865 33.5746L34.8651 33.5746L34.8652 33.5747C35.0475 33.6224 35.2296 33.6702 35.412 33.7167L36.0033 33.8708C38.3958 34.4939 40.782 35.1431 43.168 35.7922L43.1682 35.7922L43.1684 35.7923L43.1686 35.7923L43.1688 35.7924C44.8529 36.2505 46.5369 36.7086 48.2229 37.1575L48.8148 37.3157C48.9988 37.4059 49.2523 37.4507 49.5136 37.4969C50.0817 37.5973 50.6864 37.7042 50.6922 38.2979C50.29 39.9028 49.8488 41.506 49.4074 43.1102C49.0251 44.4994 48.6426 45.8894 48.285 47.2819C48.2298 47.9682 47.8142 48.5377 47.0672 48.3031C46.1059 48.101 45.1523 47.8269 44.2021 47.5538C43.7283 47.4176 43.2554 47.2817 42.7829 47.1551L31.0511 44.0115C30.6712 43.8757 30.6174 43.5704 30.7228 43.2298L33.1937 34.0083ZM49.9142 38.9071C50.0425 38.5137 50.212 37.9939 49.7873 37.8279C49.433 37.7016 49.0701 37.6007 48.7013 37.5262L48.1848 37.399L35.876 34.1008L35.3719 33.9658C35.1432 33.9128 34.9083 33.8444 34.6737 33.776L34.6736 33.776C34.4004 33.6963 34.1275 33.6168 33.8652 33.562C33.5322 35.2412 33.0532 36.9471 32.5748 38.6507C32.26 39.7718 31.9455 40.8918 31.6731 42.0025C31.6537 42.0747 31.6191 42.1748 31.5785 42.2919C31.3982 42.8126 31.102 43.6684 31.5235 43.8869L44.1722 47.2761C44.6661 47.4035 45.1594 47.5388 45.6524 47.6741L45.6524 47.6741L45.6525 47.6742C46.2181 47.8294 46.7834 47.9845 47.349 48.1274C47.3839 48.1317 47.4106 48.1359 47.431 48.1391C47.468 48.145 47.4839 48.1475 47.4895 48.141C47.4937 48.1362 47.4921 48.1264 47.4893 48.1092C47.484 48.0757 47.4742 48.0143 47.4938 47.9076C47.8987 46.3343 48.3264 44.764 48.7542 43.1933C49.1234 41.8374 49.4928 40.4812 49.8477 39.1227C49.8649 39.0583 49.8888 38.9852 49.9142 38.9071Z" fill="#262626"/>
  <path d="M47.77 40.9807C47.5291 40.513 47.4493 39.9782 47.5429 39.4595C47.589 39.084 47.7249 38.7899 47.3023 38.6323C43.7033 37.627 40.0604 36.6975 36.4478 35.7238C35.3945 35.3528 35.4633 36.6912 34.8815 37.2032C34.4868 37.7008 33.76 37.5543 33.7485 38.3454C33.6284 39.0001 33.2833 39.66 33.2692 40.3182C33.4512 40.6 33.7242 40.8495 33.7768 41.2122C33.9945 41.7514 33.6317 42.4152 33.7976 42.922C37.3163 44.1596 41.1297 44.8983 44.7476 45.9595C44.8984 46.021 45.0603 46.0503 45.2231 46.0457C45.3859 46.0411 45.546 46.0027 45.6933 45.9328C46.1067 45.3192 46.2444 44.3904 47.0602 44.1087C47.3025 44.0051 47.4398 43.9635 47.5257 43.7021C47.6282 42.8199 48.4834 41.733 47.77 40.9807ZM46.881 43.7892C46.749 44.0158 46.3133 44.0917 46.0952 44.2681C45.6381 44.6063 45.3879 45.2774 45.1714 45.8162L34.8442 43.049C34.1403 43.0591 34.4511 42.2112 34.4679 41.7416C34.4186 40.4443 33.5176 40.5157 34.1849 39.0372C34.3463 38.5103 34.3131 37.8046 34.9653 37.6562C35.4809 37.3414 36.1697 36.5952 36.0467 35.9904C36.046 35.9475 36.0422 35.9047 36.0351 35.8624C39.5966 36.8253 43.1972 37.7814 46.7651 38.7409C47.0873 38.8919 46.9431 39.2234 46.9115 39.5398C46.8366 40.041 46.9203 40.5528 47.1507 41.0031C47.7048 41.5506 47.2821 42.2553 47.1222 42.8872C47.0774 43.1963 46.9964 43.499 46.881 43.7892Z" fill="#262626"/>
  <path d="M42.079 39.006C38.6834 36.9438 36.4467 42.5972 40.509 43.1388C42.7683 43.4055 44.0372 40.2809 42.079 39.006ZM40.8294 42.739C37.8987 42.8354 38.6643 38.0065 41.4247 39.1607C43.0246 39.9135 42.6183 42.578 40.8282 42.7387L40.8294 42.739Z" fill="#262626"/>
  <path d="M37.2872 39.1544C36.7505 38.4107 35.2905 38.5983 35.1809 39.5949C35.0885 41.3331 38.2372 40.7323 37.2872 39.1544ZM36.655 40.1731C36.5231 40.3101 36.2937 40.4533 36.1174 40.2962C36.0105 40.2205 35.9258 40.1174 35.8721 39.9976C35.8184 39.8778 35.7976 39.7457 35.812 39.6151C35.8264 39.4844 35.8754 39.3599 35.9539 39.2545C36.0323 39.1491 36.1375 39.0667 36.2583 39.0158C36.7972 38.986 37.0108 39.8078 36.655 40.1731Z" fill="#262626"/>
  <path d="M46.045 41.5011C45.5083 40.7575 44.0483 40.945 43.9387 41.9416C43.8467 43.6799 46.9955 43.0791 46.045 41.5011ZM45.4133 42.5199C45.2813 42.6569 45.0519 42.8001 44.8756 42.643C44.7687 42.5673 44.684 42.4642 44.6303 42.3444C44.5766 42.2246 44.5558 42.0926 44.5702 41.9619C44.5846 41.8312 44.6336 41.7067 44.7121 41.6013C44.7906 41.4959 44.8957 41.4135 45.0165 41.3626C45.5554 41.3329 45.7691 42.1546 45.4133 42.5199Z" fill="#262626"/>
  </g>
  <defs>
  <clipPath id="clip0_280_503">
  <rect width="54" height="54" fill="white" transform="translate(0 0.00146484)"/>
  </clipPath>
  </defs>
  </svg>
  