<svg width="21" height="20" viewBox="0 0 21 20" fill="none" xmlns="http://www.w3.org/2000/svg">
  <path d="M10.8442 0C7.94399 0 5.58447 2.36566 5.58447 5.27344C5.58447 8.18121 7.94399 10.5469 10.8442 10.5469C13.7444 10.5469 16.104 8.18121 16.104 5.27344C16.104 2.36566 13.7444 0 10.8442 0Z" fill="#AA8652"/>
  <path d="M17.3882 13.992C15.9482 12.5261 14.0393 11.7188 12.0129 11.7188H9.67528C7.649 11.7188 5.73998 12.5261 4.29998 13.992C2.86704 15.4507 2.07788 17.3763 2.07788 19.4141C2.07788 19.7377 2.33954 20 2.6623 20H19.0259C19.3487 20 19.6103 19.7377 19.6103 19.4141C19.6103 17.3763 18.8212 15.4507 17.3882 13.992Z" fill="#AA8652"/>
  </svg>
  