<svg width="25" height="25" viewBox="0 0 25 25" fill="none" xmlns="http://www.w3.org/2000/svg">
  <g clip-path="url(#clip0_280_423)">
  <path d="M4.80884 18.9847C4.76551 18.9847 4.72333 18.9707 4.68865 18.9448C4.65396 18.9188 4.62865 18.8823 4.61651 18.8407C4.60438 18.7991 4.60608 18.7547 4.62136 18.7141C4.63664 18.6736 4.66467 18.6391 4.70124 18.6159L7.24644 16.9975L4.18644 18.7643C4.14121 18.7891 4.08811 18.7956 4.03825 18.7822C3.98839 18.7688 3.94563 18.7367 3.91892 18.6925C3.89221 18.6483 3.88362 18.5955 3.89493 18.5452C3.90625 18.4948 3.9366 18.4508 3.97964 18.4223L7.74404 16.0551L3.79684 18.3351C3.75143 18.3593 3.69841 18.3652 3.64882 18.3513C3.59923 18.3375 3.55688 18.3051 3.53059 18.2608C3.50431 18.2165 3.49611 18.1638 3.5077 18.1136C3.5193 18.0635 3.54979 18.0197 3.59284 17.9915L4.50764 17.4315L3.66484 17.9163C3.61972 17.9401 3.5672 17.9458 3.51803 17.9322C3.46885 17.9186 3.42674 17.8867 3.40032 17.843C3.37389 17.7994 3.36515 17.7473 3.37588 17.6974C3.38661 17.6475 3.416 17.6036 3.45804 17.5747L11.0824 12.7327L3.77804 16.9491C3.73278 16.9736 3.6798 16.9797 3.63013 16.9662C3.58047 16.9526 3.53794 16.9204 3.5114 16.8763C3.48487 16.8322 3.47636 16.7796 3.48765 16.7293C3.49895 16.6791 3.52917 16.6352 3.57204 16.6067L9.74244 12.7343L3.92004 16.0943C3.87458 16.1194 3.82112 16.1259 3.77098 16.1123C3.72083 16.0987 3.67794 16.0661 3.65138 16.0215C3.62483 15.9768 3.61668 15.9236 3.62867 15.8731C3.64067 15.8225 3.67186 15.7786 3.71564 15.7507L4.66604 15.1707L4.01084 15.5487C3.96546 15.5733 3.91233 15.5794 3.86255 15.5657C3.81278 15.552 3.77021 15.5197 3.74376 15.4753C3.71731 15.431 3.70902 15.3782 3.72063 15.3279C3.73223 15.2776 3.76284 15.2337 3.80604 15.2055L6.29884 13.6691L4.11364 14.9303C4.06859 14.9547 4.01587 14.9609 3.96636 14.9476C3.91686 14.9344 3.87435 14.9026 3.84761 14.8588C3.82086 14.8151 3.81193 14.7628 3.82266 14.7126C3.83338 14.6625 3.86295 14.6184 3.90524 14.5895L10.1624 10.5503L4.27724 13.9475C4.23205 13.9716 4.17932 13.9775 4.12991 13.9639C4.08051 13.9503 4.03821 13.9183 4.01174 13.8744C3.98526 13.8305 3.97663 13.7782 3.98763 13.7281C3.99863 13.6781 4.02841 13.6342 4.07084 13.6055L7.43084 11.4855L4.39524 13.2375C4.34986 13.2621 4.29673 13.2682 4.24695 13.2545C4.19718 13.2408 4.15461 13.2085 4.12816 13.1641C4.10171 13.1198 4.09342 13.067 4.10503 13.0167C4.11663 12.9664 4.14724 12.9225 4.19044 12.8943L4.42724 12.7475C4.3811 12.7585 4.33252 12.7528 4.29018 12.7314C4.24785 12.71 4.21452 12.6742 4.19615 12.6304C4.17778 12.5866 4.17557 12.5378 4.18991 12.4925C4.20426 12.4473 4.23422 12.4086 4.27444 12.3835L5.30444 11.7383L4.40244 12.2599C4.35718 12.2864 4.30331 12.2941 4.25244 12.2812C4.20157 12.2684 4.15778 12.2361 4.1305 12.1913C4.10321 12.1465 4.09463 12.0928 4.10659 12.0417C4.11855 11.9906 4.1501 11.9463 4.19444 11.9183L6.81044 10.2355L3.99804 11.8583C3.9529 11.8845 3.89928 11.8921 3.84865 11.8793C3.79801 11.8666 3.75437 11.8345 3.72705 11.79C3.69973 11.7455 3.6909 11.6921 3.70245 11.6411C3.714 11.5902 3.745 11.5458 3.78884 11.5175L6.86404 9.50986L3.55724 11.4187C3.51213 11.4457 3.45818 11.4538 3.4071 11.4414C3.35601 11.4289 3.31188 11.3968 3.28427 11.3521C3.25666 11.3073 3.24779 11.2535 3.25957 11.2023C3.27136 11.151 3.30285 11.1065 3.34724 11.0783L6.86484 8.76866L3.08684 10.9499C3.04164 10.9751 2.9884 10.9819 2.93832 10.9687C2.88825 10.9555 2.84524 10.9234 2.81834 10.8792C2.79145 10.8349 2.78277 10.7819 2.79413 10.7314C2.80548 10.6809 2.836 10.6367 2.87924 10.6083L4.49404 9.58266L2.73404 10.5983C2.68872 10.6237 2.63531 10.6304 2.58509 10.6171C2.53488 10.6038 2.49181 10.5715 2.46499 10.527C2.43818 10.4825 2.42972 10.4294 2.44141 10.3788C2.4531 10.3282 2.48403 10.2841 2.52764 10.2559L2.76764 10.1067L2.43484 10.2987C2.38975 10.3239 2.33666 10.3306 2.28669 10.3176C2.23671 10.3045 2.19373 10.2726 2.16675 10.2286C2.13977 10.1845 2.13087 10.1317 2.14192 10.0813C2.15297 10.0308 2.18312 9.98659 2.22604 9.95786L5.56124 7.79466L1.98924 9.85626C1.94394 9.8839 1.88952 9.89241 1.83795 9.87992C1.78637 9.86743 1.74188 9.83496 1.71424 9.78966C1.6866 9.74436 1.6781 9.68994 1.69059 9.63837C1.70308 9.5868 1.73554 9.5423 1.78084 9.51466L4.67004 7.65946L1.57724 9.44506C1.53291 9.47028 1.48063 9.47761 1.43108 9.46555C1.38153 9.4535 1.33845 9.42297 1.31066 9.38021C1.28287 9.33745 1.27246 9.28569 1.28157 9.23551C1.29067 9.18534 1.3186 9.14053 1.35964 9.11026L3.04524 7.88386L1.12244 8.99306C1.07874 9.01847 1.02703 9.02638 0.977731 9.01521C0.928429 9.00403 0.885187 8.97461 0.856704 8.93284C0.82822 8.89108 0.816607 8.84008 0.824202 8.7901C0.831797 8.74013 0.858036 8.69488 0.89764 8.66346L2.24244 7.59506L0.67884 8.49746C0.635487 8.52198 0.584547 8.52944 0.535986 8.51838C0.487424 8.50732 0.444736 8.47854 0.416272 8.43767C0.387809 8.3968 0.375618 8.34678 0.382085 8.2974C0.388553 8.24802 0.413212 8.20282 0.45124 8.17066L1.08244 7.64626L0.51764 7.97226C0.47705 7.99573 0.429505 8.00419 0.38331 7.99617C0.337115 7.98815 0.295207 7.96415 0.264906 7.92837C0.234605 7.89259 0.217838 7.8473 0.217534 7.80042C0.217229 7.75353 0.233407 7.70803 0.26324 7.67186L0.65444 7.19826C0.619016 7.19769 0.584302 7.18824 0.553482 7.17077C0.522661 7.1533 0.496721 7.12837 0.47804 7.09826C0.451646 7.05236 0.44453 6.99787 0.458252 6.94673C0.471974 6.89559 0.505414 6.85198 0.55124 6.82546L1.37044 6.35266C1.41103 6.32919 1.45858 6.32073 1.50477 6.32875C1.55097 6.33677 1.59287 6.36077 1.62317 6.39655C1.65348 6.43233 1.67024 6.47762 1.67055 6.5245C1.67085 6.57139 1.65467 6.61689 1.62484 6.65306L1.27884 7.07146L2.92724 6.12146C2.97061 6.09653 3.02174 6.08875 3.07056 6.09966C3.11938 6.11057 3.16233 6.13938 3.19096 6.18041C3.21958 6.22143 3.23179 6.2717 3.22518 6.32128C3.21856 6.37086 3.19361 6.41617 3.15524 6.44826L2.52244 6.97106L4.37084 5.90386C4.41453 5.87895 4.466 5.87141 4.515 5.88275C4.564 5.89408 4.60693 5.92347 4.63524 5.96504C4.66354 6.00662 4.67514 6.05733 4.66773 6.10707C4.66032 6.15682 4.63444 6.20195 4.59524 6.23346L3.25324 7.30186L6.13044 5.64146C6.17477 5.61625 6.22705 5.60892 6.2766 5.62097C6.32615 5.63303 6.36923 5.66356 6.39702 5.70631C6.42481 5.74907 6.43522 5.80083 6.42611 5.85101C6.41701 5.90119 6.38908 5.94599 6.34804 5.97626L4.66284 7.20146L11.8024 3.08146C11.8477 3.05383 11.9022 3.04532 11.9537 3.05781C12.0053 3.0703 12.0498 3.10276 12.0774 3.14806C12.1051 3.19336 12.1136 3.24778 12.1011 3.29935C12.0886 3.35093 12.0561 3.39543 12.0108 3.42306L9.11964 5.27946L12.0476 3.58906C12.0928 3.56281 12.1464 3.55526 12.197 3.56801C12.2477 3.58077 12.2913 3.61282 12.3186 3.65732C12.3459 3.70183 12.3548 3.75525 12.3432 3.80617C12.3317 3.8571 12.3007 3.90149 12.2568 3.92986L8.91684 6.09586L12.312 4.13586C12.3573 4.11134 12.4103 4.10522 12.4599 4.11877C12.5096 4.13232 12.5521 4.1645 12.5787 4.20861C12.6052 4.25272 12.6137 4.30537 12.6024 4.3556C12.5911 4.40582 12.5609 4.44976 12.518 4.47826L12.2852 4.62426L12.4904 4.50426C12.5356 4.47979 12.5884 4.47363 12.638 4.48705C12.6876 4.50048 12.7301 4.53246 12.7567 4.57638C12.7834 4.62029 12.7921 4.67277 12.7811 4.72294C12.7701 4.77311 12.7402 4.81712 12.6976 4.84586L11.0816 5.87266L12.7 4.93826C12.745 4.9131 12.798 4.90628 12.8479 4.91922C12.8978 4.93216 12.9407 4.96386 12.9678 5.00771C12.9949 5.05157 13.004 5.10419 12.9933 5.15459C12.9825 5.205 12.9527 5.2493 12.91 5.27826L9.39004 7.58866L12.978 5.51706C13.0004 5.5033 13.0253 5.49408 13.0512 5.48993C13.0772 5.48578 13.1037 5.48677 13.1292 5.49287C13.1548 5.49896 13.1789 5.51002 13.2002 5.52543C13.2214 5.54084 13.2395 5.56028 13.2532 5.58266C13.267 5.60504 13.2762 5.62991 13.2804 5.65585C13.2845 5.68179 13.2835 5.70829 13.2774 5.73385C13.2713 5.7594 13.2603 5.78351 13.2449 5.80479C13.2295 5.82606 13.21 5.8441 13.1876 5.85786L10.1152 7.86346L13.8184 5.72546C13.8637 5.69783 13.9182 5.68932 13.9697 5.70181C14.0213 5.7143 14.0658 5.74676 14.0934 5.79206C14.1211 5.83736 14.1296 5.89178 14.1171 5.94336C14.1046 5.99493 14.0721 6.03943 14.0268 6.06706L11.4072 7.75186L14.6928 5.85546C14.7381 5.83094 14.7911 5.82482 14.8407 5.83837C14.8904 5.85192 14.9329 5.8841 14.9595 5.92821C14.986 5.97232 14.9945 6.02497 14.9832 6.0752C14.9719 6.12542 14.9417 6.16936 14.8988 6.19786L13.8724 6.84146L15.398 5.96146C15.4435 5.93587 15.4971 5.92903 15.5475 5.94241C15.5979 5.95578 15.6411 5.98832 15.6679 6.03308C15.6946 6.07784 15.7028 6.13128 15.6908 6.18201C15.6787 6.23274 15.6473 6.27675 15.6032 6.30466L15.5892 6.31346L16.0352 6.05626C16.0805 6.03139 16.1336 6.02497 16.1834 6.03834C16.2333 6.05171 16.276 6.08385 16.3028 6.12802C16.3295 6.1722 16.3381 6.22499 16.3267 6.27535C16.3154 6.32572 16.2851 6.36976 16.242 6.39826L12.888 8.51466L16.92 6.18706C16.9651 6.16261 17.0178 6.15639 17.0673 6.16968C17.1168 6.18297 17.1593 6.21477 17.1861 6.2585C17.2128 6.30223 17.2217 6.35456 17.211 6.40468C17.2003 6.45481 17.1707 6.4989 17.1284 6.52786L10.8712 10.5679L18.1408 6.37146C18.1862 6.34686 18.2394 6.34075 18.2891 6.35441C18.3389 6.36808 18.3815 6.40046 18.4079 6.44479C18.4344 6.48912 18.4427 6.54195 18.4311 6.59225C18.4194 6.64255 18.3888 6.68641 18.3456 6.71466L15.852 8.25146L18.672 6.62386C18.7175 6.59873 18.771 6.59227 18.8211 6.60585C18.8712 6.61943 18.9141 6.65199 18.9407 6.69664C18.9673 6.74129 18.9754 6.79452 18.9634 6.84506C18.9514 6.89561 18.9202 6.93951 18.8764 6.96746L17.9272 7.54666L18.9416 6.96146C18.9871 6.93528 19.0409 6.92797 19.0917 6.9411C19.1424 6.95424 19.186 6.98678 19.213 7.0317C19.24 7.07663 19.2483 7.13037 19.236 7.18134C19.2238 7.23232 19.1921 7.27646 19.1476 7.30426L12.9744 11.1779L19.0856 7.64986C19.1309 7.62398 19.1845 7.61682 19.235 7.6299C19.2855 7.64297 19.3289 7.67526 19.3559 7.71987C19.383 7.76448 19.3915 7.81789 19.3797 7.8687C19.3679 7.91951 19.3368 7.96371 19.2928 7.99186L11.6704 12.8327L17.8772 9.24906C17.9229 9.22196 17.9774 9.21408 18.0288 9.22717C18.0802 9.24026 18.1243 9.27324 18.1514 9.31886C18.1785 9.36448 18.1864 9.419 18.1733 9.47042C18.1602 9.52184 18.1273 9.56596 18.0816 9.59306L16.7728 10.3931C16.8128 10.3858 16.8541 10.3909 16.8911 10.4077C16.9281 10.4245 16.9591 10.4522 16.98 10.4871C17.0071 10.5319 17.0155 10.5855 17.0034 10.6364C16.9914 10.6873 16.9599 10.7315 16.9156 10.7595L13.1556 13.1231L15.1556 11.9687C15.2008 11.9442 15.2536 11.938 15.3032 11.9515C15.3528 11.9649 15.3953 11.9969 15.4219 12.0408C15.4486 12.0847 15.4573 12.1372 15.4463 12.1873C15.4353 12.2375 15.4054 12.2815 15.3628 12.3103L12.816 13.9295L15.0208 12.6571C15.0654 12.6321 15.1178 12.625 15.1673 12.6374C15.2168 12.6498 15.2598 12.6806 15.2873 12.7237C15.3148 12.7667 15.3248 12.8186 15.3153 12.8687C15.3058 12.9189 15.2774 12.9635 15.236 12.9935L13.8548 13.9655L14.7928 13.4243C14.8375 13.3986 14.8903 13.3912 14.9403 13.4035C14.9902 13.4159 15.0335 13.447 15.0612 13.4904C15.0888 13.5339 15.0986 13.5863 15.0885 13.6368C15.0785 13.6872 15.0494 13.7319 15.0072 13.7615L14.6172 14.0319C14.6616 14.0078 14.7134 14.0015 14.7623 14.014C14.8112 14.0266 14.8535 14.0572 14.8808 14.0996C14.908 14.1421 14.9183 14.1933 14.9094 14.2429C14.9005 14.2926 14.8731 14.3371 14.8328 14.3675L13.7444 15.1975L14.3744 14.8343C14.4183 14.8098 14.4696 14.8028 14.5184 14.8145C14.5672 14.8261 14.6098 14.8557 14.6378 14.8974C14.6658 14.939 14.6771 14.9896 14.6695 15.0392C14.6619 15.0888 14.636 15.1337 14.5968 15.1651L14.072 15.5739L14.172 15.5159C14.2147 15.4899 14.2654 15.4809 14.3144 15.4905C14.3633 15.5001 14.4069 15.5276 14.4366 15.5676C14.4663 15.6077 14.48 15.6574 14.4749 15.7071C14.4699 15.7567 14.4464 15.8026 14.4092 15.8359L13.6824 16.5215L13.9148 16.3875C13.9568 16.3644 14.0056 16.3572 14.0525 16.3671C14.0993 16.377 14.1411 16.4033 14.1701 16.4414C14.1992 16.4794 14.2136 16.5267 14.2108 16.5745C14.208 16.6223 14.1881 16.6675 14.1548 16.7019L13.8604 16.9955C13.8935 17.0013 13.9246 17.0153 13.9508 17.0363C13.9771 17.0573 13.9976 17.0846 14.0105 17.1156C14.0234 17.1466 14.0283 17.1803 14.0247 17.2137C14.0212 17.2471 14.0092 17.2791 13.99 17.3067L13.7532 17.6471C13.7783 17.6642 13.7993 17.6867 13.8144 17.7131C13.841 17.759 13.8482 17.8135 13.8346 17.8647C13.8209 17.916 13.7875 17.9597 13.7416 17.9863L13.3288 18.2263C13.2895 18.2488 13.2436 18.2573 13.1988 18.2504C13.154 18.2435 13.1128 18.2215 13.0821 18.1881C13.0515 18.1547 13.033 18.1119 13.0299 18.0666C13.0267 18.0214 13.0391 17.9764 13.0648 17.9391L13.1508 17.8147L12.868 17.9779C12.8261 18.0009 12.7772 18.0082 12.7304 17.9983C12.6835 17.9884 12.6418 17.962 12.6128 17.9239C12.5837 17.8859 12.5693 17.8387 12.5721 17.7909C12.5749 17.7431 12.5947 17.6979 12.628 17.6635L12.7944 17.4979L12.4 17.7255C12.3574 17.7514 12.3067 17.7604 12.2577 17.7509C12.2088 17.7413 12.1652 17.7137 12.1355 17.6737C12.1057 17.6336 12.0921 17.5839 12.0972 17.5343C12.1022 17.4846 12.1257 17.4387 12.1628 17.4055L12.8912 16.7183L11.7528 17.3755C11.7089 17.401 11.657 17.409 11.6074 17.3976C11.5579 17.3862 11.5146 17.3564 11.4862 17.3143C11.4578 17.2721 11.4466 17.2208 11.4547 17.1706C11.4629 17.1205 11.4898 17.0753 11.53 17.0443L12.0568 16.6347L11.246 17.1027C11.2021 17.1275 11.1503 17.1349 11.1012 17.1231C11.052 17.1114 11.0091 17.0815 10.9811 17.0395C10.9531 16.9974 10.942 16.9464 10.9501 16.8965C10.9583 16.8466 10.9849 16.8017 11.0248 16.7707L12.112 15.9411L10.6528 16.7835C10.6082 16.8092 10.5553 16.8168 10.5052 16.8045C10.4551 16.7922 10.4117 16.761 10.384 16.7175C10.3563 16.6739 10.3466 16.6213 10.3568 16.5706C10.367 16.52 10.3964 16.4753 10.4388 16.4459L10.8288 16.1755L10.1988 16.5391C10.1542 16.5651 10.1013 16.5729 10.0511 16.5608C10.0008 16.5487 9.95725 16.5176 9.92943 16.4741C9.90162 16.4305 9.89172 16.3779 9.90183 16.3272C9.91193 16.2766 9.94125 16.2318 9.98364 16.2023L11.3644 15.2303L4.90884 18.9579C4.87848 18.9755 4.84396 18.9848 4.80884 18.9847Z" fill="#FCBE44"/>
  <path d="M6.56715 5.81504C6.52535 5.81462 6.48472 5.80112 6.45099 5.77642C6.41726 5.75172 6.39211 5.71707 6.37909 5.67734C6.36607 5.63762 6.36582 5.59481 6.37839 5.55493C6.39096 5.51506 6.41571 5.48012 6.44915 5.45504L8.20235 4.17544L7.15395 4.78064C7.11026 4.80555 7.05879 4.81309 7.00979 4.80176C6.96079 4.79042 6.91786 4.76103 6.88956 4.71946C6.86125 4.67789 6.84965 4.62717 6.85706 4.57743C6.86448 4.52768 6.89036 4.48256 6.92955 4.45104L8.77155 2.99144L7.72595 3.59464C7.68221 3.6197 7.63062 3.62732 7.5815 3.61597C7.53238 3.60462 7.48936 3.57514 7.46105 3.53343C7.43274 3.49172 7.42122 3.44085 7.42881 3.39102C7.43639 3.34118 7.46252 3.29604 7.50195 3.26464L8.46195 2.50904L8.16835 2.67824C8.125 2.70276 8.07406 2.71021 8.0255 2.69916C7.97694 2.6881 7.93425 2.65932 7.90579 2.61845C7.87732 2.57758 7.86513 2.52756 7.8716 2.47818C7.87807 2.42879 7.90273 2.3836 7.94075 2.35144L8.49675 1.89024C8.45516 1.89798 8.41218 1.89234 8.374 1.87411C8.33581 1.85589 8.30439 1.82602 8.28425 1.78881C8.26411 1.75161 8.2563 1.70897 8.26192 1.66703C8.26754 1.6251 8.28632 1.58603 8.31555 1.55544L8.78595 1.06464C8.75096 1.04673 8.72202 1.0189 8.70275 0.98464C8.67623 0.938704 8.66905 0.884115 8.68277 0.83288C8.6965 0.781646 8.73002 0.737962 8.77595 0.71144L9.57875 0.24864C9.62042 0.224561 9.66937 0.216312 9.71662 0.225406C9.76388 0.2345 9.80627 0.260326 9.83602 0.298149C9.86577 0.335971 9.88089 0.383253 9.8786 0.43132C9.87631 0.479387 9.85677 0.525017 9.82355 0.55984L9.57595 0.81824L10.294 0.40384C10.3373 0.378906 10.3885 0.371128 10.4373 0.38204C10.4861 0.392952 10.529 0.421762 10.5577 0.462787C10.5863 0.503812 10.5985 0.554074 10.5919 0.603658C10.5853 0.653242 10.5603 0.698548 10.522 0.73064L10.018 1.14824L10.6736 0.77024C10.7173 0.745644 10.7687 0.73838 10.8175 0.749888C10.8663 0.761395 10.909 0.790835 10.9372 0.832367C10.9653 0.8739 10.9768 0.924492 10.9694 0.97411C10.962 1.02373 10.9362 1.06875 10.8972 1.10024L9.93715 1.85664L10.9316 1.28144C10.9752 1.25653 11.0267 1.24899 11.0757 1.26032C11.1247 1.27166 11.1676 1.30105 11.196 1.34262C11.2243 1.38419 11.2359 1.43491 11.2284 1.48465C11.221 1.5344 11.1951 1.57952 11.156 1.61104L9.31595 3.07024L11.2564 1.95024C11.3007 1.92437 11.3533 1.91654 11.4033 1.92839C11.4532 1.94023 11.4967 1.97083 11.5247 2.01386C11.5528 2.05689 11.5631 2.10904 11.5538 2.15952C11.5444 2.21001 11.516 2.25495 11.4744 2.28504L9.71995 3.56504L11.5292 2.52144C11.5519 2.50697 11.5774 2.49725 11.604 2.49287C11.6306 2.4885 11.6578 2.48955 11.684 2.49597C11.7102 2.50238 11.7349 2.51403 11.7564 2.53022C11.778 2.5464 11.7961 2.56678 11.8096 2.59013C11.8231 2.61349 11.8317 2.63933 11.835 2.66611C11.8382 2.69288 11.836 2.72004 11.8285 2.74595C11.821 2.77185 11.8083 2.79597 11.7913 2.81685C11.7742 2.83773 11.7531 2.85494 11.7292 2.86744L6.66715 5.78824C6.63682 5.80596 6.60228 5.81521 6.56715 5.81504Z" fill="#FCBE44"/>
  <path d="M20.4695 18.0698C20.4255 18.0698 20.3827 18.0553 20.3478 18.0285C20.3128 18.0017 20.2877 17.9641 20.2763 17.9216C20.265 17.8791 20.2679 17.834 20.2848 17.7933C20.3016 17.7526 20.3314 17.7186 20.3695 17.6966L23.4495 15.919C23.4723 15.9046 23.4977 15.8948 23.5244 15.8905C23.551 15.8861 23.5782 15.8871 23.6044 15.8936C23.6306 15.9 23.6552 15.9116 23.6768 15.9278C23.6984 15.944 23.7165 15.9644 23.73 15.9877C23.7435 16.0111 23.7521 16.0369 23.7554 16.0637C23.7586 16.0905 23.7564 16.1176 23.7489 16.1435C23.7414 16.1694 23.7287 16.1936 23.7116 16.2144C23.6945 16.2353 23.6734 16.2525 23.6495 16.265L20.5695 18.043C20.5391 18.0606 20.5046 18.0698 20.4695 18.0698Z" fill="#4945D1"/>
  <path d="M15.8449 23.7875C15.8069 23.7874 15.7697 23.7764 15.7377 23.756C15.7056 23.7355 15.6801 23.7063 15.6641 23.6719C15.6481 23.6374 15.6422 23.5991 15.6471 23.5614C15.6521 23.5237 15.6677 23.4882 15.6921 23.4591L16.1273 22.9391L15.3197 23.4055C15.2768 23.4302 15.2263 23.4382 15.1779 23.4279C15.1295 23.4175 15.0866 23.3896 15.0576 23.3495C15.0286 23.3094 15.0155 23.26 15.0208 23.2107C15.0262 23.1615 15.0496 23.116 15.0865 23.0831L15.9265 22.3319L15.1017 22.8095C15.0582 22.8342 15.0071 22.8418 14.9583 22.8307C14.9096 22.8196 14.8668 22.7906 14.8383 22.7495C14.8099 22.7084 14.7978 22.6581 14.8046 22.6086C14.8114 22.5591 14.8364 22.5138 14.8749 22.4819L16.0425 21.5191L14.8917 22.1835C14.8472 22.2093 14.7946 22.2169 14.7446 22.2049C14.6947 22.1929 14.6512 22.1621 14.6234 22.119C14.5955 22.0758 14.5853 22.0236 14.5949 21.9731C14.6045 21.9227 14.6331 21.8778 14.6749 21.8479L15.0281 21.5939L14.7481 21.7539C14.7028 21.7798 14.6492 21.7869 14.5987 21.7738C14.5482 21.7608 14.5048 21.7285 14.4778 21.6839C14.4508 21.6393 14.4422 21.5859 14.454 21.535C14.4658 21.4842 14.497 21.44 14.5409 21.4119L15.6669 20.6951L14.6025 21.3119C14.5576 21.3361 14.5052 21.3422 14.4559 21.329C14.4067 21.3158 14.3644 21.2843 14.3375 21.241C14.3107 21.1976 14.3015 21.1457 14.3117 21.0957C14.3219 21.0458 14.3508 21.0016 14.3925 20.9723L17.6129 18.8483L14.3997 20.7035C14.3547 20.7286 14.3017 20.7355 14.2518 20.7225C14.2019 20.7096 14.159 20.6779 14.1319 20.634C14.1048 20.5902 14.0957 20.5376 14.1065 20.4872C14.1172 20.4367 14.147 20.3924 14.1897 20.3635L16.9845 18.5183L14.2065 20.1215C14.1618 20.1471 14.109 20.1545 14.0591 20.1422C14.0091 20.1299 13.9658 20.0988 13.9382 20.0553C13.9105 20.0119 13.9007 19.9595 13.9108 19.909C13.9208 19.8585 13.9499 19.8138 13.9921 19.7843L17.6985 17.2015L13.9537 19.3635C13.9091 19.3895 13.8561 19.3973 13.8059 19.3852C13.7557 19.3731 13.7121 19.342 13.6843 19.2985C13.6565 19.2549 13.6466 19.2023 13.6567 19.1517C13.6668 19.101 13.6961 19.0562 13.7385 19.0267L16.9693 16.7515L13.7105 18.6315C13.6654 18.6595 13.6111 18.6686 13.5594 18.6566C13.5077 18.6446 13.4629 18.6125 13.4349 18.5675C13.4068 18.5224 13.3978 18.4681 13.4098 18.4164C13.4218 18.3647 13.4538 18.3199 13.4989 18.2919L14.8953 17.3615L13.5457 18.1407C13.5009 18.1663 13.448 18.1736 13.398 18.1611C13.348 18.1486 13.3048 18.1173 13.2773 18.0737C13.2498 18.0302 13.2402 17.9776 13.2505 17.9271C13.2607 17.8766 13.2901 17.832 13.3325 17.8027L15.0361 16.6323L13.3645 17.5971C13.3205 17.6216 13.2688 17.6287 13.2198 17.6168C13.1709 17.6049 13.1282 17.575 13.1003 17.533C13.0725 17.491 13.0615 17.44 13.0696 17.3902C13.0777 17.3405 13.1043 17.2957 13.1441 17.2647L15.6845 15.3371L13.1077 16.8251C13.0638 16.851 13.0117 16.8593 12.962 16.8481C12.9122 16.8369 12.8687 16.8072 12.8401 16.765C12.8116 16.7227 12.8002 16.6712 12.8084 16.6209C12.8166 16.5706 12.8436 16.5253 12.8841 16.4943L15.0069 14.8311L12.8569 16.0711C12.8128 16.0958 12.761 16.1029 12.7119 16.091C12.6628 16.0792 12.62 16.0491 12.5922 16.007C12.5643 15.9648 12.5534 15.9137 12.5617 15.8638C12.57 15.814 12.5969 15.7691 12.6369 15.7383L13.8481 14.8283L12.6693 15.5083C12.6254 15.5337 12.5736 15.5415 12.5242 15.5301C12.4748 15.5187 12.4316 15.4891 12.4033 15.4471C12.3749 15.4051 12.3636 15.3539 12.3715 15.3038C12.3795 15.2538 12.4061 15.2086 12.4461 15.1775L13.5117 14.3435L12.4797 14.9395C12.4371 14.9626 12.3876 14.9695 12.3404 14.9589C12.2931 14.9483 12.2513 14.9209 12.2228 14.8818C12.1942 14.8427 12.1807 14.7946 12.185 14.7463C12.1892 14.6981 12.2108 14.653 12.2457 14.6195L13.4181 13.5615L12.2457 14.2383C12.2026 14.263 12.1518 14.2709 12.1033 14.2602C12.0547 14.2496 12.0119 14.2213 11.9831 14.1808C11.9543 14.1403 11.9416 14.0906 11.9474 14.0412C11.9533 13.9919 11.9774 13.9465 12.0149 13.9139L12.5657 13.4363L12.0733 13.7207C12.0329 13.744 11.9857 13.7526 11.9397 13.7448C11.8937 13.737 11.8519 13.7134 11.8215 13.678C11.7911 13.6427 11.7739 13.5978 11.7731 13.5512C11.7723 13.5046 11.7878 13.4591 11.8169 13.4227L12.4789 12.5963L11.8249 12.9743C11.7872 12.9966 11.7433 13.0058 11.6998 13.0005C11.6564 12.9951 11.616 12.9755 11.5849 12.9447C11.5537 12.9144 11.5331 12.8749 11.5264 12.8319C11.5197 12.789 11.5272 12.745 11.5477 12.7067L11.8501 12.1419L11.8125 12.1631C11.7668 12.187 11.7136 12.1923 11.6641 12.1779C11.6145 12.1636 11.5724 12.1306 11.5466 12.086C11.5208 12.0413 11.5132 11.9884 11.5255 11.9383C11.5378 11.8882 11.5689 11.8448 11.6125 11.8171L12.2573 11.4447C12.2949 11.4231 12.3386 11.4143 12.3817 11.4197C12.4247 11.4251 12.4649 11.4443 12.496 11.4746C12.5272 11.5048 12.5477 11.5443 12.5544 11.5872C12.5611 11.6301 12.5537 11.674 12.5333 11.7123L12.2309 12.2775L13.1997 11.7175C13.24 11.6941 13.2873 11.6856 13.3333 11.6934C13.3793 11.7012 13.4211 11.7248 13.4515 11.7601C13.4819 11.7955 13.499 11.8403 13.4999 11.887C13.5007 11.9336 13.4852 11.9791 13.4561 12.0155L12.7945 12.8415L14.1777 12.0415C14.2207 12.0168 14.2714 12.009 14.3199 12.0196C14.3683 12.0302 14.4111 12.0584 14.44 12.0988C14.4688 12.1392 14.4815 12.1889 14.4758 12.2381C14.4701 12.2874 14.4462 12.3328 14.4089 12.3655L13.8569 12.8455L14.8569 12.2691C14.8994 12.246 14.9489 12.2391 14.9962 12.2497C15.0434 12.2603 15.0852 12.2877 15.1138 12.3268C15.1424 12.3659 15.1558 12.414 15.1516 12.4622C15.1474 12.5105 15.1258 12.5555 15.0909 12.5891L13.9185 13.6471L15.7777 12.5743C15.8214 12.55 15.8727 12.543 15.9214 12.5547C15.9701 12.5663 16.0126 12.5958 16.0406 12.6373C16.0685 12.6788 16.08 12.7293 16.0725 12.7788C16.0651 12.8283 16.0394 12.8732 16.0005 12.9047L14.9349 13.7387L16.5225 12.8235C16.5665 12.7988 16.6183 12.7916 16.6674 12.8035C16.7166 12.8154 16.7593 12.8454 16.7872 12.8876C16.8151 12.9297 16.8259 12.9809 16.8176 13.0307C16.8094 13.0806 16.7825 13.1254 16.7425 13.1563L15.5305 14.0655L17.2577 13.0687C17.3015 13.0439 17.3529 13.0366 17.4019 13.0481C17.4508 13.0597 17.4936 13.0892 17.5218 13.1309C17.5499 13.1725 17.5614 13.2233 17.5538 13.273C17.5462 13.3227 17.5202 13.3677 17.4809 13.3991L15.3609 15.0615L18.2449 13.3967C18.2889 13.3721 18.3405 13.3651 18.3895 13.377C18.4385 13.3889 18.4812 13.4188 18.509 13.4608C18.5369 13.5028 18.5478 13.5538 18.5397 13.6035C18.5316 13.6533 18.505 13.6981 18.4653 13.7291L15.9225 15.6579L19.2545 13.7339C19.2992 13.7083 19.3521 13.701 19.4021 13.7135C19.4521 13.7259 19.4954 13.7572 19.5229 13.8008C19.5504 13.8444 19.56 13.8969 19.5497 13.9474C19.5394 13.9979 19.51 14.0425 19.4677 14.0719L17.7625 15.2415L19.9625 13.9703C20.0074 13.9451 20.0602 13.9382 20.11 13.951C20.1599 13.9638 20.2029 13.9953 20.2301 14.039C20.2573 14.0827 20.2666 14.1352 20.2561 14.1856C20.2456 14.2359 20.2161 14.2803 20.1737 14.3095L18.7829 15.2415L20.6125 14.1851C20.6571 14.159 20.7101 14.1512 20.7603 14.1634C20.8105 14.1755 20.8541 14.2066 20.8819 14.2501C20.9097 14.2936 20.9196 14.3462 20.9095 14.3969C20.8994 14.4476 20.8701 14.4923 20.8277 14.5219L17.5949 16.8015L21.5701 14.5071C21.6147 14.4815 21.6675 14.474 21.7175 14.4864C21.7675 14.4987 21.8108 14.5298 21.8384 14.5732C21.866 14.6167 21.8758 14.6691 21.8658 14.7196C21.8557 14.7701 21.8266 14.8147 21.7845 14.8443L18.0801 17.4255L22.5625 14.8359C22.6075 14.8098 22.6609 14.8022 22.7114 14.8149C22.7619 14.8276 22.8055 14.8594 22.8329 14.9037C22.8603 14.9479 22.8693 15.0011 22.8581 15.0519C22.8469 15.1028 22.8163 15.1472 22.7729 15.1759L19.9757 17.0227L23.2501 15.1323C23.2951 15.1062 23.3485 15.0986 23.399 15.1113C23.4495 15.124 23.4931 15.1558 23.5205 15.2001C23.5479 15.2443 23.5569 15.2975 23.5457 15.3483C23.5345 15.3992 23.5039 15.4436 23.4605 15.4723L20.2397 17.5959L23.4881 15.7215C23.5332 15.697 23.5861 15.6908 23.6357 15.7043C23.6852 15.7177 23.7277 15.7497 23.7544 15.7936C23.781 15.8375 23.7897 15.89 23.7787 15.9402C23.7677 15.9903 23.7379 16.0343 23.6953 16.0631L18.5725 19.3215C18.5958 19.3643 18.6027 19.4141 18.5918 19.4616C18.581 19.5091 18.5532 19.551 18.5137 19.5795L18.0177 19.9363C18.0533 19.9325 18.0893 19.9384 18.1219 19.9533C18.1545 19.9683 18.1824 19.9917 18.2029 20.0211C18.2314 20.0624 18.2434 20.1129 18.2365 20.1626C18.2295 20.2123 18.2041 20.2576 18.1653 20.2895L16.9957 21.2523L17.4149 21.0123C17.4577 20.9875 17.5083 20.9795 17.5567 20.9899C17.6051 21.0002 17.6479 21.0282 17.6769 21.0683C17.706 21.1084 17.7191 21.1578 17.7137 21.207C17.7084 21.2562 17.685 21.3017 17.6481 21.3347L16.8081 22.0859L16.9105 22.0271C16.9511 22.0041 16.9985 21.9961 17.0445 22.0044C17.0904 22.0128 17.132 22.0369 17.162 22.0727C17.192 22.1084 17.2086 22.1536 17.2088 22.2002C17.209 22.2469 17.1929 22.2922 17.1633 22.3283L16.5801 23.0243C16.6145 23.0386 16.6441 23.0623 16.6658 23.0926C16.6874 23.1229 16.7002 23.1587 16.7026 23.1959C16.705 23.2331 16.697 23.2702 16.6794 23.303C16.6619 23.3359 16.6355 23.3632 16.6033 23.3819L15.9469 23.7607C15.916 23.7788 15.8807 23.788 15.8449 23.7875Z" fill="#AA8652"/>
  <path d="M2.18332 10.3743C2.81372 11.0359 3.51412 11.6439 4.12892 12.3139C2.61092 19.8919 2.87052 20.4415 9.73132 16.4415C10.9009 17.0732 12.0707 17.7047 13.2405 18.3359C14.1045 19.6915 14.1605 24.9563 16.5857 23.4247C17.6797 22.0183 18.0397 20.0247 19.1777 18.6603C20.5613 17.8871 22.0577 17.2819 23.4465 16.5095C25.9525 14.7203 16.6373 13.1983 15.5149 12.4215C15.5073 12.3539 15.5045 12.2335 15.4781 12.2099C21.0845 6.94306 21.1465 6.49226 13.3777 5.61946C10.1977 -1.66574 9.43972 -1.58454 6.26652 5.64666C2.84652 6.17066 -2.98508 6.15666 2.18332 10.3743ZM21.0293 14.6475C26.5061 15.9767 20.4493 17.4475 18.6041 18.7143C17.8297 19.6763 17.4689 20.9639 16.8441 22.0343C16.5241 22.8639 15.8377 24.3243 15.3277 22.7011C14.1992 19.3072 13.0681 15.914 11.9345 12.5215C11.6713 10.8591 14.1693 12.5807 14.9549 12.6251C16.9525 13.2955 19.0133 13.9711 21.0293 14.6475ZM13.3557 5.61906C13.3509 5.61906 13.3453 5.61906 13.3405 5.61906C13.2793 5.62426 13.3117 5.59346 13.3557 5.61906ZM1.40692 6.67746C8.39972 5.66626 5.96172 6.74026 9.20972 0.797457C9.95012 0.117457 10.6577 1.08946 10.8685 1.76786C11.5677 2.73586 12.2597 5.72466 13.2517 5.97186C21.1781 6.87226 19.8425 7.29026 14.9429 12.2295C8.99892 9.66146 12.2301 14.6627 13.0253 17.6899C11.8821 17.2931 10.7657 15.9739 9.55132 16.1723C3.16612 19.7847 3.34732 19.7087 4.65012 12.5939C5.01252 11.0207 -1.43748 8.11506 1.40692 6.67746Z" fill="#262626"/>
  </g>
  <defs>
  <clipPath id="clip0_280_423">
  <rect width="24" height="24" fill="white" transform="translate(0.00244141 0.00146484)"/>
  </clipPath>
  </defs>
  </svg>
  