<svg width="192" height="193" viewBox="0 0 192 193" fill="none" xmlns="http://www.w3.org/2000/svg">
  <path fill-rule="evenodd" clip-rule="evenodd" d="M106.385 175.042C90.9938 166.62 92.9571 139.603 77.2279 131.876C54.5511 120.737 18.5244 145.959 4.05298 124.773C-8.51658 106.372 21.0994 85.0443 31.861 65.4596C40.1006 50.4647 43.3506 28.2212 59.507 23.8545C76.4585 19.2728 89.1471 48.5682 106.385 45.3173C131.069 40.662 144.605 -6.86955 167.613 3.46631C188.194 12.7114 165.817 48.0761 163.912 71.1599C162.864 83.853 158.059 95.3889 158.979 108.093C160.876 134.286 188.093 163.365 172.066 183.766C157.814 201.908 126.378 185.98 106.385 175.042Z" stroke="#E8B425" stroke-width="2"/>
  <path fill-rule="evenodd" clip-rule="evenodd" d="M74 167.396C56.0091 164.382 30.2213 180.767 20.0641 167.396C9.64971 153.687 23.7724 135.76 23.6617 119.286C23.5964 109.565 20.1682 100.771 19.5511 91.0651C18.4993 74.5227 10.1285 57.3073 18.7848 42.5819C29.564 24.2452 49.4103 -4.59751 71.1106 3.35645C97.3108 12.9598 88.5197 39.9924 112 54C136.923 68.868 167.823 52.452 187.268 72.6525C203.287 89.2929 163.082 109.096 154.415 129.506C146.34 148.523 157.425 175.454 138.606 187.256C119.763 199.073 96.7512 171.208 74 167.396Z" stroke="#AA8652" stroke-width="2"/>
  </svg>
  