<svg width="192" height="192" viewBox="0 0 192 192" fill="none" xmlns="http://www.w3.org/2000/svg">
  <path fill-rule="evenodd" clip-rule="evenodd" d="M127.073 33.7266C143.49 37.9686 162.446 35.0125 174.863 44.8225C187.474 54.785 191.517 69.8026 190.948 84.1879C190.399 98.0752 179.313 108.61 171.848 121.07C157.162 145.585 159.982 187.271 127.073 190.81C95.4658 194.209 90.8773 151.127 68.8517 132.146C47.8669 114.063 9.93024 108.609 3.34442 84.1879C-3.94432 57.1607 5.47643 21.1221 35.5976 8.83752C65.5144 -3.36363 95.2209 25.4962 127.073 33.7266Z" stroke="#AA8652" stroke-width="2"/>
  <path fill-rule="evenodd" clip-rule="evenodd" d="M115.753 188.109C94.7826 198.983 62.5834 176.92 51.7503 159.449C41.178 142.398 57.2895 122.478 47.9998 105C37.3337 84.9321 1.23449 85.6133 1.00047 63.9645C0.799442 45.368 43.7378 48.5115 63.5514 37.6413C83.2316 26.8443 91.5066 1.49079 115.753 1.00871C139.892 0.528763 157.16 19.9384 169.974 35.5254C179.94 47.6485 174.759 62.8511 178.157 76.9182C180.93 88.3982 197.7 101.192 188.022 110.243C177.013 120.538 147.454 104.2 137.392 115.042C117.994 135.942 143.532 173.705 115.753 188.109Z" stroke="#E8B425" stroke-width="2"/>
  </svg>
  