<svg width="193" height="192" viewBox="0 0 193 192" fill="none" xmlns="http://www.w3.org/2000/svg">
  <path fill-rule="evenodd" clip-rule="evenodd" d="M84.4998 24C103.636 25.7936 131.895 14.0489 146.914 27.1708C163.369 41.5479 172.686 63.809 173.825 86.8404C175.028 111.153 170.218 137.76 153.156 153.352C136.894 168.213 126.507 156.247 105.5 153.352C87.8032 150.913 58.0958 152.166 45.3478 138.493C32.4473 124.657 25.9532 106.386 23.1614 86.8404C19.6886 62.5283 11.105 36.3123 27.4999 19.5C43.8518 2.73163 62.1884 21.9088 84.4998 24Z" stroke="#E8B425" stroke-width="2"/>
  <path fill-rule="evenodd" clip-rule="evenodd" d="M99.2241 25.6617C111.806 29.9142 124.347 30.2612 136.822 34.8793C155.52 41.8018 183.666 38.8056 190.118 59.3111C196.526 79.6791 167.858 89.9726 163.557 111C158.439 136.023 185.338 180.005 163.557 189.171C138.63 199.661 125.303 161.868 99.2241 155.626C82.2259 151.558 67.5618 172.073 52.4579 162.581C38.0993 153.557 40.7795 127.05 33 111C22.0197 88.3471 3.50433 82.2892 1.15882 56.7485C-1.0055 33.1808 19.3131 8.71765 40.0091 2.15697C60.6786 -4.39529 78.6622 18.7118 99.2241 25.6617Z" stroke="#AA8652" stroke-width="2"/>
  </svg>
  