<svg width="192" height="192" viewBox="0 0 192 192" fill="none" xmlns="http://www.w3.org/2000/svg">
<path fill-rule="evenodd" clip-rule="evenodd" d="M102.733 2.14352C125.751 1.53579 150.97 -3.30618 168.429 12.9071C186.657 29.8349 192.396 57.9577 190.724 83.8581C189.159 108.1 175.95 128.568 159.863 145.558C143.999 162.313 124.421 171.731 102.733 176.79C72.7079 183.794 35.5423 203.334 14.1256 179.553C-7.31518 155.745 5.50006 104.5 8.00009 94.5C8.00009 61.5 23.198 32.8659 40.172 16.2933C56.6021 0.251637 80.5904 2.72811 102.733 2.14352Z" stroke="#AA8652" stroke-width="2" stroke-linejoin="round"/>
<path fill-rule="evenodd" clip-rule="evenodd" d="M101.387 190.308C79.8887 193.005 61.6588 176.853 45.0084 162.659C25.9846 146.442 3.23188 130.156 1.17846 104.885C-0.966886 78.483 16.5817 55.4476 34.7665 36.6157C53.0689 17.662 75.4193 -0.595586 101.387 1.11101C126.453 2.75839 143.393 25.5123 159.976 44.8447C175.08 62.4525 193.604 81.6721 190.403 104.885C187.351 127.018 161.389 134.778 145.467 150.057C130.534 164.388 121.694 187.761 101.387 190.308Z" stroke="#E8B425" stroke-width="2"/>
</svg>
